<svg xmlns="http://www.w3.org/2000/svg" xmlns:xlink="http://www.w3.org/1999/xlink" contentStyleType="text/css" height="1099px" preserveAspectRatio="none" style="width:3178px;height:1099px;background:#FFFFFF;" version="1.1" viewBox="0 0 3178 1099" width="3178px" zoomAndPan="magnify"><defs/><g><!--cluster TTEngineBundle--><g id="cluster_TTEngineBundle"><rect fill="none" height="1086" rx="2.5" ry="2.5" style="stroke:#181818;stroke-width:1.0;" width="1549" x="7" y="7"/><text fill="#000000" font-family="sans-serif" font-size="14" font-weight="bold" lengthAdjust="spacing" textLength="127.832" x="717.584" y="21.9951">TTEngineBundle</text></g><!--cluster TTProtocolsBundle--><g id="cluster_TTProtocolsBundle"><rect fill="none" height="99" rx="2.5" ry="2.5" style="stroke:#181818;stroke-width:1.0;" width="1084" x="1580" y="994"/><text fill="#000000" font-family="sans-serif" font-size="14" font-weight="bold" lengthAdjust="spacing" textLength="148.1621" x="2047.9189" y="1008.9951">TTProtocolsBundle</text></g><!--cluster TTContactsBundle--><g id="cluster_TTContactsBundle"><rect fill="none" height="99" rx="2.5" ry="2.5" style="stroke:#181818;stroke-width:1.0;" width="401" x="2404" y="871"/><text fill="#000000" font-family="sans-serif" font-size="14" font-weight="bold" lengthAdjust="spacing" textLength="143.3428" x="2532.8286" y="885.9951">TTContactsBundle</text></g><!--cluster TTChatBundle--><g id="cluster_TTChatBundle"><rect fill="none" height="99" rx="2.5" ry="2.5" style="stroke:#181818;stroke-width:1.0;" width="343" x="2829" y="871"/><text fill="#000000" font-family="sans-serif" font-size="14" font-weight="bold" lengthAdjust="spacing" textLength="110.4004" x="2945.2998" y="885.9951">TTChatBundle</text></g><!--cluster TTTextBoxBundle--><g id="cluster_TTTextBoxBundle"><rect fill="none" height="99" rx="2.5" ry="2.5" style="stroke:#181818;stroke-width:1.0;" width="393" x="2106" y="331"/><text fill="#000000" font-family="sans-serif" font-size="14" font-weight="bold" lengthAdjust="spacing" textLength="138.1064" x="2233.4468" y="345.9951">TTTextBoxBundle</text></g><!--cluster TTUtilsBundle--><g id="cluster_TTUtilsBundle"><rect fill="none" height="99" rx="2.5" ry="2.5" style="stroke:#181818;stroke-width:1.0;" width="750" x="1580" y="871"/><text fill="#000000" font-family="sans-serif" font-size="14" font-weight="bold" lengthAdjust="spacing" textLength="110.0107" x="1899.9946" y="885.9951">TTUtilsBundle</text></g><!--class TTEngine--><g id="elem_TTEngine"><rect codeLine="2" fill="#F1F1F1" height="48" id="TTEngine" rx="2.5" ry="2.5" style="stroke:#181818;stroke-width:0.5;" width="97.085" x="1282.46" y="42"/><ellipse cx="1297.46" cy="58" fill="#ADD1B2" rx="11" ry="11" style="stroke:#181818;stroke-width:1.0;"/><path d="M1300.4288,63.6406 Q1299.8506,63.9375 1299.21,64.0781 Q1298.5694,64.2344 1297.8663,64.2344 Q1295.3663,64.2344 1294.0381,62.5938 Q1292.7256,60.9375 1292.7256,57.8125 Q1292.7256,54.6875 1294.0381,53.0313 Q1295.3663,51.375 1297.8663,51.375 Q1298.5694,51.375 1299.21,51.5313 Q1299.8663,51.6875 1300.4288,51.9844 L1300.4288,54.7031 Q1299.8038,54.125 1299.21,53.8594 Q1298.6163,53.5781 1297.9913,53.5781 Q1296.6475,53.5781 1295.96,54.6563 Q1295.2725,55.7188 1295.2725,57.8125 Q1295.2725,59.9063 1295.96,60.9844 Q1296.6475,62.0469 1297.9913,62.0469 Q1298.6163,62.0469 1299.21,61.7813 Q1299.8038,61.5 1300.4288,60.9219 L1300.4288,63.6406 Z " fill="#000000"/><text fill="#000000" font-family="sans-serif" font-size="14" lengthAdjust="spacing" textLength="65.085" x="1311.46" y="62.8467">TTEngine</text><line style="stroke:#181818;stroke-width:0.5;" x1="1283.46" x2="1378.545" y1="74" y2="74"/><line style="stroke:#181818;stroke-width:0.5;" x1="1283.46" x2="1378.545" y1="82" y2="82"/></g><!--class TTEngineSettings--><g id="elem_TTEngineSettings"><rect codeLine="3" fill="#F1F1F1" height="48" id="TTEngineSettings" rx="2.5" ry="2.5" style="stroke:#181818;stroke-width:0.5;" width="154.5068" x="1385.75" y="150"/><ellipse cx="1400.75" cy="166" fill="#ADD1B2" rx="11" ry="11" style="stroke:#181818;stroke-width:1.0;"/><path d="M1403.7188,171.6406 Q1403.1406,171.9375 1402.5,172.0781 Q1401.8594,172.2344 1401.1563,172.2344 Q1398.6563,172.2344 1397.3281,170.5938 Q1396.0156,168.9375 1396.0156,165.8125 Q1396.0156,162.6875 1397.3281,161.0313 Q1398.6563,159.375 1401.1563,159.375 Q1401.8594,159.375 1402.5,159.5313 Q1403.1563,159.6875 1403.7188,159.9844 L1403.7188,162.7031 Q1403.0938,162.125 1402.5,161.8594 Q1401.9063,161.5781 1401.2813,161.5781 Q1399.9375,161.5781 1399.25,162.6563 Q1398.5625,163.7188 1398.5625,165.8125 Q1398.5625,167.9063 1399.25,168.9844 Q1399.9375,170.0469 1401.2813,170.0469 Q1401.9063,170.0469 1402.5,169.7813 Q1403.0938,169.5 1403.7188,168.9219 L1403.7188,171.6406 Z " fill="#000000"/><text fill="#000000" font-family="sans-serif" font-size="14" lengthAdjust="spacing" textLength="122.5068" x="1414.75" y="170.8467">TTEngineSettings</text><line style="stroke:#181818;stroke-width:0.5;" x1="1386.75" x2="1539.2568" y1="182" y2="182"/><line style="stroke:#181818;stroke-width:0.5;" x1="1386.75" x2="1539.2568" y1="190" y2="190"/></g><!--class TTNeighborsServiceChat--><g id="elem_TTNeighborsServiceChat"><rect codeLine="4" fill="#F1F1F1" height="48" id="TTNeighborsServiceChat" rx="2.5" ry="2.5" style="stroke:#181818;stroke-width:0.5;" width="204.7988" x="1224.6" y="366"/><ellipse cx="1239.6" cy="382" fill="#ADD1B2" rx="11" ry="11" style="stroke:#181818;stroke-width:1.0;"/><path d="M1242.5688,387.6406 Q1241.9906,387.9375 1241.35,388.0781 Q1240.7094,388.2344 1240.0063,388.2344 Q1237.5063,388.2344 1236.1781,386.5938 Q1234.8656,384.9375 1234.8656,381.8125 Q1234.8656,378.6875 1236.1781,377.0313 Q1237.5063,375.375 1240.0063,375.375 Q1240.7094,375.375 1241.35,375.5313 Q1242.0063,375.6875 1242.5688,375.9844 L1242.5688,378.7031 Q1241.9438,378.125 1241.35,377.8594 Q1240.7563,377.5781 1240.1313,377.5781 Q1238.7875,377.5781 1238.1,378.6563 Q1237.4125,379.7188 1237.4125,381.8125 Q1237.4125,383.9063 1238.1,384.9844 Q1238.7875,386.0469 1240.1313,386.0469 Q1240.7563,386.0469 1241.35,385.7813 Q1241.9438,385.5 1242.5688,384.9219 L1242.5688,387.6406 Z " fill="#000000"/><text fill="#000000" font-family="sans-serif" font-size="14" lengthAdjust="spacing" textLength="172.7988" x="1253.6" y="386.8467">TTNeighborsServiceChat</text><line style="stroke:#181818;stroke-width:0.5;" x1="1225.6" x2="1428.3988" y1="398" y2="398"/><line style="stroke:#181818;stroke-width:0.5;" x1="1225.6" x2="1428.3988" y1="406" y2="406"/></g><!--class TTNeighborsServiceDiscovery--><g id="elem_TTNeighborsServiceDiscovery"><rect codeLine="5" fill="#F1F1F1" height="48" id="TTNeighborsServiceDiscovery" rx="2.5" ry="2.5" style="stroke:#181818;stroke-width:0.5;" width="241.248" x="1135.38" y="690"/><ellipse cx="1150.38" cy="706" fill="#ADD1B2" rx="11" ry="11" style="stroke:#181818;stroke-width:1.0;"/><path d="M1153.3488,711.6406 Q1152.7706,711.9375 1152.13,712.0781 Q1151.4894,712.2344 1150.7863,712.2344 Q1148.2863,712.2344 1146.9581,710.5938 Q1145.6456,708.9375 1145.6456,705.8125 Q1145.6456,702.6875 1146.9581,701.0313 Q1148.2863,699.375 1150.7863,699.375 Q1151.4894,699.375 1152.13,699.5313 Q1152.7863,699.6875 1153.3488,699.9844 L1153.3488,702.7031 Q1152.7238,702.125 1152.13,701.8594 Q1151.5363,701.5781 1150.9113,701.5781 Q1149.5675,701.5781 1148.88,702.6563 Q1148.1925,703.7188 1148.1925,705.8125 Q1148.1925,707.9063 1148.88,708.9844 Q1149.5675,710.0469 1150.9113,710.0469 Q1151.5363,710.0469 1152.13,709.7813 Q1152.7238,709.5 1153.3488,708.9219 L1153.3488,711.6406 Z " fill="#000000"/><text fill="#000000" font-family="sans-serif" font-size="14" lengthAdjust="spacing" textLength="209.248" x="1164.38" y="710.8467">TTNeighborsServiceDiscovery</text><line style="stroke:#181818;stroke-width:0.5;" x1="1136.38" x2="1375.628" y1="722" y2="722"/><line style="stroke:#181818;stroke-width:0.5;" x1="1136.38" x2="1375.628" y1="730" y2="730"/></g><!--class TTServer--><g id="elem_TTServer"><rect codeLine="6" fill="#F1F1F1" height="48" id="TTServer" rx="2.5" ry="2.5" style="stroke:#181818;stroke-width:0.5;" width="95.0137" x="1264.49" y="582"/><ellipse cx="1279.49" cy="598" fill="#ADD1B2" rx="11" ry="11" style="stroke:#181818;stroke-width:1.0;"/><path d="M1282.4588,603.6406 Q1281.8806,603.9375 1281.24,604.0781 Q1280.5994,604.2344 1279.8963,604.2344 Q1277.3963,604.2344 1276.0681,602.5938 Q1274.7556,600.9375 1274.7556,597.8125 Q1274.7556,594.6875 1276.0681,593.0313 Q1277.3963,591.375 1279.8963,591.375 Q1280.5994,591.375 1281.24,591.5313 Q1281.8963,591.6875 1282.4588,591.9844 L1282.4588,594.7031 Q1281.8338,594.125 1281.24,593.8594 Q1280.6463,593.5781 1280.0213,593.5781 Q1278.6775,593.5781 1277.99,594.6563 Q1277.3025,595.7188 1277.3025,597.8125 Q1277.3025,599.9063 1277.99,600.9844 Q1278.6775,602.0469 1280.0213,602.0469 Q1280.6463,602.0469 1281.24,601.7813 Q1281.8338,601.5 1282.4588,600.9219 L1282.4588,603.6406 Z " fill="#000000"/><text fill="#000000" font-family="sans-serif" font-size="14" lengthAdjust="spacing" textLength="63.0137" x="1293.49" y="602.8467">TTServer</text><line style="stroke:#181818;stroke-width:0.5;" x1="1265.49" x2="1358.5037" y1="614" y2="614"/><line style="stroke:#181818;stroke-width:0.5;" x1="1265.49" x2="1358.5037" y1="622" y2="622"/></g><!--class TTNeighborsStub--><g id="elem_TTNeighborsStub"><rect codeLine="7" fill="#F1F1F1" height="48" id="TTNeighborsStub" rx="2.5" ry="2.5" style="stroke:#181818;stroke-width:0.5;" width="152.4766" x="831.76" y="906"/><ellipse cx="846.76" cy="922" fill="#ADD1B2" rx="11" ry="11" style="stroke:#181818;stroke-width:1.0;"/><path d="M849.7288,927.6406 Q849.1506,927.9375 848.51,928.0781 Q847.8694,928.2344 847.1663,928.2344 Q844.6663,928.2344 843.3381,926.5938 Q842.0256,924.9375 842.0256,921.8125 Q842.0256,918.6875 843.3381,917.0313 Q844.6663,915.375 847.1663,915.375 Q847.8694,915.375 848.51,915.5313 Q849.1663,915.6875 849.7288,915.9844 L849.7288,918.7031 Q849.1038,918.125 848.51,917.8594 Q847.9163,917.5781 847.2913,917.5781 Q845.9475,917.5781 845.26,918.6563 Q844.5725,919.7188 844.5725,921.8125 Q844.5725,923.9063 845.26,924.9844 Q845.9475,926.0469 847.2913,926.0469 Q847.9163,926.0469 848.51,925.7813 Q849.1038,925.5 849.7288,924.9219 L849.7288,927.6406 Z " fill="#000000"/><text fill="#000000" font-family="sans-serif" font-size="14" lengthAdjust="spacing" textLength="120.4766" x="860.76" y="926.8467">TTNeighborsStub</text><line style="stroke:#181818;stroke-width:0.5;" x1="832.76" x2="983.2366" y1="938" y2="938"/><line style="stroke:#181818;stroke-width:0.5;" x1="832.76" x2="983.2366" y1="946" y2="946"/></g><!--class TTBroadcasterChat--><g id="elem_TTBroadcasterChat"><rect codeLine="8" fill="#F1F1F1" height="48" id="TTBroadcasterChat" rx="2.5" ry="2.5" style="stroke:#181818;stroke-width:0.5;" width="166.6406" x="1336.68" y="474"/><ellipse cx="1351.68" cy="490" fill="#ADD1B2" rx="11" ry="11" style="stroke:#181818;stroke-width:1.0;"/><path d="M1354.6488,495.6406 Q1354.0706,495.9375 1353.43,496.0781 Q1352.7894,496.2344 1352.0863,496.2344 Q1349.5863,496.2344 1348.2581,494.5938 Q1346.9456,492.9375 1346.9456,489.8125 Q1346.9456,486.6875 1348.2581,485.0313 Q1349.5863,483.375 1352.0863,483.375 Q1352.7894,483.375 1353.43,483.5313 Q1354.0863,483.6875 1354.6488,483.9844 L1354.6488,486.7031 Q1354.0238,486.125 1353.43,485.8594 Q1352.8363,485.5781 1352.2113,485.5781 Q1350.8675,485.5781 1350.18,486.6563 Q1349.4925,487.7188 1349.4925,489.8125 Q1349.4925,491.9063 1350.18,492.9844 Q1350.8675,494.0469 1352.2113,494.0469 Q1352.8363,494.0469 1353.43,493.7813 Q1354.0238,493.5 1354.6488,492.9219 L1354.6488,495.6406 Z " fill="#000000"/><text fill="#000000" font-family="sans-serif" font-size="14" lengthAdjust="spacing" textLength="134.6406" x="1365.68" y="494.8467">TTBroadcasterChat</text><line style="stroke:#181818;stroke-width:0.5;" x1="1337.68" x2="1502.3206" y1="506" y2="506"/><line style="stroke:#181818;stroke-width:0.5;" x1="1337.68" x2="1502.3206" y1="514" y2="514"/></g><!--class TTBroadcasterDiscovery--><g id="elem_TTBroadcasterDiscovery"><rect codeLine="9" fill="#F1F1F1" height="48" id="TTBroadcasterDiscovery" rx="2.5" ry="2.5" style="stroke:#181818;stroke-width:0.5;" width="203.0898" x="1285.46" y="798"/><ellipse cx="1300.46" cy="814" fill="#ADD1B2" rx="11" ry="11" style="stroke:#181818;stroke-width:1.0;"/><path d="M1303.4288,819.6406 Q1302.8506,819.9375 1302.21,820.0781 Q1301.5694,820.2344 1300.8663,820.2344 Q1298.3663,820.2344 1297.0381,818.5938 Q1295.7256,816.9375 1295.7256,813.8125 Q1295.7256,810.6875 1297.0381,809.0313 Q1298.3663,807.375 1300.8663,807.375 Q1301.5694,807.375 1302.21,807.5313 Q1302.8663,807.6875 1303.4288,807.9844 L1303.4288,810.7031 Q1302.8038,810.125 1302.21,809.8594 Q1301.6163,809.5781 1300.9913,809.5781 Q1299.6475,809.5781 1298.96,810.6563 Q1298.2725,811.7188 1298.2725,813.8125 Q1298.2725,815.9063 1298.96,816.9844 Q1299.6475,818.0469 1300.9913,818.0469 Q1301.6163,818.0469 1302.21,817.7813 Q1302.8038,817.5 1303.4288,816.9219 L1303.4288,819.6406 Z " fill="#000000"/><text fill="#000000" font-family="sans-serif" font-size="14" lengthAdjust="spacing" textLength="171.0898" x="1314.46" y="818.8467">TTBroadcasterDiscovery</text><line style="stroke:#181818;stroke-width:0.5;" x1="1286.46" x2="1487.5498" y1="830" y2="830"/><line style="stroke:#181818;stroke-width:0.5;" x1="1286.46" x2="1487.5498" y1="838" y2="838"/></g><!--class TTAbstractFactory--><g id="elem_TTAbstractFactory"><rect codeLine="10" fill="#F1F1F1" height="48" id="TTAbstractFactory" rx="2.5" ry="2.5" style="stroke:#181818;stroke-width:0.5;" width="160.2969" x="1379.85" y="258"/><ellipse cx="1394.85" cy="274" fill="#ADD1B2" rx="11" ry="11" style="stroke:#181818;stroke-width:1.0;"/><path d="M1397.8188,279.6406 Q1397.2406,279.9375 1396.6,280.0781 Q1395.9594,280.2344 1395.2563,280.2344 Q1392.7563,280.2344 1391.4281,278.5938 Q1390.1156,276.9375 1390.1156,273.8125 Q1390.1156,270.6875 1391.4281,269.0313 Q1392.7563,267.375 1395.2563,267.375 Q1395.9594,267.375 1396.6,267.5313 Q1397.2563,267.6875 1397.8188,267.9844 L1397.8188,270.7031 Q1397.1938,270.125 1396.6,269.8594 Q1396.0063,269.5781 1395.3813,269.5781 Q1394.0375,269.5781 1393.35,270.6563 Q1392.6625,271.7188 1392.6625,273.8125 Q1392.6625,275.9063 1393.35,276.9844 Q1394.0375,278.0469 1395.3813,278.0469 Q1396.0063,278.0469 1396.6,277.7813 Q1397.1938,277.5 1397.8188,276.9219 L1397.8188,279.6406 Z " fill="#000000"/><text fill="#000000" font-family="sans-serif" font-size="14" lengthAdjust="spacing" textLength="128.2969" x="1408.85" y="278.8467">TTAbstractFactory</text><line style="stroke:#181818;stroke-width:0.5;" x1="1380.85" x2="1539.1469" y1="290" y2="290"/><line style="stroke:#181818;stroke-width:0.5;" x1="1380.85" x2="1539.1469" y1="298" y2="298"/></g><!--class TTTellRequest--><g id="elem_TTTellRequest"><rect codeLine="11" fill="#F1F1F1" height="48" id="TTTellRequest" rx="2.5" ry="2.5" style="stroke:#181818;stroke-width:0.5;" width="131.5449" x="218.23" y="1029"/><ellipse cx="233.23" cy="1045" fill="#F1F1F1" rx="11" ry="11" style="stroke:#181818;stroke-width:1.0;"/><path d="M232.7144,1045.5625 Q230.855,1044.8594 230.1988,1044.0938 Q229.5581,1043.3125 229.5581,1042 Q229.5581,1040.3125 230.6363,1039.3438 Q231.7144,1038.375 233.5894,1038.375 Q234.4488,1038.375 235.2925,1038.5781 Q236.1519,1038.7656 236.9956,1039.1563 L236.9956,1041.5469 Q236.2144,1040.9844 235.3863,1040.7031 Q234.5738,1040.4063 233.7769,1040.4063 Q232.9019,1040.4063 232.4175,1040.7656 Q231.9488,1041.125 231.9488,1041.7813 Q231.9488,1042.2969 232.2925,1042.6406 Q232.6363,1042.9688 233.73,1043.375 L234.7925,1043.7813 Q236.2769,1044.3281 236.98,1045.2344 Q237.6988,1046.1406 237.6988,1047.5156 Q237.6988,1049.3906 236.5894,1050.3125 Q235.48,1051.2344 233.23,1051.2344 Q232.3081,1051.2344 231.3863,1051.0156 Q230.4644,1050.7969 229.605,1050.375 L229.605,1047.8438 Q230.5738,1048.5313 231.4956,1048.875 Q232.4175,1049.2188 233.3081,1049.2188 Q234.2144,1049.2188 234.7144,1048.8125 Q235.2144,1048.3906 235.2144,1047.6563 Q235.2144,1047.0938 234.8706,1046.6875 Q234.5425,1046.2656 233.9175,1046.0156 L232.7144,1045.5625 Z " fill="#000000"/><text fill="#000000" font-family="sans-serif" font-size="14" lengthAdjust="spacing" textLength="99.5449" x="247.23" y="1049.8467">TTTellRequest</text><line style="stroke:#181818;stroke-width:0.5;" x1="219.23" x2="348.7749" y1="1061" y2="1061"/><line style="stroke:#181818;stroke-width:0.5;" x1="219.23" x2="348.7749" y1="1069" y2="1069"/></g><!--class TTTellResponse--><g id="elem_TTTellResponse"><rect codeLine="12" fill="#F1F1F1" height="48" id="TTTellResponse" rx="2.5" ry="2.5" style="stroke:#181818;stroke-width:0.5;" width="141.915" x="771.04" y="1029"/><ellipse cx="786.04" cy="1045" fill="#F1F1F1" rx="11" ry="11" style="stroke:#181818;stroke-width:1.0;"/><path d="M785.5244,1045.5625 Q783.665,1044.8594 783.0088,1044.0938 Q782.3681,1043.3125 782.3681,1042 Q782.3681,1040.3125 783.4463,1039.3438 Q784.5244,1038.375 786.3994,1038.375 Q787.2588,1038.375 788.1025,1038.5781 Q788.9619,1038.7656 789.8056,1039.1563 L789.8056,1041.5469 Q789.0244,1040.9844 788.1963,1040.7031 Q787.3838,1040.4063 786.5869,1040.4063 Q785.7119,1040.4063 785.2275,1040.7656 Q784.7588,1041.125 784.7588,1041.7813 Q784.7588,1042.2969 785.1025,1042.6406 Q785.4463,1042.9688 786.54,1043.375 L787.6025,1043.7813 Q789.0869,1044.3281 789.79,1045.2344 Q790.5088,1046.1406 790.5088,1047.5156 Q790.5088,1049.3906 789.3994,1050.3125 Q788.29,1051.2344 786.04,1051.2344 Q785.1181,1051.2344 784.1963,1051.0156 Q783.2744,1050.7969 782.415,1050.375 L782.415,1047.8438 Q783.3838,1048.5313 784.3056,1048.875 Q785.2275,1049.2188 786.1181,1049.2188 Q787.0244,1049.2188 787.5244,1048.8125 Q788.0244,1048.3906 788.0244,1047.6563 Q788.0244,1047.0938 787.6806,1046.6875 Q787.3525,1046.2656 786.7275,1046.0156 L785.5244,1045.5625 Z " fill="#000000"/><text fill="#000000" font-family="sans-serif" font-size="14" lengthAdjust="spacing" textLength="109.915" x="800.04" y="1049.8467">TTTellResponse</text><line style="stroke:#181818;stroke-width:0.5;" x1="772.04" x2="911.955" y1="1061" y2="1061"/><line style="stroke:#181818;stroke-width:0.5;" x1="772.04" x2="911.955" y1="1069" y2="1069"/></g><!--class TTNarrateRequest--><g id="elem_TTNarrateRequest"><rect codeLine="13" fill="#F1F1F1" height="48" id="TTNarrateRequest" rx="2.5" ry="2.5" style="stroke:#181818;stroke-width:0.5;" width="159.8457" x="23.08" y="1029"/><ellipse cx="38.08" cy="1045" fill="#F1F1F1" rx="11" ry="11" style="stroke:#181818;stroke-width:1.0;"/><path d="M37.5644,1045.5625 Q35.705,1044.8594 35.0488,1044.0938 Q34.4081,1043.3125 34.4081,1042 Q34.4081,1040.3125 35.4863,1039.3438 Q36.5644,1038.375 38.4394,1038.375 Q39.2988,1038.375 40.1425,1038.5781 Q41.0019,1038.7656 41.8456,1039.1563 L41.8456,1041.5469 Q41.0644,1040.9844 40.2363,1040.7031 Q39.4238,1040.4063 38.6269,1040.4063 Q37.7519,1040.4063 37.2675,1040.7656 Q36.7988,1041.125 36.7988,1041.7813 Q36.7988,1042.2969 37.1425,1042.6406 Q37.4863,1042.9688 38.58,1043.375 L39.6425,1043.7813 Q41.1269,1044.3281 41.83,1045.2344 Q42.5488,1046.1406 42.5488,1047.5156 Q42.5488,1049.3906 41.4394,1050.3125 Q40.33,1051.2344 38.08,1051.2344 Q37.1581,1051.2344 36.2363,1051.0156 Q35.3144,1050.7969 34.455,1050.375 L34.455,1047.8438 Q35.4238,1048.5313 36.3456,1048.875 Q37.2675,1049.2188 38.1581,1049.2188 Q39.0644,1049.2188 39.5644,1048.8125 Q40.0644,1048.3906 40.0644,1047.6563 Q40.0644,1047.0938 39.7206,1046.6875 Q39.3925,1046.2656 38.7675,1046.0156 L37.5644,1045.5625 Z " fill="#000000"/><text fill="#000000" font-family="sans-serif" font-size="14" lengthAdjust="spacing" textLength="127.8457" x="52.08" y="1049.8467">TTNarrateRequest</text><line style="stroke:#181818;stroke-width:0.5;" x1="24.08" x2="181.9257" y1="1061" y2="1061"/><line style="stroke:#181818;stroke-width:0.5;" x1="24.08" x2="181.9257" y1="1069" y2="1069"/></g><!--class TTNarrateResponse--><g id="elem_TTNarrateResponse"><rect codeLine="14" fill="#F1F1F1" height="48" id="TTNarrateResponse" rx="2.5" ry="2.5" style="stroke:#181818;stroke-width:0.5;" width="170.2158" x="384.89" y="1029"/><ellipse cx="399.89" cy="1045" fill="#F1F1F1" rx="11" ry="11" style="stroke:#181818;stroke-width:1.0;"/><path d="M399.3744,1045.5625 Q397.515,1044.8594 396.8588,1044.0938 Q396.2181,1043.3125 396.2181,1042 Q396.2181,1040.3125 397.2963,1039.3438 Q398.3744,1038.375 400.2494,1038.375 Q401.1088,1038.375 401.9525,1038.5781 Q402.8119,1038.7656 403.6556,1039.1563 L403.6556,1041.5469 Q402.8744,1040.9844 402.0463,1040.7031 Q401.2338,1040.4063 400.4369,1040.4063 Q399.5619,1040.4063 399.0775,1040.7656 Q398.6088,1041.125 398.6088,1041.7813 Q398.6088,1042.2969 398.9525,1042.6406 Q399.2963,1042.9688 400.39,1043.375 L401.4525,1043.7813 Q402.9369,1044.3281 403.64,1045.2344 Q404.3588,1046.1406 404.3588,1047.5156 Q404.3588,1049.3906 403.2494,1050.3125 Q402.14,1051.2344 399.89,1051.2344 Q398.9681,1051.2344 398.0463,1051.0156 Q397.1244,1050.7969 396.265,1050.375 L396.265,1047.8438 Q397.2338,1048.5313 398.1556,1048.875 Q399.0775,1049.2188 399.9681,1049.2188 Q400.8744,1049.2188 401.3744,1048.8125 Q401.8744,1048.3906 401.8744,1047.6563 Q401.8744,1047.0938 401.5306,1046.6875 Q401.2025,1046.2656 400.5775,1046.0156 L399.3744,1045.5625 Z " fill="#000000"/><text fill="#000000" font-family="sans-serif" font-size="14" lengthAdjust="spacing" textLength="138.2158" x="413.89" y="1049.8467">TTNarrateResponse</text><line style="stroke:#181818;stroke-width:0.5;" x1="385.89" x2="554.1058" y1="1061" y2="1061"/><line style="stroke:#181818;stroke-width:0.5;" x1="385.89" x2="554.1058" y1="1069" y2="1069"/></g><!--class TTGreetRequest--><g id="elem_TTGreetRequest"><rect codeLine="15" fill="#F1F1F1" height="48" id="TTGreetRequest" rx="2.5" ry="2.5" style="stroke:#181818;stroke-width:0.5;" width="145.9209" x="590.04" y="1029"/><ellipse cx="605.04" cy="1045" fill="#F1F1F1" rx="11" ry="11" style="stroke:#181818;stroke-width:1.0;"/><path d="M604.5244,1045.5625 Q602.665,1044.8594 602.0088,1044.0938 Q601.3681,1043.3125 601.3681,1042 Q601.3681,1040.3125 602.4463,1039.3438 Q603.5244,1038.375 605.3994,1038.375 Q606.2588,1038.375 607.1025,1038.5781 Q607.9619,1038.7656 608.8056,1039.1563 L608.8056,1041.5469 Q608.0244,1040.9844 607.1963,1040.7031 Q606.3838,1040.4063 605.5869,1040.4063 Q604.7119,1040.4063 604.2275,1040.7656 Q603.7588,1041.125 603.7588,1041.7813 Q603.7588,1042.2969 604.1025,1042.6406 Q604.4463,1042.9688 605.54,1043.375 L606.6025,1043.7813 Q608.0869,1044.3281 608.79,1045.2344 Q609.5088,1046.1406 609.5088,1047.5156 Q609.5088,1049.3906 608.3994,1050.3125 Q607.29,1051.2344 605.04,1051.2344 Q604.1181,1051.2344 603.1963,1051.0156 Q602.2744,1050.7969 601.415,1050.375 L601.415,1047.8438 Q602.3838,1048.5313 603.3056,1048.875 Q604.2275,1049.2188 605.1181,1049.2188 Q606.0244,1049.2188 606.5244,1048.8125 Q607.0244,1048.3906 607.0244,1047.6563 Q607.0244,1047.0938 606.6806,1046.6875 Q606.3525,1046.2656 605.7275,1046.0156 L604.5244,1045.5625 Z " fill="#000000"/><text fill="#000000" font-family="sans-serif" font-size="14" lengthAdjust="spacing" textLength="113.9209" x="619.04" y="1049.8467">TTGreetRequest</text><line style="stroke:#181818;stroke-width:0.5;" x1="591.04" x2="734.9609" y1="1061" y2="1061"/><line style="stroke:#181818;stroke-width:0.5;" x1="591.04" x2="734.9609" y1="1069" y2="1069"/></g><!--class TTGreetResponse--><g id="elem_TTGreetResponse"><rect codeLine="16" fill="#F1F1F1" height="48" id="TTGreetResponse" rx="2.5" ry="2.5" style="stroke:#181818;stroke-width:0.5;" width="156.291" x="1160.85" y="1029"/><ellipse cx="1175.85" cy="1045" fill="#F1F1F1" rx="11" ry="11" style="stroke:#181818;stroke-width:1.0;"/><path d="M1175.3344,1045.5625 Q1173.475,1044.8594 1172.8188,1044.0938 Q1172.1781,1043.3125 1172.1781,1042 Q1172.1781,1040.3125 1173.2563,1039.3438 Q1174.3344,1038.375 1176.2094,1038.375 Q1177.0688,1038.375 1177.9125,1038.5781 Q1178.7719,1038.7656 1179.6156,1039.1563 L1179.6156,1041.5469 Q1178.8344,1040.9844 1178.0063,1040.7031 Q1177.1938,1040.4063 1176.3969,1040.4063 Q1175.5219,1040.4063 1175.0375,1040.7656 Q1174.5688,1041.125 1174.5688,1041.7813 Q1174.5688,1042.2969 1174.9125,1042.6406 Q1175.2563,1042.9688 1176.35,1043.375 L1177.4125,1043.7813 Q1178.8969,1044.3281 1179.6,1045.2344 Q1180.3188,1046.1406 1180.3188,1047.5156 Q1180.3188,1049.3906 1179.2094,1050.3125 Q1178.1,1051.2344 1175.85,1051.2344 Q1174.9281,1051.2344 1174.0063,1051.0156 Q1173.0844,1050.7969 1172.225,1050.375 L1172.225,1047.8438 Q1173.1938,1048.5313 1174.1156,1048.875 Q1175.0375,1049.2188 1175.9281,1049.2188 Q1176.8344,1049.2188 1177.3344,1048.8125 Q1177.8344,1048.3906 1177.8344,1047.6563 Q1177.8344,1047.0938 1177.4906,1046.6875 Q1177.1625,1046.2656 1176.5375,1046.0156 L1175.3344,1045.5625 Z " fill="#000000"/><text fill="#000000" font-family="sans-serif" font-size="14" lengthAdjust="spacing" textLength="124.291" x="1189.85" y="1049.8467">TTGreetResponse</text><line style="stroke:#181818;stroke-width:0.5;" x1="1161.85" x2="1316.141" y1="1061" y2="1061"/><line style="stroke:#181818;stroke-width:0.5;" x1="1161.85" x2="1316.141" y1="1069" y2="1069"/></g><!--class TTHeartbeatRequest--><g id="elem_TTHeartbeatRequest"><rect codeLine="17" fill="#F1F1F1" height="48" id="TTHeartbeatRequest" rx="2.5" ry="2.5" style="stroke:#181818;stroke-width:0.5;" width="177.1338" x="948.43" y="1029"/><ellipse cx="963.43" cy="1045" fill="#F1F1F1" rx="11" ry="11" style="stroke:#181818;stroke-width:1.0;"/><path d="M962.9144,1045.5625 Q961.055,1044.8594 960.3988,1044.0938 Q959.7581,1043.3125 959.7581,1042 Q959.7581,1040.3125 960.8363,1039.3438 Q961.9144,1038.375 963.7894,1038.375 Q964.6488,1038.375 965.4925,1038.5781 Q966.3519,1038.7656 967.1956,1039.1563 L967.1956,1041.5469 Q966.4144,1040.9844 965.5863,1040.7031 Q964.7738,1040.4063 963.9769,1040.4063 Q963.1019,1040.4063 962.6175,1040.7656 Q962.1488,1041.125 962.1488,1041.7813 Q962.1488,1042.2969 962.4925,1042.6406 Q962.8363,1042.9688 963.93,1043.375 L964.9925,1043.7813 Q966.4769,1044.3281 967.18,1045.2344 Q967.8988,1046.1406 967.8988,1047.5156 Q967.8988,1049.3906 966.7894,1050.3125 Q965.68,1051.2344 963.43,1051.2344 Q962.5081,1051.2344 961.5863,1051.0156 Q960.6644,1050.7969 959.805,1050.375 L959.805,1047.8438 Q960.7738,1048.5313 961.6956,1048.875 Q962.6175,1049.2188 963.5081,1049.2188 Q964.4144,1049.2188 964.9144,1048.8125 Q965.4144,1048.3906 965.4144,1047.6563 Q965.4144,1047.0938 965.0706,1046.6875 Q964.7425,1046.2656 964.1175,1046.0156 L962.9144,1045.5625 Z " fill="#000000"/><text fill="#000000" font-family="sans-serif" font-size="14" lengthAdjust="spacing" textLength="145.1338" x="977.43" y="1049.8467">TTHeartbeatRequest</text><line style="stroke:#181818;stroke-width:0.5;" x1="949.43" x2="1124.5638" y1="1061" y2="1061"/><line style="stroke:#181818;stroke-width:0.5;" x1="949.43" x2="1124.5638" y1="1069" y2="1069"/></g><!--class TTHeartbeatResponse--><g id="elem_TTHeartbeatResponse"><rect codeLine="18" fill="#F1F1F1" height="48" id="TTHeartbeatResponse" rx="2.5" ry="2.5" style="stroke:#181818;stroke-width:0.5;" width="187.5039" x="1352.25" y="1029"/><ellipse cx="1367.25" cy="1045" fill="#F1F1F1" rx="11" ry="11" style="stroke:#181818;stroke-width:1.0;"/><path d="M1366.7344,1045.5625 Q1364.875,1044.8594 1364.2188,1044.0938 Q1363.5781,1043.3125 1363.5781,1042 Q1363.5781,1040.3125 1364.6563,1039.3438 Q1365.7344,1038.375 1367.6094,1038.375 Q1368.4688,1038.375 1369.3125,1038.5781 Q1370.1719,1038.7656 1371.0156,1039.1563 L1371.0156,1041.5469 Q1370.2344,1040.9844 1369.4063,1040.7031 Q1368.5938,1040.4063 1367.7969,1040.4063 Q1366.9219,1040.4063 1366.4375,1040.7656 Q1365.9688,1041.125 1365.9688,1041.7813 Q1365.9688,1042.2969 1366.3125,1042.6406 Q1366.6563,1042.9688 1367.75,1043.375 L1368.8125,1043.7813 Q1370.2969,1044.3281 1371,1045.2344 Q1371.7188,1046.1406 1371.7188,1047.5156 Q1371.7188,1049.3906 1370.6094,1050.3125 Q1369.5,1051.2344 1367.25,1051.2344 Q1366.3281,1051.2344 1365.4063,1051.0156 Q1364.4844,1050.7969 1363.625,1050.375 L1363.625,1047.8438 Q1364.5938,1048.5313 1365.5156,1048.875 Q1366.4375,1049.2188 1367.3281,1049.2188 Q1368.2344,1049.2188 1368.7344,1048.8125 Q1369.2344,1048.3906 1369.2344,1047.6563 Q1369.2344,1047.0938 1368.8906,1046.6875 Q1368.5625,1046.2656 1367.9375,1046.0156 L1366.7344,1045.5625 Z " fill="#000000"/><text fill="#000000" font-family="sans-serif" font-size="14" lengthAdjust="spacing" textLength="155.5039" x="1381.25" y="1049.8467">TTHeartbeatResponse</text><line style="stroke:#181818;stroke-width:0.5;" x1="1353.25" x2="1538.7539" y1="1061" y2="1061"/><line style="stroke:#181818;stroke-width:0.5;" x1="1353.25" x2="1538.7539" y1="1069" y2="1069"/></g><!--class TTNetworkInterface--><g id="elem_TTNetworkInterface"><rect codeLine="19" fill="#F1F1F1" height="48" id="TTNetworkInterface" rx="2.5" ry="2.5" style="stroke:#181818;stroke-width:0.5;" width="170.2363" x="1018.88" y="906"/><ellipse cx="1033.88" cy="922" fill="#ADD1B2" rx="11" ry="11" style="stroke:#181818;stroke-width:1.0;"/><path d="M1036.8488,927.6406 Q1036.2706,927.9375 1035.63,928.0781 Q1034.9894,928.2344 1034.2863,928.2344 Q1031.7863,928.2344 1030.4581,926.5938 Q1029.1456,924.9375 1029.1456,921.8125 Q1029.1456,918.6875 1030.4581,917.0313 Q1031.7863,915.375 1034.2863,915.375 Q1034.9894,915.375 1035.63,915.5313 Q1036.2863,915.6875 1036.8488,915.9844 L1036.8488,918.7031 Q1036.2238,918.125 1035.63,917.8594 Q1035.0363,917.5781 1034.4113,917.5781 Q1033.0675,917.5781 1032.38,918.6563 Q1031.6925,919.7188 1031.6925,921.8125 Q1031.6925,923.9063 1032.38,924.9844 Q1033.0675,926.0469 1034.4113,926.0469 Q1035.0363,926.0469 1035.63,925.7813 Q1036.2238,925.5 1036.8488,924.9219 L1036.8488,927.6406 Z " fill="#000000"/><text fill="#000000" font-family="sans-serif" font-size="14" lengthAdjust="spacing" textLength="138.2363" x="1047.88" y="926.8467">TTNetworkInterface</text><line style="stroke:#181818;stroke-width:0.5;" x1="1019.88" x2="1188.1163" y1="938" y2="938"/><line style="stroke:#181818;stroke-width:0.5;" x1="1019.88" x2="1188.1163" y1="946" y2="946"/></g><!--class NeighborsChat::Service--><g id="elem_NeighborsChat::Service"><rect codeLine="23" fill="#F1F1F1" height="48" id="NeighborsChat::Service" rx="2.5" ry="2.5" style="stroke:#181818;stroke-width:0.5;" width="197.1289" x="2450.44" y="1029"/><ellipse cx="2465.44" cy="1045" fill="#ADD1B2" rx="11" ry="11" style="stroke:#181818;stroke-width:1.0;"/><path d="M2468.4088,1050.6406 Q2467.8306,1050.9375 2467.19,1051.0781 Q2466.5494,1051.2344 2465.8463,1051.2344 Q2463.3463,1051.2344 2462.0181,1049.5938 Q2460.7056,1047.9375 2460.7056,1044.8125 Q2460.7056,1041.6875 2462.0181,1040.0313 Q2463.3463,1038.375 2465.8463,1038.375 Q2466.5494,1038.375 2467.19,1038.5313 Q2467.8463,1038.6875 2468.4088,1038.9844 L2468.4088,1041.7031 Q2467.7838,1041.125 2467.19,1040.8594 Q2466.5963,1040.5781 2465.9713,1040.5781 Q2464.6275,1040.5781 2463.94,1041.6563 Q2463.2525,1042.7188 2463.2525,1044.8125 Q2463.2525,1046.9063 2463.94,1047.9844 Q2464.6275,1049.0469 2465.9713,1049.0469 Q2466.5963,1049.0469 2467.19,1048.7813 Q2467.7838,1048.5 2468.4088,1047.9219 L2468.4088,1050.6406 Z " fill="#000000"/><text fill="#000000" font-family="sans-serif" font-size="14" lengthAdjust="spacing" textLength="165.1289" x="2479.44" y="1049.8467">NeighborsChat::Service</text><line style="stroke:#181818;stroke-width:0.5;" x1="2451.44" x2="2646.5689" y1="1061" y2="1061"/><line style="stroke:#181818;stroke-width:0.5;" x1="2451.44" x2="2646.5689" y1="1069" y2="1069"/></g><!--class NeighborsDiscovery::Service--><g id="elem_NeighborsDiscovery::Service"><rect codeLine="24" fill="#F1F1F1" height="48" id="NeighborsDiscovery::Service" rx="2.5" ry="2.5" style="stroke:#181818;stroke-width:0.5;" width="233.5781" x="2182.21" y="1029"/><ellipse cx="2197.21" cy="1045" fill="#ADD1B2" rx="11" ry="11" style="stroke:#181818;stroke-width:1.0;"/><path d="M2200.1788,1050.6406 Q2199.6006,1050.9375 2198.96,1051.0781 Q2198.3194,1051.2344 2197.6163,1051.2344 Q2195.1163,1051.2344 2193.7881,1049.5938 Q2192.4756,1047.9375 2192.4756,1044.8125 Q2192.4756,1041.6875 2193.7881,1040.0313 Q2195.1163,1038.375 2197.6163,1038.375 Q2198.3194,1038.375 2198.96,1038.5313 Q2199.6163,1038.6875 2200.1788,1038.9844 L2200.1788,1041.7031 Q2199.5538,1041.125 2198.96,1040.8594 Q2198.3663,1040.5781 2197.7413,1040.5781 Q2196.3975,1040.5781 2195.71,1041.6563 Q2195.0225,1042.7188 2195.0225,1044.8125 Q2195.0225,1046.9063 2195.71,1047.9844 Q2196.3975,1049.0469 2197.7413,1049.0469 Q2198.3663,1049.0469 2198.96,1048.7813 Q2199.5538,1048.5 2200.1788,1047.9219 L2200.1788,1050.6406 Z " fill="#000000"/><text fill="#000000" font-family="sans-serif" font-size="14" lengthAdjust="spacing" textLength="201.5781" x="2211.21" y="1049.8467">NeighborsDiscovery::Service</text><line style="stroke:#181818;stroke-width:0.5;" x1="2183.21" x2="2414.7881" y1="1061" y2="1061"/><line style="stroke:#181818;stroke-width:0.5;" x1="2183.21" x2="2414.7881" y1="1069" y2="1069"/></g><!--class NeighborsChat::StubInterface--><g id="elem_NeighborsChat::StubInterface"><rect codeLine="25" fill="#F1F1F1" height="48" id="NeighborsChat::StubInterface" rx="2.5" ry="2.5" style="stroke:#181818;stroke-width:0.5;" width="240.2021" x="1595.9" y="1029"/><ellipse cx="1610.9" cy="1045" fill="#ADD1B2" rx="11" ry="11" style="stroke:#181818;stroke-width:1.0;"/><path d="M1613.8688,1050.6406 Q1613.2906,1050.9375 1612.65,1051.0781 Q1612.0094,1051.2344 1611.3063,1051.2344 Q1608.8063,1051.2344 1607.4781,1049.5938 Q1606.1656,1047.9375 1606.1656,1044.8125 Q1606.1656,1041.6875 1607.4781,1040.0313 Q1608.8063,1038.375 1611.3063,1038.375 Q1612.0094,1038.375 1612.65,1038.5313 Q1613.3063,1038.6875 1613.8688,1038.9844 L1613.8688,1041.7031 Q1613.2438,1041.125 1612.65,1040.8594 Q1612.0563,1040.5781 1611.4313,1040.5781 Q1610.0875,1040.5781 1609.4,1041.6563 Q1608.7125,1042.7188 1608.7125,1044.8125 Q1608.7125,1046.9063 1609.4,1047.9844 Q1610.0875,1049.0469 1611.4313,1049.0469 Q1612.0563,1049.0469 1612.65,1048.7813 Q1613.2438,1048.5 1613.8688,1047.9219 L1613.8688,1050.6406 Z " fill="#000000"/><text fill="#000000" font-family="sans-serif" font-size="14" lengthAdjust="spacing" textLength="208.2021" x="1624.9" y="1049.8467">NeighborsChat::StubInterface</text><line style="stroke:#181818;stroke-width:0.5;" x1="1596.9" x2="1835.1021" y1="1061" y2="1061"/><line style="stroke:#181818;stroke-width:0.5;" x1="1596.9" x2="1835.1021" y1="1069" y2="1069"/></g><!--class NeighborsDiscovery::StubInterface--><g id="elem_NeighborsDiscovery::StubInterface"><rect codeLine="26" fill="#F1F1F1" height="48" id="NeighborsDiscovery::StubInterface" rx="2.5" ry="2.5" style="stroke:#181818;stroke-width:0.5;" width="276.6514" x="1870.67" y="1029"/><ellipse cx="1885.67" cy="1045" fill="#ADD1B2" rx="11" ry="11" style="stroke:#181818;stroke-width:1.0;"/><path d="M1888.6388,1050.6406 Q1888.0606,1050.9375 1887.42,1051.0781 Q1886.7794,1051.2344 1886.0763,1051.2344 Q1883.5763,1051.2344 1882.2481,1049.5938 Q1880.9356,1047.9375 1880.9356,1044.8125 Q1880.9356,1041.6875 1882.2481,1040.0313 Q1883.5763,1038.375 1886.0763,1038.375 Q1886.7794,1038.375 1887.42,1038.5313 Q1888.0763,1038.6875 1888.6388,1038.9844 L1888.6388,1041.7031 Q1888.0138,1041.125 1887.42,1040.8594 Q1886.8263,1040.5781 1886.2013,1040.5781 Q1884.8575,1040.5781 1884.17,1041.6563 Q1883.4825,1042.7188 1883.4825,1044.8125 Q1883.4825,1046.9063 1884.17,1047.9844 Q1884.8575,1049.0469 1886.2013,1049.0469 Q1886.8263,1049.0469 1887.42,1048.7813 Q1888.0138,1048.5 1888.6388,1047.9219 L1888.6388,1050.6406 Z " fill="#000000"/><text fill="#000000" font-family="sans-serif" font-size="14" lengthAdjust="spacing" textLength="244.6514" x="1899.67" y="1049.8467">NeighborsDiscovery::StubInterface</text><line style="stroke:#181818;stroke-width:0.5;" x1="1871.67" x2="2146.3214" y1="1061" y2="1061"/><line style="stroke:#181818;stroke-width:0.5;" x1="1871.67" x2="2146.3214" y1="1069" y2="1069"/></g><!--class TTContactsHandler--><g id="elem_TTContactsHandler"><rect codeLine="30" fill="#F1F1F1" height="48" id="TTContactsHandler" rx="2.5" ry="2.5" style="stroke:#181818;stroke-width:0.5;" width="165.9912" x="2420" y="906"/><ellipse cx="2435" cy="922" fill="#ADD1B2" rx="11" ry="11" style="stroke:#181818;stroke-width:1.0;"/><path d="M2437.9688,927.6406 Q2437.3906,927.9375 2436.75,928.0781 Q2436.1094,928.2344 2435.4063,928.2344 Q2432.9063,928.2344 2431.5781,926.5938 Q2430.2656,924.9375 2430.2656,921.8125 Q2430.2656,918.6875 2431.5781,917.0313 Q2432.9063,915.375 2435.4063,915.375 Q2436.1094,915.375 2436.75,915.5313 Q2437.4063,915.6875 2437.9688,915.9844 L2437.9688,918.7031 Q2437.3438,918.125 2436.75,917.8594 Q2436.1563,917.5781 2435.5313,917.5781 Q2434.1875,917.5781 2433.5,918.6563 Q2432.8125,919.7188 2432.8125,921.8125 Q2432.8125,923.9063 2433.5,924.9844 Q2434.1875,926.0469 2435.5313,926.0469 Q2436.1563,926.0469 2436.75,925.7813 Q2437.3438,925.5 2437.9688,924.9219 L2437.9688,927.6406 Z " fill="#000000"/><text fill="#000000" font-family="sans-serif" font-size="14" lengthAdjust="spacing" textLength="133.9912" x="2449" y="926.8467">TTContactsHandler</text><line style="stroke:#181818;stroke-width:0.5;" x1="2421" x2="2584.9912" y1="938" y2="938"/><line style="stroke:#181818;stroke-width:0.5;" x1="2421" x2="2584.9912" y1="946" y2="946"/></g><!--class TTContactsSettings--><g id="elem_TTContactsSettings"><rect codeLine="31" fill="#F1F1F1" height="48" id="TTContactsSettings" rx="2.5" ry="2.5" style="stroke:#181818;stroke-width:0.5;" width="168.2881" x="2620.86" y="906"/><ellipse cx="2635.86" cy="922" fill="#ADD1B2" rx="11" ry="11" style="stroke:#181818;stroke-width:1.0;"/><path d="M2638.8288,927.6406 Q2638.2506,927.9375 2637.61,928.0781 Q2636.9694,928.2344 2636.2663,928.2344 Q2633.7663,928.2344 2632.4381,926.5938 Q2631.1256,924.9375 2631.1256,921.8125 Q2631.1256,918.6875 2632.4381,917.0313 Q2633.7663,915.375 2636.2663,915.375 Q2636.9694,915.375 2637.61,915.5313 Q2638.2663,915.6875 2638.8288,915.9844 L2638.8288,918.7031 Q2638.2038,918.125 2637.61,917.8594 Q2637.0163,917.5781 2636.3913,917.5781 Q2635.0475,917.5781 2634.36,918.6563 Q2633.6725,919.7188 2633.6725,921.8125 Q2633.6725,923.9063 2634.36,924.9844 Q2635.0475,926.0469 2636.3913,926.0469 Q2637.0163,926.0469 2637.61,925.7813 Q2638.2038,925.5 2638.8288,924.9219 L2638.8288,927.6406 Z " fill="#000000"/><text fill="#000000" font-family="sans-serif" font-size="14" lengthAdjust="spacing" textLength="136.2881" x="2649.86" y="926.8467">TTContactsSettings</text><line style="stroke:#181818;stroke-width:0.5;" x1="2621.86" x2="2788.1481" y1="938" y2="938"/><line style="stroke:#181818;stroke-width:0.5;" x1="2621.86" x2="2788.1481" y1="946" y2="946"/></g><!--class TTChatHandler--><g id="elem_TTChatHandler"><rect codeLine="35" fill="#F1F1F1" height="48" id="TTChatHandler" rx="2.5" ry="2.5" style="stroke:#181818;stroke-width:0.5;" width="136.9453" x="2844.53" y="906"/><ellipse cx="2859.53" cy="922" fill="#ADD1B2" rx="11" ry="11" style="stroke:#181818;stroke-width:1.0;"/><path d="M2862.4988,927.6406 Q2861.9206,927.9375 2861.28,928.0781 Q2860.6394,928.2344 2859.9363,928.2344 Q2857.4363,928.2344 2856.1081,926.5938 Q2854.7956,924.9375 2854.7956,921.8125 Q2854.7956,918.6875 2856.1081,917.0313 Q2857.4363,915.375 2859.9363,915.375 Q2860.6394,915.375 2861.28,915.5313 Q2861.9363,915.6875 2862.4988,915.9844 L2862.4988,918.7031 Q2861.8738,918.125 2861.28,917.8594 Q2860.6863,917.5781 2860.0613,917.5781 Q2858.7175,917.5781 2858.03,918.6563 Q2857.3425,919.7188 2857.3425,921.8125 Q2857.3425,923.9063 2858.03,924.9844 Q2858.7175,926.0469 2860.0613,926.0469 Q2860.6863,926.0469 2861.28,925.7813 Q2861.8738,925.5 2862.4988,924.9219 L2862.4988,927.6406 Z " fill="#000000"/><text fill="#000000" font-family="sans-serif" font-size="14" lengthAdjust="spacing" textLength="104.9453" x="2873.53" y="926.8467">TTChatHandler</text><line style="stroke:#181818;stroke-width:0.5;" x1="2845.53" x2="2980.4753" y1="938" y2="938"/><line style="stroke:#181818;stroke-width:0.5;" x1="2845.53" x2="2980.4753" y1="946" y2="946"/></g><!--class TTChatSettings--><g id="elem_TTChatSettings"><rect codeLine="36" fill="#F1F1F1" height="48" id="TTChatSettings" rx="2.5" ry="2.5" style="stroke:#181818;stroke-width:0.5;" width="139.2422" x="3016.38" y="906"/><ellipse cx="3031.38" cy="922" fill="#ADD1B2" rx="11" ry="11" style="stroke:#181818;stroke-width:1.0;"/><path d="M3034.3488,927.6406 Q3033.7706,927.9375 3033.13,928.0781 Q3032.4894,928.2344 3031.7863,928.2344 Q3029.2863,928.2344 3027.9581,926.5938 Q3026.6456,924.9375 3026.6456,921.8125 Q3026.6456,918.6875 3027.9581,917.0313 Q3029.2863,915.375 3031.7863,915.375 Q3032.4894,915.375 3033.13,915.5313 Q3033.7863,915.6875 3034.3488,915.9844 L3034.3488,918.7031 Q3033.7238,918.125 3033.13,917.8594 Q3032.5363,917.5781 3031.9113,917.5781 Q3030.5675,917.5781 3029.88,918.6563 Q3029.1925,919.7188 3029.1925,921.8125 Q3029.1925,923.9063 3029.88,924.9844 Q3030.5675,926.0469 3031.9113,926.0469 Q3032.5363,926.0469 3033.13,925.7813 Q3033.7238,925.5 3034.3488,924.9219 L3034.3488,927.6406 Z " fill="#000000"/><text fill="#000000" font-family="sans-serif" font-size="14" lengthAdjust="spacing" textLength="107.2422" x="3045.38" y="926.8467">TTChatSettings</text><line style="stroke:#181818;stroke-width:0.5;" x1="3017.38" x2="3154.6222" y1="938" y2="938"/><line style="stroke:#181818;stroke-width:0.5;" x1="3017.38" x2="3154.6222" y1="946" y2="946"/></g><!--class TTTextBoxHandler--><g id="elem_TTTextBoxHandler"><rect codeLine="40" fill="#F1F1F1" height="48" id="TTTextBoxHandler" rx="2.5" ry="2.5" style="stroke:#181818;stroke-width:0.5;" width="161.623" x="2321.19" y="366"/><ellipse cx="2336.19" cy="382" fill="#ADD1B2" rx="11" ry="11" style="stroke:#181818;stroke-width:1.0;"/><path d="M2339.1588,387.6406 Q2338.5806,387.9375 2337.94,388.0781 Q2337.2994,388.2344 2336.5963,388.2344 Q2334.0963,388.2344 2332.7681,386.5938 Q2331.4556,384.9375 2331.4556,381.8125 Q2331.4556,378.6875 2332.7681,377.0313 Q2334.0963,375.375 2336.5963,375.375 Q2337.2994,375.375 2337.94,375.5313 Q2338.5963,375.6875 2339.1588,375.9844 L2339.1588,378.7031 Q2338.5338,378.125 2337.94,377.8594 Q2337.3463,377.5781 2336.7213,377.5781 Q2335.3775,377.5781 2334.69,378.6563 Q2334.0025,379.7188 2334.0025,381.8125 Q2334.0025,383.9063 2334.69,384.9844 Q2335.3775,386.0469 2336.7213,386.0469 Q2337.3463,386.0469 2337.94,385.7813 Q2338.5338,385.5 2339.1588,384.9219 L2339.1588,387.6406 Z " fill="#000000"/><text fill="#000000" font-family="sans-serif" font-size="14" lengthAdjust="spacing" textLength="129.623" x="2350.19" y="386.8467">TTTextBoxHandler</text><line style="stroke:#181818;stroke-width:0.5;" x1="2322.19" x2="2481.813" y1="398" y2="398"/><line style="stroke:#181818;stroke-width:0.5;" x1="2322.19" x2="2481.813" y1="406" y2="406"/></g><!--class TTTextBoxSettings--><g id="elem_TTTextBoxSettings"><rect codeLine="41" fill="#F1F1F1" height="48" id="TTTextBoxSettings" rx="2.5" ry="2.5" style="stroke:#181818;stroke-width:0.5;" width="163.9199" x="2122.04" y="366"/><ellipse cx="2137.04" cy="382" fill="#ADD1B2" rx="11" ry="11" style="stroke:#181818;stroke-width:1.0;"/><path d="M2140.0088,387.6406 Q2139.4306,387.9375 2138.79,388.0781 Q2138.1494,388.2344 2137.4463,388.2344 Q2134.9463,388.2344 2133.6181,386.5938 Q2132.3056,384.9375 2132.3056,381.8125 Q2132.3056,378.6875 2133.6181,377.0313 Q2134.9463,375.375 2137.4463,375.375 Q2138.1494,375.375 2138.79,375.5313 Q2139.4463,375.6875 2140.0088,375.9844 L2140.0088,378.7031 Q2139.3838,378.125 2138.79,377.8594 Q2138.1963,377.5781 2137.5713,377.5781 Q2136.2275,377.5781 2135.54,378.6563 Q2134.8525,379.7188 2134.8525,381.8125 Q2134.8525,383.9063 2135.54,384.9844 Q2136.2275,386.0469 2137.5713,386.0469 Q2138.1963,386.0469 2138.79,385.7813 Q2139.3838,385.5 2140.0088,384.9219 L2140.0088,387.6406 Z " fill="#000000"/><text fill="#000000" font-family="sans-serif" font-size="14" lengthAdjust="spacing" textLength="131.9199" x="2151.04" y="386.8467">TTTextBoxSettings</text><line style="stroke:#181818;stroke-width:0.5;" x1="2123.04" x2="2284.9599" y1="398" y2="398"/><line style="stroke:#181818;stroke-width:0.5;" x1="2123.04" x2="2284.9599" y1="406" y2="406"/></g><!--class TTUtilsStopable--><g id="elem_TTUtilsStopable"><rect codeLine="45" fill="#F1F1F1" height="48" id="TTUtilsStopable" rx="2.5" ry="2.5" style="stroke:#181818;stroke-width:0.5;" width="141.71" x="1959.15" y="906"/><ellipse cx="1974.15" cy="922" fill="#ADD1B2" rx="11" ry="11" style="stroke:#181818;stroke-width:1.0;"/><path d="M1977.1188,927.6406 Q1976.5406,927.9375 1975.9,928.0781 Q1975.2594,928.2344 1974.5563,928.2344 Q1972.0563,928.2344 1970.7281,926.5938 Q1969.4156,924.9375 1969.4156,921.8125 Q1969.4156,918.6875 1970.7281,917.0313 Q1972.0563,915.375 1974.5563,915.375 Q1975.2594,915.375 1975.9,915.5313 Q1976.5563,915.6875 1977.1188,915.9844 L1977.1188,918.7031 Q1976.4938,918.125 1975.9,917.8594 Q1975.3063,917.5781 1974.6813,917.5781 Q1973.3375,917.5781 1972.65,918.6563 Q1971.9625,919.7188 1971.9625,921.8125 Q1971.9625,923.9063 1972.65,924.9844 Q1973.3375,926.0469 1974.6813,926.0469 Q1975.3063,926.0469 1975.9,925.7813 Q1976.4938,925.5 1977.1188,924.9219 L1977.1188,927.6406 Z " fill="#000000"/><text fill="#000000" font-family="sans-serif" font-size="14" lengthAdjust="spacing" textLength="109.71" x="1988.15" y="926.8467">TTUtilsStopable</text><line style="stroke:#181818;stroke-width:0.5;" x1="1960.15" x2="2099.86" y1="938" y2="938"/><line style="stroke:#181818;stroke-width:0.5;" x1="1960.15" x2="2099.86" y1="946" y2="946"/></g><!--class TTUtilsTimer--><g id="elem_TTUtilsTimer"><rect codeLine="46" fill="#F1F1F1" height="48" id="TTUtilsTimer" rx="2.5" ry="2.5" style="stroke:#181818;stroke-width:0.5;" width="120.3613" x="1595.82" y="906"/><ellipse cx="1610.82" cy="922" fill="#ADD1B2" rx="11" ry="11" style="stroke:#181818;stroke-width:1.0;"/><path d="M1613.7888,927.6406 Q1613.2106,927.9375 1612.57,928.0781 Q1611.9294,928.2344 1611.2263,928.2344 Q1608.7263,928.2344 1607.3981,926.5938 Q1606.0856,924.9375 1606.0856,921.8125 Q1606.0856,918.6875 1607.3981,917.0313 Q1608.7263,915.375 1611.2263,915.375 Q1611.9294,915.375 1612.57,915.5313 Q1613.2263,915.6875 1613.7888,915.9844 L1613.7888,918.7031 Q1613.1638,918.125 1612.57,917.8594 Q1611.9763,917.5781 1611.3513,917.5781 Q1610.0075,917.5781 1609.32,918.6563 Q1608.6325,919.7188 1608.6325,921.8125 Q1608.6325,923.9063 1609.32,924.9844 Q1610.0075,926.0469 1611.3513,926.0469 Q1611.9763,926.0469 1612.57,925.7813 Q1613.1638,925.5 1613.7888,924.9219 L1613.7888,927.6406 Z " fill="#000000"/><text fill="#000000" font-family="sans-serif" font-size="14" lengthAdjust="spacing" textLength="88.3613" x="1624.82" y="926.8467">TTUtilsTimer</text><line style="stroke:#181818;stroke-width:0.5;" x1="1596.82" x2="1715.1813" y1="938" y2="938"/><line style="stroke:#181818;stroke-width:0.5;" x1="1596.82" x2="1715.1813" y1="946" y2="946"/></g><!--class TTUtilsTimerFactory--><g id="elem_TTUtilsTimerFactory"><rect codeLine="47" fill="#F1F1F1" height="48" id="TTUtilsTimerFactory" rx="2.5" ry="2.5" style="stroke:#181818;stroke-width:0.5;" width="172.7861" x="1751.61" y="906"/><ellipse cx="1766.61" cy="922" fill="#ADD1B2" rx="11" ry="11" style="stroke:#181818;stroke-width:1.0;"/><path d="M1769.5788,927.6406 Q1769.0006,927.9375 1768.36,928.0781 Q1767.7194,928.2344 1767.0163,928.2344 Q1764.5163,928.2344 1763.1881,926.5938 Q1761.8756,924.9375 1761.8756,921.8125 Q1761.8756,918.6875 1763.1881,917.0313 Q1764.5163,915.375 1767.0163,915.375 Q1767.7194,915.375 1768.36,915.5313 Q1769.0163,915.6875 1769.5788,915.9844 L1769.5788,918.7031 Q1768.9538,918.125 1768.36,917.8594 Q1767.7663,917.5781 1767.1413,917.5781 Q1765.7975,917.5781 1765.11,918.6563 Q1764.4225,919.7188 1764.4225,921.8125 Q1764.4225,923.9063 1765.11,924.9844 Q1765.7975,926.0469 1767.1413,926.0469 Q1767.7663,926.0469 1768.36,925.7813 Q1768.9538,925.5 1769.5788,924.9219 L1769.5788,927.6406 Z " fill="#000000"/><text fill="#000000" font-family="sans-serif" font-size="14" lengthAdjust="spacing" textLength="140.7861" x="1780.61" y="926.8467">TTUtilsTimerFactory</text><line style="stroke:#181818;stroke-width:0.5;" x1="1752.61" x2="1923.3961" y1="938" y2="938"/><line style="stroke:#181818;stroke-width:0.5;" x1="1752.61" x2="1923.3961" y1="946" y2="946"/></g><!--class TTDiagnosticsLogger--><g id="elem_TTDiagnosticsLogger"><rect codeLine="48" fill="#F1F1F1" height="48" id="TTDiagnosticsLogger" rx="2.5" ry="2.5" style="stroke:#181818;stroke-width:0.5;" width="178.8496" x="2135.58" y="906"/><ellipse cx="2150.58" cy="922" fill="#ADD1B2" rx="11" ry="11" style="stroke:#181818;stroke-width:1.0;"/><path d="M2153.5488,927.6406 Q2152.9706,927.9375 2152.33,928.0781 Q2151.6894,928.2344 2150.9863,928.2344 Q2148.4863,928.2344 2147.1581,926.5938 Q2145.8456,924.9375 2145.8456,921.8125 Q2145.8456,918.6875 2147.1581,917.0313 Q2148.4863,915.375 2150.9863,915.375 Q2151.6894,915.375 2152.33,915.5313 Q2152.9863,915.6875 2153.5488,915.9844 L2153.5488,918.7031 Q2152.9238,918.125 2152.33,917.8594 Q2151.7363,917.5781 2151.1113,917.5781 Q2149.7675,917.5781 2149.08,918.6563 Q2148.3925,919.7188 2148.3925,921.8125 Q2148.3925,923.9063 2149.08,924.9844 Q2149.7675,926.0469 2151.1113,926.0469 Q2151.7363,926.0469 2152.33,925.7813 Q2152.9238,925.5 2153.5488,924.9219 L2153.5488,927.6406 Z " fill="#000000"/><text fill="#000000" font-family="sans-serif" font-size="14" lengthAdjust="spacing" textLength="146.8496" x="2164.58" y="926.8467">TTDiagnosticsLogger</text><line style="stroke:#181818;stroke-width:0.5;" x1="2136.58" x2="2313.4296" y1="938" y2="938"/><line style="stroke:#181818;stroke-width:0.5;" x1="2136.58" x2="2313.4296" y1="946" y2="946"/></g><!--link TTEngine to TTUtilsStopable--><g id="link_TTEngine_TTUtilsStopable"><path codeLine="51" d="M1379.74,69.49 C1621.23,82.44 2678,146.77 2678,281 C2678,281 2678,281 2678,391 C2678,431.62 2203.907,796.287 2075.127,894.607 " fill="none" id="TTEngine-to-TTUtilsStopable" style="stroke:#181818;stroke-width:1.0;"/><polygon fill="none" points="2060.82,905.53,2078.7679,899.376,2071.486,889.8381,2060.82,905.53" style="stroke:#181818;stroke-width:1.0;"/></g><!--reverse link TTEngine to TTContactsHandler--><g id="link_TTEngine_TTContactsHandler"><path codeLine="52" d="M1391.9097,67.3374 C1595.0997,68.8174 2360.79,79.01 2594,150 C2705.07,183.81 2820,164.9 2820,281 C2820,281 2820,281 2820,499 C2820,687.27 2620.67,847.34 2538.14,905.55 " fill="none" id="TTEngine-backto-TTContactsHandler" style="stroke:#181818;stroke-width:1.0;"/><polygon fill="none" points="1379.91,67.25,1385.8807,71.2936,1391.9097,67.3374,1385.939,63.2938,1379.91,67.25" style="stroke:#181818;stroke-width:1.0;"/></g><!--reverse link TTEngine to TTChatHandler--><g id="link_TTEngine_TTChatHandler"><path codeLine="53" d="M1391.6654,68.6435 C1621.8854,75.0435 2583.65,104.29 2711,150 C2804.13,183.42 2891,182.06 2891,281 C2891,281 2891,281 2891,499 C2891,654.48 2905.52,841.17 2910.97,905.72 " fill="none" id="TTEngine-backto-TTChatHandler" style="stroke:#181818;stroke-width:1.0;"/><polygon fill="none" points="1379.67,68.31,1385.5565,72.4752,1391.6654,68.6435,1385.7788,64.4783,1379.67,68.31" style="stroke:#181818;stroke-width:1.0;"/></g><!--reverse link TTEngine to TTTextBoxHandler--><g id="link_TTEngine_TTTextBoxHandler"><path codeLine="54" d="M1391.7939,75.8222 C1537.5439,97.9622 1967.61,172.11 2303,323 C2328.05,334.27 2353.8,351.65 2372.75,365.74 " fill="none" id="TTEngine-backto-TTTextBoxHandler" style="stroke:#181818;stroke-width:1.0;"/><polygon fill="none" points="1379.93,74.02,1385.2612,78.8757,1391.7939,75.8222,1386.4627,70.9665,1379.93,74.02" style="stroke:#181818;stroke-width:1.0;"/></g><!--reverse link TTEngine to TTNeighborsServiceChat--><g id="link_TTEngine_TTNeighborsServiceChat"><path codeLine="55" d="M1316.8517,101.6761 C1310.5417,118.0361 1307.27,129.35 1304,150 C1291.53,228.64 1310.47,322.97 1320.89,365.81 " fill="none" id="TTEngine-backto-TTNeighborsServiceChat" style="stroke:#181818;stroke-width:1.0;"/><polygon fill="none" points="1321.17,90.48,1315.2788,94.6386,1316.8517,101.6761,1322.7429,97.5175,1321.17,90.48" style="stroke:#181818;stroke-width:1.0;"/></g><!--reverse link TTEngine to TTNeighborsServiceDiscovery--><g id="link_TTEngine_TTNeighborsServiceDiscovery"><path codeLine="56" d="M1270.2939,78.0156 C1179.0739,97.0856 1004,149.72 1004,281 C1004,281 1004,281 1004,499 C1004,559.04 997.07,585.16 1037,630 C1062.56,658.69 1099.09,677.51 1135.01,689.84 " fill="none" id="TTEngine-backto-TTNeighborsServiceDiscovery" style="stroke:#181818;stroke-width:1.0;"/><polygon fill="none" points="1282.04,75.56,1275.3484,72.8724,1270.2939,78.0156,1276.9855,80.7031,1282.04,75.56" style="stroke:#181818;stroke-width:1.0;"/></g><!--reverse link TTEngine to TTServer--><g id="link_TTEngine_TTServer"><path codeLine="57" d="M1281.2301,97.0527 C1228.5001,131.5727 1152,194.78 1152,281 C1152,281 1152,281 1152,391 C1152,474.5 1231.1,546.38 1278.07,581.69 " fill="none" id="TTEngine-backto-TTServer" style="stroke:#181818;stroke-width:1.0;"/><polygon fill="none" points="1291.27,90.48,1284.0591,90.4197,1281.2301,97.0527,1288.4409,97.113,1291.27,90.48" style="stroke:#181818;stroke-width:1.0;"/></g><!--reverse link TTEngine to TTNeighborsStub--><g id="link_TTEngine_TTNeighborsStub"><path codeLine="58" d="M1270.0461,72.4994 C1111.3961,87.8994 634,145.24 634,281 C634,281 634,281 634,607 C634,748.48 789.33,859.46 866.09,905.65 " fill="none" id="TTEngine-backto-TTNeighborsStub" style="stroke:#181818;stroke-width:1.0;"/><polygon fill="none" points="1281.99,71.34,1275.6316,67.9384,1270.0461,72.4994,1276.4045,75.901,1281.99,71.34" style="stroke:#181818;stroke-width:1.0;"/></g><!--reverse link TTEngine to TTBroadcasterChat--><g id="link_TTEngine_TTBroadcasterChat"><path codeLine="59" d="M1323.5022,102.1538 C1314.2722,150.1138 1303.5,248.23 1362,306 C1389.41,333.07 1422.57,293.21 1447,323 C1482.66,366.5 1453.11,437.36 1433.67,473.77 " fill="none" id="TTEngine-backto-TTBroadcasterChat" style="stroke:#181818;stroke-width:1.0;"/><polygon fill="none" points="1325.77,90.37,1320.7082,95.5059,1323.5022,102.1538,1328.564,97.0178,1325.77,90.37" style="stroke:#181818;stroke-width:1.0;"/></g><!--reverse link TTEngine to TTBroadcasterDiscovery--><g id="link_TTEngine_TTBroadcasterDiscovery"><path codeLine="60" d="M1270.116,69.1601 C1205.406,73.4301 1103.02,89.02 1030,150 C980.41,191.41 967,216.39 967,281 C967,281 967,281 967,499 C967,624.65 1008.98,675.54 1118,738 C1169.63,767.58 1233,787.8 1285.25,800.87 " fill="none" id="TTEngine-backto-TTBroadcasterDiscovery" style="stroke:#181818;stroke-width:1.0;"/><polygon fill="none" points="1282.09,68.37,1275.8396,64.7737,1270.116,69.1601,1276.3664,72.7564,1282.09,68.37" style="stroke:#181818;stroke-width:1.0;"/></g><!--reverse link TTEngine to TTEngineSettings--><g id="link_TTEngine_TTEngineSettings"><path codeLine="61" d="M1364.6477,94.0175 C1386.6577,111.6975 1412.11,132.13 1434.1,149.79 " fill="none" id="TTEngine-backto-TTEngineSettings" style="stroke:#181818;stroke-width:1.0;stroke-dasharray:7.0,7.0;"/><polygon fill="#181818" points="1359.97,90.26,1364.4816,99.0147,1363.8681,93.3912,1369.4916,92.7777,1359.97,90.26" style="stroke:#181818;stroke-width:1.0;"/></g><!--reverse link TTEngine to TTAbstractFactory--><g id="link_TTEngine_TTAbstractFactory"><path codeLine="62" d="M1334.4609,96.2894 C1338.4009,123.7894 1346.92,164.08 1368,198 C1382.76,221.75 1406.25,242.78 1425.81,257.73 " fill="none" id="TTEngine-backto-TTAbstractFactory" style="stroke:#181818;stroke-width:1.0;stroke-dasharray:7.0,7.0;"/><polygon fill="#181818" points="1333.61,90.35,1330.9269,99.8263,1334.3191,95.2995,1338.846,98.6917,1333.61,90.35" style="stroke:#181818;stroke-width:1.0;"/></g><!--reverse link TTEngine to TTNetworkInterface--><g id="link_TTEngine_TTNetworkInterface"><path codeLine="63" d="M1276.4016,67.1497 C1155.3416,69.9697 856,95.36 856,281 C856,281 856,281 856,715 C856,786.92 892.99,803.48 951,846 C970.27,860.13 980.47,852.65 1002,863 C1026.9,874.97 1053.03,891.97 1072.61,905.72 " fill="none" id="TTEngine-backto-TTNetworkInterface" style="stroke:#181818;stroke-width:1.0;stroke-dasharray:7.0,7.0;"/><polygon fill="#181818" points="1282.4,67.01,1273.3093,63.2207,1277.4014,67.1264,1273.4956,71.2185,1282.4,67.01" style="stroke:#181818;stroke-width:1.0;"/></g><!--reverse link TTEngine to TTDiagnosticsLogger--><g id="link_TTEngine_TTDiagnosticsLogger"><path codeLine="64" d="M1386.0155,69.0527 C1570.7155,76.2227 2218.32,104.11 2421,150 C2574.1,184.66 2749,124.03 2749,281 C2749,281 2749,281 2749,499 C2749,623.3 2392.18,835.26 2267.44,905.57 " fill="none" id="TTEngine-backto-TTDiagnosticsLogger" style="stroke:#181818;stroke-width:1.0;stroke-dasharray:7.0,7.0;"/><polygon fill="#181818" points="1380.02,68.82,1388.8581,73.1661,1385.0162,69.014,1389.1684,65.1721,1380.02,68.82" style="stroke:#181818;stroke-width:1.0;"/></g><!--reverse link TTEngineSettings to TTContactsSettings--><g id="link_TTEngineSettings_TTContactsSettings"><path codeLine="66" d="M1552.5479,176.1027 C1767.5479,180.0927 2352.96,201.85 2499,323 C2523.08,342.98 2664.27,796.96 2697.84,905.73 " fill="none" id="TTEngineSettings-backto-TTContactsSettings" style="stroke:#181818;stroke-width:1.0;"/><polygon fill="none" points="1540.55,175.88,1546.4747,179.9906,1552.5479,176.1027,1546.6232,171.992,1540.55,175.88" style="stroke:#181818;stroke-width:1.0;"/></g><!--reverse link TTEngineSettings to TTChatSettings--><g id="link_TTEngineSettings_TTChatSettings"><path codeLine="67" d="M1552.6943,177.4784 C1753.2343,183.6384 2272.16,204.32 2439,258 C2784.46,369.15 3021.16,800.45 3074.55,905.73 " fill="none" id="TTEngineSettings-backto-TTChatSettings" style="stroke:#181818;stroke-width:1.0;"/><polygon fill="none" points="1540.7,177.11,1546.5744,181.2923,1552.6943,177.4784,1546.82,173.2961,1540.7,177.11" style="stroke:#181818;stroke-width:1.0;"/></g><!--reverse link TTEngineSettings to TTTextBoxSettings--><g id="link_TTEngineSettings_TTTextBoxSettings"><path codeLine="68" d="M1552.1657,186.8226 C1673.7057,204.4526 1903.52,244.91 2095,323 C2122.24,334.11 2150.6,351.49 2171.56,365.63 " fill="none" id="TTEngineSettings-backto-TTTextBoxSettings" style="stroke:#181818;stroke-width:1.0;"/><polygon fill="none" points="1540.29,185.1,1545.6536,189.9199,1552.1657,186.8226,1546.8021,182.0027,1540.29,185.1" style="stroke:#181818;stroke-width:1.0;"/></g><!--reverse link TTEngineSettings to TTAbstractFactory--><g id="link_TTEngineSettings_TTAbstractFactory"><path codeLine="69" d="M1462.0008,210.2552 C1461.5008,227.9352 1461.16,240.13 1460.66,257.79 " fill="none" id="TTEngineSettings-backto-TTAbstractFactory" style="stroke:#181818;stroke-width:1.0;"/><polygon fill="none" points="1462.34,198.26,1458.172,204.1445,1462.0008,210.2552,1466.1688,204.3707,1462.34,198.26" style="stroke:#181818;stroke-width:1.0;"/></g><!--reverse link TTEngineSettings to TTNetworkInterface--><g id="link_TTEngineSettings_TTNetworkInterface"><path codeLine="70" d="M1373.6031,187.0906 C1284.4331,202.4006 1150.37,237.37 1058,323 C957.06,416.57 930,467.36 930,605 C930,605 930,605 930,715 C930,800.47 1014.6,870.79 1065.81,905.54 " fill="none" id="TTEngineSettings-backto-TTNetworkInterface" style="stroke:#181818;stroke-width:1.0;"/><polygon fill="none" points="1385.43,185.06,1378.8397,182.133,1373.6031,187.0906,1380.1934,190.0176,1385.43,185.06" style="stroke:#181818;stroke-width:1.0;"/></g><!--link TTNeighborsServiceChat to NeighborsChat::Service--><g id="link_TTNeighborsServiceChat_NeighborsChat::Service"><path codeLine="72" d="M1413.24,414.45 C1464.51,429.39 1530.38,450.35 1587,474 C1930.95,617.66 2054.91,611.48 2330,863 C2374.86,904.01 2355.04,941.99 2404,978 C2414.77,985.92 2420.65,980.88 2433,986 C2461.14,997.67 2475.6819,1005.2848 2498.0519,1019.1548 " fill="none" id="TTNeighborsServiceChat-to-NeighborsChat::Service" style="stroke:#181818;stroke-width:1.0;"/><polygon fill="none" points="2513.35,1028.64,2501.2137,1014.0554,2494.8902,1024.2541,2513.35,1028.64" style="stroke:#181818;stroke-width:1.0;"/></g><!--reverse link TTNeighborsServiceChat to TTBroadcasterChat--><g id="link_TTNeighborsServiceChat_TTBroadcasterChat"><path codeLine="73" d="M1355.3236,423.2808 C1370.8336,440.9608 1384.14,456.13 1399.64,473.79 " fill="none" id="TTNeighborsServiceChat-backto-TTBroadcasterChat" style="stroke:#181818;stroke-width:1.0;"/><polygon fill="none" points="1347.41,414.26,1348.3599,421.4083,1355.3236,423.2808,1354.3737,416.1325,1347.41,414.26" style="stroke:#181818;stroke-width:1.0;"/></g><!--reverse link TTNeighborsServiceChat to TTTellRequest--><g id="link_TTNeighborsServiceChat_TTTellRequest"><path codeLine="74" d="M1283.81,417.5253 C1237.33,445.5153 1160.88,489.53 1087,522 C1011.34,555.25 982.1,539.87 911,582 C770.93,664.99 744.91,715.5 676,863 C653.49,911.18 685,945.39 643,978 C630.88,987.41 381.41,980.73 367,986 C342.96,994.78 320.56,1013.49 305.1,1028.75 " fill="none" id="TTNeighborsServiceChat-backto-TTTellRequest" style="stroke:#181818;stroke-width:1.0;"/><polygon fill="#181818" points="1288.95,414.43,1279.1765,415.6462,1284.6667,417.0094,1283.3035,422.4995,1288.95,414.43" style="stroke:#181818;stroke-width:1.0;"/></g><!--reverse link TTNeighborsServiceChat to TTNarrateRequest--><g id="link_TTNeighborsServiceChat_TTNarrateRequest"><path codeLine="75" d="M1218.3428,391.2517 C1017.2828,397.3417 597,442.02 597,713 C597,713 597,713 597,823 C597,1013.33 368.79,896.16 201,986 C177.67,998.49 152.97,1015.15 134.2,1028.61 " fill="none" id="TTNeighborsServiceChat-backto-TTNarrateRequest" style="stroke:#181818;stroke-width:1.0;"/><polygon fill="#181818" points="1224.34,391.07,1215.223,387.3443,1219.3423,391.2214,1215.4652,395.3406,1224.34,391.07" style="stroke:#181818;stroke-width:1.0;"/></g><!--reverse link TTNeighborsServiceChat to TTDiagnosticsLogger--><g id="link_TTNeighborsServiceChat_TTDiagnosticsLogger"><path codeLine="76" d="M1394.5467,416.6037 C1433.2667,431.9737 1478.15,451.2 1521,474 C1792.71,618.59 2095.99,834.83 2193.21,905.64 " fill="none" id="TTNeighborsServiceChat-backto-TTDiagnosticsLogger" style="stroke:#181818;stroke-width:1.0;stroke-dasharray:7.0,7.0;"/><polygon fill="#181818" points="1388.97,414.39,1395.8593,421.4283,1393.6173,416.2347,1398.8108,413.9927,1388.97,414.39" style="stroke:#181818;stroke-width:1.0;"/></g><!--link TTNeighborsServiceDiscovery to NeighborsDiscovery::Service--><g id="link_TTNeighborsServiceDiscovery_NeighborsDiscovery::Service"><path codeLine="78" d="M1377.04,733.21 C1422.06,745.21 1470.72,765.09 1506,798 C1569.25,857 1508.48,929.36 1580,978 C1593.44,987.14 2149.2,982.21 2165,986 C2200.05,994.42 2221.0388,1004.0005 2247.0788,1019.3705 " fill="none" id="TTNeighborsServiceDiscovery-to-NeighborsDiscovery::Service" style="stroke:#181818;stroke-width:1.0;"/><polygon fill="none" points="2262.58,1028.52,2250.1287,1014.2034,2244.029,1024.5376,2262.58,1028.52" style="stroke:#181818;stroke-width:1.0;"/></g><!--reverse link TTNeighborsServiceDiscovery to TTBroadcasterDiscovery--><g id="link_TTNeighborsServiceDiscovery_TTBroadcasterDiscovery"><path codeLine="79" d="M1294.0769,745.8104 C1315.9169,763.4904 1336.49,780.13 1358.32,797.79 " fill="none" id="TTNeighborsServiceDiscovery-backto-TTBroadcasterDiscovery" style="stroke:#181818;stroke-width:1.0;"/><polygon fill="none" points="1284.75,738.26,1286.8967,745.1442,1294.0769,745.8104,1291.9303,738.9262,1284.75,738.26" style="stroke:#181818;stroke-width:1.0;"/></g><!--reverse link TTNeighborsServiceDiscovery to TTGreetRequest--><g id="link_TTNeighborsServiceDiscovery_TTGreetRequest"><path codeLine="80" d="M1129.4191,728.461 C1031.5491,744.511 901.82,780.08 814,863 C773.97,900.79 804.14,936.47 768,978 C763.3,983.41 760.02,982.11 754,986 C733.34,999.34 710.97,1015.54 693.58,1028.55 " fill="none" id="TTNeighborsServiceDiscovery-backto-TTGreetRequest" style="stroke:#181818;stroke-width:1.0;"/><polygon fill="#181818" points="1135.34,727.49,1125.8113,724.9992,1130.4059,728.2992,1127.106,732.8938,1135.34,727.49" style="stroke:#181818;stroke-width:1.0;"/></g><!--reverse link TTNeighborsServiceDiscovery to TTHeartbeatRequest--><g id="link_TTNeighborsServiceDiscovery_TTHeartbeatRequest"><path codeLine="81" d="M1258.0465,744.1782 C1261.6865,802.0782 1267.14,944.72 1234,978 C1219.68,992.38 1162.25,979.57 1143,986 C1114.83,995.41 1086.45,1013.65 1066.16,1028.57 " fill="none" id="TTNeighborsServiceDiscovery-backto-TTHeartbeatRequest" style="stroke:#181818;stroke-width:1.0;"/><polygon fill="#181818" points="1257.67,738.19,1254.2426,747.4232,1257.9837,743.1801,1262.2268,746.9213,1257.67,738.19" style="stroke:#181818;stroke-width:1.0;"/></g><!--reverse link TTNeighborsServiceDiscovery to TTDiagnosticsLogger--><g id="link_TTNeighborsServiceDiscovery_TTDiagnosticsLogger"><path codeLine="82" d="M1368.2956,739.7527 C1502.7256,768.6927 1735.56,816.38 1942,846 C2019.79,857.16 2043.51,837.94 2118,863 C2146.34,872.53 2174.99,890.77 2195.51,905.65 " fill="none" id="TTNeighborsServiceDiscovery-backto-TTDiagnosticsLogger" style="stroke:#181818;stroke-width:1.0;stroke-dasharray:7.0,7.0;"/><polygon fill="#181818" points="1362.43,738.49,1370.3866,744.2945,1367.318,739.5423,1372.0703,736.4737,1362.43,738.49" style="stroke:#181818;stroke-width:1.0;"/></g><!--reverse link TTNeighborsStub to NeighborsChat::StubInterface--><g id="link_TTNeighborsStub_NeighborsChat::StubInterface"><path codeLine="84" d="M949.7355,957.2208 C966.2955,966.4908 981.32,973.16 1001,978 C1060.89,992.73 1495.59,973.58 1556,986 C1596.91,994.41 1640.57,1013.15 1671.92,1028.52 " fill="none" id="TTNeighborsStub-backto-NeighborsChat::StubInterface" style="stroke:#181818;stroke-width:1.0;"/><polygon fill="#181818" points="944.5,954.29,950.3994,962.1765,948.8629,956.7323,954.3071,955.1958,944.5,954.29" style="stroke:#181818;stroke-width:1.0;"/></g><!--reverse link TTNeighborsStub to NeighborsDiscovery::StubInterface--><g id="link_TTNeighborsStub_NeighborsDiscovery::StubInterface"><path codeLine="85" d="M949.7242,957.2732 C966.2842,966.5532 981.31,973.21 1001,978 C1047.05,989.2 1807.61,976.31 1854,986 C1893.94,994.34 1936.38,1013.19 1966.73,1028.62 " fill="none" id="TTNeighborsStub-backto-NeighborsDiscovery::StubInterface" style="stroke:#181818;stroke-width:1.0;"/><polygon fill="#181818" points="944.49,954.34,950.3858,962.2292,948.8518,956.7843,954.2967,955.2503,944.49,954.34" style="stroke:#181818;stroke-width:1.0;"/></g><!--reverse link TTNeighborsStub to TTTellRequest--><g id="link_TTNeighborsStub_TTTellRequest"><path codeLine="86" d="M829.8353,956.0537 C798.0953,965.2137 765.94,973.05 731,978 C690.95,983.68 405.04,972.25 367,986 C342.93,994.7 320.53,1013.41 305.08,1028.7 " fill="none" id="TTNeighborsStub-backto-TTTellRequest" style="stroke:#181818;stroke-width:1.0;"/><polygon fill="#181818" points="835.6,954.39,825.8438,953.0424,830.7961,955.7764,828.062,960.7287,835.6,954.39" style="stroke:#181818;stroke-width:1.0;"/></g><!--reverse link TTNeighborsStub to TTTellResponse--><g id="link_TTNeighborsStub_TTTellResponse"><path codeLine="87" d="M892.3986,959.5983 C880.7186,981.0283 866.36,1007.34 854.69,1028.74 " fill="none" id="TTNeighborsStub-backto-TTTellResponse" style="stroke:#181818;stroke-width:1.0;"/><polygon fill="#181818" points="895.27,954.33,887.4507,960.3182,892.8772,958.7203,894.4751,964.1467,895.27,954.33" style="stroke:#181818;stroke-width:1.0;"/></g><!--reverse link TTNeighborsStub to TTNarrateRequest--><g id="link_TTNeighborsStub_TTNarrateRequest"><path codeLine="88" d="M825.452,949.1039 C772.772,959.8939 706.95,971.79 643,978 C594.11,982.75 247.85,971.23 201,986 C173.81,994.57 147.25,1013.29 128.66,1028.62 " fill="none" id="TTNeighborsStub-backto-TTNarrateRequest" style="stroke:#181818;stroke-width:1.0;"/><polygon fill="#181818" points="831.33,947.9,821.7104,945.7873,826.4317,948.9033,823.3157,953.6245,831.33,947.9" style="stroke:#181818;stroke-width:1.0;"/></g><!--reverse link TTNeighborsStub to TTNarrateResponse--><g id="link_TTNeighborsStub_TTNarrateResponse"><path codeLine="89" d="M844.7514,956.4808 C819.8414,965.5408 795.73,972.88 768,978 C725.35,985.87 614.36,972.96 573,986 C544.85,994.88 516.9,1013.57 497.24,1028.81 " fill="none" id="TTNeighborsStub-backto-TTNarrateResponse" style="stroke:#181818;stroke-width:1.0;"/><polygon fill="#181818" points="850.39,954.43,840.5648,953.7471,845.6911,956.139,843.2993,961.2653,850.39,954.43" style="stroke:#181818;stroke-width:1.0;"/></g><!--reverse link TTNeighborsStub to TTGreetRequest--><g id="link_TTNeighborsStub_TTGreetRequest"><path codeLine="90" d="M858.241,957.0467 C840.431,965.5967 824.86,972.03 805,978 C783.03,984.6 775.21,977.24 754,986 C729.47,996.13 705.32,1014.12 688.07,1028.77 " fill="none" id="TTNeighborsStub-backto-TTGreetRequest" style="stroke:#181818;stroke-width:1.0;"/><polygon fill="#181818" points="863.65,954.45,853.8054,954.739,859.1425,956.6139,857.2676,961.951,863.65,954.45" style="stroke:#181818;stroke-width:1.0;"/></g><!--reverse link TTNeighborsStub to TTGreetResponse--><g id="link_TTNeighborsStub_TTGreetResponse"><path codeLine="91" d="M950.7447,957.2862 C967.1647,966.3362 981.78,972.84 1001,978 C1062.05,994.38 1083.18,965.56 1143,986 C1169.41,995.03 1195.24,1013.5 1213.45,1028.61 " fill="none" id="TTNeighborsStub-backto-TTGreetResponse" style="stroke:#181818;stroke-width:1.0;"/><polygon fill="#181818" points="945.49,954.39,951.4413,962.2374,949.8689,956.8035,955.3029,955.2311,945.49,954.39" style="stroke:#181818;stroke-width:1.0;"/></g><!--reverse link TTNeighborsStub to TTHeartbeatRequest--><g id="link_TTNeighborsStub_TTHeartbeatRequest"><path codeLine="92" d="M937.2464,958.4345 C960.0964,979.8645 989.39,1007.34 1012.2,1028.74 " fill="none" id="TTNeighborsStub-backto-TTHeartbeatRequest" style="stroke:#181818;stroke-width:1.0;"/><polygon fill="#181818" points="932.87,954.33,936.6984,963.4043,936.517,957.7504,942.171,957.5691,932.87,954.33" style="stroke:#181818;stroke-width:1.0;"/></g><!--reverse link TTNeighborsStub to TTHeartbeatResponse--><g id="link_TTNeighborsStub_TTHeartbeatResponse"><path codeLine="93" d="M950.2024,957.3684 C966.6924,966.5484 981.52,973.11 1001,978 C1073.01,996.08 1263.65,965.47 1335,986 C1364.95,994.62 1395.1,1013.34 1416.4,1028.64 " fill="none" id="TTNeighborsStub-backto-TTHeartbeatResponse" style="stroke:#181818;stroke-width:1.0;"/><polygon fill="#181818" points="944.96,954.45,950.878,962.3226,949.3287,956.882,954.7692,955.3327,944.96,954.45" style="stroke:#181818;stroke-width:1.0;"/></g><!--reverse link TTNeighborsStub to TTDiagnosticsLogger--><g id="link_TTNeighborsStub_TTDiagnosticsLogger"><path codeLine="94" d="M936.5213,901.4748 C957.2913,882.5148 984.76,862.26 1018.5,854.5 C1047.79,847.76 2071.21,847.76 2100.5,854.5 C2136.96,862.89 2172.87,886.81 2196.69,905.5 " fill="none" id="TTNeighborsStub-backto-TTDiagnosticsLogger" style="stroke:#181818;stroke-width:1.0;stroke-dasharray:7.0,7.0;"/><polygon fill="#181818" points="932.09,905.52,941.4338,902.4065,935.7828,902.149,936.0402,896.498,932.09,905.52" style="stroke:#181818;stroke-width:1.0;"/></g><!--reverse link TTAbstractFactory to TTContactsSettings--><g id="link_TTAbstractFactory_TTContactsSettings"><path codeLine="96" d="M1552.5589,287.2332 C1612.5989,291.5632 1683.98,300.55 1754,323 C1858.31,356.45 1867.54,405.03 1972,438 C2093.33,476.3 2152.12,400.54 2256,474 C2407.08,580.85 2290.84,740.69 2443,846 C2472.4,866.35 2569.29,851.07 2603,863 C2630.24,872.64 2657.54,890.86 2677.03,905.72 " fill="none" id="TTAbstractFactory-backto-TTContactsSettings" style="stroke:#181818;stroke-width:1.0;"/><polygon fill="none" points="1540.59,286.37,1546.2867,290.7912,1552.5589,287.2332,1546.8622,282.812,1540.59,286.37" style="stroke:#181818;stroke-width:1.0;"/></g><!--reverse link TTAbstractFactory to TTChatSettings--><g id="link_TTAbstractFactory_TTChatSettings"><path codeLine="97" d="M1552.4204,286.4291 C1691.0604,291.9691 1952.11,304.59 1992,323 C2057.34,353.16 2041.52,406.04 2106,438 C2216.05,492.55 2264.61,431.93 2380,474 C2519.67,524.92 2800.94,783.88 2936,846 C2962.35,858.12 2972.97,850.22 2999,863 C3021.64,874.11 3044.23,891.49 3060.72,905.63 " fill="none" id="TTAbstractFactory-backto-TTChatSettings" style="stroke:#181818;stroke-width:1.0;"/><polygon fill="none" points="1540.43,285.95,1546.2655,290.1864,1552.4204,286.4291,1546.5849,282.1928,1540.43,285.95" style="stroke:#181818;stroke-width:1.0;"/></g><!--reverse link TTAbstractFactory to TTTextBoxSettings--><g id="link_TTAbstractFactory_TTTextBoxSettings"><path codeLine="98" d="M1552.5443,287.6628 C1717.6043,296.1028 2068.99,314.85 2095,323 C2124.13,332.13 2153.53,350.59 2174.44,365.68 " fill="none" id="TTAbstractFactory-backto-TTTextBoxSettings" style="stroke:#181818;stroke-width:1.0;"/><polygon fill="none" points="1540.56,287.05,1546.3479,291.3512,1552.5443,287.6628,1546.7564,283.3616,1540.56,287.05" style="stroke:#181818;stroke-width:1.0;"/></g><!--reverse link TTAbstractFactory to TTContactsHandler--><g id="link_TTAbstractFactory_TTContactsHandler"><path codeLine="99" d="M1519.7215,308.7642 C1601.7815,343.2442 1757.7,404.82 1901,438 C1967.7,453.45 2152.07,433.13 2207,474 C2351.53,581.55 2250.02,709.85 2368,846 C2371.66,850.22 2425.07,882.53 2463.59,905.56 " fill="none" id="TTAbstractFactory-backto-TTContactsHandler" style="stroke:#181818;stroke-width:1.0;"/><polygon fill="#181818" points="1514.19,306.44,1520.9378,313.6141,1518.7996,308.3769,1524.0368,306.2387,1514.19,306.44" style="stroke:#181818;stroke-width:1.0;"/></g><!--reverse link TTAbstractFactory to TTChatHandler--><g id="link_TTAbstractFactory_TTChatHandler"><path codeLine="100" d="M1546.5959,285.543 C1652.8059,289.493 1827.39,299.3 1889,323 C1968.73,353.67 1963.95,405.62 2043,438 C2152.18,482.72 2197.05,428.74 2306,474 C2557.86,578.61 2573.66,685.29 2794,846 C2822.19,866.56 2854.7,889.17 2878.62,905.59 " fill="none" id="TTAbstractFactory-backto-TTChatHandler" style="stroke:#181818;stroke-width:1.0;"/><polygon fill="#181818" points="1540.6,285.32,1549.4451,289.6517,1545.5965,285.5058,1549.7424,281.6572,1540.6,285.32" style="stroke:#181818;stroke-width:1.0;"/></g><!--reverse link TTAbstractFactory to TTTextBoxHandler--><g id="link_TTAbstractFactory_TTTextBoxHandler"><path codeLine="101" d="M1546.3389,284.4828 C1743.0289,288.1828 2231.88,299.61 2303,323 C2330.08,331.9 2356.73,350.39 2375.55,365.54 " fill="none" id="TTAbstractFactory-backto-TTTextBoxHandler" style="stroke:#181818;stroke-width:1.0;"/><polygon fill="#181818" points="1540.34,284.37,1549.2632,288.5386,1545.3391,284.464,1549.4136,280.54,1540.34,284.37" style="stroke:#181818;stroke-width:1.0;"/></g><!--reverse link TTAbstractFactory to TTNeighborsStub--><g id="link_TTAbstractFactory_TTNeighborsStub"><path codeLine="102" d="M1373.7702,282.5154 C1271.9802,283.2854 1109.46,289.72 1058,323 C900.02,425.18 895.53,508.22 847,690 C829.12,756.99 825.39,780.12 847,846 C854.41,868.6 870.59,890.12 884.42,905.58 " fill="none" id="TTAbstractFactory-backto-TTNeighborsStub" style="stroke:#181818;stroke-width:1.0;"/><polygon fill="#181818" points="1379.77,282.47,1370.74,278.5382,1374.7701,282.5078,1370.8005,286.538,1379.77,282.47" style="stroke:#181818;stroke-width:1.0;"/></g><!--reverse link TTAbstractFactory to TTBroadcasterChat--><g id="link_TTAbstractFactory_TTBroadcasterChat"><path codeLine="103" d="M1471.5532,312.0268 C1473.3632,317.4068 1473.06,317.49 1474,323 C1482.56,373.39 1492.51,390.36 1474,438 C1468.77,451.46 1458.88,463.72 1448.97,473.54 " fill="none" id="TTAbstractFactory-backto-TTBroadcasterChat" style="stroke:#181818;stroke-width:1.0;"/><polygon fill="#181818" points="1469.64,306.34,1468.7186,316.1457,1471.2343,311.079,1476.301,313.5947,1469.64,306.34" style="stroke:#181818;stroke-width:1.0;"/></g><!--reverse link TTAbstractFactory to TTBroadcasterDiscovery--><g id="link_TTAbstractFactory_TTBroadcasterDiscovery"><path codeLine="104" d="M1373.5376,285.0219 C1308.0376,288.3219 1228.95,297.3 1207,323 C1162.32,375.29 1234.57,615.07 1247,630 C1292.15,684.23 1354.64,631.43 1394,690 C1415.72,722.33 1405.3,769.92 1395.99,797.96 " fill="none" id="TTAbstractFactory-backto-TTBroadcasterDiscovery" style="stroke:#181818;stroke-width:1.0;"/><polygon fill="#181818" points="1379.53,284.72,1370.3401,281.1779,1374.5363,284.9716,1370.7427,289.1678,1379.53,284.72" style="stroke:#181818;stroke-width:1.0;"/></g><!--reverse link TTAbstractFactory to TTNeighborsServiceChat--><g id="link_TTAbstractFactory_TTNeighborsServiceChat"><path codeLine="105" d="M1426.119,310.0009 C1403.949,327.6809 1378.28,348.13 1356.12,365.79 " fill="none" id="TTAbstractFactory-backto-TTNeighborsServiceChat" style="stroke:#181818;stroke-width:1.0;"/><polygon fill="#181818" points="1430.81,306.26,1421.2796,308.7441,1426.9008,309.3775,1426.2675,314.9987,1430.81,306.26" style="stroke:#181818;stroke-width:1.0;"/></g><!--reverse link TTAbstractFactory to TTNeighborsServiceDiscovery--><g id="link_TTAbstractFactory_TTNeighborsServiceDiscovery"><path codeLine="106" d="M1373.4696,286.1997 C1302.0496,290.2497 1210.45,299.66 1180,323 C1064.84,411.26 989.91,508.36 1069,630 C1087.49,658.44 1118.21,677.21 1149.46,689.57 " fill="none" id="TTAbstractFactory-backto-TTNeighborsServiceDiscovery" style="stroke:#181818;stroke-width:1.0;"/><polygon fill="#181818" points="1379.46,285.86,1370.248,282.376,1374.468,286.1431,1370.7009,290.3631,1379.46,285.86" style="stroke:#181818;stroke-width:1.0;"/></g><!--reverse link TTAbstractFactory to TTServer--><g id="link_TTAbstractFactory_TTServer"><path codeLine="107" d="M1480.6262,311.1025 C1511.9862,356.3825 1567.66,453.26 1521,522 C1485.04,574.97 1409.38,594.14 1359.64,601.07 " fill="none" id="TTAbstractFactory-backto-TTServer" style="stroke:#181818;stroke-width:1.0;"/><polygon fill="#181818" points="1477.21,306.17,1479.0459,315.8462,1480.0568,310.2804,1485.6226,311.2913,1477.21,306.17" style="stroke:#181818;stroke-width:1.0;"/></g><!--link TTServer to TTUtilsStopable--><g id="link_TTServer_TTUtilsStopable"><path codeLine="109" d="M1359.17,630.41 C1454.11,676.79 1675.85,781.43 1871,846 C1901.81,856.19 1912.63,849.2 1942,863 C1965.16,873.88 1974.5124,879.7586 1991.1924,894.0286 " fill="none" id="TTServer-to-TTUtilsStopable" style="stroke:#181818;stroke-width:1.0;"/><polygon fill="none" points="2004.87,905.73,1995.0929,889.4694,1987.2919,898.5878,2004.87,905.73" style="stroke:#181818;stroke-width:1.0;"/></g><!--reverse link TTServer to TTNeighborsServiceChat--><g id="link_TTServer_TTNeighborsServiceChat"><path codeLine="110" d="M1313.1985,575.7956 C1314.3285,549.5956 1316.18,511.7 1319,474 C1320.51,453.79 1322.76,430.86 1324.49,414.23 " fill="none" id="TTServer-backto-TTNeighborsServiceChat" style="stroke:#181818;stroke-width:1.0;"/><polygon fill="#181818" points="1312.94,581.79,1317.3241,572.9707,1313.1554,576.7946,1309.3315,572.626,1312.94,581.79" style="stroke:#181818;stroke-width:1.0;"/></g><!--reverse link TTServer to TTNeighborsServiceDiscovery--><g id="link_TTServer_TTNeighborsServiceDiscovery"><path codeLine="111" d="M1296.9074,635.5652 C1287.5674,653.2452 1277.59,672.13 1268.26,689.79 " fill="none" id="TTServer-backto-TTNeighborsServiceDiscovery" style="stroke:#181818;stroke-width:1.0;"/><polygon fill="#181818" points="1299.71,630.26,1291.9692,636.3494,1297.3745,634.681,1299.0428,640.0862,1299.71,630.26" style="stroke:#181818;stroke-width:1.0;"/></g><!--link TTBroadcasterChat to TTUtilsStopable--><g id="link_TTBroadcasterChat_TTUtilsStopable"><path codeLine="113" d="M1458.21,522.39 C1484.55,538.71 1520.21,561.21 1551,582 C1723.76,698.66 1909.3756,837.6395 1984.7656,894.6795 " fill="none" id="TTBroadcasterChat-to-TTUtilsStopable" style="stroke:#181818;stroke-width:1.0;"/><polygon fill="none" points="1999.12,905.54,1988.3858,889.8947,1981.1454,899.4643,1999.12,905.54" style="stroke:#181818;stroke-width:1.0;"/></g><!--reverse link TTBroadcasterChat to TTContactsHandler--><g id="link_TTBroadcasterChat_TTContactsHandler"><path codeLine="114" d="M1508.0964,526.0628 C1558.3264,541.8728 1613.78,560.16 1672,582 C1954.33,687.92 2018.25,730.98 2297,846 C2346.54,866.44 2403.02,889.16 2444.29,905.65 " fill="none" id="TTBroadcasterChat-backto-TTContactsHandler" style="stroke:#181818;stroke-width:1.0;"/><polygon fill="none" points="1496.65,522.46,1501.1723,528.0769,1508.0964,526.0628,1503.5741,520.4459,1496.65,522.46" style="stroke:#181818;stroke-width:1.0;"/></g><!--reverse link TTBroadcasterChat to TTChatHandler--><g id="link_TTBroadcasterChat_TTChatHandler"><path codeLine="115" d="M1515.4742,521.3872 C1583.6142,537.5972 1670.45,558.84 1756,582 C2156.73,690.47 2245.01,764.09 2652,846 C2719.07,859.5 2740.26,840.86 2805,863 C2833.48,872.74 2862.41,890.96 2883.15,905.79 " fill="none" id="TTBroadcasterChat-backto-TTChatHandler" style="stroke:#181818;stroke-width:1.0;"/><polygon fill="none" points="1503.8,518.61,1508.7114,523.89,1515.4742,521.3872,1510.5628,516.1072,1503.8,518.61" style="stroke:#181818;stroke-width:1.0;"/></g><!--reverse link TTBroadcasterChat to TTNeighborsStub--><g id="link_TTBroadcasterChat_TTNeighborsStub"><path codeLine="116" d="M1324.898,522.8387 C1277.188,536.5687 1228.86,553.98 1180,582 C1151.57,598.31 1148.96,608.75 1124,630 C1092.54,656.78 1079.84,658.59 1053,690 C992.14,761.2 940.63,860.89 918.96,905.64 " fill="none" id="TTBroadcasterChat-backto-TTNeighborsStub" style="stroke:#181818;stroke-width:1.0;"/><polygon fill="none" points="1336.43,519.52,1329.5578,517.3353,1324.898,522.8387,1331.7702,525.0233,1336.43,519.52" style="stroke:#181818;stroke-width:1.0;"/></g><!--reverse link TTBroadcasterChat to TTNetworkInterface--><g id="link_TTBroadcasterChat_TTNetworkInterface"><path codeLine="117" d="M1426.2256,534.1441 C1433.4556,580.0841 1440.99,671.81 1394,738 C1358.09,788.58 1320.58,765.09 1268,798 C1215.49,830.86 1160.4,877.85 1129.31,905.71 " fill="none" id="TTBroadcasterChat-backto-TTNetworkInterface" style="stroke:#181818;stroke-width:1.0;"/><polygon fill="none" points="1424.36,522.29,1421.3414,528.8389,1426.2256,534.1441,1429.2442,527.5952,1424.36,522.29" style="stroke:#181818;stroke-width:1.0;"/></g><!--reverse link TTBroadcasterChat to TTServer--><g id="link_TTBroadcasterChat_TTServer"><path codeLine="118" d="M1392.0183,526.4632 C1374.0083,544.1432 1353.64,564.13 1335.65,581.79 " fill="none" id="TTBroadcasterChat-backto-TTServer" style="stroke:#181818;stroke-width:1.0;"/><polygon fill="#181818" points="1396.3,522.26,1387.0753,525.7104,1392.7319,525.7627,1392.6796,531.4193,1396.3,522.26" style="stroke:#181818;stroke-width:1.0;"/></g><!--reverse link TTBroadcasterChat to TTTellRequest--><g id="link_TTBroadcasterChat_TTTellRequest"><path codeLine="119" d="M1330.512,507.5386 C1246.512,517.5286 1120.5,538.32 1014,582 C932.57,615.4 912.46,630.06 848,690 C779.29,753.9 769.01,779.1 727,863 C702.28,912.37 725.44,946.63 680,978 C665.68,987.88 383.35,980.06 367,986 C342.95,994.74 320.55,1013.45 305.09,1028.72 " fill="none" id="TTBroadcasterChat-backto-TTTellRequest" style="stroke:#181818;stroke-width:1.0;"/><polygon fill="#181818" points="1336.47,506.83,1327.0606,503.9209,1331.505,507.4205,1328.0054,511.8649,1336.47,506.83" style="stroke:#181818;stroke-width:1.0;"/></g><!--reverse link TTBroadcasterChat to TTTellResponse--><g id="link_TTBroadcasterChat_TTTellResponse"><path codeLine="120" d="M1356.4877,524.8827 C1321.9477,539.9027 1283.41,558.55 1247,582 C1184.14,622.49 1149.64,622.25 1118,690 C1081.41,768.35 1180.67,780.64 1207,863 C1222.56,911.68 1242.61,941.34 1207,978 C1196.31,989 945.49,980.98 931,986 C905.73,994.75 881.67,1013.46 864.95,1028.73 " fill="none" id="TTBroadcasterChat-backto-TTTellResponse" style="stroke:#181818;stroke-width:1.0;"/><polygon fill="#181818" points="1361.99,522.49,1352.1415,522.4109,1357.4048,524.4839,1355.3317,529.7472,1361.99,522.49" style="stroke:#181818;stroke-width:1.0;"/></g><!--reverse link TTBroadcasterChat to TTNarrateRequest--><g id="link_TTBroadcasterChat_TTNarrateRequest"><path codeLine="121" d="M1330.4303,507.3827 C1205.9303,519.9527 984.52,546.36 911,582 C760.85,654.79 749.31,720.8 662,863 C632.26,911.45 653.9,947.38 606,978 C587.04,990.12 222.46,979.22 201,986 C173.81,994.6 147.26,1013.31 128.66,1028.63 " fill="none" id="TTBroadcasterChat-backto-TTNarrateRequest" style="stroke:#181818;stroke-width:1.0;"/><polygon fill="#181818" points="1336.4,506.78,1327.0437,503.7043,1331.4253,507.2823,1327.8473,511.6638,1336.4,506.78" style="stroke:#181818;stroke-width:1.0;"/></g><!--reverse link TTBroadcasterChat to TTNarrateResponse--><g id="link_TTBroadcasterChat_TTNarrateResponse"><path codeLine="122" d="M1330.3549,514.868 C1268.5149,527.688 1189.28,548.38 1120,582 C938.65,670 864.26,688.13 764,863 C737.55,909.13 772.65,944.94 731,978 C717.23,988.93 589.74,980.63 573,986 C545.09,994.95 517.34,1013.43 497.69,1028.56 " fill="none" id="TTBroadcasterChat-backto-TTNarrateResponse" style="stroke:#181818;stroke-width:1.0;"/><polygon fill="#181818" points="1336.23,513.65,1326.6054,511.5602,1331.3341,514.665,1328.2294,519.3937,1336.23,513.65" style="stroke:#181818;stroke-width:1.0;"/></g><!--reverse link TTBroadcasterChat to TTUtilsTimer--><g id="link_TTBroadcasterChat_TTUtilsTimer"><path codeLine="123" d="M1438.6332,532.94 C1479.7532,607.87 1602,830.6 1643.13,905.55 " fill="none" id="TTBroadcasterChat-backto-TTUtilsTimer" style="stroke:#181818;stroke-width:1.0;"/><polygon fill="none" points="1432.86,522.42,1432.2399,529.6044,1438.6332,532.94,1439.2533,525.7556,1432.86,522.42" style="stroke:#181818;stroke-width:1.0;"/></g><!--reverse link TTBroadcasterChat to TTUtilsTimerFactory--><g id="link_TTBroadcasterChat_TTUtilsTimerFactory"><path codeLine="124" d="M1451.8758,530.6046 C1468.5758,547.1846 1483,561.65 1503,582 C1621.84,702.95 1762.28,849.67 1815.79,905.72 " fill="none" id="TTBroadcasterChat-backto-TTUtilsTimerFactory" style="stroke:#181818;stroke-width:1.0;"/><polygon fill="none" points="1443.36,522.15,1444.7997,529.2159,1451.8758,530.6046,1450.4361,523.5387,1443.36,522.15" style="stroke:#181818;stroke-width:1.0;"/></g><!--reverse link TTBroadcasterChat to TTDiagnosticsLogger--><g id="link_TTBroadcasterChat_TTDiagnosticsLogger"><path codeLine="125" d="M1486.2593,524.7271 C1524.1893,540.1271 1568.05,559.31 1610,582 C1704.16,632.94 1913.19,807.26 2013,846 C2057.07,863.11 2073.7,846.5 2118,863 C2145.61,873.29 2173.86,891.08 2194.39,905.6 " fill="none" id="TTBroadcasterChat-backto-TTDiagnosticsLogger" style="stroke:#181818;stroke-width:1.0;stroke-dasharray:7.0,7.0;"/><polygon fill="#181818" points="1480.7,522.47,1487.5341,529.5619,1485.3327,524.3509,1490.5436,522.1495,1480.7,522.47" style="stroke:#181818;stroke-width:1.0;"/></g><!--link TTBroadcasterDiscovery to TTUtilsStopable--><g id="link_TTBroadcasterDiscovery_TTUtilsStopable"><path codeLine="127" d="M1488.94,832.26 C1539.72,836.71 1602.08,841.95 1658,846 C1721.06,850.56 1882.64,841.22 1942,863 C1966.74,872.08 1977.0866,878.4139 1993.6266,893.5139 " fill="none" id="TTBroadcasterDiscovery-to-TTUtilsStopable" style="stroke:#181818;stroke-width:1.0;"/><polygon fill="none" points="2006.92,905.65,1997.6719,889.0828,1989.5812,897.9451,2006.92,905.65" style="stroke:#181818;stroke-width:1.0;"/></g><!--reverse link TTBroadcasterDiscovery to TTContactsHandler--><g id="link_TTBroadcasterDiscovery_TTContactsHandler"><path codeLine="128" d="M1500.8829,826.8515 C1736.3729,834.9315 2289.43,854.63 2330,863 C2373.45,871.96 2420.32,890.44 2454.31,905.57 " fill="none" id="TTBroadcasterDiscovery-backto-TTContactsHandler" style="stroke:#181818;stroke-width:1.0;"/><polygon fill="none" points="1488.89,826.44,1494.7493,830.6434,1500.8829,826.8515,1495.0236,822.6481,1488.89,826.44" style="stroke:#181818;stroke-width:1.0;"/></g><!--reverse link TTBroadcasterDiscovery to TTChatHandler--><g id="link_TTBroadcasterDiscovery_TTChatHandler"><path codeLine="129" d="M1500.8087,824.6162 C1815.3387,829.2362 2742.17,844.36 2805,863 C2834.28,871.69 2863.61,890.4 2884.29,905.69 " fill="none" id="TTBroadcasterDiscovery-backto-TTChatHandler" style="stroke:#181818;stroke-width:1.0;"/><polygon fill="none" points="1488.81,824.44,1494.7506,828.5277,1500.8087,824.6162,1494.8681,820.5286,1488.81,824.44" style="stroke:#181818;stroke-width:1.0;"/></g><!--reverse link TTBroadcasterDiscovery to TTNeighborsStub--><g id="link_TTBroadcasterDiscovery_TTNeighborsStub"><path codeLine="130" d="M1273.2594,828.3729 C1176.7694,833.8729 1051.28,844.06 1001,863 C975.62,872.56 950.77,890.79 933.15,905.67 " fill="none" id="TTBroadcasterDiscovery-backto-TTNeighborsStub" style="stroke:#181818;stroke-width:1.0;"/><polygon fill="none" points="1285.24,827.69,1279.0221,824.0379,1273.2594,828.3729,1279.4774,832.025,1285.24,827.69" style="stroke:#181818;stroke-width:1.0;"/></g><!--reverse link TTBroadcasterDiscovery to TTNetworkInterface--><g id="link_TTBroadcasterDiscovery_TTNetworkInterface"><path codeLine="131" d="M1313.3025,850.5993 C1266.2625,868.2193 1213.3,888.06 1166.3,905.67 " fill="none" id="TTBroadcasterDiscovery-backto-TTNetworkInterface" style="stroke:#181818;stroke-width:1.0;"/><polygon fill="none" points="1324.54,846.39,1317.5181,844.7488,1313.3025,850.5993,1320.3243,852.2405,1324.54,846.39" style="stroke:#181818;stroke-width:1.0;"/></g><!--reverse link TTBroadcasterDiscovery to TTGreetRequest--><g id="link_TTBroadcasterDiscovery_TTGreetRequest"><path codeLine="132" d="M1331.1717,849.3635 C1322.3617,854.3235 1318.77,856.97 1311,863 C1256.56,905.25 1269.74,949.48 1207,978 C1161.17,998.83 801.74,970.04 754,986 C728.27,994.6 703.65,1013.32 686.53,1028.63 " fill="none" id="TTBroadcasterDiscovery-backto-TTGreetRequest" style="stroke:#181818;stroke-width:1.0;"/><polygon fill="#181818" points="1336.4,846.42,1326.5951,847.3497,1332.043,848.8729,1330.5198,854.3209,1336.4,846.42" style="stroke:#181818;stroke-width:1.0;"/></g><!--reverse link TTBroadcasterDiscovery to TTGreetResponse--><g id="link_TTBroadcasterDiscovery_TTGreetResponse"><path codeLine="133" d="M1389.1255,852.445 C1390.4855,885.655 1387.72,940.5 1356,978 C1349.55,985.63 1343.84,981.36 1335,986 C1311.72,998.21 1287.32,1015.04 1268.95,1028.65 " fill="none" id="TTBroadcasterDiscovery-backto-TTGreetResponse" style="stroke:#181818;stroke-width:1.0;"/><polygon fill="#181818" points="1388.88,846.45,1385.2516,855.6061,1389.0846,851.4458,1393.2449,855.2788,1388.88,846.45" style="stroke:#181818;stroke-width:1.0;"/></g><!--reverse link TTBroadcasterDiscovery to TTHeartbeatRequest--><g id="link_TTBroadcasterDiscovery_TTHeartbeatRequest"><path codeLine="134" d="M1359.9658,850.9284 C1355.6158,856.1184 1355.27,857.22 1352,863 C1325.55,909.73 1357.65,945.38 1315,978 C1299.8,989.62 1161.27,980.32 1143,986 C1114.43,994.89 1085.86,1013.37 1065.59,1028.53 " fill="none" id="TTBroadcasterDiscovery-backto-TTHeartbeatRequest" style="stroke:#181818;stroke-width:1.0;"/><polygon fill="#181818" points="1363.82,846.33,1354.9731,850.6582,1360.6082,850.162,1361.1044,855.7971,1363.82,846.33" style="stroke:#181818;stroke-width:1.0;"/></g><!--reverse link TTBroadcasterDiscovery to TTHeartbeatResponse--><g id="link_TTBroadcasterDiscovery_TTHeartbeatResponse"><path codeLine="135" d="M1394.4772,852.0302 C1405.7872,895.9202 1428.68,984.78 1440,1028.72 " fill="none" id="TTBroadcasterDiscovery-backto-TTHeartbeatResponse" style="stroke:#181818;stroke-width:1.0;"/><polygon fill="#181818" points="1392.98,846.22,1391.3524,855.9334,1394.2277,851.0618,1399.0993,853.9371,1392.98,846.22" style="stroke:#181818;stroke-width:1.0;"/></g><!--reverse link TTBroadcasterDiscovery to TTUtilsTimer--><g id="link_TTBroadcasterDiscovery_TTUtilsTimer"><path codeLine="136" d="M1500.6008,843.9541 C1523.1708,849.6041 1534.97,853.91 1556,863 C1581.4,873.97 1607.4,891.36 1626.52,905.53 " fill="none" id="TTBroadcasterDiscovery-backto-TTUtilsTimer" style="stroke:#181818;stroke-width:1.0;"/><polygon fill="none" points="1488.96,841.04,1493.809,846.3773,1500.6008,843.9541,1495.7518,838.6168,1488.96,841.04" style="stroke:#181818;stroke-width:1.0;"/></g><!--reverse link TTBroadcasterDiscovery to TTUtilsTimerFactory--><g id="link_TTBroadcasterDiscovery_TTUtilsTimerFactory"><path codeLine="137" d="M1500.6252,830.5832 C1586.4452,837.1332 1690.2,847.5 1734,863 C1761.62,872.77 1789.46,890.99 1809.38,905.81 " fill="none" id="TTBroadcasterDiscovery-backto-TTUtilsTimerFactory" style="stroke:#181818;stroke-width:1.0;"/><polygon fill="none" points="1488.66,829.67,1494.3382,834.115,1500.6252,830.5832,1494.947,826.1382,1488.66,829.67" style="stroke:#181818;stroke-width:1.0;"/></g><!--reverse link TTBroadcasterDiscovery to TTDiagnosticsLogger--><g id="link_TTBroadcasterDiscovery_TTDiagnosticsLogger"><path codeLine="138" d="M1494.8756,833.3501 C1545.6556,837.9401 1602.03,842.59 1658,846 C1709.05,849.11 2069.06,848.14 2118,863 C2147.03,871.82 2176.08,890.52 2196.57,905.77 " fill="none" id="TTBroadcasterDiscovery-backto-TTDiagnosticsLogger" style="stroke:#181818;stroke-width:1.0;stroke-dasharray:7.0,7.0;"/><polygon fill="#181818" points="1488.9,832.81,1497.5034,837.604,1493.8797,833.2601,1498.2235,829.6364,1488.9,832.81" style="stroke:#181818;stroke-width:1.0;"/></g><!--SRC=[ZPPjRjim38R_-nI-G7g0mWZGjDjQO2Y6nZk0edAkKSzA9QNhiEtkKnB7jlWX-KU1LEz3IY8fqdkbNrK3PLr_wfksXysXV-wWhAedq5xrJGVhTVcdA4lTAUT6Z2nimVksRznCU8IsUTaPwxPWtriDjo_A9-Ixrcdp3lRtZ3bAO5aZVzZDrZVMg6Ujd0UBjfaft0utE-Ujqlvp-3Cd9Vn_q3v8DNJT4xmTm7cwxFQcTp1VVrJMAW-CnQXGeoyMm3Ccmperk0Tb_GuKPpJJHiCfSFwNiQyFVOZ33wMX-5SK-p7ttwpnHflEPT8_XlyOvElh8NDK7YETO0ON8O_JePAE8Z8w_gtfVSYVonRl1RnNHz0oobZ7yGRXh7dd0M8SXrNUQGqVVcC-idu7ZheU1DxxTzzs-O2SgAqtUxNh0A_NxSzelsbnUYqNxQvLJM-SRxNxQfecs8NJN9f3kLhzNPFTHjMiLanki3oBBf9GW93Ajg4CCtKA10uDIJG_TYKaujOaoyokrTKLRR58nIqCoUJb8vrchi0xeWoHWs1kNl82WsjNmAIx8OpSiU3pVYv4eOi99b8MMRWQBZTDZYI8PeR4odaI2nVTb6d8AUDaQSfcvqj5CosFaucMD5aIYl08JxwJeoPf88uTpahEDoQ6gSmZYLfWeAGhCGC4IRf9PeR597Torj03bpkD0CQjXeTehy5S9KmWWOj64S-GcSHZU7Bm56q-MMx-O7DRHtDn6PntFqpAul9B-WOOrEIPainqb894IjeKOz8NYC15-USPd5Y98hCPWrNytS7BSGDACUCBvI7IX3AOwEvylzbdP1wPPZpPLEuVNCalo3eUTSdK4rZAFmOJHK3HL2LaHcoUvFAqO10lezFEqvKWSsmvPBy4_WC0]--></g></svg>