<svg xmlns="http://www.w3.org/2000/svg" xmlns:xlink="http://www.w3.org/1999/xlink" contentStyleType="text/css" height="436px" preserveAspectRatio="none" style="width:1110px;height:436px;background:#FFFFFF;" version="1.1" viewBox="0 0 1110 436" width="1110px" zoomAndPan="magnify"><defs/><g><!--cluster TTChatBundle--><g id="cluster_TTChatBundle"><rect fill="none" height="423" rx="2.5" ry="2.5" style="stroke:#181818;stroke-width:1.0;" width="405" x="7" y="7"/><text fill="#000000" font-family="sans-serif" font-size="14" font-weight="bold" lengthAdjust="spacing" textLength="110.4004" x="154.2998" y="21.9951">TTChatBundle</text></g><!--cluster TTDiagnosticsBundle--><g id="cluster_TTDiagnosticsBundle"><rect fill="none" height="99" rx="2.5" ry="2.5" style="stroke:#181818;stroke-width:1.0;" width="210" x="894" y="331"/><text fill="#000000" font-family="sans-serif" font-size="14" font-weight="bold" lengthAdjust="spacing" textLength="165.9492" x="916.0254" y="345.9951">TTDiagnosticsBundle</text></g><!--cluster TTUtilsBundle--><g id="cluster_TTUtilsBundle"><rect fill="none" height="207" rx="2.5" ry="2.5" style="stroke:#181818;stroke-width:1.0;" width="434" x="436" y="223"/><text fill="#000000" font-family="sans-serif" font-size="14" font-weight="bold" lengthAdjust="spacing" textLength="110.0107" x="597.9946" y="237.9951">TTUtilsBundle</text></g><!--class TTChat--><g id="elem_TTChat"><rect codeLine="2" fill="#F1F1F1" height="48" id="TTChat" rx="2.5" ry="2.5" style="stroke:#181818;stroke-width:0.5;" width="81.8203" x="285.09" y="42"/><ellipse cx="300.09" cy="58" fill="#ADD1B2" rx="11" ry="11" style="stroke:#181818;stroke-width:1.0;"/><path d="M303.0588,63.6406 Q302.4806,63.9375 301.84,64.0781 Q301.1994,64.2344 300.4963,64.2344 Q297.9963,64.2344 296.6681,62.5938 Q295.3556,60.9375 295.3556,57.8125 Q295.3556,54.6875 296.6681,53.0313 Q297.9963,51.375 300.4963,51.375 Q301.1994,51.375 301.84,51.5313 Q302.4963,51.6875 303.0588,51.9844 L303.0588,54.7031 Q302.4338,54.125 301.84,53.8594 Q301.2463,53.5781 300.6213,53.5781 Q299.2775,53.5781 298.59,54.6563 Q297.9025,55.7188 297.9025,57.8125 Q297.9025,59.9063 298.59,60.9844 Q299.2775,62.0469 300.6213,62.0469 Q301.2463,62.0469 301.84,61.7813 Q302.4338,61.5 303.0588,60.9219 L303.0588,63.6406 Z " fill="#000000"/><text fill="#000000" font-family="sans-serif" font-size="14" lengthAdjust="spacing" textLength="49.8203" x="314.09" y="62.8467">TTChat</text><line style="stroke:#181818;stroke-width:0.5;" x1="286.09" x2="365.9103" y1="74" y2="74"/><line style="stroke:#181818;stroke-width:0.5;" x1="286.09" x2="365.9103" y1="82" y2="82"/></g><!--class TTChatMessage--><g id="elem_TTChatMessage"><rect codeLine="3" fill="#F1F1F1" height="48" id="TTChatMessage" rx="2.5" ry="2.5" style="stroke:#181818;stroke-width:0.5;" width="143.1797" x="111.41" y="258"/><ellipse cx="126.41" cy="274" fill="#F1F1F1" rx="11" ry="11" style="stroke:#181818;stroke-width:1.0;"/><path d="M125.8944,274.5625 Q124.035,273.8594 123.3788,273.0938 Q122.7381,272.3125 122.7381,271 Q122.7381,269.3125 123.8163,268.3438 Q124.8944,267.375 126.7694,267.375 Q127.6288,267.375 128.4725,267.5781 Q129.3319,267.7656 130.1756,268.1563 L130.1756,270.5469 Q129.3944,269.9844 128.5663,269.7031 Q127.7538,269.4063 126.9569,269.4063 Q126.0819,269.4063 125.5975,269.7656 Q125.1288,270.125 125.1288,270.7813 Q125.1288,271.2969 125.4725,271.6406 Q125.8163,271.9688 126.91,272.375 L127.9725,272.7813 Q129.4569,273.3281 130.16,274.2344 Q130.8788,275.1406 130.8788,276.5156 Q130.8788,278.3906 129.7694,279.3125 Q128.66,280.2344 126.41,280.2344 Q125.4881,280.2344 124.5663,280.0156 Q123.6444,279.7969 122.785,279.375 L122.785,276.8438 Q123.7538,277.5313 124.6756,277.875 Q125.5975,278.2188 126.4881,278.2188 Q127.3944,278.2188 127.8944,277.8125 Q128.3944,277.3906 128.3944,276.6563 Q128.3944,276.0938 128.0506,275.6875 Q127.7225,275.2656 127.0975,275.0156 L125.8944,274.5625 Z " fill="#000000"/><text fill="#000000" font-family="sans-serif" font-size="14" lengthAdjust="spacing" textLength="111.1797" x="140.41" y="278.8467">TTChatMessage</text><line style="stroke:#181818;stroke-width:0.5;" x1="112.41" x2="253.5897" y1="290" y2="290"/><line style="stroke:#181818;stroke-width:0.5;" x1="112.41" x2="253.5897" y1="298" y2="298"/></g><!--class TTChatSettings--><g id="elem_TTChatSettings"><rect codeLine="4" fill="#F1F1F1" height="48" id="TTChatSettings" rx="2.5" ry="2.5" style="stroke:#181818;stroke-width:0.5;" width="139.2422" x="256.38" y="150"/><ellipse cx="271.38" cy="166" fill="#ADD1B2" rx="11" ry="11" style="stroke:#181818;stroke-width:1.0;"/><path d="M274.3488,171.6406 Q273.7706,171.9375 273.13,172.0781 Q272.4894,172.2344 271.7863,172.2344 Q269.2863,172.2344 267.9581,170.5938 Q266.6456,168.9375 266.6456,165.8125 Q266.6456,162.6875 267.9581,161.0313 Q269.2863,159.375 271.7863,159.375 Q272.4894,159.375 273.13,159.5313 Q273.7863,159.6875 274.3488,159.9844 L274.3488,162.7031 Q273.7238,162.125 273.13,161.8594 Q272.5363,161.5781 271.9113,161.5781 Q270.5675,161.5781 269.88,162.6563 Q269.1925,163.7188 269.1925,165.8125 Q269.1925,167.9063 269.88,168.9844 Q270.5675,170.0469 271.9113,170.0469 Q272.5363,170.0469 273.13,169.7813 Q273.7238,169.5 274.3488,168.9219 L274.3488,171.6406 Z " fill="#000000"/><text fill="#000000" font-family="sans-serif" font-size="14" lengthAdjust="spacing" textLength="107.2422" x="285.38" y="170.8467">TTChatSettings</text><line style="stroke:#181818;stroke-width:0.5;" x1="257.38" x2="394.6222" y1="182" y2="182"/><line style="stroke:#181818;stroke-width:0.5;" x1="257.38" x2="394.6222" y1="190" y2="190"/></g><!--class TTChatMessageType--><g id="elem_TTChatMessageType"><rect codeLine="5" fill="#F1F1F1" height="48" id="TTChatMessageType" rx="2.5" ry="2.5" style="stroke:#181818;stroke-width:0.5;" width="177.5166" x="23.24" y="366"/><ellipse cx="38.24" cy="382" fill="#EB937F" rx="11" ry="11" style="stroke:#181818;stroke-width:1.0;"/><path d="M42.3494,388 L34.6306,388 L34.6306,375.6094 L42.3494,375.6094 L42.3494,377.7656 L37.0838,377.7656 L37.0838,380.4375 L41.8494,380.4375 L41.8494,382.5938 L37.0838,382.5938 L37.0838,385.8438 L42.3494,385.8438 L42.3494,388 Z " fill="#000000"/><text fill="#000000" font-family="sans-serif" font-size="14" lengthAdjust="spacing" textLength="145.5166" x="52.24" y="386.8467">TTChatMessageType</text><line style="stroke:#181818;stroke-width:0.5;" x1="24.24" x2="199.7566" y1="398" y2="398"/><line style="stroke:#181818;stroke-width:0.5;" x1="24.24" x2="199.7566" y1="406" y2="406"/></g><!--class TTChatTimestamp--><g id="elem_TTChatTimestamp"><rect codeLine="6" fill="#F1F1F1" height="48" id="TTChatTimestamp" rx="2.5" ry="2.5" style="stroke:#181818;stroke-width:0.5;" width="160.3994" x="235.8" y="366"/><ellipse cx="250.8" cy="382" fill="#ADD1B2" rx="11" ry="11" style="stroke:#181818;stroke-width:1.0;"/><path d="M253.7688,387.6406 Q253.1906,387.9375 252.55,388.0781 Q251.9094,388.2344 251.2063,388.2344 Q248.7063,388.2344 247.3781,386.5938 Q246.0656,384.9375 246.0656,381.8125 Q246.0656,378.6875 247.3781,377.0313 Q248.7063,375.375 251.2063,375.375 Q251.9094,375.375 252.55,375.5313 Q253.2063,375.6875 253.7688,375.9844 L253.7688,378.7031 Q253.1438,378.125 252.55,377.8594 Q251.9563,377.5781 251.3313,377.5781 Q249.9875,377.5781 249.3,378.6563 Q248.6125,379.7188 248.6125,381.8125 Q248.6125,383.9063 249.3,384.9844 Q249.9875,386.0469 251.3313,386.0469 Q251.9563,386.0469 252.55,385.7813 Q253.1438,385.5 253.7688,384.9219 L253.7688,387.6406 Z " fill="#000000"/><text fill="#000000" font-family="sans-serif" font-size="14" lengthAdjust="spacing" textLength="128.3994" x="264.8" y="386.8467">TTChatTimestamp</text><line style="stroke:#181818;stroke-width:0.5;" x1="236.8" x2="395.1994" y1="398" y2="398"/><line style="stroke:#181818;stroke-width:0.5;" x1="236.8" x2="395.1994" y1="406" y2="406"/></g><!--class TTDiagnosticsLogger--><g id="elem_TTDiagnosticsLogger"><rect codeLine="10" fill="#F1F1F1" height="48" id="TTDiagnosticsLogger" rx="2.5" ry="2.5" style="stroke:#181818;stroke-width:0.5;" width="178.8496" x="909.58" y="366"/><ellipse cx="924.58" cy="382" fill="#ADD1B2" rx="11" ry="11" style="stroke:#181818;stroke-width:1.0;"/><path d="M927.5488,387.6406 Q926.9706,387.9375 926.33,388.0781 Q925.6894,388.2344 924.9863,388.2344 Q922.4863,388.2344 921.1581,386.5938 Q919.8456,384.9375 919.8456,381.8125 Q919.8456,378.6875 921.1581,377.0313 Q922.4863,375.375 924.9863,375.375 Q925.6894,375.375 926.33,375.5313 Q926.9863,375.6875 927.5488,375.9844 L927.5488,378.7031 Q926.9238,378.125 926.33,377.8594 Q925.7363,377.5781 925.1113,377.5781 Q923.7675,377.5781 923.08,378.6563 Q922.3925,379.7188 922.3925,381.8125 Q922.3925,383.9063 923.08,384.9844 Q923.7675,386.0469 925.1113,386.0469 Q925.7363,386.0469 926.33,385.7813 Q926.9238,385.5 927.5488,384.9219 L927.5488,387.6406 Z " fill="#000000"/><text fill="#000000" font-family="sans-serif" font-size="14" lengthAdjust="spacing" textLength="146.8496" x="938.58" y="386.8467">TTDiagnosticsLogger</text><line style="stroke:#181818;stroke-width:0.5;" x1="910.58" x2="1087.4296" y1="398" y2="398"/><line style="stroke:#181818;stroke-width:0.5;" x1="910.58" x2="1087.4296" y1="406" y2="406"/></g><!--class TTUtilsOutputStream--><g id="elem_TTUtilsOutputStream"><rect codeLine="14" fill="#F1F1F1" height="48" id="TTUtilsOutputStream" rx="2.5" ry="2.5" style="stroke:#181818;stroke-width:0.5;" width="179.5059" x="674.25" y="258"/><ellipse cx="689.25" cy="274" fill="#ADD1B2" rx="11" ry="11" style="stroke:#181818;stroke-width:1.0;"/><path d="M692.2188,279.6406 Q691.6406,279.9375 691,280.0781 Q690.3594,280.2344 689.6563,280.2344 Q687.1563,280.2344 685.8281,278.5938 Q684.5156,276.9375 684.5156,273.8125 Q684.5156,270.6875 685.8281,269.0313 Q687.1563,267.375 689.6563,267.375 Q690.3594,267.375 691,267.5313 Q691.6563,267.6875 692.2188,267.9844 L692.2188,270.7031 Q691.5938,270.125 691,269.8594 Q690.4063,269.5781 689.7813,269.5781 Q688.4375,269.5781 687.75,270.6563 Q687.0625,271.7188 687.0625,273.8125 Q687.0625,275.9063 687.75,276.9844 Q688.4375,278.0469 689.7813,278.0469 Q690.4063,278.0469 691,277.7813 Q691.5938,277.5 692.2188,276.9219 L692.2188,279.6406 Z " fill="#000000"/><text fill="#000000" font-family="sans-serif" font-size="14" lengthAdjust="spacing" textLength="147.5059" x="703.25" y="278.8467">TTUtilsOutputStream</text><line style="stroke:#181818;stroke-width:0.5;" x1="675.25" x2="852.7559" y1="290" y2="290"/><line style="stroke:#181818;stroke-width:0.5;" x1="675.25" x2="852.7559" y1="298" y2="298"/></g><!--class TTUtilsSyscall--><g id="elem_TTUtilsSyscall"><rect codeLine="15" fill="#F1F1F1" height="48" id="TTUtilsSyscall" rx="2.5" ry="2.5" style="stroke:#181818;stroke-width:0.5;" width="128.4346" x="466.78" y="366"/><ellipse cx="481.78" cy="382" fill="#ADD1B2" rx="11" ry="11" style="stroke:#181818;stroke-width:1.0;"/><path d="M484.7488,387.6406 Q484.1706,387.9375 483.53,388.0781 Q482.8894,388.2344 482.1863,388.2344 Q479.6863,388.2344 478.3581,386.5938 Q477.0456,384.9375 477.0456,381.8125 Q477.0456,378.6875 478.3581,377.0313 Q479.6863,375.375 482.1863,375.375 Q482.8894,375.375 483.53,375.5313 Q484.1863,375.6875 484.7488,375.9844 L484.7488,378.7031 Q484.1238,378.125 483.53,377.8594 Q482.9363,377.5781 482.3113,377.5781 Q480.9675,377.5781 480.28,378.6563 Q479.5925,379.7188 479.5925,381.8125 Q479.5925,383.9063 480.28,384.9844 Q480.9675,386.0469 482.3113,386.0469 Q482.9363,386.0469 483.53,385.7813 Q484.1238,385.5 484.7488,384.9219 L484.7488,387.6406 Z " fill="#000000"/><text fill="#000000" font-family="sans-serif" font-size="14" lengthAdjust="spacing" textLength="96.4346" x="495.78" y="386.8467">TTUtilsSyscall</text><line style="stroke:#181818;stroke-width:0.5;" x1="467.78" x2="594.2146" y1="398" y2="398"/><line style="stroke:#181818;stroke-width:0.5;" x1="467.78" x2="594.2146" y1="406" y2="406"/></g><!--class TTUtilsMessageQueue--><g id="elem_TTUtilsMessageQueue"><rect codeLine="16" fill="#F1F1F1" height="48" id="TTUtilsMessageQueue" rx="2.5" ry="2.5" style="stroke:#181818;stroke-width:0.5;" width="187.2646" x="452.37" y="258"/><ellipse cx="467.37" cy="274" fill="#ADD1B2" rx="11" ry="11" style="stroke:#181818;stroke-width:1.0;"/><path d="M470.3388,279.6406 Q469.7606,279.9375 469.12,280.0781 Q468.4794,280.2344 467.7763,280.2344 Q465.2763,280.2344 463.9481,278.5938 Q462.6356,276.9375 462.6356,273.8125 Q462.6356,270.6875 463.9481,269.0313 Q465.2763,267.375 467.7763,267.375 Q468.4794,267.375 469.12,267.5313 Q469.7763,267.6875 470.3388,267.9844 L470.3388,270.7031 Q469.7138,270.125 469.12,269.8594 Q468.5263,269.5781 467.9013,269.5781 Q466.5575,269.5781 465.87,270.6563 Q465.1825,271.7188 465.1825,273.8125 Q465.1825,275.9063 465.87,276.9844 Q466.5575,278.0469 467.9013,278.0469 Q468.5263,278.0469 469.12,277.7813 Q469.7138,277.5 470.3388,276.9219 L470.3388,279.6406 Z " fill="#000000"/><text fill="#000000" font-family="sans-serif" font-size="14" lengthAdjust="spacing" textLength="155.2646" x="481.37" y="278.8467">TTUtilsMessageQueue</text><line style="stroke:#181818;stroke-width:0.5;" x1="453.37" x2="638.6346" y1="290" y2="290"/><line style="stroke:#181818;stroke-width:0.5;" x1="453.37" x2="638.6346" y1="298" y2="298"/></g><!--reverse link TTChat to TTUtilsOutputStream--><g id="link_TTChat_TTUtilsOutputStream"><path codeLine="19" d="M378.4652,87.9178 C441.9352,113.5778 555.59,161.35 657,215 C681.69,228.06 708.44,244.56 729.02,257.8 " fill="none" id="TTChat-backto-TTUtilsOutputStream" style="stroke:#181818;stroke-width:1.0;"/><polygon fill="none" points="367.34,83.42,371.4033,89.3773,378.4652,87.9178,374.4019,81.9605,367.34,83.42" style="stroke:#181818;stroke-width:1.0;"/></g><!--reverse link TTChat to TTUtilsMessageQueue--><g id="link_TTChat_TTUtilsMessageQueue"><path codeLine="20" d="M359.184,98.4108 C376.664,115.0008 392.02,129.66 413,150 C451.63,187.45 496.08,231.41 522.57,257.7 " fill="none" id="TTChat-backto-TTUtilsMessageQueue" style="stroke:#181818;stroke-width:1.0;"/><polygon fill="none" points="350.48,90.15,352.0784,97.1817,359.184,98.4108,357.5856,91.3791,350.48,90.15" style="stroke:#181818;stroke-width:1.0;"/></g><!--reverse link TTChat to TTDiagnosticsLogger--><g id="link_TTChat_TTDiagnosticsLogger"><path codeLine="21" d="M373.3051,69.5632 C469.6151,76.3732 707.14,103.76 870,215 C927.6,254.34 969.46,328.03 988.14,365.63 " fill="none" id="TTChat-backto-TTDiagnosticsLogger" style="stroke:#181818;stroke-width:1.0;stroke-dasharray:7.0,7.0;"/><polygon fill="#181818" points="367.32,69.14,376.0155,73.7648,372.3075,69.4927,376.5797,65.7848,367.32,69.14" style="stroke:#181818;stroke-width:1.0;"/></g><!--reverse link TTChat to TTChatSettings--><g id="link_TTChat_TTChatSettings"><path codeLine="22" d="M326,96.26 C326,113.94 326,132.13 326,149.79 " fill="none" id="TTChat-backto-TTChatSettings" style="stroke:#181818;stroke-width:1.0;stroke-dasharray:7.0,7.0;"/><polygon fill="#181818" points="326,90.26,322,99.26,326,95.26,330,99.26,326,90.26" style="stroke:#181818;stroke-width:1.0;"/></g><!--reverse link TTChat to TTChatMessage--><g id="link_TTChat_TTChatMessage"><path codeLine="23" d="M279.5927,89.7054 C254.4627,103.8654 229.03,122.37 211,150 C189.4,183.11 184.14,230.02 183.04,257.79 " fill="none" id="TTChat-backto-TTChatMessage" style="stroke:#181818;stroke-width:1.0;stroke-dasharray:7.0,7.0;"/><polygon fill="#181818" points="284.82,86.76,275.0155,87.6933,280.4639,89.2145,278.9427,94.663,284.82,86.76" style="stroke:#181818;stroke-width:1.0;"/></g><!--reverse link TTChat to TTChatMessageType--><g id="link_TTChat_TTChatMessageType"><path codeLine="24" d="M279.1305,80.825 C223.5205,99.445 132.61,139.5 94,215 C68.98,263.94 88.34,330.66 101.83,365.55 " fill="none" id="TTChat-backto-TTChatMessageType" style="stroke:#181818;stroke-width:1.0;stroke-dasharray:7.0,7.0;"/><polygon fill="#181818" points="284.82,78.92,275.0157,77.9845,280.0787,80.5075,277.5557,85.5706,284.82,78.92" style="stroke:#181818;stroke-width:1.0;"/></g><!--reverse link TTChat to TTChatTimestamp--><g id="link_TTChat_TTChatTimestamp"><path codeLine="25" d="M285.1803,94.0731 C266.1703,108.6631 249.43,125.63 239,150 C230.6,169.61 227.89,179.79 239,198 C247.59,212.09 261.74,202.08 272,215 C307.47,259.65 314.71,329.38 315.96,365.51 " fill="none" id="TTChat-backto-TTChatTimestamp" style="stroke:#181818;stroke-width:1.0;stroke-dasharray:7.0,7.0;"/><polygon fill="#181818" points="289.94,90.42,280.365,92.7264,285.9735,93.4642,285.2358,99.0728,289.94,90.42" style="stroke:#181818;stroke-width:1.0;"/></g><!--reverse link TTChatSettings to TTUtilsSyscall--><g id="link_TTChatSettings_TTUtilsSyscall"><path codeLine="26" d="M347.0909,202.9814 C367.7709,229.9514 400.19,270.52 435,306 C456.14,327.54 482.15,349.8 501.76,365.84 " fill="none" id="TTChatSettings-backto-TTUtilsSyscall" style="stroke:#181818;stroke-width:1.0;stroke-dasharray:7.0,7.0;"/><polygon fill="#181818" points="343.44,198.22,345.7421,207.796,346.4824,202.1878,352.0906,202.9281,343.44,198.22" style="stroke:#181818;stroke-width:1.0;"/></g><!--reverse link TTChatSettings to TTUtilsMessageQueue--><g id="link_TTChatSettings_TTUtilsMessageQueue"><path codeLine="27" d="M382.0091,200.823 C393.6691,206.253 400.56,209.52 412,215 C441,228.89 473.35,244.8 498.99,257.53 " fill="none" id="TTChatSettings-backto-TTUtilsMessageQueue" style="stroke:#181818;stroke-width:1.0;stroke-dasharray:7.0,7.0;"/><polygon fill="#181818" points="376.57,198.29,383.04,205.7155,381.1026,200.4008,386.4173,198.4634,376.57,198.29" style="stroke:#181818;stroke-width:1.0;"/></g><!--reverse link TTChatSettings to TTChatMessage--><g id="link_TTChatSettings_TTChatMessage"><path codeLine="28" d="M289.8007,201.8341 C265.9607,219.5141 238.13,240.13 214.31,257.79 " fill="none" id="TTChatSettings-backto-TTChatMessage" style="stroke:#181818;stroke-width:1.0;stroke-dasharray:7.0,7.0;"/><polygon fill="#181818" points="294.62,198.26,285.0083,200.4082,290.6039,201.2384,289.7737,206.834,294.62,198.26" style="stroke:#181818;stroke-width:1.0;"/></g><!--reverse link TTChatMessage to TTChatMessageType--><g id="link_TTChatMessage_TTChatMessageType"><path codeLine="29" d="M160.7428,316.2307 C148.9028,333.9107 139.37,348.13 127.54,365.79 " fill="none" id="TTChatMessage-backto-TTChatMessageType" style="stroke:#181818;stroke-width:1.0;"/><polygon fill="none" points="167.42,306.26,160.7578,309.0196,160.7428,316.2307,167.405,313.4711,167.42,306.26" style="stroke:#181818;stroke-width:1.0;"/></g><!--reverse link TTChatMessage to TTChatTimestamp--><g id="link_TTChatMessage_TTChatTimestamp"><path codeLine="30" d="M221.572,313.7419 C243.742,331.4219 264.72,348.13 286.88,365.79 " fill="none" id="TTChatMessage-backto-TTChatTimestamp" style="stroke:#181818;stroke-width:1.0;"/><polygon fill="none" points="212.19,306.26,214.387,313.1283,221.572,313.7419,219.3749,306.8736,212.19,306.26" style="stroke:#181818;stroke-width:1.0;"/></g><!--reverse link TTUtilsMessageQueue to TTUtilsSyscall--><g id="link_TTUtilsMessageQueue_TTUtilsSyscall"><path codeLine="31" d="M541.0299,318.1418 C538.5299,335.8218 536.78,348.13 534.28,365.79 " fill="none" id="TTUtilsMessageQueue-backto-TTUtilsSyscall" style="stroke:#181818;stroke-width:1.0;"/><polygon fill="none" points="542.71,306.26,537.9093,311.6409,541.0299,318.1418,545.8305,312.7609,542.71,306.26" style="stroke:#181818;stroke-width:1.0;"/></g><!--reverse link TTUtilsMessageQueue to TTDiagnosticsLogger--><g id="link_TTUtilsMessageQueue_TTDiagnosticsLogger"><path codeLine="32" d="M645.9361,304.3298 C651.6761,305.2998 651.45,305.21 657,306 C751.01,319.44 778.63,297.1 870,323 C903.16,332.4 937.77,350.64 962.79,365.57 " fill="none" id="TTUtilsMessageQueue-backto-TTDiagnosticsLogger" style="stroke:#181818;stroke-width:1.0;stroke-dasharray:7.0,7.0;"/><polygon fill="#181818" points="640.02,303.33,648.2277,308.7737,644.9501,304.1631,649.5607,300.8856,640.02,303.33" style="stroke:#181818;stroke-width:1.0;"/></g><!--SRC=[XP513i8W44NtFGKNq1CqBjIbncZh0IOuGIAbf3CiZF7kLaKjqCRby5y-V_uua1TGAEfwTGPUUdioAChoW9B1AeEBXRWLGaW3H07gH-BEImxp5ebwYuIga5bRHVqpMj_4R7rrAL_h1ecXSSMzADmtrLg3iYsnblGtt83Tj4fX5riTMPl_9YzgvzbvhhX3Q5Ajkf84OzBdiDdUeyVdl- -jH3kRZPhcScGGv78-7zqhagEsC-LpdIdXTOfC_5qZzWz8LCGqCR9IWkK9mnIQ6G-QCyEysTV3bd-XSsoYxGS0]--></g></svg>