<svg xmlns="http://www.w3.org/2000/svg" xmlns:xlink="http://www.w3.org/1999/xlink" contentStyleType="text/css" height="436px" preserveAspectRatio="none" style="width:1072px;height:436px;background:#FFFFFF;" version="1.1" viewBox="0 0 1072 436" width="1072px" zoomAndPan="magnify"><defs/><g><!--cluster TTChatBundle--><g id="cluster_TTChatBundle"><rect fill="none" height="423" rx="2.5" ry="2.5" style="stroke:#181818;stroke-width:1.0;" width="405" x="7" y="7"/><text fill="#000000" font-family="sans-serif" font-size="14" font-weight="bold" lengthAdjust="spacing" textLength="110.4004" x="154.2998" y="21.9951">TTChatBundle</text></g><!--cluster TTDiagnosticsBundle--><g id="cluster_TTDiagnosticsBundle"><rect fill="none" height="99" rx="2.5" ry="2.5" style="stroke:#181818;stroke-width:1.0;" width="210" x="856" y="331"/><text fill="#000000" font-family="sans-serif" font-size="14" font-weight="bold" lengthAdjust="spacing" textLength="165.9492" x="878.0254" y="345.9951">TTDiagnosticsBundle</text></g><!--cluster TTUtilsBundle--><g id="cluster_TTUtilsBundle"><rect fill="none" height="207" rx="2.5" ry="2.5" style="stroke:#181818;stroke-width:1.0;" width="396" x="436" y="223"/><text fill="#000000" font-family="sans-serif" font-size="14" font-weight="bold" lengthAdjust="spacing" textLength="110.0107" x="578.9946" y="237.9951">TTUtilsBundle</text></g><!--class TTChatHandler--><g id="elem_TTChatHandler"><rect codeLine="2" fill="#F1F1F1" height="48" id="TTChatHandler" rx="2.5" ry="2.5" style="stroke:#181818;stroke-width:0.5;" width="136.9453" x="258.53" y="42"/><ellipse cx="273.53" cy="58" fill="#ADD1B2" rx="11" ry="11" style="stroke:#181818;stroke-width:1.0;"/><path d="M276.4988,63.6406 Q275.9206,63.9375 275.28,64.0781 Q274.6394,64.2344 273.9363,64.2344 Q271.4363,64.2344 270.1081,62.5938 Q268.7956,60.9375 268.7956,57.8125 Q268.7956,54.6875 270.1081,53.0313 Q271.4363,51.375 273.9363,51.375 Q274.6394,51.375 275.28,51.5313 Q275.9363,51.6875 276.4988,51.9844 L276.4988,54.7031 Q275.8738,54.125 275.28,53.8594 Q274.6863,53.5781 274.0613,53.5781 Q272.7175,53.5781 272.03,54.6563 Q271.3425,55.7188 271.3425,57.8125 Q271.3425,59.9063 272.03,60.9844 Q272.7175,62.0469 274.0613,62.0469 Q274.6863,62.0469 275.28,61.7813 Q275.8738,61.5 276.4988,60.9219 L276.4988,63.6406 Z " fill="#000000"/><text fill="#000000" font-family="sans-serif" font-size="14" lengthAdjust="spacing" textLength="104.9453" x="287.53" y="62.8467">TTChatHandler</text><line style="stroke:#181818;stroke-width:0.5;" x1="259.53" x2="394.4753" y1="74" y2="74"/><line style="stroke:#181818;stroke-width:0.5;" x1="259.53" x2="394.4753" y1="82" y2="82"/></g><!--class TTChatEntry--><g id="elem_TTChatEntry"><rect codeLine="3" fill="#F1F1F1" height="48" id="TTChatEntry" rx="2.5" ry="2.5" style="stroke:#181818;stroke-width:0.5;" width="119.0693" x="48.47" y="258"/><ellipse cx="63.47" cy="274" fill="#F1F1F1" rx="11" ry="11" style="stroke:#181818;stroke-width:1.0;"/><path d="M62.9544,274.5625 Q61.095,273.8594 60.4388,273.0938 Q59.7981,272.3125 59.7981,271 Q59.7981,269.3125 60.8763,268.3438 Q61.9544,267.375 63.8294,267.375 Q64.6888,267.375 65.5325,267.5781 Q66.3919,267.7656 67.2356,268.1563 L67.2356,270.5469 Q66.4544,269.9844 65.6263,269.7031 Q64.8138,269.4063 64.0169,269.4063 Q63.1419,269.4063 62.6575,269.7656 Q62.1888,270.125 62.1888,270.7813 Q62.1888,271.2969 62.5325,271.6406 Q62.8763,271.9688 63.97,272.375 L65.0325,272.7813 Q66.5169,273.3281 67.22,274.2344 Q67.9388,275.1406 67.9388,276.5156 Q67.9388,278.3906 66.8294,279.3125 Q65.72,280.2344 63.47,280.2344 Q62.5481,280.2344 61.6263,280.0156 Q60.7044,279.7969 59.845,279.375 L59.845,276.8438 Q60.8138,277.5313 61.7356,277.875 Q62.6575,278.2188 63.5481,278.2188 Q64.4544,278.2188 64.9544,277.8125 Q65.4544,277.3906 65.4544,276.6563 Q65.4544,276.0938 65.1106,275.6875 Q64.7825,275.2656 64.1575,275.0156 L62.9544,274.5625 Z " fill="#000000"/><text fill="#000000" font-family="sans-serif" font-size="14" lengthAdjust="spacing" textLength="87.0693" x="77.47" y="278.8467">TTChatEntry</text><line style="stroke:#181818;stroke-width:0.5;" x1="49.47" x2="166.5393" y1="290" y2="290"/><line style="stroke:#181818;stroke-width:0.5;" x1="49.47" x2="166.5393" y1="298" y2="298"/></g><!--class TTChatMessage--><g id="elem_TTChatMessage"><rect codeLine="4" fill="#F1F1F1" height="48" id="TTChatMessage" rx="2.5" ry="2.5" style="stroke:#181818;stroke-width:0.5;" width="143.1797" x="202.41" y="258"/><ellipse cx="217.41" cy="274" fill="#F1F1F1" rx="11" ry="11" style="stroke:#181818;stroke-width:1.0;"/><path d="M216.8944,274.5625 Q215.035,273.8594 214.3788,273.0938 Q213.7381,272.3125 213.7381,271 Q213.7381,269.3125 214.8163,268.3438 Q215.8944,267.375 217.7694,267.375 Q218.6288,267.375 219.4725,267.5781 Q220.3319,267.7656 221.1756,268.1563 L221.1756,270.5469 Q220.3944,269.9844 219.5663,269.7031 Q218.7538,269.4063 217.9569,269.4063 Q217.0819,269.4063 216.5975,269.7656 Q216.1288,270.125 216.1288,270.7813 Q216.1288,271.2969 216.4725,271.6406 Q216.8163,271.9688 217.91,272.375 L218.9725,272.7813 Q220.4569,273.3281 221.16,274.2344 Q221.8788,275.1406 221.8788,276.5156 Q221.8788,278.3906 220.7694,279.3125 Q219.66,280.2344 217.41,280.2344 Q216.4881,280.2344 215.5663,280.0156 Q214.6444,279.7969 213.785,279.375 L213.785,276.8438 Q214.7538,277.5313 215.6756,277.875 Q216.5975,278.2188 217.4881,278.2188 Q218.3944,278.2188 218.8944,277.8125 Q219.3944,277.3906 219.3944,276.6563 Q219.3944,276.0938 219.0506,275.6875 Q218.7225,275.2656 218.0975,275.0156 L216.8944,274.5625 Z " fill="#000000"/><text fill="#000000" font-family="sans-serif" font-size="14" lengthAdjust="spacing" textLength="111.1797" x="231.41" y="278.8467">TTChatMessage</text><line style="stroke:#181818;stroke-width:0.5;" x1="203.41" x2="344.5897" y1="290" y2="290"/><line style="stroke:#181818;stroke-width:0.5;" x1="203.41" x2="344.5897" y1="298" y2="298"/></g><!--class TTChatSettings--><g id="elem_TTChatSettings"><rect codeLine="5" fill="#F1F1F1" height="48" id="TTChatSettings" rx="2.5" ry="2.5" style="stroke:#181818;stroke-width:0.5;" width="139.2422" x="256.38" y="150"/><ellipse cx="271.38" cy="166" fill="#ADD1B2" rx="11" ry="11" style="stroke:#181818;stroke-width:1.0;"/><path d="M274.3488,171.6406 Q273.7706,171.9375 273.13,172.0781 Q272.4894,172.2344 271.7863,172.2344 Q269.2863,172.2344 267.9581,170.5938 Q266.6456,168.9375 266.6456,165.8125 Q266.6456,162.6875 267.9581,161.0313 Q269.2863,159.375 271.7863,159.375 Q272.4894,159.375 273.13,159.5313 Q273.7863,159.6875 274.3488,159.9844 L274.3488,162.7031 Q273.7238,162.125 273.13,161.8594 Q272.5363,161.5781 271.9113,161.5781 Q270.5675,161.5781 269.88,162.6563 Q269.1925,163.7188 269.1925,165.8125 Q269.1925,167.9063 269.88,168.9844 Q270.5675,170.0469 271.9113,170.0469 Q272.5363,170.0469 273.13,169.7813 Q273.7238,169.5 274.3488,168.9219 L274.3488,171.6406 Z " fill="#000000"/><text fill="#000000" font-family="sans-serif" font-size="14" lengthAdjust="spacing" textLength="107.2422" x="285.38" y="170.8467">TTChatSettings</text><line style="stroke:#181818;stroke-width:0.5;" x1="257.38" x2="394.6222" y1="182" y2="182"/><line style="stroke:#181818;stroke-width:0.5;" x1="257.38" x2="394.6222" y1="190" y2="190"/></g><!--class TTChatMessageType--><g id="elem_TTChatMessageType"><rect codeLine="6" fill="#F1F1F1" height="48" id="TTChatMessageType" rx="2.5" ry="2.5" style="stroke:#181818;stroke-width:0.5;" width="177.5166" x="23.24" y="366"/><ellipse cx="38.24" cy="382" fill="#EB937F" rx="11" ry="11" style="stroke:#181818;stroke-width:1.0;"/><path d="M42.3494,388 L34.6306,388 L34.6306,375.6094 L42.3494,375.6094 L42.3494,377.7656 L37.0838,377.7656 L37.0838,380.4375 L41.8494,380.4375 L41.8494,382.5938 L37.0838,382.5938 L37.0838,385.8438 L42.3494,385.8438 L42.3494,388 Z " fill="#000000"/><text fill="#000000" font-family="sans-serif" font-size="14" lengthAdjust="spacing" textLength="145.5166" x="52.24" y="386.8467">TTChatMessageType</text><line style="stroke:#181818;stroke-width:0.5;" x1="24.24" x2="199.7566" y1="398" y2="398"/><line style="stroke:#181818;stroke-width:0.5;" x1="24.24" x2="199.7566" y1="406" y2="406"/></g><!--class TTChatTimestamp--><g id="elem_TTChatTimestamp"><rect codeLine="7" fill="#F1F1F1" height="48" id="TTChatTimestamp" rx="2.5" ry="2.5" style="stroke:#181818;stroke-width:0.5;" width="160.3994" x="235.8" y="366"/><ellipse cx="250.8" cy="382" fill="#ADD1B2" rx="11" ry="11" style="stroke:#181818;stroke-width:1.0;"/><path d="M253.7688,387.6406 Q253.1906,387.9375 252.55,388.0781 Q251.9094,388.2344 251.2063,388.2344 Q248.7063,388.2344 247.3781,386.5938 Q246.0656,384.9375 246.0656,381.8125 Q246.0656,378.6875 247.3781,377.0313 Q248.7063,375.375 251.2063,375.375 Q251.9094,375.375 252.55,375.5313 Q253.2063,375.6875 253.7688,375.9844 L253.7688,378.7031 Q253.1438,378.125 252.55,377.8594 Q251.9563,377.5781 251.3313,377.5781 Q249.9875,377.5781 249.3,378.6563 Q248.6125,379.7188 248.6125,381.8125 Q248.6125,383.9063 249.3,384.9844 Q249.9875,386.0469 251.3313,386.0469 Q251.9563,386.0469 252.55,385.7813 Q253.1438,385.5 253.7688,384.9219 L253.7688,387.6406 Z " fill="#000000"/><text fill="#000000" font-family="sans-serif" font-size="14" lengthAdjust="spacing" textLength="128.3994" x="264.8" y="386.8467">TTChatTimestamp</text><line style="stroke:#181818;stroke-width:0.5;" x1="236.8" x2="395.1994" y1="398" y2="398"/><line style="stroke:#181818;stroke-width:0.5;" x1="236.8" x2="395.1994" y1="406" y2="406"/></g><!--class TTDiagnosticsLogger--><g id="elem_TTDiagnosticsLogger"><rect codeLine="11" fill="#F1F1F1" height="48" id="TTDiagnosticsLogger" rx="2.5" ry="2.5" style="stroke:#181818;stroke-width:0.5;" width="178.8496" x="871.58" y="366"/><ellipse cx="886.58" cy="382" fill="#ADD1B2" rx="11" ry="11" style="stroke:#181818;stroke-width:1.0;"/><path d="M889.5488,387.6406 Q888.9706,387.9375 888.33,388.0781 Q887.6894,388.2344 886.9863,388.2344 Q884.4863,388.2344 883.1581,386.5938 Q881.8456,384.9375 881.8456,381.8125 Q881.8456,378.6875 883.1581,377.0313 Q884.4863,375.375 886.9863,375.375 Q887.6894,375.375 888.33,375.5313 Q888.9863,375.6875 889.5488,375.9844 L889.5488,378.7031 Q888.9238,378.125 888.33,377.8594 Q887.7363,377.5781 887.1113,377.5781 Q885.7675,377.5781 885.08,378.6563 Q884.3925,379.7188 884.3925,381.8125 Q884.3925,383.9063 885.08,384.9844 Q885.7675,386.0469 887.1113,386.0469 Q887.7363,386.0469 888.33,385.7813 Q888.9238,385.5 889.5488,384.9219 L889.5488,387.6406 Z " fill="#000000"/><text fill="#000000" font-family="sans-serif" font-size="14" lengthAdjust="spacing" textLength="146.8496" x="900.58" y="386.8467">TTDiagnosticsLogger</text><line style="stroke:#181818;stroke-width:0.5;" x1="872.58" x2="1049.4296" y1="398" y2="398"/><line style="stroke:#181818;stroke-width:0.5;" x1="872.58" x2="1049.4296" y1="406" y2="406"/></g><!--class TTUtilsSyscall--><g id="elem_TTUtilsSyscall"><rect codeLine="15" fill="#F1F1F1" height="48" id="TTUtilsSyscall" rx="2.5" ry="2.5" style="stroke:#181818;stroke-width:0.5;" width="128.4346" x="466.78" y="366"/><ellipse cx="481.78" cy="382" fill="#ADD1B2" rx="11" ry="11" style="stroke:#181818;stroke-width:1.0;"/><path d="M484.7488,387.6406 Q484.1706,387.9375 483.53,388.0781 Q482.8894,388.2344 482.1863,388.2344 Q479.6863,388.2344 478.3581,386.5938 Q477.0456,384.9375 477.0456,381.8125 Q477.0456,378.6875 478.3581,377.0313 Q479.6863,375.375 482.1863,375.375 Q482.8894,375.375 483.53,375.5313 Q484.1863,375.6875 484.7488,375.9844 L484.7488,378.7031 Q484.1238,378.125 483.53,377.8594 Q482.9363,377.5781 482.3113,377.5781 Q480.9675,377.5781 480.28,378.6563 Q479.5925,379.7188 479.5925,381.8125 Q479.5925,383.9063 480.28,384.9844 Q480.9675,386.0469 482.3113,386.0469 Q482.9363,386.0469 483.53,385.7813 Q484.1238,385.5 484.7488,384.9219 L484.7488,387.6406 Z " fill="#000000"/><text fill="#000000" font-family="sans-serif" font-size="14" lengthAdjust="spacing" textLength="96.4346" x="495.78" y="386.8467">TTUtilsSyscall</text><line style="stroke:#181818;stroke-width:0.5;" x1="467.78" x2="594.2146" y1="398" y2="398"/><line style="stroke:#181818;stroke-width:0.5;" x1="467.78" x2="594.2146" y1="406" y2="406"/></g><!--class TTUtilsMessageQueue--><g id="elem_TTUtilsMessageQueue"><rect codeLine="16" fill="#F1F1F1" height="48" id="TTUtilsMessageQueue" rx="2.5" ry="2.5" style="stroke:#181818;stroke-width:0.5;" width="187.2646" x="452.37" y="258"/><ellipse cx="467.37" cy="274" fill="#ADD1B2" rx="11" ry="11" style="stroke:#181818;stroke-width:1.0;"/><path d="M470.3388,279.6406 Q469.7606,279.9375 469.12,280.0781 Q468.4794,280.2344 467.7763,280.2344 Q465.2763,280.2344 463.9481,278.5938 Q462.6356,276.9375 462.6356,273.8125 Q462.6356,270.6875 463.9481,269.0313 Q465.2763,267.375 467.7763,267.375 Q468.4794,267.375 469.12,267.5313 Q469.7763,267.6875 470.3388,267.9844 L470.3388,270.7031 Q469.7138,270.125 469.12,269.8594 Q468.5263,269.5781 467.9013,269.5781 Q466.5575,269.5781 465.87,270.6563 Q465.1825,271.7188 465.1825,273.8125 Q465.1825,275.9063 465.87,276.9844 Q466.5575,278.0469 467.9013,278.0469 Q468.5263,278.0469 469.12,277.7813 Q469.7138,277.5 470.3388,276.9219 L470.3388,279.6406 Z " fill="#000000"/><text fill="#000000" font-family="sans-serif" font-size="14" lengthAdjust="spacing" textLength="155.2646" x="481.37" y="278.8467">TTUtilsMessageQueue</text><line style="stroke:#181818;stroke-width:0.5;" x1="453.37" x2="638.6346" y1="290" y2="290"/><line style="stroke:#181818;stroke-width:0.5;" x1="453.37" x2="638.6346" y1="298" y2="298"/></g><!--class TTUtilsStopable--><g id="elem_TTUtilsStopable"><rect codeLine="17" fill="#F1F1F1" height="48" id="TTUtilsStopable" rx="2.5" ry="2.5" style="stroke:#181818;stroke-width:0.5;" width="141.71" x="674.15" y="258"/><ellipse cx="689.15" cy="274" fill="#ADD1B2" rx="11" ry="11" style="stroke:#181818;stroke-width:1.0;"/><path d="M692.1188,279.6406 Q691.5406,279.9375 690.9,280.0781 Q690.2594,280.2344 689.5563,280.2344 Q687.0563,280.2344 685.7281,278.5938 Q684.4156,276.9375 684.4156,273.8125 Q684.4156,270.6875 685.7281,269.0313 Q687.0563,267.375 689.5563,267.375 Q690.2594,267.375 690.9,267.5313 Q691.5563,267.6875 692.1188,267.9844 L692.1188,270.7031 Q691.4938,270.125 690.9,269.8594 Q690.3063,269.5781 689.6813,269.5781 Q688.3375,269.5781 687.65,270.6563 Q686.9625,271.7188 686.9625,273.8125 Q686.9625,275.9063 687.65,276.9844 Q688.3375,278.0469 689.6813,278.0469 Q690.3063,278.0469 690.9,277.7813 Q691.4938,277.5 692.1188,276.9219 L692.1188,279.6406 Z " fill="#000000"/><text fill="#000000" font-family="sans-serif" font-size="14" lengthAdjust="spacing" textLength="109.71" x="703.15" y="278.8467">TTUtilsStopable</text><line style="stroke:#181818;stroke-width:0.5;" x1="675.15" x2="814.86" y1="290" y2="290"/><line style="stroke:#181818;stroke-width:0.5;" x1="675.15" x2="814.86" y1="298" y2="298"/></g><!--link TTChatHandler to TTUtilsStopable--><g id="link_TTChatHandler_TTUtilsStopable"><path codeLine="20" d="M390.16,90.47 C458.14,116.82 568.42,162.8 657,215 C678.22,227.51 686.3517,232.9163 703.1417,246.3663 " fill="none" id="TTChatHandler-to-TTUtilsStopable" style="stroke:#181818;stroke-width:1.0;"/><polygon fill="none" points="717.19,257.62,706.8929,241.6835,699.3905,251.0491,717.19,257.62" style="stroke:#181818;stroke-width:1.0;"/></g><!--reverse link TTChatHandler to TTChatMessage--><g id="link_TTChatHandler_TTChatMessage"><path codeLine="21" d="M280.9647,97.5761 C261.7447,112.1361 249.57,125.51 239,150 C223.43,186.1 243.07,230.85 258.6,257.6 " fill="none" id="TTChatHandler-backto-TTChatMessage" style="stroke:#181818;stroke-width:1.0;"/><polygon fill="none" points="290.53,90.33,283.332,90.7646,280.9647,97.5761,288.1627,97.1415,290.53,90.33" style="stroke:#181818;stroke-width:1.0;"/></g><!--reverse link TTChatHandler to TTUtilsMessageQueue--><g id="link_TTChatHandler_TTUtilsMessageQueue"><path codeLine="22" d="M359.8089,98.5084 C377.0789,115.1184 392.2,129.72 413,150 C451.52,187.56 496.01,231.49 522.53,257.74 " fill="none" id="TTChatHandler-backto-TTUtilsMessageQueue" style="stroke:#181818;stroke-width:1.0;"/><polygon fill="none" points="351.16,90.19,352.7117,97.2322,359.8089,98.5084,358.2573,91.4662,351.16,90.19" style="stroke:#181818;stroke-width:1.0;"/></g><!--reverse link TTChatHandler to TTChatEntry--><g id="link_TTChatHandler_TTChatEntry"><path codeLine="23" d="M286.9314,97.5848 C266.3614,113.6448 248.48,128.52 226,150 C188.82,185.53 149.62,230.84 127.07,257.8 " fill="none" id="TTChatHandler-backto-TTChatEntry" style="stroke:#181818;stroke-width:1.0;"/><polygon fill="#181818" points="296.39,90.2,289.1991,90.7395,286.9314,97.5848,294.1223,97.0453,296.39,90.2" style="stroke:#181818;stroke-width:1.0;"/></g><!--reverse link TTChatHandler to TTDiagnosticsLogger--><g id="link_TTChatHandler_TTDiagnosticsLogger"><path codeLine="24" d="M401.8185,73.9143 C504.9485,86.1043 695.99,120.15 832,215 C889.22,254.9 931.25,328.34 950.06,365.76 " fill="none" id="TTChatHandler-backto-TTDiagnosticsLogger" style="stroke:#181818;stroke-width:1.0;stroke-dasharray:7.0,7.0;"/><polygon fill="#181818" points="395.86,73.21,404.3282,78.2388,400.8254,73.7969,405.2673,70.2941,395.86,73.21" style="stroke:#181818;stroke-width:1.0;"/></g><!--reverse link TTChatHandler to TTChatSettings--><g id="link_TTChatHandler_TTChatSettings"><path codeLine="25" d="M326.7223,96.2597 C326.5523,113.9397 326.39,132.13 326.22,149.79 " fill="none" id="TTChatHandler-backto-TTChatSettings" style="stroke:#181818;stroke-width:1.0;stroke-dasharray:7.0,7.0;"/><polygon fill="#181818" points="326.78,90.26,322.6937,99.2211,326.7319,95.2598,330.6933,99.298,326.78,90.26" style="stroke:#181818;stroke-width:1.0;"/></g><!--reverse link TTChatSettings to TTUtilsSyscall--><g id="link_TTChatSettings_TTUtilsSyscall"><path codeLine="26" d="M352.2822,202.8357 C357.2222,208.2057 358.33,209.54 363,215 C396.53,254.18 399.34,268.75 435,306 C455.72,327.64 481.52,349.72 501.15,365.65 " fill="none" id="TTChatSettings-backto-TTUtilsSyscall" style="stroke:#181818;stroke-width:1.0;stroke-dasharray:7.0,7.0;"/><polygon fill="#181818" points="348.22,198.42,351.3694,207.7517,351.6051,202.0998,357.2571,202.3355,348.22,198.42" style="stroke:#181818;stroke-width:1.0;"/></g><!--reverse link TTChatSettings to TTUtilsMessageQueue--><g id="link_TTChatSettings_TTUtilsMessageQueue"><path codeLine="27" d="M382.0091,200.823 C393.6691,206.253 400.56,209.52 412,215 C441,228.89 473.35,244.8 498.99,257.53 " fill="none" id="TTChatSettings-backto-TTUtilsMessageQueue" style="stroke:#181818;stroke-width:1.0;stroke-dasharray:7.0,7.0;"/><polygon fill="#181818" points="376.57,198.29,383.04,205.7155,381.1026,200.4008,386.4173,198.4634,376.57,198.29" style="stroke:#181818;stroke-width:1.0;"/></g><!--reverse link TTChatSettings to TTChatMessage--><g id="link_TTChatSettings_TTChatMessage"><path codeLine="28" d="M311.9482,203.6471 C303.2782,221.3271 294.05,240.13 285.39,257.79 " fill="none" id="TTChatSettings-backto-TTChatMessage" style="stroke:#181818;stroke-width:1.0;stroke-dasharray:7.0,7.0;"/><polygon fill="#181818" points="314.59,198.26,307.0359,204.5795,312.3885,202.7493,314.2188,208.1019,314.59,198.26" style="stroke:#181818;stroke-width:1.0;"/></g><!--reverse link TTChatMessage to TTChatMessageType--><g id="link_TTChatMessage_TTChatMessageType"><path codeLine="29" d="M228.4078,312.8292 C201.4878,330.4392 174.71,347.97 147.75,365.61 " fill="none" id="TTChatMessage-backto-TTChatMessageType" style="stroke:#181818;stroke-width:1.0;"/><polygon fill="none" points="238.45,306.26,231.2392,306.1972,228.4078,312.8292,235.6186,312.892,238.45,306.26" style="stroke:#181818;stroke-width:1.0;"/></g><!--reverse link TTChatMessage to TTChatTimestamp--><g id="link_TTChatMessage_TTChatTimestamp"><path codeLine="30" d="M287.6375,317.4173 C294.6375,335.0973 299.81,348.13 306.8,365.79 " fill="none" id="TTChatMessage-backto-TTChatTimestamp" style="stroke:#181818;stroke-width:1.0;"/><polygon fill="none" points="283.22,306.26,281.7096,313.3112,287.6375,317.4173,289.1479,310.3662,283.22,306.26" style="stroke:#181818;stroke-width:1.0;"/></g><!--reverse link TTUtilsMessageQueue to TTUtilsSyscall--><g id="link_TTUtilsMessageQueue_TTUtilsSyscall"><path codeLine="31" d="M541.0299,318.1418 C538.5299,335.8218 536.78,348.13 534.28,365.79 " fill="none" id="TTUtilsMessageQueue-backto-TTUtilsSyscall" style="stroke:#181818;stroke-width:1.0;"/><polygon fill="none" points="542.71,306.26,537.9093,311.6409,541.0299,318.1418,545.8305,312.7609,542.71,306.26" style="stroke:#181818;stroke-width:1.0;"/></g><!--reverse link TTUtilsMessageQueue to TTDiagnosticsLogger--><g id="link_TTUtilsMessageQueue_TTDiagnosticsLogger"><path codeLine="32" d="M645.9489,304.2515 C651.6789,305.2615 651.45,305.16 657,306 C734.26,317.72 757.01,301.04 832,323 C864.96,332.65 899.44,350.77 924.46,365.59 " fill="none" id="TTUtilsMessageQueue-backto-TTDiagnosticsLogger" style="stroke:#181818;stroke-width:1.0;stroke-dasharray:7.0,7.0;"/><polygon fill="#181818" points="640.04,303.21,648.209,308.7116,644.9641,304.0779,649.5977,300.833,640.04,303.21" style="stroke:#181818;stroke-width:1.0;"/></g><!--reverse link TTChatEntry to TTChatMessageType--><g id="link_TTChatEntry_TTChatMessageType"><path codeLine="33" d="M109.3277,318.2516 C109.9877,335.9316 110.46,348.13 111.12,365.79 " fill="none" id="TTChatEntry-backto-TTChatMessageType" style="stroke:#181818;stroke-width:1.0;"/><polygon fill="none" points="108.88,306.26,105.1066,312.405,109.3277,318.2516,113.101,312.1066,108.88,306.26" style="stroke:#181818;stroke-width:1.0;"/></g><!--reverse link TTChatEntry to TTChatTimestamp--><g id="link_TTChatEntry_TTChatTimestamp"><path codeLine="34" d="M179.2053,305.8796 C195.7753,311.8696 202.24,314.98 218,323 C241.77,335.09 266.67,351.92 285.42,365.56 " fill="none" id="TTChatEntry-backto-TTChatTimestamp" style="stroke:#181818;stroke-width:1.0;"/><polygon fill="none" points="167.92,301.8,172.2028,307.6015,179.2053,305.8796,174.9225,300.078,167.92,301.8" style="stroke:#181818;stroke-width:1.0;"/></g><!--SRC=[XP9DRiCW48NtFWNhIiu9B2_QHCgYNRHn3p2X8ugACV8C2wljtUkuo0a_IPRp-7Wy7ZYGNw1GTDtJ9_2Zjny6HTEyeMImoc3RYkzA26c0A41xE47Zh1AFNdAGTvR7AHLVa6YsJnmEoAojebb6w_kOxIQNyftkaHXwL_rMbLiJRpKeEn1hINU3Nx3FWr9p_CZgdRMvRx9GXuaa69FA8VshHu_P5XuS70sUpemw57NzqsPKZ0nrdPHPMiypnDJ3wlB_Jl5gizaKEofHqGF6Oo2YcguJXRG9bbywJ7afow-vnfp_J-7eomBFeNFiTaTBgpTZfSGQwWy0]--></g></svg>