<svg xmlns="http://www.w3.org/2000/svg" xmlns:xlink="http://www.w3.org/1999/xlink" contentStyleType="text/css" height="436px" preserveAspectRatio="none" style="width:1287px;height:436px;background:#FFFFFF;" version="1.1" viewBox="0 0 1287 436" width="1287px" zoomAndPan="magnify"><defs/><g><!--cluster TTChatBundle--><g id="cluster_TTChatBundle"><rect fill="none" height="423" rx="2.5" ry="2.5" style="stroke:#181818;stroke-width:1.0;" width="405" x="7" y="7"/><text fill="#000000" font-family="sans-serif" font-size="14" font-weight="bold" lengthAdjust="spacing" textLength="110.4004" x="154.2998" y="21.9951">TTChatBundle</text></g><!--cluster TTDiagnosticsBundle--><g id="cluster_TTDiagnosticsBundle"><rect fill="none" height="99" rx="2.5" ry="2.5" style="stroke:#181818;stroke-width:1.0;" width="210" x="1071" y="331"/><text fill="#000000" font-family="sans-serif" font-size="14" font-weight="bold" lengthAdjust="spacing" textLength="165.9492" x="1093.0254" y="345.9951">TTDiagnosticsBundle</text></g><!--cluster TTUtilsBundle--><g id="cluster_TTUtilsBundle"><rect fill="none" height="207" rx="2.5" ry="2.5" style="stroke:#181818;stroke-width:1.0;" width="611" x="436" y="223"/><text fill="#000000" font-family="sans-serif" font-size="14" font-weight="bold" lengthAdjust="spacing" textLength="110.0107" x="686.4946" y="237.9951">TTUtilsBundle</text></g><!--class TTChat--><g id="elem_TTChat"><rect codeLine="2" fill="#F1F1F1" height="48" id="TTChat" rx="2.5" ry="2.5" style="stroke:#181818;stroke-width:0.5;" width="81.8203" x="299.09" y="42"/><ellipse cx="314.09" cy="58" fill="#ADD1B2" rx="11" ry="11" style="stroke:#181818;stroke-width:1.0;"/><path d="M317.0588,63.6406 Q316.4806,63.9375 315.84,64.0781 Q315.1994,64.2344 314.4963,64.2344 Q311.9963,64.2344 310.6681,62.5938 Q309.3556,60.9375 309.3556,57.8125 Q309.3556,54.6875 310.6681,53.0313 Q311.9963,51.375 314.4963,51.375 Q315.1994,51.375 315.84,51.5313 Q316.4963,51.6875 317.0588,51.9844 L317.0588,54.7031 Q316.4338,54.125 315.84,53.8594 Q315.2463,53.5781 314.6213,53.5781 Q313.2775,53.5781 312.59,54.6563 Q311.9025,55.7188 311.9025,57.8125 Q311.9025,59.9063 312.59,60.9844 Q313.2775,62.0469 314.6213,62.0469 Q315.2463,62.0469 315.84,61.7813 Q316.4338,61.5 317.0588,60.9219 L317.0588,63.6406 Z " fill="#000000"/><text fill="#000000" font-family="sans-serif" font-size="14" lengthAdjust="spacing" textLength="49.8203" x="328.09" y="62.8467">TTChat</text><line style="stroke:#181818;stroke-width:0.5;" x1="300.09" x2="379.9103" y1="74" y2="74"/><line style="stroke:#181818;stroke-width:0.5;" x1="300.09" x2="379.9103" y1="82" y2="82"/></g><!--class TTChatMessage--><g id="elem_TTChatMessage"><rect codeLine="3" fill="#F1F1F1" height="48" id="TTChatMessage" rx="2.5" ry="2.5" style="stroke:#181818;stroke-width:0.5;" width="143.1797" x="111.41" y="258"/><ellipse cx="126.41" cy="274" fill="#F1F1F1" rx="11" ry="11" style="stroke:#181818;stroke-width:1.0;"/><path d="M125.8944,274.5625 Q124.035,273.8594 123.3788,273.0938 Q122.7381,272.3125 122.7381,271 Q122.7381,269.3125 123.8163,268.3438 Q124.8944,267.375 126.7694,267.375 Q127.6288,267.375 128.4725,267.5781 Q129.3319,267.7656 130.1756,268.1563 L130.1756,270.5469 Q129.3944,269.9844 128.5663,269.7031 Q127.7538,269.4063 126.9569,269.4063 Q126.0819,269.4063 125.5975,269.7656 Q125.1288,270.125 125.1288,270.7813 Q125.1288,271.2969 125.4725,271.6406 Q125.8163,271.9688 126.91,272.375 L127.9725,272.7813 Q129.4569,273.3281 130.16,274.2344 Q130.8788,275.1406 130.8788,276.5156 Q130.8788,278.3906 129.7694,279.3125 Q128.66,280.2344 126.41,280.2344 Q125.4881,280.2344 124.5663,280.0156 Q123.6444,279.7969 122.785,279.375 L122.785,276.8438 Q123.7538,277.5313 124.6756,277.875 Q125.5975,278.2188 126.4881,278.2188 Q127.3944,278.2188 127.8944,277.8125 Q128.3944,277.3906 128.3944,276.6563 Q128.3944,276.0938 128.0506,275.6875 Q127.7225,275.2656 127.0975,275.0156 L125.8944,274.5625 Z " fill="#000000"/><text fill="#000000" font-family="sans-serif" font-size="14" lengthAdjust="spacing" textLength="111.1797" x="140.41" y="278.8467">TTChatMessage</text><line style="stroke:#181818;stroke-width:0.5;" x1="112.41" x2="253.5897" y1="290" y2="290"/><line style="stroke:#181818;stroke-width:0.5;" x1="112.41" x2="253.5897" y1="298" y2="298"/></g><!--class TTChatSettings--><g id="elem_TTChatSettings"><rect codeLine="4" fill="#F1F1F1" height="48" id="TTChatSettings" rx="2.5" ry="2.5" style="stroke:#181818;stroke-width:0.5;" width="139.2422" x="256.38" y="150"/><ellipse cx="271.38" cy="166" fill="#ADD1B2" rx="11" ry="11" style="stroke:#181818;stroke-width:1.0;"/><path d="M274.3488,171.6406 Q273.7706,171.9375 273.13,172.0781 Q272.4894,172.2344 271.7863,172.2344 Q269.2863,172.2344 267.9581,170.5938 Q266.6456,168.9375 266.6456,165.8125 Q266.6456,162.6875 267.9581,161.0313 Q269.2863,159.375 271.7863,159.375 Q272.4894,159.375 273.13,159.5313 Q273.7863,159.6875 274.3488,159.9844 L274.3488,162.7031 Q273.7238,162.125 273.13,161.8594 Q272.5363,161.5781 271.9113,161.5781 Q270.5675,161.5781 269.88,162.6563 Q269.1925,163.7188 269.1925,165.8125 Q269.1925,167.9063 269.88,168.9844 Q270.5675,170.0469 271.9113,170.0469 Q272.5363,170.0469 273.13,169.7813 Q273.7238,169.5 274.3488,168.9219 L274.3488,171.6406 Z " fill="#000000"/><text fill="#000000" font-family="sans-serif" font-size="14" lengthAdjust="spacing" textLength="107.2422" x="285.38" y="170.8467">TTChatSettings</text><line style="stroke:#181818;stroke-width:0.5;" x1="257.38" x2="394.6222" y1="182" y2="182"/><line style="stroke:#181818;stroke-width:0.5;" x1="257.38" x2="394.6222" y1="190" y2="190"/></g><!--class TTChatMessageType--><g id="elem_TTChatMessageType"><rect codeLine="5" fill="#F1F1F1" height="48" id="TTChatMessageType" rx="2.5" ry="2.5" style="stroke:#181818;stroke-width:0.5;" width="177.5166" x="23.24" y="366"/><ellipse cx="38.24" cy="382" fill="#EB937F" rx="11" ry="11" style="stroke:#181818;stroke-width:1.0;"/><path d="M42.3494,388 L34.6306,388 L34.6306,375.6094 L42.3494,375.6094 L42.3494,377.7656 L37.0838,377.7656 L37.0838,380.4375 L41.8494,380.4375 L41.8494,382.5938 L37.0838,382.5938 L37.0838,385.8438 L42.3494,385.8438 L42.3494,388 Z " fill="#000000"/><text fill="#000000" font-family="sans-serif" font-size="14" lengthAdjust="spacing" textLength="145.5166" x="52.24" y="386.8467">TTChatMessageType</text><line style="stroke:#181818;stroke-width:0.5;" x1="24.24" x2="199.7566" y1="398" y2="398"/><line style="stroke:#181818;stroke-width:0.5;" x1="24.24" x2="199.7566" y1="406" y2="406"/></g><!--class TTChatTimestamp--><g id="elem_TTChatTimestamp"><rect codeLine="6" fill="#F1F1F1" height="48" id="TTChatTimestamp" rx="2.5" ry="2.5" style="stroke:#181818;stroke-width:0.5;" width="160.3994" x="235.8" y="366"/><ellipse cx="250.8" cy="382" fill="#ADD1B2" rx="11" ry="11" style="stroke:#181818;stroke-width:1.0;"/><path d="M253.7688,387.6406 Q253.1906,387.9375 252.55,388.0781 Q251.9094,388.2344 251.2063,388.2344 Q248.7063,388.2344 247.3781,386.5938 Q246.0656,384.9375 246.0656,381.8125 Q246.0656,378.6875 247.3781,377.0313 Q248.7063,375.375 251.2063,375.375 Q251.9094,375.375 252.55,375.5313 Q253.2063,375.6875 253.7688,375.9844 L253.7688,378.7031 Q253.1438,378.125 252.55,377.8594 Q251.9563,377.5781 251.3313,377.5781 Q249.9875,377.5781 249.3,378.6563 Q248.6125,379.7188 248.6125,381.8125 Q248.6125,383.9063 249.3,384.9844 Q249.9875,386.0469 251.3313,386.0469 Q251.9563,386.0469 252.55,385.7813 Q253.1438,385.5 253.7688,384.9219 L253.7688,387.6406 Z " fill="#000000"/><text fill="#000000" font-family="sans-serif" font-size="14" lengthAdjust="spacing" textLength="128.3994" x="264.8" y="386.8467">TTChatTimestamp</text><line style="stroke:#181818;stroke-width:0.5;" x1="236.8" x2="395.1994" y1="398" y2="398"/><line style="stroke:#181818;stroke-width:0.5;" x1="236.8" x2="395.1994" y1="406" y2="406"/></g><!--class TTDiagnosticsLogger--><g id="elem_TTDiagnosticsLogger"><rect codeLine="10" fill="#F1F1F1" height="48" id="TTDiagnosticsLogger" rx="2.5" ry="2.5" style="stroke:#181818;stroke-width:0.5;" width="178.8496" x="1086.58" y="366"/><ellipse cx="1101.58" cy="382" fill="#ADD1B2" rx="11" ry="11" style="stroke:#181818;stroke-width:1.0;"/><path d="M1104.5488,387.6406 Q1103.9706,387.9375 1103.33,388.0781 Q1102.6894,388.2344 1101.9863,388.2344 Q1099.4863,388.2344 1098.1581,386.5938 Q1096.8456,384.9375 1096.8456,381.8125 Q1096.8456,378.6875 1098.1581,377.0313 Q1099.4863,375.375 1101.9863,375.375 Q1102.6894,375.375 1103.33,375.5313 Q1103.9863,375.6875 1104.5488,375.9844 L1104.5488,378.7031 Q1103.9238,378.125 1103.33,377.8594 Q1102.7363,377.5781 1102.1113,377.5781 Q1100.7675,377.5781 1100.08,378.6563 Q1099.3925,379.7188 1099.3925,381.8125 Q1099.3925,383.9063 1100.08,384.9844 Q1100.7675,386.0469 1102.1113,386.0469 Q1102.7363,386.0469 1103.33,385.7813 Q1103.9238,385.5 1104.5488,384.9219 L1104.5488,387.6406 Z " fill="#000000"/><text fill="#000000" font-family="sans-serif" font-size="14" lengthAdjust="spacing" textLength="146.8496" x="1115.58" y="386.8467">TTDiagnosticsLogger</text><line style="stroke:#181818;stroke-width:0.5;" x1="1087.58" x2="1264.4296" y1="398" y2="398"/><line style="stroke:#181818;stroke-width:0.5;" x1="1087.58" x2="1264.4296" y1="406" y2="406"/></g><!--class TTUtilsOutputStream--><g id="elem_TTUtilsOutputStream"><rect codeLine="14" fill="#F1F1F1" height="48" id="TTUtilsOutputStream" rx="2.5" ry="2.5" style="stroke:#181818;stroke-width:0.5;" width="179.5059" x="674.25" y="258"/><ellipse cx="689.25" cy="274" fill="#ADD1B2" rx="11" ry="11" style="stroke:#181818;stroke-width:1.0;"/><path d="M692.2188,279.6406 Q691.6406,279.9375 691,280.0781 Q690.3594,280.2344 689.6563,280.2344 Q687.1563,280.2344 685.8281,278.5938 Q684.5156,276.9375 684.5156,273.8125 Q684.5156,270.6875 685.8281,269.0313 Q687.1563,267.375 689.6563,267.375 Q690.3594,267.375 691,267.5313 Q691.6563,267.6875 692.2188,267.9844 L692.2188,270.7031 Q691.5938,270.125 691,269.8594 Q690.4063,269.5781 689.7813,269.5781 Q688.4375,269.5781 687.75,270.6563 Q687.0625,271.7188 687.0625,273.8125 Q687.0625,275.9063 687.75,276.9844 Q688.4375,278.0469 689.7813,278.0469 Q690.4063,278.0469 691,277.7813 Q691.5938,277.5 692.2188,276.9219 L692.2188,279.6406 Z " fill="#000000"/><text fill="#000000" font-family="sans-serif" font-size="14" lengthAdjust="spacing" textLength="147.5059" x="703.25" y="278.8467">TTUtilsOutputStream</text><line style="stroke:#181818;stroke-width:0.5;" x1="675.25" x2="852.7559" y1="290" y2="290"/><line style="stroke:#181818;stroke-width:0.5;" x1="675.25" x2="852.7559" y1="298" y2="298"/></g><!--class TTUtilsSyscall--><g id="elem_TTUtilsSyscall"><rect codeLine="15" fill="#F1F1F1" height="48" id="TTUtilsSyscall" rx="2.5" ry="2.5" style="stroke:#181818;stroke-width:0.5;" width="128.4346" x="466.78" y="366"/><ellipse cx="481.78" cy="382" fill="#ADD1B2" rx="11" ry="11" style="stroke:#181818;stroke-width:1.0;"/><path d="M484.7488,387.6406 Q484.1706,387.9375 483.53,388.0781 Q482.8894,388.2344 482.1863,388.2344 Q479.6863,388.2344 478.3581,386.5938 Q477.0456,384.9375 477.0456,381.8125 Q477.0456,378.6875 478.3581,377.0313 Q479.6863,375.375 482.1863,375.375 Q482.8894,375.375 483.53,375.5313 Q484.1863,375.6875 484.7488,375.9844 L484.7488,378.7031 Q484.1238,378.125 483.53,377.8594 Q482.9363,377.5781 482.3113,377.5781 Q480.9675,377.5781 480.28,378.6563 Q479.5925,379.7188 479.5925,381.8125 Q479.5925,383.9063 480.28,384.9844 Q480.9675,386.0469 482.3113,386.0469 Q482.9363,386.0469 483.53,385.7813 Q484.1238,385.5 484.7488,384.9219 L484.7488,387.6406 Z " fill="#000000"/><text fill="#000000" font-family="sans-serif" font-size="14" lengthAdjust="spacing" textLength="96.4346" x="495.78" y="386.8467">TTUtilsSyscall</text><line style="stroke:#181818;stroke-width:0.5;" x1="467.78" x2="594.2146" y1="398" y2="398"/><line style="stroke:#181818;stroke-width:0.5;" x1="467.78" x2="594.2146" y1="406" y2="406"/></g><!--class TTUtilsMessageQueue--><g id="elem_TTUtilsMessageQueue"><rect codeLine="16" fill="#F1F1F1" height="48" id="TTUtilsMessageQueue" rx="2.5" ry="2.5" style="stroke:#181818;stroke-width:0.5;" width="187.2646" x="452.37" y="258"/><ellipse cx="467.37" cy="274" fill="#ADD1B2" rx="11" ry="11" style="stroke:#181818;stroke-width:1.0;"/><path d="M470.3388,279.6406 Q469.7606,279.9375 469.12,280.0781 Q468.4794,280.2344 467.7763,280.2344 Q465.2763,280.2344 463.9481,278.5938 Q462.6356,276.9375 462.6356,273.8125 Q462.6356,270.6875 463.9481,269.0313 Q465.2763,267.375 467.7763,267.375 Q468.4794,267.375 469.12,267.5313 Q469.7763,267.6875 470.3388,267.9844 L470.3388,270.7031 Q469.7138,270.125 469.12,269.8594 Q468.5263,269.5781 467.9013,269.5781 Q466.5575,269.5781 465.87,270.6563 Q465.1825,271.7188 465.1825,273.8125 Q465.1825,275.9063 465.87,276.9844 Q466.5575,278.0469 467.9013,278.0469 Q468.5263,278.0469 469.12,277.7813 Q469.7138,277.5 470.3388,276.9219 L470.3388,279.6406 Z " fill="#000000"/><text fill="#000000" font-family="sans-serif" font-size="14" lengthAdjust="spacing" textLength="155.2646" x="481.37" y="278.8467">TTUtilsMessageQueue</text><line style="stroke:#181818;stroke-width:0.5;" x1="453.37" x2="638.6346" y1="290" y2="290"/><line style="stroke:#181818;stroke-width:0.5;" x1="453.37" x2="638.6346" y1="298" y2="298"/></g><!--class TTUtilsStopable--><g id="elem_TTUtilsStopable"><rect codeLine="17" fill="#F1F1F1" height="48" id="TTUtilsStopable" rx="2.5" ry="2.5" style="stroke:#181818;stroke-width:0.5;" width="141.71" x="889.15" y="258"/><ellipse cx="904.15" cy="274" fill="#ADD1B2" rx="11" ry="11" style="stroke:#181818;stroke-width:1.0;"/><path d="M907.1188,279.6406 Q906.5406,279.9375 905.9,280.0781 Q905.2594,280.2344 904.5563,280.2344 Q902.0563,280.2344 900.7281,278.5938 Q899.4156,276.9375 899.4156,273.8125 Q899.4156,270.6875 900.7281,269.0313 Q902.0563,267.375 904.5563,267.375 Q905.2594,267.375 905.9,267.5313 Q906.5563,267.6875 907.1188,267.9844 L907.1188,270.7031 Q906.4938,270.125 905.9,269.8594 Q905.3063,269.5781 904.6813,269.5781 Q903.3375,269.5781 902.65,270.6563 Q901.9625,271.7188 901.9625,273.8125 Q901.9625,275.9063 902.65,276.9844 Q903.3375,278.0469 904.6813,278.0469 Q905.3063,278.0469 905.9,277.7813 Q906.4938,277.5 907.1188,276.9219 L907.1188,279.6406 Z " fill="#000000"/><text fill="#000000" font-family="sans-serif" font-size="14" lengthAdjust="spacing" textLength="109.71" x="918.15" y="278.8467">TTUtilsStopable</text><line style="stroke:#181818;stroke-width:0.5;" x1="890.15" x2="1029.86" y1="290" y2="290"/><line style="stroke:#181818;stroke-width:0.5;" x1="890.15" x2="1029.86" y1="298" y2="298"/></g><!--link TTChat to TTUtilsStopable--><g id="link_TTChat_TTUtilsStopable"><path codeLine="20" d="M381.12,73.19 C472.82,88.09 699.5,131.1 871,215 C893.98,226.24 903.2854,232.0927 920.1954,246.1927 " fill="none" id="TTChat-to-TTUtilsStopable" style="stroke:#181818;stroke-width:1.0;"/><polygon fill="none" points="934.02,257.72,924.0378,241.5844,916.3529,250.8009,934.02,257.72" style="stroke:#181818;stroke-width:1.0;"/></g><!--reverse link TTChat to TTUtilsOutputStream--><g id="link_TTChat_TTUtilsOutputStream"><path codeLine="21" d="M392.3069,89.1736 C453.5269,115.4536 560.52,162.95 657,215 C681.4,228.16 707.92,244.51 728.46,257.64 " fill="none" id="TTChat-backto-TTUtilsOutputStream" style="stroke:#181818;stroke-width:1.0;"/><polygon fill="none" points="381.28,84.44,385.2156,90.4824,392.3069,89.1736,388.3713,83.1311,381.28,84.44" style="stroke:#181818;stroke-width:1.0;"/></g><!--reverse link TTChat to TTUtilsMessageQueue--><g id="link_TTChat_TTUtilsMessageQueue"><path codeLine="22" d="M370.762,98.9555 C410.382,140.1155 483.98,216.58 523.59,257.72 " fill="none" id="TTChat-backto-TTUtilsMessageQueue" style="stroke:#181818;stroke-width:1.0;"/><polygon fill="none" points="362.44,90.31,363.7192,97.4067,370.762,98.9555,369.4828,91.8587,362.44,90.31" style="stroke:#181818;stroke-width:1.0;"/></g><!--reverse link TTChat to TTDiagnosticsLogger--><g id="link_TTChat_TTDiagnosticsLogger"><path codeLine="23" d="M387.3615,72.1988 C521.4615,87.4688 935.72,139.75 1047,215 C1104.79,254.08 1146.56,327.88 1165.19,365.57 " fill="none" id="TTChat-backto-TTDiagnosticsLogger" style="stroke:#181818;stroke-width:1.0;stroke-dasharray:7.0,7.0;"/><polygon fill="#181818" points="381.4,71.52,389.8897,76.5126,386.3679,72.0857,390.7948,68.5639,381.4,71.52" style="stroke:#181818;stroke-width:1.0;"/></g><!--reverse link TTChat to TTChatSettings--><g id="link_TTChat_TTChatSettings"><path codeLine="24" d="M336.1427,96.2081 C333.8027,113.8881 331.4,132.13 329.07,149.79 " fill="none" id="TTChat-backto-TTChatSettings" style="stroke:#181818;stroke-width:1.0;stroke-dasharray:7.0,7.0;"/><polygon fill="#181818" points="336.93,90.26,331.7837,98.6574,336.274,95.2168,339.7145,99.707,336.93,90.26" style="stroke:#181818;stroke-width:1.0;"/></g><!--reverse link TTChat to TTChatMessage--><g id="link_TTChat_TTChatMessage"><path codeLine="25" d="M293.3944,85.7506 C264.4044,99.3006 232.5,118.89 211,150 C188.52,182.52 183.55,229.62 182.75,257.59 " fill="none" id="TTChat-backto-TTChatMessage" style="stroke:#181818;stroke-width:1.0;stroke-dasharray:7.0,7.0;"/><polygon fill="#181818" points="298.83,83.21,288.9829,83.3972,294.3004,85.3272,292.3704,90.6446,298.83,83.21" style="stroke:#181818;stroke-width:1.0;"/></g><!--reverse link TTChat to TTChatMessageType--><g id="link_TTChat_TTChatMessageType"><path codeLine="26" d="M293.2969,78.7692 C234.5669,95.7792 134.74,134.79 94,215 C69.11,264.01 88.41,330.7 101.86,365.57 " fill="none" id="TTChat-backto-TTChatMessageType" style="stroke:#181818;stroke-width:1.0;stroke-dasharray:7.0,7.0;"/><polygon fill="#181818" points="299.06,77.1,289.3025,75.7617,294.2574,78.491,291.5281,83.4459,299.06,77.1" style="stroke:#181818;stroke-width:1.0;"/></g><!--reverse link TTChat to TTChatTimestamp--><g id="link_TTChat_TTChatTimestamp"><path codeLine="27" d="M293.7568,92.035 C271.6068,106.215 251.41,123.73 239,150 C229.89,169.29 227.89,179.79 239,198 C247.59,212.09 261.74,202.08 272,215 C307.47,259.65 314.71,329.38 315.96,365.51 " fill="none" id="TTChat-backto-TTChatTimestamp" style="stroke:#181818;stroke-width:1.0;stroke-dasharray:7.0,7.0;"/><polygon fill="#181818" points="298.81,88.8,289.0735,90.2836,294.599,91.4958,293.3868,97.0213,298.81,88.8" style="stroke:#181818;stroke-width:1.0;"/></g><!--reverse link TTChatSettings to TTUtilsSyscall--><g id="link_TTChatSettings_TTUtilsSyscall"><path codeLine="28" d="M347.0909,202.9814 C367.7709,229.9514 400.19,270.52 435,306 C456.14,327.54 482.15,349.8 501.76,365.84 " fill="none" id="TTChatSettings-backto-TTUtilsSyscall" style="stroke:#181818;stroke-width:1.0;stroke-dasharray:7.0,7.0;"/><polygon fill="#181818" points="343.44,198.22,345.7421,207.796,346.4824,202.1878,352.0906,202.9281,343.44,198.22" style="stroke:#181818;stroke-width:1.0;"/></g><!--reverse link TTChatSettings to TTUtilsMessageQueue--><g id="link_TTChatSettings_TTUtilsMessageQueue"><path codeLine="29" d="M382.0091,200.823 C393.6691,206.253 400.56,209.52 412,215 C441,228.89 473.35,244.8 498.99,257.53 " fill="none" id="TTChatSettings-backto-TTUtilsMessageQueue" style="stroke:#181818;stroke-width:1.0;stroke-dasharray:7.0,7.0;"/><polygon fill="#181818" points="376.57,198.29,383.04,205.7155,381.1026,200.4008,386.4173,198.4634,376.57,198.29" style="stroke:#181818;stroke-width:1.0;"/></g><!--reverse link TTChatSettings to TTChatMessage--><g id="link_TTChatSettings_TTChatMessage"><path codeLine="30" d="M289.8007,201.8341 C265.9607,219.5141 238.13,240.13 214.31,257.79 " fill="none" id="TTChatSettings-backto-TTChatMessage" style="stroke:#181818;stroke-width:1.0;stroke-dasharray:7.0,7.0;"/><polygon fill="#181818" points="294.62,198.26,285.0083,200.4082,290.6039,201.2384,289.7737,206.834,294.62,198.26" style="stroke:#181818;stroke-width:1.0;"/></g><!--reverse link TTChatMessage to TTChatMessageType--><g id="link_TTChatMessage_TTChatMessageType"><path codeLine="31" d="M160.7428,316.2307 C148.9028,333.9107 139.37,348.13 127.54,365.79 " fill="none" id="TTChatMessage-backto-TTChatMessageType" style="stroke:#181818;stroke-width:1.0;"/><polygon fill="none" points="167.42,306.26,160.7578,309.0196,160.7428,316.2307,167.405,313.4711,167.42,306.26" style="stroke:#181818;stroke-width:1.0;"/></g><!--reverse link TTChatMessage to TTChatTimestamp--><g id="link_TTChatMessage_TTChatTimestamp"><path codeLine="32" d="M221.572,313.7419 C243.742,331.4219 264.72,348.13 286.88,365.79 " fill="none" id="TTChatMessage-backto-TTChatTimestamp" style="stroke:#181818;stroke-width:1.0;"/><polygon fill="none" points="212.19,306.26,214.387,313.1283,221.572,313.7419,219.3749,306.8736,212.19,306.26" style="stroke:#181818;stroke-width:1.0;"/></g><!--reverse link TTUtilsMessageQueue to TTUtilsSyscall--><g id="link_TTUtilsMessageQueue_TTUtilsSyscall"><path codeLine="33" d="M541.0299,318.1418 C538.5299,335.8218 536.78,348.13 534.28,365.79 " fill="none" id="TTUtilsMessageQueue-backto-TTUtilsSyscall" style="stroke:#181818;stroke-width:1.0;"/><polygon fill="none" points="542.71,306.26,537.9093,311.6409,541.0299,318.1418,545.8305,312.7609,542.71,306.26" style="stroke:#181818;stroke-width:1.0;"/></g><!--reverse link TTUtilsMessageQueue to TTDiagnosticsLogger--><g id="link_TTUtilsMessageQueue_TTDiagnosticsLogger"><path codeLine="34" d="M645.916,304.5095 C651.656,305.4195 651.43,305.31 657,306 C743.08,316.72 963.13,300.85 1047,323 C1080.57,331.87 1115.43,350.35 1140.44,365.51 " fill="none" id="TTUtilsMessageQueue-backto-TTDiagnosticsLogger" style="stroke:#181818;stroke-width:1.0;stroke-dasharray:7.0,7.0;"/><polygon fill="#181818" points="639.99,303.57,648.2527,308.9299,644.9283,304.3529,649.5053,301.0286,639.99,303.57" style="stroke:#181818;stroke-width:1.0;"/></g><!--SRC=[XP51KiCm34NtEOKla9uWamLq2SD0qWEeHcCyE8udaXSTuEw4rgMnbKoNqd-Mlxu2w4ymgFh-yGFu8VftXwfftb0pUEEmRTLNfPHsG9IWkIIUekPKFoFHFAAWEcIstj3SHX-7dErFeUHxEo0n3A7wgQhmxsflmVYHs6gwQsx1Fet6u9IFEh1rzuUSgPV88NB74y9GQjs9D3XNjjDchn4ZYYSy1ZWw_FDpsLRLzNShvAIDTRrgHChPfqbkThlLB38vkv1GhXVT4ixd4-BjWldyX6JXRHChAnMOT9YgbCowKSai_OglbodVJ4ji8-rV]--></g></svg>