<svg xmlns="http://www.w3.org/2000/svg" xmlns:xlink="http://www.w3.org/1999/xlink" contentStyleType="text/css" height="1372px" preserveAspectRatio="none" style="width:685px;height:1372px;background:#FFFFFF;" version="1.1" viewBox="0 0 685 1372" width="685px" zoomAndPan="magnify"><defs/><g><line style="stroke:#181818;stroke-width:1.0;" x1="258.3025" x2="258.3025" y1="240.2266" y2="323.625"/><polygon fill="#181818" points="254.3025,250.2266,258.3025,240.2266,262.3025,250.2266,258.3025,246.2266" style="stroke:#181818;stroke-width:1.0;"/><polygon fill="#181818" points="254.3025,313.625,258.3025,323.625,262.3025,313.625,258.3025,317.625" style="stroke:#181818;stroke-width:1.0;"/><text fill="#000000" font-family="sans-serif" font-size="13" lengthAdjust="spacing" textLength="48.3818" x="262.3025" y="286.4263">500 ms</text><line style="stroke:#181818;stroke-width:1.0;" x1="416.6018" x2="416.6018" y1="745.4844" y2="966.5469"/><polygon fill="#181818" points="412.6018,755.4844,416.6018,745.4844,420.6018,755.4844,416.6018,751.4844" style="stroke:#181818;stroke-width:1.0;"/><polygon fill="#181818" points="412.6018,956.5469,416.6018,966.5469,420.6018,956.5469,416.6018,960.5469" style="stroke:#181818;stroke-width:1.0;"/><text fill="#000000" font-family="sans-serif" font-size="13" lengthAdjust="spacing" textLength="48.3818" x="420.6018" y="860.5161">500 ms</text><line style="stroke:#181818;stroke-width:0.5;stroke-dasharray:5.0,5.0;" x1="176.3926" x2="176.3926" y1="36.2969" y2="1336.1406"/><rect fill="#FFBBBB" height="116.5313" style="stroke:#181818;stroke-width:1.0;" width="10" x="171.3926" y="238.2266"/><rect fill="#FFD700" height="13" style="stroke:#181818;stroke-width:1.0;" width="10" x="171.3926" y="648.9531"/><line style="stroke:#181818;stroke-width:0.5;stroke-dasharray:5.0,5.0;" x1="340.2124" x2="340.2124" y1="36.2969" y2="1336.1406"/><line style="stroke:#181818;stroke-width:0.5;stroke-dasharray:5.0,5.0;" x1="492.9912" x2="492.9912" y1="36.2969" y2="1336.1406"/><rect fill="#FFBBBB" height="137.6641" style="stroke:#181818;stroke-width:1.0;" width="10" x="487.9912" y="158.8281"/><rect fill="#005500" height="13" style="stroke:#181818;stroke-width:1.0;" width="10" x="487.9912" y="606.8203"/><rect fill="#E2E2F0" height="30.2969" rx="2.5" ry="2.5" style="stroke:#181818;stroke-width:0.5;" width="88.498" x="132.1436" y="5"/><text fill="#000000" font-family="sans-serif" font-size="14" lengthAdjust="spacing" textLength="74.498" x="139.1436" y="24.9951">TTTextBox</text><rect fill="#E2E2F0" height="30.2969" rx="2.5" ry="2.5" style="stroke:#181818;stroke-width:0.5;" width="141.9346" x="269.2451" y="5"/><text fill="#000000" font-family="sans-serif" font-size="14" lengthAdjust="spacing" textLength="127.9346" x="276.2451" y="24.9951">TTUtilsNamedPipe</text><rect fill="#E2E2F0" height="30.2969" rx="2.5" ry="2.5" style="stroke:#181818;stroke-width:0.5;" width="143.623" x="421.1797" y="5"/><text fill="#000000" font-family="sans-serif" font-size="14" lengthAdjust="spacing" textLength="129.623" x="428.1797" y="24.9951">TTTextBoxHandler</text><rect fill="#E2E2F0" height="30.2969" rx="2.5" ry="2.5" style="stroke:#181818;stroke-width:0.5;" width="88.498" x="132.1436" y="1336.1406"/><text fill="#000000" font-family="sans-serif" font-size="14" lengthAdjust="spacing" textLength="74.498" x="139.1436" y="1356.1357">TTTextBox</text><rect fill="#E2E2F0" height="30.2969" rx="2.5" ry="2.5" style="stroke:#181818;stroke-width:0.5;" width="141.9346" x="269.2451" y="1336.1406"/><text fill="#000000" font-family="sans-serif" font-size="14" lengthAdjust="spacing" textLength="127.9346" x="276.2451" y="1356.1357">TTUtilsNamedPipe</text><rect fill="#E2E2F0" height="30.2969" rx="2.5" ry="2.5" style="stroke:#181818;stroke-width:0.5;" width="143.623" x="421.1797" y="1336.1406"/><text fill="#000000" font-family="sans-serif" font-size="14" lengthAdjust="spacing" textLength="129.623" x="428.1797" y="1356.1357">TTTextBoxHandler</text><rect fill="#EEEEEE" height="3" style="stroke:#EEEEEE;stroke-width:1.0;" width="673.7803" x="5" y="64.8633"/><line style="stroke:#000000;stroke-width:1.0;" x1="5" x2="678.7803" y1="64.8633" y2="64.8633"/><line style="stroke:#000000;stroke-width:1.0;" x1="5" x2="678.7803" y1="67.8633" y2="67.8633"/><rect fill="#EEEEEE" height="23.1328" style="stroke:#000000;stroke-width:2.0;" width="110.624" x="286.5781" y="54.2969"/><text fill="#000000" font-family="sans-serif" font-size="13" font-weight="bold" lengthAdjust="spacing" textLength="92.0981" x="292.5781" y="70.3638">Initialization</text><path d="M261.5938,92.4297 L261.5938,132.4297 L487.5938,132.4297 L487.5938,102.4297 L477.5938,92.4297 L261.5938,92.4297 " fill="#FEFFDD" style="stroke:#181818;stroke-width:0.5;"/><path d="M477.5938,92.4297 L477.5938,102.4297 L487.5938,102.4297 L477.5938,92.4297 " fill="#FEFFDD" style="stroke:#181818;stroke-width:0.5;"/><text fill="#000000" font-family="sans-serif" font-size="13" lengthAdjust="spacing" textLength="201.3984" x="267.5938" y="109.4966">Only one attempt will be made</text><text fill="#000000" font-family="sans-serif" font-size="13" lengthAdjust="spacing" textLength="205.3975" x="267.5938" y="124.6294">to create and open named pipe</text><polygon fill="#181818" points="351.2124,154.8281,341.2124,158.8281,351.2124,162.8281,347.2124,158.8281" style="stroke:#181818;stroke-width:1.0;"/><line style="stroke:#181818;stroke-width:1.0;" x1="345.2124" x2="486.9912" y1="158.8281" y2="158.8281"/><text fill="#000000" font-family="sans-serif" font-size="13" lengthAdjust="spacing" textLength="106.7168" x="357.2124" y="153.7622">create and open</text><path d="M181.3926,171.8281 L181.3926,211.8281 L384.3926,211.8281 L384.3926,181.8281 L374.3926,171.8281 L181.3926,171.8281 " fill="#FEFFDD" style="stroke:#181818;stroke-width:0.5;"/><path d="M374.3926,171.8281 L374.3926,181.8281 L384.3926,181.8281 L374.3926,171.8281 " fill="#FEFFDD" style="stroke:#181818;stroke-width:0.5;"/><text fill="#000000" font-family="sans-serif" font-size="13" lengthAdjust="spacing" textLength="182.8188" x="187.3926" y="188.895">Up to three attempts will be</text><text fill="#000000" font-family="sans-serif" font-size="13" lengthAdjust="spacing" textLength="172.1357" x="187.3926" y="204.0278">made to open named pipe</text><polygon fill="#181818" points="328.2124,234.2266,338.2124,238.2266,328.2124,242.2266,332.2124,238.2266" style="stroke:#181818;stroke-width:1.0;"/><line style="stroke:#181818;stroke-width:1.0;" x1="181.3926" x2="334.2124" y1="238.2266" y2="238.2266"/><text fill="#000000" font-family="sans-serif" font-size="13" lengthAdjust="spacing" textLength="32.4429" x="188.3926" y="233.1606">open</text><polygon fill="#181818" points="192.3926,263.3594,182.3926,267.3594,192.3926,271.3594,188.3926,267.3594" style="stroke:#181818;stroke-width:1.0;"/><line style="stroke:#181818;stroke-width:1.0;" x1="186.3926" x2="339.2124" y1="267.3594" y2="267.3594"/><text fill="#000000" font-family="sans-serif" font-size="13" lengthAdjust="spacing" textLength="41.3486" x="198.3926" y="262.2935">failure</text><polygon fill="#181818" points="475.9912,292.4922,485.9912,296.4922,475.9912,300.4922,479.9912,296.4922" style="stroke:#181818;stroke-width:1.0;"/><line style="stroke:#181818;stroke-width:1.0;" x1="340.2124" x2="481.9912" y1="296.4922" y2="296.4922"/><text fill="#000000" font-family="sans-serif" font-size="13" lengthAdjust="spacing" textLength="50.8511" x="347.2124" y="291.4263">success</text><polygon fill="#181818" points="328.2124,321.625,338.2124,325.625,328.2124,329.625,332.2124,325.625" style="stroke:#181818;stroke-width:1.0;"/><line style="stroke:#181818;stroke-width:1.0;" x1="181.3926" x2="334.2124" y1="325.625" y2="325.625"/><text fill="#000000" font-family="sans-serif" font-size="13" lengthAdjust="spacing" textLength="32.4429" x="188.3926" y="320.5591">open</text><polygon fill="#181818" points="192.3926,350.7578,182.3926,354.7578,192.3926,358.7578,188.3926,354.7578" style="stroke:#181818;stroke-width:1.0;"/><line style="stroke:#181818;stroke-width:1.0;" x1="186.3926" x2="339.2124" y1="354.7578" y2="354.7578"/><text fill="#000000" font-family="sans-serif" font-size="13" lengthAdjust="spacing" textLength="50.8511" x="198.3926" y="349.6919">success</text><path d="M170.3716,367.7578 L170.3716,407.7578 L487.3716,407.7578 L487.3716,377.7578 L477.3716,367.7578 L170.3716,367.7578 " fill="#FEFFDD" style="stroke:#181818;stroke-width:0.5;"/><path d="M477.3716,367.7578 L477.3716,377.7578 L487.3716,377.7578 L477.3716,367.7578 " fill="#FEFFDD" style="stroke:#181818;stroke-width:0.5;"/><text fill="#000000" font-family="sans-serif" font-size="13" lengthAdjust="spacing" textLength="255.8232" x="176.3716" y="384.8247">Attempt to check if named pipe is alive</text><text fill="#000000" font-family="sans-serif" font-size="13" lengthAdjust="spacing" textLength="296.6196" x="176.3716" y="399.9575">meanining the connection can be established</text><polygon fill="#181818" points="351.2124,430.1563,341.2124,434.1563,351.2124,438.1563,347.2124,434.1563" style="stroke:#181818;stroke-width:1.0;"/><line style="stroke:#181818;stroke-width:1.0;" x1="345.2124" x2="491.9912" y1="434.1563" y2="434.1563"/><text fill="#000000" font-family="sans-serif" font-size="13" lengthAdjust="spacing" textLength="30.8813" x="357.2124" y="429.0903">alive</text><polygon fill="#181818" points="480.9912,459.2891,490.9912,463.2891,480.9912,467.2891,484.9912,463.2891" style="stroke:#181818;stroke-width:1.0;"/><line style="stroke:#181818;stroke-width:1.0;" x1="340.2124" x2="486.9912" y1="463.2891" y2="463.2891"/><text fill="#000000" font-family="sans-serif" font-size="13" lengthAdjust="spacing" textLength="50.8511" x="347.2124" y="458.2231">success</text><polygon fill="#181818" points="328.2124,488.4219,338.2124,492.4219,328.2124,496.4219,332.2124,492.4219" style="stroke:#181818;stroke-width:1.0;"/><line style="stroke:#181818;stroke-width:1.0;" x1="176.3926" x2="334.2124" y1="492.4219" y2="492.4219"/><text fill="#000000" font-family="sans-serif" font-size="13" lengthAdjust="spacing" textLength="30.8813" x="183.3926" y="487.356">alive</text><polygon fill="#181818" points="187.3926,517.5547,177.3926,521.5547,187.3926,525.5547,183.3926,521.5547" style="stroke:#181818;stroke-width:1.0;"/><line style="stroke:#181818;stroke-width:1.0;" x1="181.3926" x2="339.2124" y1="521.5547" y2="521.5547"/><text fill="#000000" font-family="sans-serif" font-size="13" lengthAdjust="spacing" textLength="50.8511" x="193.3926" y="516.4888">success</text><rect fill="#EEEEEE" height="3" style="stroke:#EEEEEE;stroke-width:1.0;" width="673.7803" x="5" y="550.1211"/><line style="stroke:#000000;stroke-width:1.0;" x1="5" x2="678.7803" y1="550.1211" y2="550.1211"/><line style="stroke:#000000;stroke-width:1.0;" x1="5" x2="678.7803" y1="553.1211" y2="553.1211"/><rect fill="#EEEEEE" height="23.1328" style="stroke:#000000;stroke-width:2.0;" width="132.3901" x="275.6951" y="539.5547"/><text fill="#000000" font-family="sans-serif" font-size="13" font-weight="bold" lengthAdjust="spacing" textLength="113.8643" x="281.6951" y="555.6216">Communication</text><line style="stroke:#181818;stroke-width:1.0;" x1="492.9912" x2="539.9912" y1="593.8203" y2="593.8203"/><line style="stroke:#181818;stroke-width:1.0;" x1="539.9912" x2="539.9912" y1="593.8203" y2="606.8203"/><line style="stroke:#181818;stroke-width:1.0;" x1="498.9912" x2="539.9912" y1="606.8203" y2="606.8203"/><polygon fill="#181818" points="508.9912,602.8203,498.9912,606.8203,508.9912,610.8203,504.9912,606.8203" style="stroke:#181818;stroke-width:1.0;"/><text fill="#000000" font-family="sans-serif" font-size="13" lengthAdjust="spacing" textLength="134.5767" x="504.9912" y="588.7544">start receiver thread</text><line style="stroke:#181818;stroke-width:1.0;" x1="176.3926" x2="223.3926" y1="635.9531" y2="635.9531"/><line style="stroke:#181818;stroke-width:1.0;" x1="223.3926" x2="223.3926" y1="635.9531" y2="648.9531"/><line style="stroke:#181818;stroke-width:1.0;" x1="182.3926" x2="223.3926" y1="648.9531" y2="648.9531"/><polygon fill="#181818" points="192.3926,644.9531,182.3926,648.9531,192.3926,652.9531,188.3926,648.9531" style="stroke:#181818;stroke-width:1.0;"/><text fill="#000000" font-family="sans-serif" font-size="13" lengthAdjust="spacing" textLength="126.0454" x="188.3926" y="630.8872">start sender thread</text><path d="M270.417,661.9531 L270.417,716.9531 L487.417,716.9531 L487.417,671.9531 L477.417,661.9531 L270.417,661.9531 " fill="#FEFFDD" style="stroke:#181818;stroke-width:0.5;"/><path d="M477.417,661.9531 L477.417,671.9531 L487.417,671.9531 L477.417,661.9531 " fill="#FEFFDD" style="stroke:#181818;stroke-width:0.5;"/><text fill="#000000" font-family="sans-serif" font-size="13" lengthAdjust="spacing" textLength="162.2778" x="276.417" y="679.02">Up to three attempts are</text><text fill="#000000" font-family="sans-serif" font-size="13" lengthAdjust="spacing" textLength="196.5742" x="276.417" y="694.1528">made to receive any message</text><text fill="#000000" font-family="sans-serif" font-size="13" lengthAdjust="spacing" textLength="181.8984" x="276.417" y="709.2856">after last successful receive</text><polygon fill="#181818" points="351.2124,739.4844,341.2124,743.4844,351.2124,747.4844,347.2124,743.4844" style="stroke:#181818;stroke-width:1.0;"/><line style="stroke:#181818;stroke-width:1.0;" x1="345.2124" x2="491.9912" y1="743.4844" y2="743.4844"/><text fill="#000000" font-family="sans-serif" font-size="13" lengthAdjust="spacing" textLength="47.7915" x="357.2124" y="738.4185">receive</text><polygon fill="#181818" points="480.9912,768.6172,490.9912,772.6172,480.9912,776.6172,484.9912,772.6172" style="stroke:#181818;stroke-width:1.0;"/><line style="stroke:#181818;stroke-width:1.0;" x1="340.2124" x2="486.9912" y1="772.6172" y2="772.6172"/><text fill="#000000" font-family="sans-serif" font-size="13" lengthAdjust="spacing" textLength="41.3486" x="347.2124" y="767.5513">failure</text><ellipse cx="10.5" cy="801" fill="none" rx="4" ry="4" style="stroke:#181818;stroke-width:1.5;"/><polygon fill="#181818" points="164.3926,797.75,174.3926,801.75,164.3926,805.75,168.3926,801.75" style="stroke:#181818;stroke-width:1.0;"/><line style="stroke:#181818;stroke-width:1.0;" x1="15" x2="170.3926" y1="801.75" y2="801.75"/><text fill="#000000" font-family="sans-serif" font-size="13" lengthAdjust="spacing" textLength="110.519" x="54.8735" y="796.6841">switch command</text><ellipse cx="10.5" cy="830.1328" fill="none" rx="4" ry="4" style="stroke:#181818;stroke-width:1.5;"/><polygon fill="#181818" points="164.3926,826.8828,174.3926,830.8828,164.3926,834.8828,168.3926,830.8828" style="stroke:#181818;stroke-width:1.0;"/><line style="stroke:#181818;stroke-width:1.0;" x1="15" x2="170.3926" y1="830.8828" y2="830.8828"/><text fill="#000000" font-family="sans-serif" font-size="13" lengthAdjust="spacing" textLength="147.3926" x="18" y="825.8169">"Hello world" message</text><path d="M181.3926,843.8828 L181.3926,883.8828 L371.3926,883.8828 L371.3926,853.8828 L361.3926,843.8828 L181.3926,843.8828 " fill="#FEFFDD" style="stroke:#181818;stroke-width:0.5;"/><path d="M361.3926,843.8828 L361.3926,853.8828 L371.3926,853.8828 L361.3926,843.8828 " fill="#FEFFDD" style="stroke:#181818;stroke-width:0.5;"/><text fill="#000000" font-family="sans-serif" font-size="13" lengthAdjust="spacing" textLength="169.9331" x="187.3926" y="860.9497">Only one attempt is made</text><text fill="#000000" font-family="sans-serif" font-size="13" lengthAdjust="spacing" textLength="139.0327" x="187.3926" y="876.0825">to send any message</text><polygon fill="#181818" points="328.2124,906.2813,338.2124,910.2813,328.2124,914.2813,332.2124,910.2813" style="stroke:#181818;stroke-width:1.0;"/><line style="stroke:#181818;stroke-width:1.0;" x1="176.3926" x2="334.2124" y1="910.2813" y2="910.2813"/><text fill="#000000" font-family="sans-serif" font-size="13" lengthAdjust="spacing" textLength="139.8198" x="183.3926" y="905.2153">send (switch contact)</text><polygon fill="#181818" points="187.3926,935.4141,177.3926,939.4141,187.3926,943.4141,183.3926,939.4141" style="stroke:#181818;stroke-width:1.0;"/><line style="stroke:#181818;stroke-width:1.0;" x1="181.3926" x2="339.2124" y1="939.4141" y2="939.4141"/><text fill="#000000" font-family="sans-serif" font-size="13" lengthAdjust="spacing" textLength="50.8511" x="193.3926" y="934.3481">success</text><polygon fill="#181818" points="351.2124,964.5469,341.2124,968.5469,351.2124,972.5469,347.2124,968.5469" style="stroke:#181818;stroke-width:1.0;"/><line style="stroke:#181818;stroke-width:1.0;" x1="345.2124" x2="491.9912" y1="968.5469" y2="968.5469"/><text fill="#000000" font-family="sans-serif" font-size="13" lengthAdjust="spacing" textLength="47.7915" x="357.2124" y="963.481">receive</text><polygon fill="#181818" points="480.9912,993.6797,490.9912,997.6797,480.9912,1001.6797,484.9912,997.6797" style="stroke:#181818;stroke-width:1.0;"/><line style="stroke:#181818;stroke-width:1.0;" x1="340.2124" x2="486.9912" y1="997.6797" y2="997.6797"/><text fill="#000000" font-family="sans-serif" font-size="13" lengthAdjust="spacing" textLength="50.8511" x="347.2124" y="992.6138">success</text><ellipse cx="672.2803" cy="1026.0625" fill="none" rx="4" ry="4" style="stroke:#181818;stroke-width:1.5;"/><polygon fill="#181818" points="655.2803,1022.8125,665.2803,1026.8125,655.2803,1030.8125,659.2803,1026.8125" style="stroke:#181818;stroke-width:1.0;"/><line style="stroke:#181818;stroke-width:1.0;" x1="492.9912" x2="661.2803" y1="1026.8125" y2="1026.8125"/><text fill="#000000" font-family="sans-serif" font-size="13" lengthAdjust="spacing" textLength="161.7891" x="499.9912" y="1021.7466">callback (switch contact)</text><polygon fill="#181818" points="328.2124,1051.9453,338.2124,1055.9453,328.2124,1059.9453,332.2124,1055.9453" style="stroke:#181818;stroke-width:1.0;"/><line style="stroke:#181818;stroke-width:1.0;" x1="176.3926" x2="334.2124" y1="1055.9453" y2="1055.9453"/><text fill="#000000" font-family="sans-serif" font-size="13" lengthAdjust="spacing" textLength="103.9619" x="183.3926" y="1050.8794">send (message)</text><polygon fill="#181818" points="187.3926,1081.0781,177.3926,1085.0781,187.3926,1089.0781,183.3926,1085.0781" style="stroke:#181818;stroke-width:1.0;"/><line style="stroke:#181818;stroke-width:1.0;" x1="181.3926" x2="339.2124" y1="1085.0781" y2="1085.0781"/><text fill="#000000" font-family="sans-serif" font-size="13" lengthAdjust="spacing" textLength="50.8511" x="193.3926" y="1080.0122">success</text><polygon fill="#181818" points="351.2124,1110.2109,341.2124,1114.2109,351.2124,1118.2109,347.2124,1114.2109" style="stroke:#181818;stroke-width:1.0;"/><line style="stroke:#181818;stroke-width:1.0;" x1="345.2124" x2="491.9912" y1="1114.2109" y2="1114.2109"/><text fill="#000000" font-family="sans-serif" font-size="13" lengthAdjust="spacing" textLength="47.7915" x="357.2124" y="1109.145">receive</text><polygon fill="#181818" points="480.9912,1139.3438,490.9912,1143.3438,480.9912,1147.3438,484.9912,1143.3438" style="stroke:#181818;stroke-width:1.0;"/><line style="stroke:#181818;stroke-width:1.0;" x1="340.2124" x2="486.9912" y1="1143.3438" y2="1143.3438"/><text fill="#000000" font-family="sans-serif" font-size="13" lengthAdjust="spacing" textLength="50.8511" x="347.2124" y="1138.2778">success</text><ellipse cx="672.2803" cy="1171.7266" fill="none" rx="4" ry="4" style="stroke:#181818;stroke-width:1.5;"/><polygon fill="#181818" points="655.2803,1168.4766,665.2803,1172.4766,655.2803,1176.4766,659.2803,1172.4766" style="stroke:#181818;stroke-width:1.0;"/><line style="stroke:#181818;stroke-width:1.0;" x1="492.9912" x2="661.2803" y1="1172.4766" y2="1172.4766"/><text fill="#000000" font-family="sans-serif" font-size="13" lengthAdjust="spacing" textLength="125.9312" x="499.9912" y="1167.4106">callback (message)</text><ellipse cx="10.5" cy="1200.8594" fill="none" rx="4" ry="4" style="stroke:#181818;stroke-width:1.5;"/><polygon fill="#181818" points="164.3926,1197.6094,174.3926,1201.6094,164.3926,1205.6094,168.3926,1201.6094" style="stroke:#181818;stroke-width:1.0;"/><line style="stroke:#181818;stroke-width:1.0;" x1="15" x2="170.3926" y1="1201.6094" y2="1201.6094"/><text fill="#000000" font-family="sans-serif" font-size="13" lengthAdjust="spacing" textLength="94.2183" x="71.1743" y="1196.5435">quit command</text><polygon fill="#181818" points="328.2124,1226.7422,338.2124,1230.7422,328.2124,1234.7422,332.2124,1230.7422" style="stroke:#181818;stroke-width:1.0;"/><line style="stroke:#181818;stroke-width:1.0;" x1="176.3926" x2="334.2124" y1="1230.7422" y2="1230.7422"/><text fill="#000000" font-family="sans-serif" font-size="13" lengthAdjust="spacing" textLength="70.7383" x="183.3926" y="1225.6763">send (quit)</text><polygon fill="#181818" points="187.3926,1255.875,177.3926,1259.875,187.3926,1263.875,183.3926,1259.875" style="stroke:#181818;stroke-width:1.0;"/><line style="stroke:#181818;stroke-width:1.0;" x1="181.3926" x2="339.2124" y1="1259.875" y2="1259.875"/><text fill="#000000" font-family="sans-serif" font-size="13" lengthAdjust="spacing" textLength="50.8511" x="193.3926" y="1254.8091">success</text><polygon fill="#181818" points="351.2124,1285.0078,341.2124,1289.0078,351.2124,1293.0078,347.2124,1289.0078" style="stroke:#181818;stroke-width:1.0;"/><line style="stroke:#181818;stroke-width:1.0;" x1="345.2124" x2="491.9912" y1="1289.0078" y2="1289.0078"/><text fill="#000000" font-family="sans-serif" font-size="13" lengthAdjust="spacing" textLength="47.7915" x="357.2124" y="1283.9419">receive</text><polygon fill="#181818" points="480.9912,1314.1406,490.9912,1318.1406,480.9912,1322.1406,484.9912,1318.1406" style="stroke:#181818;stroke-width:1.0;"/><line style="stroke:#181818;stroke-width:1.0;" x1="340.2124" x2="486.9912" y1="1318.1406" y2="1318.1406"/><text fill="#000000" font-family="sans-serif" font-size="13" lengthAdjust="spacing" textLength="50.8511" x="347.2124" y="1313.0747">success</text><line style="stroke:#181818;stroke-width:1.0;" x1="258.3025" x2="258.3025" y1="240.2266" y2="323.625"/><polygon fill="#181818" points="254.3025,250.2266,258.3025,240.2266,262.3025,250.2266,258.3025,246.2266" style="stroke:#181818;stroke-width:1.0;"/><polygon fill="#181818" points="254.3025,313.625,258.3025,323.625,262.3025,313.625,258.3025,317.625" style="stroke:#181818;stroke-width:1.0;"/><text fill="#000000" font-family="sans-serif" font-size="13" lengthAdjust="spacing" textLength="48.3818" x="262.3025" y="286.4263">500 ms</text><line style="stroke:#181818;stroke-width:1.0;" x1="416.6018" x2="416.6018" y1="745.4844" y2="966.5469"/><polygon fill="#181818" points="412.6018,755.4844,416.6018,745.4844,420.6018,755.4844,416.6018,751.4844" style="stroke:#181818;stroke-width:1.0;"/><polygon fill="#181818" points="412.6018,956.5469,416.6018,966.5469,420.6018,956.5469,416.6018,960.5469" style="stroke:#181818;stroke-width:1.0;"/><text fill="#000000" font-family="sans-serif" font-size="13" lengthAdjust="spacing" textLength="48.3818" x="420.6018" y="860.5161">500 ms</text><!--SRC=[pLLDRzim3BthLt3fPJiCoAMNO1cm3YYwoxP3UXg6WP5fHvWiUHBTz0FzxvDIsudjs74A35Xo2aKzlKS-CcyAXrcEm6GVWLr9GXJeM4bLe66OhLOhkkShUpy3zD3ywYRTijB-A-QKV5S5LRdju03k3Pf4asl3Lq4XbaluOXGhrEeHMLa3owKmbWaqfGmsxT_vPlG3M4E0p9GN35kbDQm9San8i0Nf20D0I0TRa04J6K8HALA8HNJHHONt7tk2OD654YXPtSL8x_x5zVLL-BnmTohRjCcBsm82DTuuQeZxchc8pEFn8DsdL3dFl-BvynvqWFG0quPYxyeEfivQG8fAbux6yshT2_2bbEIzI6YmEkB9axGcEKT0I_A7aDZ6MC3bV0wvFwbcZDu9ftsg31OzjI7v6rHwq1rG7e9jxqBx28qAtopqbo2GD2HtNfPeeZ79CwwryXjApdRWomjdjk9KWIU07g358VriyxmqIZOpUfn-dn67fG2E98KNtSx_c8oDqNn-6HexQgQEkWF2kyTyAF7OKt2HMPsynWz7PnZTVduhdM5VF40UIeSP2KmviD7ekIveMkewipVXLVmP9jgZnfbea7gqVzXkwRQAvIPuDyz3SlzyTaDQMzXQfvDPesresVLMT1YLUZl7zhGAr9-80QsxcsyRfeP30zzDTd6zFbvRuMw33bTI4vosbKO6Ti_5_ep_FwZr6iFcEI9xIh6g6a-lqh-ntNIP3U6U0_-KYXj_JbCVh_mdqly2]--></g></svg>