<svg xmlns="http://www.w3.org/2000/svg" xmlns:xlink="http://www.w3.org/1999/xlink" contentStyleType="text/css" height="436px" preserveAspectRatio="none" style="width:1466px;height:436px;background:#FFFFFF;" version="1.1" viewBox="0 0 1466 436" width="1466px" zoomAndPan="magnify"><defs/><g><!--cluster TTTextBoxBundle--><g id="cluster_TTTextBoxBundle"><rect fill="none" height="423" rx="2.5" ry="2.5" style="stroke:#181818;stroke-width:1.0;" width="826" x="7" y="7"/><text fill="#000000" font-family="sans-serif" font-size="14" font-weight="bold" lengthAdjust="spacing" textLength="138.1064" x="350.9468" y="21.9951">TTTextBoxBundle</text></g><!--cluster TTDiagnosticsBundle--><g id="cluster_TTDiagnosticsBundle"><rect fill="none" height="99" rx="2.5" ry="2.5" style="stroke:#181818;stroke-width:1.0;" width="210" x="1250" y="331"/><text fill="#000000" font-family="sans-serif" font-size="14" font-weight="bold" lengthAdjust="spacing" textLength="165.9492" x="1272.0254" y="345.9951">TTDiagnosticsBundle</text></g><!--cluster TTUtilsBundle--><g id="cluster_TTUtilsBundle"><rect fill="none" height="207" rx="2.5" ry="2.5" style="stroke:#181818;stroke-width:1.0;" width="369" x="857" y="223"/><text fill="#000000" font-family="sans-serif" font-size="14" font-weight="bold" lengthAdjust="spacing" textLength="110.0107" x="986.4946" y="237.9951">TTUtilsBundle</text></g><!--class TTTextBoxHandler--><g id="elem_TTTextBoxHandler"><rect codeLine="2" fill="#F1F1F1" height="48" id="TTTextBoxHandler" rx="2.5" ry="2.5" style="stroke:#181818;stroke-width:0.5;" width="161.623" x="604.19" y="42"/><ellipse cx="619.19" cy="58" fill="#ADD1B2" rx="11" ry="11" style="stroke:#181818;stroke-width:1.0;"/><path d="M622.1588,63.6406 Q621.5806,63.9375 620.94,64.0781 Q620.2994,64.2344 619.5963,64.2344 Q617.0963,64.2344 615.7681,62.5938 Q614.4556,60.9375 614.4556,57.8125 Q614.4556,54.6875 615.7681,53.0313 Q617.0963,51.375 619.5963,51.375 Q620.2994,51.375 620.94,51.5313 Q621.5963,51.6875 622.1588,51.9844 L622.1588,54.7031 Q621.5338,54.125 620.94,53.8594 Q620.3463,53.5781 619.7213,53.5781 Q618.3775,53.5781 617.69,54.6563 Q617.0025,55.7188 617.0025,57.8125 Q617.0025,59.9063 617.69,60.9844 Q618.3775,62.0469 619.7213,62.0469 Q620.3463,62.0469 620.94,61.7813 Q621.5338,61.5 622.1588,60.9219 L622.1588,63.6406 Z " fill="#000000"/><text fill="#000000" font-family="sans-serif" font-size="14" lengthAdjust="spacing" textLength="129.623" x="633.19" y="62.8467">TTTextBoxHandler</text><line style="stroke:#181818;stroke-width:0.5;" x1="605.19" x2="764.813" y1="74" y2="74"/><line style="stroke:#181818;stroke-width:0.5;" x1="605.19" x2="764.813" y1="82" y2="82"/></g><!--class TTTextBoxMessage--><g id="elem_TTTextBoxMessage"><rect codeLine="3" fill="#F1F1F1" height="48" id="TTTextBoxMessage" rx="2.5" ry="2.5" style="stroke:#181818;stroke-width:0.5;" width="167.8574" x="40.07" y="258"/><ellipse cx="55.07" cy="274" fill="#F1F1F1" rx="11" ry="11" style="stroke:#181818;stroke-width:1.0;"/><path d="M54.5544,274.5625 Q52.695,273.8594 52.0388,273.0938 Q51.3981,272.3125 51.3981,271 Q51.3981,269.3125 52.4763,268.3438 Q53.5544,267.375 55.4294,267.375 Q56.2888,267.375 57.1325,267.5781 Q57.9919,267.7656 58.8356,268.1563 L58.8356,270.5469 Q58.0544,269.9844 57.2263,269.7031 Q56.4138,269.4063 55.6169,269.4063 Q54.7419,269.4063 54.2575,269.7656 Q53.7888,270.125 53.7888,270.7813 Q53.7888,271.2969 54.1325,271.6406 Q54.4763,271.9688 55.57,272.375 L56.6325,272.7813 Q58.1169,273.3281 58.82,274.2344 Q59.5388,275.1406 59.5388,276.5156 Q59.5388,278.3906 58.4294,279.3125 Q57.32,280.2344 55.07,280.2344 Q54.1481,280.2344 53.2263,280.0156 Q52.3044,279.7969 51.445,279.375 L51.445,276.8438 Q52.4138,277.5313 53.3356,277.875 Q54.2575,278.2188 55.1481,278.2188 Q56.0544,278.2188 56.5544,277.8125 Q57.0544,277.3906 57.0544,276.6563 Q57.0544,276.0938 56.7106,275.6875 Q56.3825,275.2656 55.7575,275.0156 L54.5544,274.5625 Z " fill="#000000"/><text fill="#000000" font-family="sans-serif" font-size="14" lengthAdjust="spacing" textLength="135.8574" x="69.07" y="278.8467">TTTextBoxMessage</text><line style="stroke:#181818;stroke-width:0.5;" x1="41.07" x2="206.9274" y1="290" y2="290"/><line style="stroke:#181818;stroke-width:0.5;" x1="41.07" x2="206.9274" y1="298" y2="298"/></g><!--class TTTextBoxSettings--><g id="elem_TTTextBoxSettings"><rect codeLine="4" fill="#F1F1F1" height="48" id="TTTextBoxSettings" rx="2.5" ry="2.5" style="stroke:#181818;stroke-width:0.5;" width="163.9199" x="60.04" y="150"/><ellipse cx="75.04" cy="166" fill="#ADD1B2" rx="11" ry="11" style="stroke:#181818;stroke-width:1.0;"/><path d="M78.0088,171.6406 Q77.4306,171.9375 76.79,172.0781 Q76.1494,172.2344 75.4463,172.2344 Q72.9463,172.2344 71.6181,170.5938 Q70.3056,168.9375 70.3056,165.8125 Q70.3056,162.6875 71.6181,161.0313 Q72.9463,159.375 75.4463,159.375 Q76.1494,159.375 76.79,159.5313 Q77.4463,159.6875 78.0088,159.9844 L78.0088,162.7031 Q77.3838,162.125 76.79,161.8594 Q76.1963,161.5781 75.5713,161.5781 Q74.2275,161.5781 73.54,162.6563 Q72.8525,163.7188 72.8525,165.8125 Q72.8525,167.9063 73.54,168.9844 Q74.2275,170.0469 75.5713,170.0469 Q76.1963,170.0469 76.79,169.7813 Q77.3838,169.5 78.0088,168.9219 L78.0088,171.6406 Z " fill="#000000"/><text fill="#000000" font-family="sans-serif" font-size="14" lengthAdjust="spacing" textLength="131.9199" x="89.04" y="170.8467">TTTextBoxSettings</text><line style="stroke:#181818;stroke-width:0.5;" x1="61.04" x2="222.9599" y1="182" y2="182"/><line style="stroke:#181818;stroke-width:0.5;" x1="61.04" x2="222.9599" y1="190" y2="190"/></g><!--class TTTextBoxStatus--><g id="elem_TTTextBoxStatus"><rect codeLine="5" fill="#F1F1F1" height="48" id="TTTextBoxStatus" rx="2.5" ry="2.5" style="stroke:#181818;stroke-width:0.5;" width="151.1094" x="48.45" y="366"/><ellipse cx="63.45" cy="382" fill="#EB937F" rx="11" ry="11" style="stroke:#181818;stroke-width:1.0;"/><path d="M67.5594,388 L59.8406,388 L59.8406,375.6094 L67.5594,375.6094 L67.5594,377.7656 L62.2938,377.7656 L62.2938,380.4375 L67.0594,380.4375 L67.0594,382.5938 L62.2938,382.5938 L62.2938,385.8438 L67.5594,385.8438 L67.5594,388 Z " fill="#000000"/><text fill="#000000" font-family="sans-serif" font-size="14" lengthAdjust="spacing" textLength="119.1094" x="77.45" y="386.8467">TTTextBoxStatus</text><line style="stroke:#181818;stroke-width:0.5;" x1="49.45" x2="198.5594" y1="398" y2="398"/><line style="stroke:#181818;stroke-width:0.5;" x1="49.45" x2="198.5594" y1="406" y2="406"/></g><!--class TTTextBoxCallbackMessageSent--><g id="elem_TTTextBoxCallbackMessageSent"><rect codeLine="6" fill="#F1F1F1" height="48" id="TTTextBoxCallbackMessageSent" rx="2.5" ry="2.5" style="stroke:#181818;stroke-width:0.5;" width="259.124" x="259.44" y="150"/><ellipse cx="274.44" cy="166" fill="#E3664A" rx="11" ry="11" style="stroke:#181818;stroke-width:1.0;"/><path d="M276.5181,166.4688 Q276.5181,165.5313 276.0963,165 Q275.6744,164.4688 274.9244,164.4688 Q274.19,164.4688 273.7681,165 Q273.3619,165.5313 273.3619,166.4688 Q273.3619,167.4219 273.7681,167.9531 Q274.19,168.4844 274.9244,168.4844 Q275.6744,168.4844 276.0963,167.9531 Q276.5181,167.4219 276.5181,166.4688 Z M278.065,169.875 L276.44,169.875 L276.44,169.2031 Q276.1119,169.6406 275.69,169.8438 Q275.2681,170.0469 274.6588,170.0469 Q273.2994,170.0469 272.4713,169.0781 Q271.6431,168.0938 271.6431,166.4688 Q271.6431,164.875 272.4713,163.9063 Q273.2994,162.9219 274.6588,162.9219 Q275.2525,162.9219 275.7056,163.125 Q276.1588,163.3281 276.44,163.7188 L276.44,163.375 Q276.44,162.25 275.815,161.6406 Q275.19,161.0156 274.0494,161.0156 Q272.3306,161.0156 271.2369,162.5469 Q270.1431,164.0625 270.1431,166.5 Q270.1431,169.0469 271.3931,170.5469 Q272.6588,172.0469 274.7681,172.0469 Q275.4244,172.0469 276.0494,171.8594 Q276.6744,171.6719 277.2525,171.2813 L278.0181,172.7344 Q277.3463,173.1875 276.5494,173.4063 Q275.7525,173.6406 274.8463,173.6406 Q271.94,173.6406 270.2056,171.7031 Q268.4869,169.7813 268.4869,166.5 Q268.4869,163.2813 270.0338,161.3594 Q271.5963,159.4219 274.1588,159.4219 Q275.9556,159.4219 277.0025,160.5156 Q278.065,161.6094 278.065,163.4844 L278.065,169.875 Z " fill="#000000"/><text fill="#000000" font-family="sans-serif" font-size="14" lengthAdjust="spacing" textLength="227.124" x="288.44" y="170.8467">TTTextBoxCallbackMessageSent</text><line style="stroke:#181818;stroke-width:0.5;" x1="260.44" x2="517.564" y1="182" y2="182"/><line style="stroke:#181818;stroke-width:0.5;" x1="260.44" x2="517.564" y1="190" y2="190"/></g><!--class TTTextBoxCallbackContactSelect--><g id="elem_TTTextBoxCallbackContactSelect"><rect codeLine="7" fill="#F1F1F1" height="48" id="TTTextBoxCallbackContactSelect" rx="2.5" ry="2.5" style="stroke:#181818;stroke-width:0.5;" width="263.5605" x="553.22" y="150"/><ellipse cx="568.22" cy="166" fill="#E3664A" rx="11" ry="11" style="stroke:#181818;stroke-width:1.0;"/><path d="M570.2981,166.4688 Q570.2981,165.5313 569.8763,165 Q569.4544,164.4688 568.7044,164.4688 Q567.97,164.4688 567.5481,165 Q567.1419,165.5313 567.1419,166.4688 Q567.1419,167.4219 567.5481,167.9531 Q567.97,168.4844 568.7044,168.4844 Q569.4544,168.4844 569.8763,167.9531 Q570.2981,167.4219 570.2981,166.4688 Z M571.845,169.875 L570.22,169.875 L570.22,169.2031 Q569.8919,169.6406 569.47,169.8438 Q569.0481,170.0469 568.4388,170.0469 Q567.0794,170.0469 566.2513,169.0781 Q565.4231,168.0938 565.4231,166.4688 Q565.4231,164.875 566.2513,163.9063 Q567.0794,162.9219 568.4388,162.9219 Q569.0325,162.9219 569.4856,163.125 Q569.9388,163.3281 570.22,163.7188 L570.22,163.375 Q570.22,162.25 569.595,161.6406 Q568.97,161.0156 567.8294,161.0156 Q566.1106,161.0156 565.0169,162.5469 Q563.9231,164.0625 563.9231,166.5 Q563.9231,169.0469 565.1731,170.5469 Q566.4388,172.0469 568.5481,172.0469 Q569.2044,172.0469 569.8294,171.8594 Q570.4544,171.6719 571.0325,171.2813 L571.7981,172.7344 Q571.1263,173.1875 570.3294,173.4063 Q569.5325,173.6406 568.6263,173.6406 Q565.72,173.6406 563.9856,171.7031 Q562.2669,169.7813 562.2669,166.5 Q562.2669,163.2813 563.8138,161.3594 Q565.3763,159.4219 567.9388,159.4219 Q569.7356,159.4219 570.7825,160.5156 Q571.845,161.6094 571.845,163.4844 L571.845,169.875 Z " fill="#000000"/><text fill="#000000" font-family="sans-serif" font-size="14" lengthAdjust="spacing" textLength="231.5605" x="582.22" y="170.8467">TTTextBoxCallbackContactSelect</text><line style="stroke:#181818;stroke-width:0.5;" x1="554.22" x2="815.7805" y1="182" y2="182"/><line style="stroke:#181818;stroke-width:0.5;" x1="554.22" x2="815.7805" y1="190" y2="190"/></g><!--class TTDiagnosticsLogger--><g id="elem_TTDiagnosticsLogger"><rect codeLine="11" fill="#F1F1F1" height="48" id="TTDiagnosticsLogger" rx="2.5" ry="2.5" style="stroke:#181818;stroke-width:0.5;" width="178.8496" x="1265.58" y="366"/><ellipse cx="1280.58" cy="382" fill="#ADD1B2" rx="11" ry="11" style="stroke:#181818;stroke-width:1.0;"/><path d="M1283.5488,387.6406 Q1282.9706,387.9375 1282.33,388.0781 Q1281.6894,388.2344 1280.9863,388.2344 Q1278.4863,388.2344 1277.1581,386.5938 Q1275.8456,384.9375 1275.8456,381.8125 Q1275.8456,378.6875 1277.1581,377.0313 Q1278.4863,375.375 1280.9863,375.375 Q1281.6894,375.375 1282.33,375.5313 Q1282.9863,375.6875 1283.5488,375.9844 L1283.5488,378.7031 Q1282.9238,378.125 1282.33,377.8594 Q1281.7363,377.5781 1281.1113,377.5781 Q1279.7675,377.5781 1279.08,378.6563 Q1278.3925,379.7188 1278.3925,381.8125 Q1278.3925,383.9063 1279.08,384.9844 Q1279.7675,386.0469 1281.1113,386.0469 Q1281.7363,386.0469 1282.33,385.7813 Q1282.9238,385.5 1283.5488,384.9219 L1283.5488,387.6406 Z " fill="#000000"/><text fill="#000000" font-family="sans-serif" font-size="14" lengthAdjust="spacing" textLength="146.8496" x="1294.58" y="386.8467">TTDiagnosticsLogger</text><line style="stroke:#181818;stroke-width:0.5;" x1="1266.58" x2="1443.4296" y1="398" y2="398"/><line style="stroke:#181818;stroke-width:0.5;" x1="1266.58" x2="1443.4296" y1="406" y2="406"/></g><!--class TTUtilsSyscall--><g id="elem_TTUtilsSyscall"><rect codeLine="15" fill="#F1F1F1" height="48" id="TTUtilsSyscall" rx="2.5" ry="2.5" style="stroke:#181818;stroke-width:0.5;" width="128.4346" x="880.78" y="366"/><ellipse cx="895.78" cy="382" fill="#ADD1B2" rx="11" ry="11" style="stroke:#181818;stroke-width:1.0;"/><path d="M898.7488,387.6406 Q898.1706,387.9375 897.53,388.0781 Q896.8894,388.2344 896.1863,388.2344 Q893.6863,388.2344 892.3581,386.5938 Q891.0456,384.9375 891.0456,381.8125 Q891.0456,378.6875 892.3581,377.0313 Q893.6863,375.375 896.1863,375.375 Q896.8894,375.375 897.53,375.5313 Q898.1863,375.6875 898.7488,375.9844 L898.7488,378.7031 Q898.1238,378.125 897.53,377.8594 Q896.9363,377.5781 896.3113,377.5781 Q894.9675,377.5781 894.28,378.6563 Q893.5925,379.7188 893.5925,381.8125 Q893.5925,383.9063 894.28,384.9844 Q894.9675,386.0469 896.3113,386.0469 Q896.9363,386.0469 897.53,385.7813 Q898.1238,385.5 898.7488,384.9219 L898.7488,387.6406 Z " fill="#000000"/><text fill="#000000" font-family="sans-serif" font-size="14" lengthAdjust="spacing" textLength="96.4346" x="909.78" y="386.8467">TTUtilsSyscall</text><line style="stroke:#181818;stroke-width:0.5;" x1="881.78" x2="1008.2146" y1="398" y2="398"/><line style="stroke:#181818;stroke-width:0.5;" x1="881.78" x2="1008.2146" y1="406" y2="406"/></g><!--class TTUtilsNamedPipe--><g id="elem_TTUtilsNamedPipe"><rect codeLine="16" fill="#F1F1F1" height="48" id="TTUtilsNamedPipe" rx="2.5" ry="2.5" style="stroke:#181818;stroke-width:0.5;" width="159.9346" x="873.03" y="258"/><ellipse cx="888.03" cy="274" fill="#ADD1B2" rx="11" ry="11" style="stroke:#181818;stroke-width:1.0;"/><path d="M890.9988,279.6406 Q890.4206,279.9375 889.78,280.0781 Q889.1394,280.2344 888.4363,280.2344 Q885.9363,280.2344 884.6081,278.5938 Q883.2956,276.9375 883.2956,273.8125 Q883.2956,270.6875 884.6081,269.0313 Q885.9363,267.375 888.4363,267.375 Q889.1394,267.375 889.78,267.5313 Q890.4363,267.6875 890.9988,267.9844 L890.9988,270.7031 Q890.3738,270.125 889.78,269.8594 Q889.1863,269.5781 888.5613,269.5781 Q887.2175,269.5781 886.53,270.6563 Q885.8425,271.7188 885.8425,273.8125 Q885.8425,275.9063 886.53,276.9844 Q887.2175,278.0469 888.5613,278.0469 Q889.1863,278.0469 889.78,277.7813 Q890.3738,277.5 890.9988,276.9219 L890.9988,279.6406 Z " fill="#000000"/><text fill="#000000" font-family="sans-serif" font-size="14" lengthAdjust="spacing" textLength="127.9346" x="902.03" y="278.8467">TTUtilsNamedPipe</text><line style="stroke:#181818;stroke-width:0.5;" x1="874.03" x2="1031.9646" y1="290" y2="290"/><line style="stroke:#181818;stroke-width:0.5;" x1="874.03" x2="1031.9646" y1="298" y2="298"/></g><!--class TTUtilsStopable--><g id="elem_TTUtilsStopable"><rect codeLine="17" fill="#F1F1F1" height="48" id="TTUtilsStopable" rx="2.5" ry="2.5" style="stroke:#181818;stroke-width:0.5;" width="141.71" x="1068.15" y="258"/><ellipse cx="1083.15" cy="274" fill="#ADD1B2" rx="11" ry="11" style="stroke:#181818;stroke-width:1.0;"/><path d="M1086.1188,279.6406 Q1085.5406,279.9375 1084.9,280.0781 Q1084.2594,280.2344 1083.5563,280.2344 Q1081.0563,280.2344 1079.7281,278.5938 Q1078.4156,276.9375 1078.4156,273.8125 Q1078.4156,270.6875 1079.7281,269.0313 Q1081.0563,267.375 1083.5563,267.375 Q1084.2594,267.375 1084.9,267.5313 Q1085.5563,267.6875 1086.1188,267.9844 L1086.1188,270.7031 Q1085.4938,270.125 1084.9,269.8594 Q1084.3063,269.5781 1083.6813,269.5781 Q1082.3375,269.5781 1081.65,270.6563 Q1080.9625,271.7188 1080.9625,273.8125 Q1080.9625,275.9063 1081.65,276.9844 Q1082.3375,278.0469 1083.6813,278.0469 Q1084.3063,278.0469 1084.9,277.7813 Q1085.4938,277.5 1086.1188,276.9219 L1086.1188,279.6406 Z " fill="#000000"/><text fill="#000000" font-family="sans-serif" font-size="14" lengthAdjust="spacing" textLength="109.71" x="1097.15" y="278.8467">TTUtilsStopable</text><line style="stroke:#181818;stroke-width:0.5;" x1="1069.15" x2="1208.86" y1="290" y2="290"/><line style="stroke:#181818;stroke-width:0.5;" x1="1069.15" x2="1208.86" y1="298" y2="298"/></g><!--link TTTextBoxHandler to TTUtilsStopable--><g id="link_TTTextBoxHandler_TTUtilsStopable"><path codeLine="20" d="M757.78,90.39 C833.28,116.04 953.56,160.85 1050,215 C1071.8,227.24 1080.3608,232.8174 1097.3408,246.4174 " fill="none" id="TTTextBoxHandler-to-TTUtilsStopable" style="stroke:#181818;stroke-width:1.0;"/><polygon fill="none" points="1111.39,257.67,1101.0917,241.7344,1093.59,251.1005,1111.39,257.67" style="stroke:#181818;stroke-width:1.0;"/></g><!--reverse link TTTextBoxHandler to TTTextBoxMessage--><g id="link_TTTextBoxHandler_TTTextBoxMessage"><path codeLine="21" d="M591.9527,72.3282 C427.5927,82.4582 79.52,108.45 43,150 C13.16,183.94 58.02,230.16 91.96,257.65 " fill="none" id="TTTextBoxHandler-backto-TTTextBoxMessage" style="stroke:#181818;stroke-width:1.0;"/><polygon fill="none" points="603.93,71.59,597.6953,67.9667,591.9527,72.3282,598.1874,75.9515,603.93,71.59" style="stroke:#181818;stroke-width:1.0;"/></g><!--reverse link TTTextBoxHandler to TTUtilsNamedPipe--><g id="link_TTTextBoxHandler_TTUtilsNamedPipe"><path codeLine="22" d="M747.2846,95.8236 C777.2246,110.7136 804.08,126.26 834,150 C874.92,182.47 913.97,229.58 935.59,257.57 " fill="none" id="TTTextBoxHandler-backto-TTUtilsNamedPipe" style="stroke:#181818;stroke-width:1.0;"/><polygon fill="none" points="736.54,90.48,740.1311,96.7333,747.2846,95.8236,743.6935,89.5703,736.54,90.48" style="stroke:#181818;stroke-width:1.0;"/></g><!--reverse link TTTextBoxHandler to TTTextBoxCallbackMessageSent--><g id="link_TTTextBoxHandler_TTTextBoxCallbackMessageSent"><path codeLine="23" d="M608.3825,94.4357 C559.2625,112.0257 503.55,131.98 454.41,149.57 " fill="none" id="TTTextBoxHandler-backto-TTTextBoxCallbackMessageSent" style="stroke:#181818;stroke-width:1.0;"/><polygon fill="#181818" points="619.68,90.39,612.6827,88.647,608.3825,94.4357,615.3798,96.1786,619.68,90.39" style="stroke:#181818;stroke-width:1.0;"/></g><!--reverse link TTTextBoxHandler to TTTextBoxCallbackContactSelect--><g id="link_TTTextBoxHandler_TTTextBoxCallbackContactSelect"><path codeLine="24" d="M685,102.26 C685,119.94 685,132.13 685,149.79 " fill="none" id="TTTextBoxHandler-backto-TTTextBoxCallbackContactSelect" style="stroke:#181818;stroke-width:1.0;"/><polygon fill="#181818" points="685,90.26,681,96.26,685,102.26,689,96.26,685,90.26" style="stroke:#181818;stroke-width:1.0;"/></g><!--reverse link TTTextBoxHandler to TTDiagnosticsLogger--><g id="link_TTTextBoxHandler_TTDiagnosticsLogger"><path codeLine="25" d="M772.2105,73.1847 C884.5505,84.3747 1083.59,117.06 1226,215 C1283.48,254.53 1325.39,328.13 1344.12,365.67 " fill="none" id="TTTextBoxHandler-backto-TTDiagnosticsLogger" style="stroke:#181818;stroke-width:1.0;stroke-dasharray:7.0,7.0;"/><polygon fill="#181818" points="766.24,72.59,774.7992,77.4624,771.2154,73.0856,775.5922,69.5018,766.24,72.59" style="stroke:#181818;stroke-width:1.0;"/></g><!--reverse link TTTextBoxHandler to TTTextBoxSettings--><g id="link_TTTextBoxHandler_TTTextBoxSettings"><path codeLine="26" d="M598.0622,82.2077 C509.0822,97.9877 368.01,123.72 242,150 C236.25,151.2 230.31,152.47 224.34,153.78 " fill="none" id="TTTextBoxHandler-backto-TTTextBoxSettings" style="stroke:#181818;stroke-width:1.0;stroke-dasharray:7.0,7.0;"/><polygon fill="#181818" points="603.97,81.16,594.4098,78.793,599.0468,82.0331,595.8067,86.6701,603.97,81.16" style="stroke:#181818;stroke-width:1.0;"/></g><!--reverse link TTTextBoxSettings to TTUtilsSyscall--><g id="link_TTTextBoxSettings_TTUtilsSyscall"><path codeLine="27" d="M230.2339,195.3861 C236.1939,196.7261 236.26,196.73 242,198 C504.17,255.87 582.74,225.8 833,323 C861.19,333.95 890.56,351.52 912.14,365.78 " fill="none" id="TTTextBoxSettings-backto-TTUtilsSyscall" style="stroke:#181818;stroke-width:1.0;stroke-dasharray:7.0,7.0;"/><polygon fill="#181818" points="224.38,194.07,232.2834,199.9468,229.2582,195.1668,234.0382,192.1416,224.38,194.07" style="stroke:#181818;stroke-width:1.0;"/></g><!--reverse link TTTextBoxSettings to TTUtilsNamedPipe--><g id="link_TTTextBoxSettings_TTUtilsNamedPipe"><path codeLine="28" d="M230.3495,196.3382 C236.2695,197.3782 236.26,197.26 242,198 C372.32,214.7 706.23,180.49 833,215 C864.77,223.65 897.29,242.26 920.45,257.52 " fill="none" id="TTTextBoxSettings-backto-TTUtilsNamedPipe" style="stroke:#181818;stroke-width:1.0;stroke-dasharray:7.0,7.0;"/><polygon fill="#181818" points="224.44,195.3,232.6122,200.7969,229.3646,196.1651,233.9964,192.9176,224.44,195.3" style="stroke:#181818;stroke-width:1.0;"/></g><!--reverse link TTTextBoxSettings to TTTextBoxMessage--><g id="link_TTTextBoxSettings_TTTextBoxMessage"><path codeLine="29" d="M137.0462,204.1754 C134.0462,221.8554 130.94,240.13 127.94,257.79 " fill="none" id="TTTextBoxSettings-backto-TTTextBoxMessage" style="stroke:#181818;stroke-width:1.0;stroke-dasharray:7.0,7.0;"/><polygon fill="#181818" points="138.05,198.26,132.6007,206.464,137.2135,203.1895,140.488,207.8023,138.05,198.26" style="stroke:#181818;stroke-width:1.0;"/></g><!--reverse link TTTextBoxMessage to TTTextBoxStatus--><g id="link_TTTextBoxMessage_TTTextBoxStatus"><path codeLine="30" d="M124,318.26 C124,335.94 124,348.13 124,365.79 " fill="none" id="TTTextBoxMessage-backto-TTTextBoxStatus" style="stroke:#181818;stroke-width:1.0;"/><polygon fill="none" points="124,306.26,120,312.26,124,318.26,128,312.26,124,306.26" style="stroke:#181818;stroke-width:1.0;"/></g><!--reverse link TTUtilsNamedPipe to TTUtilsSyscall--><g id="link_TTUtilsNamedPipe_TTUtilsSyscall"><path codeLine="31" d="M950.3398,318.2262 C949.0098,335.9062 948.08,348.13 946.75,365.79 " fill="none" id="TTUtilsNamedPipe-backto-TTUtilsSyscall" style="stroke:#181818;stroke-width:1.0;"/><polygon fill="none" points="951.24,306.26,946.8012,311.943,950.3398,318.2262,954.7786,312.5432,951.24,306.26" style="stroke:#181818;stroke-width:1.0;"/></g><!--reverse link TTUtilsNamedPipe to TTDiagnosticsLogger--><g id="link_TTUtilsNamedPipe_TTDiagnosticsLogger"><path codeLine="32" d="M1039.1942,303.9329 C1045.1642,305.1229 1045.22,305.05 1051,306 C1128.1,318.73 1151.01,301.04 1226,323 C1258.96,332.65 1293.44,350.77 1318.46,365.59 " fill="none" id="TTUtilsNamedPipe-backto-TTDiagnosticsLogger" style="stroke:#181818;stroke-width:1.0;stroke-dasharray:7.0,7.0;"/><polygon fill="#181818" points="1033.31,302.76,1041.3544,308.4422,1038.2135,303.7374,1042.9183,300.5965,1033.31,302.76" style="stroke:#181818;stroke-width:1.0;"/></g><!--SRC=[ZPB1ReCm38RlF4NEa-WJ80xj3ZkirLJO0xYf5KLD7LGRgTEsTr-Oq804Hc_8_-SV-tSQq1SmgEgwnhji_NtRqjcXAeeZQW4o3ijIVMPAQGVC0_S27NSB0ikjrJ8eUsGEbcbBXIAM30S5gRsE105fkp8G-V1jFGtY3fmxXIbxsmf9LiYT9m4j5RgmGlQTPStVaiyM37aMgtbrqH7xweq9kqwitiMwTPDVglfW7MQBomUuuldDDfZmuXiuEUn-60UkylohJC24ydcUNcI1YeP9gAUnrzmv7kkOdYNfAJQRsT0NmFXD9PMUcnpWNsWcWGXRYhClJ4Fl7tLiFivy62jY5hBu0G00]--></g></svg>