<svg xmlns="http://www.w3.org/2000/svg" xmlns:xlink="http://www.w3.org/1999/xlink" contentStyleType="text/css" height="436px" preserveAspectRatio="none" style="width:1167px;height:436px;background:#FFFFFF;" version="1.1" viewBox="0 0 1167 436" width="1167px" zoomAndPan="magnify"><defs/><g><!--cluster TTTextBoxBundle--><g id="cluster_TTTextBoxBundle"><rect fill="none" height="423" rx="2.5" ry="2.5" style="stroke:#181818;stroke-width:1.0;" width="270" x="7" y="7"/><text fill="#000000" font-family="sans-serif" font-size="14" font-weight="bold" lengthAdjust="spacing" textLength="138.1064" x="72.9468" y="21.9951">TTTextBoxBundle</text></g><!--cluster TTDiagnosticsBundle--><g id="cluster_TTDiagnosticsBundle"><rect fill="none" height="99" rx="2.5" ry="2.5" style="stroke:#181818;stroke-width:1.0;" width="210" x="951" y="331"/><text fill="#000000" font-family="sans-serif" font-size="14" font-weight="bold" lengthAdjust="spacing" textLength="165.9492" x="973.0254" y="345.9951">TTDiagnosticsBundle</text></g><!--cluster TTUtilsBundle--><g id="cluster_TTUtilsBundle"><rect fill="none" height="207" rx="2.5" ry="2.5" style="stroke:#181818;stroke-width:1.0;" width="609" x="318" y="223"/><text fill="#000000" font-family="sans-serif" font-size="14" font-weight="bold" lengthAdjust="spacing" textLength="110.0107" x="567.4946" y="237.9951">TTUtilsBundle</text></g><!--class TTTextBox--><g id="elem_TTTextBox"><rect codeLine="2" fill="#F1F1F1" height="48" id="TTTextBox" rx="2.5" ry="2.5" style="stroke:#181818;stroke-width:0.5;" width="106.498" x="154.75" y="42"/><ellipse cx="169.75" cy="58" fill="#ADD1B2" rx="11" ry="11" style="stroke:#181818;stroke-width:1.0;"/><path d="M172.7188,63.6406 Q172.1406,63.9375 171.5,64.0781 Q170.8594,64.2344 170.1563,64.2344 Q167.6563,64.2344 166.3281,62.5938 Q165.0156,60.9375 165.0156,57.8125 Q165.0156,54.6875 166.3281,53.0313 Q167.6563,51.375 170.1563,51.375 Q170.8594,51.375 171.5,51.5313 Q172.1563,51.6875 172.7188,51.9844 L172.7188,54.7031 Q172.0938,54.125 171.5,53.8594 Q170.9063,53.5781 170.2813,53.5781 Q168.9375,53.5781 168.25,54.6563 Q167.5625,55.7188 167.5625,57.8125 Q167.5625,59.9063 168.25,60.9844 Q168.9375,62.0469 170.2813,62.0469 Q170.9063,62.0469 171.5,61.7813 Q172.0938,61.5 172.7188,60.9219 L172.7188,63.6406 Z " fill="#000000"/><text fill="#000000" font-family="sans-serif" font-size="14" lengthAdjust="spacing" textLength="74.498" x="183.75" y="62.8467">TTTextBox</text><line style="stroke:#181818;stroke-width:0.5;" x1="155.75" x2="260.248" y1="74" y2="74"/><line style="stroke:#181818;stroke-width:0.5;" x1="155.75" x2="260.248" y1="82" y2="82"/></g><!--class TTTextBoxMessage--><g id="elem_TTTextBoxMessage"><rect codeLine="3" fill="#F1F1F1" height="48" id="TTTextBoxMessage" rx="2.5" ry="2.5" style="stroke:#181818;stroke-width:0.5;" width="167.8574" x="60.07" y="258"/><ellipse cx="75.07" cy="274" fill="#F1F1F1" rx="11" ry="11" style="stroke:#181818;stroke-width:1.0;"/><path d="M74.5544,274.5625 Q72.695,273.8594 72.0388,273.0938 Q71.3981,272.3125 71.3981,271 Q71.3981,269.3125 72.4763,268.3438 Q73.5544,267.375 75.4294,267.375 Q76.2888,267.375 77.1325,267.5781 Q77.9919,267.7656 78.8356,268.1563 L78.8356,270.5469 Q78.0544,269.9844 77.2263,269.7031 Q76.4138,269.4063 75.6169,269.4063 Q74.7419,269.4063 74.2575,269.7656 Q73.7888,270.125 73.7888,270.7813 Q73.7888,271.2969 74.1325,271.6406 Q74.4763,271.9688 75.57,272.375 L76.6325,272.7813 Q78.1169,273.3281 78.82,274.2344 Q79.5388,275.1406 79.5388,276.5156 Q79.5388,278.3906 78.4294,279.3125 Q77.32,280.2344 75.07,280.2344 Q74.1481,280.2344 73.2263,280.0156 Q72.3044,279.7969 71.445,279.375 L71.445,276.8438 Q72.4138,277.5313 73.3356,277.875 Q74.2575,278.2188 75.1481,278.2188 Q76.0544,278.2188 76.5544,277.8125 Q77.0544,277.3906 77.0544,276.6563 Q77.0544,276.0938 76.7106,275.6875 Q76.3825,275.2656 75.7575,275.0156 L74.5544,274.5625 Z " fill="#000000"/><text fill="#000000" font-family="sans-serif" font-size="14" lengthAdjust="spacing" textLength="135.8574" x="89.07" y="278.8467">TTTextBoxMessage</text><line style="stroke:#181818;stroke-width:0.5;" x1="61.07" x2="226.9274" y1="290" y2="290"/><line style="stroke:#181818;stroke-width:0.5;" x1="61.07" x2="226.9274" y1="298" y2="298"/></g><!--class TTTextBoxSettings--><g id="elem_TTTextBoxSettings"><rect codeLine="4" fill="#F1F1F1" height="48" id="TTTextBoxSettings" rx="2.5" ry="2.5" style="stroke:#181818;stroke-width:0.5;" width="163.9199" x="97.04" y="150"/><ellipse cx="112.04" cy="166" fill="#ADD1B2" rx="11" ry="11" style="stroke:#181818;stroke-width:1.0;"/><path d="M115.0088,171.6406 Q114.4306,171.9375 113.79,172.0781 Q113.1494,172.2344 112.4463,172.2344 Q109.9463,172.2344 108.6181,170.5938 Q107.3056,168.9375 107.3056,165.8125 Q107.3056,162.6875 108.6181,161.0313 Q109.9463,159.375 112.4463,159.375 Q113.1494,159.375 113.79,159.5313 Q114.4463,159.6875 115.0088,159.9844 L115.0088,162.7031 Q114.3838,162.125 113.79,161.8594 Q113.1963,161.5781 112.5713,161.5781 Q111.2275,161.5781 110.54,162.6563 Q109.8525,163.7188 109.8525,165.8125 Q109.8525,167.9063 110.54,168.9844 Q111.2275,170.0469 112.5713,170.0469 Q113.1963,170.0469 113.79,169.7813 Q114.3838,169.5 115.0088,168.9219 L115.0088,171.6406 Z " fill="#000000"/><text fill="#000000" font-family="sans-serif" font-size="14" lengthAdjust="spacing" textLength="131.9199" x="126.04" y="170.8467">TTTextBoxSettings</text><line style="stroke:#181818;stroke-width:0.5;" x1="98.04" x2="259.9599" y1="182" y2="182"/><line style="stroke:#181818;stroke-width:0.5;" x1="98.04" x2="259.9599" y1="190" y2="190"/></g><!--class TTTextBoxStatus--><g id="elem_TTTextBoxStatus"><rect codeLine="5" fill="#F1F1F1" height="48" id="TTTextBoxStatus" rx="2.5" ry="2.5" style="stroke:#181818;stroke-width:0.5;" width="151.1094" x="45.45" y="366"/><ellipse cx="60.45" cy="382" fill="#EB937F" rx="11" ry="11" style="stroke:#181818;stroke-width:1.0;"/><path d="M64.5594,388 L56.8406,388 L56.8406,375.6094 L64.5594,375.6094 L64.5594,377.7656 L59.2938,377.7656 L59.2938,380.4375 L64.0594,380.4375 L64.0594,382.5938 L59.2938,382.5938 L59.2938,385.8438 L64.5594,385.8438 L64.5594,388 Z " fill="#000000"/><text fill="#000000" font-family="sans-serif" font-size="14" lengthAdjust="spacing" textLength="119.1094" x="74.45" y="386.8467">TTTextBoxStatus</text><line style="stroke:#181818;stroke-width:0.5;" x1="46.45" x2="195.5594" y1="398" y2="398"/><line style="stroke:#181818;stroke-width:0.5;" x1="46.45" x2="195.5594" y1="406" y2="406"/></g><!--class TTDiagnosticsLogger--><g id="elem_TTDiagnosticsLogger"><rect codeLine="9" fill="#F1F1F1" height="48" id="TTDiagnosticsLogger" rx="2.5" ry="2.5" style="stroke:#181818;stroke-width:0.5;" width="178.8496" x="966.58" y="366"/><ellipse cx="981.58" cy="382" fill="#ADD1B2" rx="11" ry="11" style="stroke:#181818;stroke-width:1.0;"/><path d="M984.5488,387.6406 Q983.9706,387.9375 983.33,388.0781 Q982.6894,388.2344 981.9863,388.2344 Q979.4863,388.2344 978.1581,386.5938 Q976.8456,384.9375 976.8456,381.8125 Q976.8456,378.6875 978.1581,377.0313 Q979.4863,375.375 981.9863,375.375 Q982.6894,375.375 983.33,375.5313 Q983.9863,375.6875 984.5488,375.9844 L984.5488,378.7031 Q983.9238,378.125 983.33,377.8594 Q982.7363,377.5781 982.1113,377.5781 Q980.7675,377.5781 980.08,378.6563 Q979.3925,379.7188 979.3925,381.8125 Q979.3925,383.9063 980.08,384.9844 Q980.7675,386.0469 982.1113,386.0469 Q982.7363,386.0469 983.33,385.7813 Q983.9238,385.5 984.5488,384.9219 L984.5488,387.6406 Z " fill="#000000"/><text fill="#000000" font-family="sans-serif" font-size="14" lengthAdjust="spacing" textLength="146.8496" x="995.58" y="386.8467">TTDiagnosticsLogger</text><line style="stroke:#181818;stroke-width:0.5;" x1="967.58" x2="1144.4296" y1="398" y2="398"/><line style="stroke:#181818;stroke-width:0.5;" x1="967.58" x2="1144.4296" y1="406" y2="406"/></g><!--class TTUtilsOutputStream--><g id="elem_TTUtilsOutputStream"><rect codeLine="13" fill="#F1F1F1" height="48" id="TTUtilsOutputStream" rx="2.5" ry="2.5" style="stroke:#181818;stroke-width:0.5;" width="179.5059" x="529.25" y="258"/><ellipse cx="544.25" cy="274" fill="#ADD1B2" rx="11" ry="11" style="stroke:#181818;stroke-width:1.0;"/><path d="M547.2188,279.6406 Q546.6406,279.9375 546,280.0781 Q545.3594,280.2344 544.6563,280.2344 Q542.1563,280.2344 540.8281,278.5938 Q539.5156,276.9375 539.5156,273.8125 Q539.5156,270.6875 540.8281,269.0313 Q542.1563,267.375 544.6563,267.375 Q545.3594,267.375 546,267.5313 Q546.6563,267.6875 547.2188,267.9844 L547.2188,270.7031 Q546.5938,270.125 546,269.8594 Q545.4063,269.5781 544.7813,269.5781 Q543.4375,269.5781 542.75,270.6563 Q542.0625,271.7188 542.0625,273.8125 Q542.0625,275.9063 542.75,276.9844 Q543.4375,278.0469 544.7813,278.0469 Q545.4063,278.0469 546,277.7813 Q546.5938,277.5 547.2188,276.9219 L547.2188,279.6406 Z " fill="#000000"/><text fill="#000000" font-family="sans-serif" font-size="14" lengthAdjust="spacing" textLength="147.5059" x="558.25" y="278.8467">TTUtilsOutputStream</text><line style="stroke:#181818;stroke-width:0.5;" x1="530.25" x2="707.7559" y1="290" y2="290"/><line style="stroke:#181818;stroke-width:0.5;" x1="530.25" x2="707.7559" y1="298" y2="298"/></g><!--class TTUtilsInputStream--><g id="elem_TTUtilsInputStream"><rect codeLine="14" fill="#F1F1F1" height="48" id="TTUtilsInputStream" rx="2.5" ry="2.5" style="stroke:#181818;stroke-width:0.5;" width="167.126" x="743.44" y="258"/><ellipse cx="758.44" cy="274" fill="#ADD1B2" rx="11" ry="11" style="stroke:#181818;stroke-width:1.0;"/><path d="M761.4088,279.6406 Q760.8306,279.9375 760.19,280.0781 Q759.5494,280.2344 758.8463,280.2344 Q756.3463,280.2344 755.0181,278.5938 Q753.7056,276.9375 753.7056,273.8125 Q753.7056,270.6875 755.0181,269.0313 Q756.3463,267.375 758.8463,267.375 Q759.5494,267.375 760.19,267.5313 Q760.8463,267.6875 761.4088,267.9844 L761.4088,270.7031 Q760.7838,270.125 760.19,269.8594 Q759.5963,269.5781 758.9713,269.5781 Q757.6275,269.5781 756.94,270.6563 Q756.2525,271.7188 756.2525,273.8125 Q756.2525,275.9063 756.94,276.9844 Q757.6275,278.0469 758.9713,278.0469 Q759.5963,278.0469 760.19,277.7813 Q760.7838,277.5 761.4088,276.9219 L761.4088,279.6406 Z " fill="#000000"/><text fill="#000000" font-family="sans-serif" font-size="14" lengthAdjust="spacing" textLength="135.126" x="772.44" y="278.8467">TTUtilsInputStream</text><line style="stroke:#181818;stroke-width:0.5;" x1="744.44" x2="909.566" y1="290" y2="290"/><line style="stroke:#181818;stroke-width:0.5;" x1="744.44" x2="909.566" y1="298" y2="298"/></g><!--class TTUtilsSyscall--><g id="elem_TTUtilsSyscall"><rect codeLine="15" fill="#F1F1F1" height="48" id="TTUtilsSyscall" rx="2.5" ry="2.5" style="stroke:#181818;stroke-width:0.5;" width="128.4346" x="341.78" y="366"/><ellipse cx="356.78" cy="382" fill="#ADD1B2" rx="11" ry="11" style="stroke:#181818;stroke-width:1.0;"/><path d="M359.7488,387.6406 Q359.1706,387.9375 358.53,388.0781 Q357.8894,388.2344 357.1863,388.2344 Q354.6863,388.2344 353.3581,386.5938 Q352.0456,384.9375 352.0456,381.8125 Q352.0456,378.6875 353.3581,377.0313 Q354.6863,375.375 357.1863,375.375 Q357.8894,375.375 358.53,375.5313 Q359.1863,375.6875 359.7488,375.9844 L359.7488,378.7031 Q359.1238,378.125 358.53,377.8594 Q357.9363,377.5781 357.3113,377.5781 Q355.9675,377.5781 355.28,378.6563 Q354.5925,379.7188 354.5925,381.8125 Q354.5925,383.9063 355.28,384.9844 Q355.9675,386.0469 357.3113,386.0469 Q357.9363,386.0469 358.53,385.7813 Q359.1238,385.5 359.7488,384.9219 L359.7488,387.6406 Z " fill="#000000"/><text fill="#000000" font-family="sans-serif" font-size="14" lengthAdjust="spacing" textLength="96.4346" x="370.78" y="386.8467">TTUtilsSyscall</text><line style="stroke:#181818;stroke-width:0.5;" x1="342.78" x2="469.2146" y1="398" y2="398"/><line style="stroke:#181818;stroke-width:0.5;" x1="342.78" x2="469.2146" y1="406" y2="406"/></g><!--class TTUtilsNamedPipe--><g id="elem_TTUtilsNamedPipe"><rect codeLine="16" fill="#F1F1F1" height="48" id="TTUtilsNamedPipe" rx="2.5" ry="2.5" style="stroke:#181818;stroke-width:0.5;" width="159.9346" x="334.03" y="258"/><ellipse cx="349.03" cy="274" fill="#ADD1B2" rx="11" ry="11" style="stroke:#181818;stroke-width:1.0;"/><path d="M351.9988,279.6406 Q351.4206,279.9375 350.78,280.0781 Q350.1394,280.2344 349.4363,280.2344 Q346.9363,280.2344 345.6081,278.5938 Q344.2956,276.9375 344.2956,273.8125 Q344.2956,270.6875 345.6081,269.0313 Q346.9363,267.375 349.4363,267.375 Q350.1394,267.375 350.78,267.5313 Q351.4363,267.6875 351.9988,267.9844 L351.9988,270.7031 Q351.3738,270.125 350.78,269.8594 Q350.1863,269.5781 349.5613,269.5781 Q348.2175,269.5781 347.53,270.6563 Q346.8425,271.7188 346.8425,273.8125 Q346.8425,275.9063 347.53,276.9844 Q348.2175,278.0469 349.5613,278.0469 Q350.1863,278.0469 350.78,277.7813 Q351.3738,277.5 351.9988,276.9219 L351.9988,279.6406 Z " fill="#000000"/><text fill="#000000" font-family="sans-serif" font-size="14" lengthAdjust="spacing" textLength="127.9346" x="363.03" y="278.8467">TTUtilsNamedPipe</text><line style="stroke:#181818;stroke-width:0.5;" x1="335.03" x2="492.9646" y1="290" y2="290"/><line style="stroke:#181818;stroke-width:0.5;" x1="335.03" x2="492.9646" y1="298" y2="298"/></g><!--reverse link TTTextBox to TTUtilsOutputStream--><g id="link_TTTextBox_TTUtilsOutputStream"><path codeLine="19" d="M270.5807,95.4473 C331.5007,123.4873 424.5,167.58 511,215 C535.28,228.31 561.82,244.51 582.52,257.52 " fill="none" id="TTTextBox-backto-TTUtilsOutputStream" style="stroke:#181818;stroke-width:1.0;"/><polygon fill="none" points="259.68,90.43,263.4579,96.5723,270.5807,95.4473,266.8028,89.3051,259.68,90.43" style="stroke:#181818;stroke-width:1.0;"/></g><!--reverse link TTTextBox to TTUtilsInputStream--><g id="link_TTTextBox_TTUtilsInputStream"><path codeLine="20" d="M273.4687,79.0838 C369.6487,97.8138 564.58,141.25 726,215 C751.15,226.49 777.22,243.68 796.57,257.63 " fill="none" id="TTTextBox-backto-TTUtilsInputStream" style="stroke:#181818;stroke-width:1.0;"/><polygon fill="none" points="261.69,76.79,266.8148,81.8631,273.4687,79.0838,268.344,74.0106,261.69,76.79" style="stroke:#181818;stroke-width:1.0;"/></g><!--reverse link TTTextBox to TTUtilsNamedPipe--><g id="link_TTTextBox_TTUtilsNamedPipe"><path codeLine="21" d="M238.762,98.9555 C278.382,140.1155 351.98,216.58 391.59,257.72 " fill="none" id="TTTextBox-backto-TTUtilsNamedPipe" style="stroke:#181818;stroke-width:1.0;"/><polygon fill="none" points="230.44,90.31,231.7192,97.4067,238.762,98.9555,237.4828,91.8587,230.44,90.31" style="stroke:#181818;stroke-width:1.0;"/></g><!--reverse link TTTextBox to TTTextBoxStatus--><g id="link_TTTextBox_TTTextBoxStatus"><path codeLine="22" d="M143.5761,92.4022 C113.8961,106.1122 89.29,121.83 66,150 C46.47,173.62 48.19,184.8 43,215 C36.16,254.86 28.1,268.4 43,306 C52.47,329.9 72.43,350.93 89.79,365.84 " fill="none" id="TTTextBox-backto-TTTextBoxStatus" style="stroke:#181818;stroke-width:1.0;"/><polygon fill="none" points="154.47,87.37,147.3457,86.2548,143.5761,92.4022,150.7004,93.5174,154.47,87.37" style="stroke:#181818;stroke-width:1.0;"/></g><!--reverse link TTTextBox to TTDiagnosticsLogger--><g id="link_TTTextBox_TTDiagnosticsLogger"><path codeLine="23" d="M267.5709,73.5441 C414.8209,90.4441 815.96,142.05 927,215 C985.46,253.41 1027.07,327.86 1045.45,365.7 " fill="none" id="TTTextBox-backto-TTDiagnosticsLogger" style="stroke:#181818;stroke-width:1.0;stroke-dasharray:7.0,7.0;"/><polygon fill="#181818" points="261.61,72.86,270.0952,77.8601,266.5774,73.4301,271.0074,69.9123,261.61,72.86" style="stroke:#181818;stroke-width:1.0;"/></g><!--reverse link TTTextBox to TTTextBoxSettings--><g id="link_TTTextBox_TTTextBoxSettings"><path codeLine="24" d="M200.0558,96.0471 C195.2158,113.7271 190.18,132.13 185.35,149.79 " fill="none" id="TTTextBox-backto-TTTextBoxSettings" style="stroke:#181818;stroke-width:1.0;stroke-dasharray:7.0,7.0;"/><polygon fill="#181818" points="201.64,90.26,195.4056,97.8844,200.3198,95.0826,203.1217,99.9968,201.64,90.26" style="stroke:#181818;stroke-width:1.0;"/></g><!--reverse link TTTextBox to TTTextBoxMessage--><g id="link_TTTextBox_TTTextBoxMessage"><path codeLine="25" d="M149.0986,89.5625 C121.5386,102.8925 95.87,120.79 80,150 C59.94,186.92 92.8,231.04 118.39,257.5 " fill="none" id="TTTextBox-backto-TTTextBoxMessage" style="stroke:#181818;stroke-width:1.0;stroke-dasharray:7.0,7.0;"/><polygon fill="#181818" points="154.5,86.95,144.6563,87.2678,149.9989,89.1271,148.1396,94.4697,154.5,86.95" style="stroke:#181818;stroke-width:1.0;"/></g><!--reverse link TTTextBoxSettings to TTUtilsSyscall--><g id="link_TTTextBoxSettings_TTUtilsSyscall"><path codeLine="26" d="M227.5008,201.5187 C235.3608,206.5587 238.17,208.97 245,215 C283.67,249.13 282.04,268.08 317,306 C336.62,327.28 360.73,349.56 378.9,365.66 " fill="none" id="TTTextBoxSettings-backto-TTUtilsSyscall" style="stroke:#181818;stroke-width:1.0;stroke-dasharray:7.0,7.0;"/><polygon fill="#181818" points="222.45,198.28,227.8671,206.5053,226.659,200.9789,232.1854,199.7708,222.45,198.28" style="stroke:#181818;stroke-width:1.0;"/></g><!--reverse link TTTextBoxSettings to TTUtilsNamedPipe--><g id="link_TTTextBoxSettings_TTUtilsNamedPipe"><path codeLine="27" d="M267.0939,199.3018 C282.5039,204.4218 292.59,208.43 307,215 C333.02,226.86 360.42,243.87 380.99,257.64 " fill="none" id="TTTextBoxSettings-backto-TTUtilsNamedPipe" style="stroke:#181818;stroke-width:1.0;stroke-dasharray:7.0,7.0;"/><polygon fill="#181818" points="261.4,197.41,268.6797,204.0437,266.145,198.9865,271.2021,196.4518,261.4,197.41" style="stroke:#181818;stroke-width:1.0;"/></g><!--reverse link TTTextBoxSettings to TTTextBoxMessage--><g id="link_TTTextBoxSettings_TTTextBoxMessage"><path codeLine="28" d="M169.4381,203.9572 C163.5981,221.6372 157.49,240.13 151.66,257.79 " fill="none" id="TTTextBoxSettings-backto-TTTextBoxMessage" style="stroke:#181818;stroke-width:1.0;stroke-dasharray:7.0,7.0;"/><polygon fill="#181818" points="171.32,198.26,164.699,205.5513,169.7518,203.0077,172.2953,208.0604,171.32,198.26" style="stroke:#181818;stroke-width:1.0;"/></g><!--reverse link TTTextBoxMessage to TTTextBoxStatus--><g id="link_TTTextBoxMessage_TTTextBoxStatus"><path codeLine="29" d="M136.4094,317.988 C132.5794,335.668 129.87,348.13 126.04,365.79 " fill="none" id="TTTextBoxMessage-backto-TTTextBoxStatus" style="stroke:#181818;stroke-width:1.0;"/><polygon fill="none" points="138.95,306.26,133.7704,311.2771,136.4094,317.988,141.589,312.9709,138.95,306.26" style="stroke:#181818;stroke-width:1.0;"/></g><!--reverse link TTUtilsNamedPipe to TTUtilsSyscall--><g id="link_TTUtilsNamedPipe_TTUtilsSyscall"><path codeLine="30" d="M411.3398,318.2262 C410.0098,335.9062 409.08,348.13 407.75,365.79 " fill="none" id="TTUtilsNamedPipe-backto-TTUtilsSyscall" style="stroke:#181818;stroke-width:1.0;"/><polygon fill="none" points="412.24,306.26,407.8012,311.943,411.3398,318.2262,415.7786,312.5432,412.24,306.26" style="stroke:#181818;stroke-width:1.0;"/></g><!--reverse link TTUtilsNamedPipe to TTDiagnosticsLogger--><g id="link_TTUtilsNamedPipe_TTDiagnosticsLogger"><path codeLine="31" d="M500.161,304.2155 C506.141,305.3155 506.2,305.21 512,306 C603.45,318.49 837.73,299.55 927,323 C960.7,331.85 995.69,350.45 1020.72,365.65 " fill="none" id="TTUtilsNamedPipe-backto-TTDiagnosticsLogger" style="stroke:#181818;stroke-width:1.0;stroke-dasharray:7.0,7.0;"/><polygon fill="#181818" points="494.26,303.13,502.3878,308.6922,499.1775,304.0346,503.8351,300.8242,494.26,303.13" style="stroke:#181818;stroke-width:1.0;"/></g><!--SRC=[XP5D2i8m48NtFKKke2SeBiIDu1-s7c18Xn1CqzAPW2BUtIhLj37HxRmlyzwyj23Fe52KPOaNNZQNfRELGP7dHvGCLXbSBCGj4q8Q8F9SFo7kd6G_sY9Hl-kRBP1PMqMzWjRL8u617MNtB6i_ELOQb6s8jQI_MKRifb4Ak-cg4slpVycBsZjk7HVS8TIXjhP9gRYI16F2yGvgh0wwnMUUpxMYcSsYVb5Yx1e5l4aeJzlrQZwVHqiBYV3R4lhxlxyU3DYaePzGv9G0IraEWyJXq-NZydoiW4bqz000]--></g></svg>