<svg xmlns="http://www.w3.org/2000/svg" xmlns:xlink="http://www.w3.org/1999/xlink" contentStyleType="text/css" height="436px" preserveAspectRatio="none" style="width:1292px;height:436px;background:#FFFFFF;" version="1.1" viewBox="0 0 1292 436" width="1292px" zoomAndPan="magnify"><defs/><g><!--cluster TTTextBoxBundle--><g id="cluster_TTTextBoxBundle"><rect fill="none" height="423" rx="2.5" ry="2.5" style="stroke:#181818;stroke-width:1.0;" width="829" x="7" y="7"/><text fill="#000000" font-family="sans-serif" font-size="14" font-weight="bold" lengthAdjust="spacing" textLength="138.1064" x="352.4468" y="21.9951">TTTextBoxBundle</text></g><!--cluster TTDiagnosticsBundle--><g id="cluster_TTDiagnosticsBundle"><rect fill="none" height="99" rx="2.5" ry="2.5" style="stroke:#181818;stroke-width:1.0;" width="210" x="1076" y="331"/><text fill="#000000" font-family="sans-serif" font-size="14" font-weight="bold" lengthAdjust="spacing" textLength="165.9492" x="1098.0254" y="345.9951">TTDiagnosticsBundle</text></g><!--cluster TTUtilsBundle--><g id="cluster_TTUtilsBundle"><rect fill="none" height="207" rx="2.5" ry="2.5" style="stroke:#181818;stroke-width:1.0;" width="192" x="860" y="223"/><text fill="#000000" font-family="sans-serif" font-size="14" font-weight="bold" lengthAdjust="spacing" textLength="110.0107" x="900.9946" y="237.9951">TTUtilsBundle</text></g><!--class TTTextBoxHandler--><g id="elem_TTTextBoxHandler"><rect codeLine="2" fill="#F1F1F1" height="48" id="TTTextBoxHandler" rx="2.5" ry="2.5" style="stroke:#181818;stroke-width:0.5;" width="161.623" x="457.19" y="42"/><ellipse cx="472.19" cy="58" fill="#ADD1B2" rx="11" ry="11" style="stroke:#181818;stroke-width:1.0;"/><path d="M475.1588,63.6406 Q474.5806,63.9375 473.94,64.0781 Q473.2994,64.2344 472.5963,64.2344 Q470.0963,64.2344 468.7681,62.5938 Q467.4556,60.9375 467.4556,57.8125 Q467.4556,54.6875 468.7681,53.0313 Q470.0963,51.375 472.5963,51.375 Q473.2994,51.375 473.94,51.5313 Q474.5963,51.6875 475.1588,51.9844 L475.1588,54.7031 Q474.5338,54.125 473.94,53.8594 Q473.3463,53.5781 472.7213,53.5781 Q471.3775,53.5781 470.69,54.6563 Q470.0025,55.7188 470.0025,57.8125 Q470.0025,59.9063 470.69,60.9844 Q471.3775,62.0469 472.7213,62.0469 Q473.3463,62.0469 473.94,61.7813 Q474.5338,61.5 475.1588,60.9219 L475.1588,63.6406 Z " fill="#000000"/><text fill="#000000" font-family="sans-serif" font-size="14" lengthAdjust="spacing" textLength="129.623" x="486.19" y="62.8467">TTTextBoxHandler</text><line style="stroke:#181818;stroke-width:0.5;" x1="458.19" x2="617.813" y1="74" y2="74"/><line style="stroke:#181818;stroke-width:0.5;" x1="458.19" x2="617.813" y1="82" y2="82"/></g><!--class TTTextBoxMessage--><g id="elem_TTTextBoxMessage"><rect codeLine="3" fill="#F1F1F1" height="48" id="TTTextBoxMessage" rx="2.5" ry="2.5" style="stroke:#181818;stroke-width:0.5;" width="167.8574" x="40.07" y="258"/><ellipse cx="55.07" cy="274" fill="#F1F1F1" rx="11" ry="11" style="stroke:#181818;stroke-width:1.0;"/><path d="M54.5544,274.5625 Q52.695,273.8594 52.0388,273.0938 Q51.3981,272.3125 51.3981,271 Q51.3981,269.3125 52.4763,268.3438 Q53.5544,267.375 55.4294,267.375 Q56.2888,267.375 57.1325,267.5781 Q57.9919,267.7656 58.8356,268.1563 L58.8356,270.5469 Q58.0544,269.9844 57.2263,269.7031 Q56.4138,269.4063 55.6169,269.4063 Q54.7419,269.4063 54.2575,269.7656 Q53.7888,270.125 53.7888,270.7813 Q53.7888,271.2969 54.1325,271.6406 Q54.4763,271.9688 55.57,272.375 L56.6325,272.7813 Q58.1169,273.3281 58.82,274.2344 Q59.5388,275.1406 59.5388,276.5156 Q59.5388,278.3906 58.4294,279.3125 Q57.32,280.2344 55.07,280.2344 Q54.1481,280.2344 53.2263,280.0156 Q52.3044,279.7969 51.445,279.375 L51.445,276.8438 Q52.4138,277.5313 53.3356,277.875 Q54.2575,278.2188 55.1481,278.2188 Q56.0544,278.2188 56.5544,277.8125 Q57.0544,277.3906 57.0544,276.6563 Q57.0544,276.0938 56.7106,275.6875 Q56.3825,275.2656 55.7575,275.0156 L54.5544,274.5625 Z " fill="#000000"/><text fill="#000000" font-family="sans-serif" font-size="14" lengthAdjust="spacing" textLength="135.8574" x="69.07" y="278.8467">TTTextBoxMessage</text><line style="stroke:#181818;stroke-width:0.5;" x1="41.07" x2="206.9274" y1="290" y2="290"/><line style="stroke:#181818;stroke-width:0.5;" x1="41.07" x2="206.9274" y1="298" y2="298"/></g><!--class TTTextBoxSettings--><g id="elem_TTTextBoxSettings"><rect codeLine="4" fill="#F1F1F1" height="48" id="TTTextBoxSettings" rx="2.5" ry="2.5" style="stroke:#181818;stroke-width:0.5;" width="163.9199" x="60.04" y="150"/><ellipse cx="75.04" cy="166" fill="#ADD1B2" rx="11" ry="11" style="stroke:#181818;stroke-width:1.0;"/><path d="M78.0088,171.6406 Q77.4306,171.9375 76.79,172.0781 Q76.1494,172.2344 75.4463,172.2344 Q72.9463,172.2344 71.6181,170.5938 Q70.3056,168.9375 70.3056,165.8125 Q70.3056,162.6875 71.6181,161.0313 Q72.9463,159.375 75.4463,159.375 Q76.1494,159.375 76.79,159.5313 Q77.4463,159.6875 78.0088,159.9844 L78.0088,162.7031 Q77.3838,162.125 76.79,161.8594 Q76.1963,161.5781 75.5713,161.5781 Q74.2275,161.5781 73.54,162.6563 Q72.8525,163.7188 72.8525,165.8125 Q72.8525,167.9063 73.54,168.9844 Q74.2275,170.0469 75.5713,170.0469 Q76.1963,170.0469 76.79,169.7813 Q77.3838,169.5 78.0088,168.9219 L78.0088,171.6406 Z " fill="#000000"/><text fill="#000000" font-family="sans-serif" font-size="14" lengthAdjust="spacing" textLength="131.9199" x="89.04" y="170.8467">TTTextBoxSettings</text><line style="stroke:#181818;stroke-width:0.5;" x1="61.04" x2="222.9599" y1="182" y2="182"/><line style="stroke:#181818;stroke-width:0.5;" x1="61.04" x2="222.9599" y1="190" y2="190"/></g><!--class TTTextBoxStatus--><g id="elem_TTTextBoxStatus"><rect codeLine="5" fill="#F1F1F1" height="48" id="TTTextBoxStatus" rx="2.5" ry="2.5" style="stroke:#181818;stroke-width:0.5;" width="151.1094" x="48.45" y="366"/><ellipse cx="63.45" cy="382" fill="#EB937F" rx="11" ry="11" style="stroke:#181818;stroke-width:1.0;"/><path d="M67.5594,388 L59.8406,388 L59.8406,375.6094 L67.5594,375.6094 L67.5594,377.7656 L62.2938,377.7656 L62.2938,380.4375 L67.0594,380.4375 L67.0594,382.5938 L62.2938,382.5938 L62.2938,385.8438 L67.5594,385.8438 L67.5594,388 Z " fill="#000000"/><text fill="#000000" font-family="sans-serif" font-size="14" lengthAdjust="spacing" textLength="119.1094" x="77.45" y="386.8467">TTTextBoxStatus</text><line style="stroke:#181818;stroke-width:0.5;" x1="49.45" x2="198.5594" y1="398" y2="398"/><line style="stroke:#181818;stroke-width:0.5;" x1="49.45" x2="198.5594" y1="406" y2="406"/></g><!--class TTTextBoxCallbackMessageSent--><g id="elem_TTTextBoxCallbackMessageSent"><rect codeLine="6" fill="#F1F1F1" height="48" id="TTTextBoxCallbackMessageSent" rx="2.5" ry="2.5" style="stroke:#181818;stroke-width:0.5;" width="259.124" x="259.44" y="150"/><ellipse cx="274.44" cy="166" fill="#E3664A" rx="11" ry="11" style="stroke:#181818;stroke-width:1.0;"/><path d="M276.5181,166.4688 Q276.5181,165.5313 276.0963,165 Q275.6744,164.4688 274.9244,164.4688 Q274.19,164.4688 273.7681,165 Q273.3619,165.5313 273.3619,166.4688 Q273.3619,167.4219 273.7681,167.9531 Q274.19,168.4844 274.9244,168.4844 Q275.6744,168.4844 276.0963,167.9531 Q276.5181,167.4219 276.5181,166.4688 Z M278.065,169.875 L276.44,169.875 L276.44,169.2031 Q276.1119,169.6406 275.69,169.8438 Q275.2681,170.0469 274.6588,170.0469 Q273.2994,170.0469 272.4713,169.0781 Q271.6431,168.0938 271.6431,166.4688 Q271.6431,164.875 272.4713,163.9063 Q273.2994,162.9219 274.6588,162.9219 Q275.2525,162.9219 275.7056,163.125 Q276.1588,163.3281 276.44,163.7188 L276.44,163.375 Q276.44,162.25 275.815,161.6406 Q275.19,161.0156 274.0494,161.0156 Q272.3306,161.0156 271.2369,162.5469 Q270.1431,164.0625 270.1431,166.5 Q270.1431,169.0469 271.3931,170.5469 Q272.6588,172.0469 274.7681,172.0469 Q275.4244,172.0469 276.0494,171.8594 Q276.6744,171.6719 277.2525,171.2813 L278.0181,172.7344 Q277.3463,173.1875 276.5494,173.4063 Q275.7525,173.6406 274.8463,173.6406 Q271.94,173.6406 270.2056,171.7031 Q268.4869,169.7813 268.4869,166.5 Q268.4869,163.2813 270.0338,161.3594 Q271.5963,159.4219 274.1588,159.4219 Q275.9556,159.4219 277.0025,160.5156 Q278.065,161.6094 278.065,163.4844 L278.065,169.875 Z " fill="#000000"/><text fill="#000000" font-family="sans-serif" font-size="14" lengthAdjust="spacing" textLength="227.124" x="288.44" y="170.8467">TTTextBoxCallbackMessageSent</text><line style="stroke:#181818;stroke-width:0.5;" x1="260.44" x2="517.564" y1="182" y2="182"/><line style="stroke:#181818;stroke-width:0.5;" x1="260.44" x2="517.564" y1="190" y2="190"/></g><!--class TTTextBoxCallbackContactSwitch--><g id="elem_TTTextBoxCallbackContactSwitch"><rect codeLine="7" fill="#F1F1F1" height="48" id="TTTextBoxCallbackContactSwitch" rx="2.5" ry="2.5" style="stroke:#181818;stroke-width:0.5;" width="266.6572" x="553.67" y="150"/><ellipse cx="568.67" cy="166" fill="#E3664A" rx="11" ry="11" style="stroke:#181818;stroke-width:1.0;"/><path d="M570.7481,166.4688 Q570.7481,165.5313 570.3263,165 Q569.9044,164.4688 569.1544,164.4688 Q568.42,164.4688 567.9981,165 Q567.5919,165.5313 567.5919,166.4688 Q567.5919,167.4219 567.9981,167.9531 Q568.42,168.4844 569.1544,168.4844 Q569.9044,168.4844 570.3263,167.9531 Q570.7481,167.4219 570.7481,166.4688 Z M572.295,169.875 L570.67,169.875 L570.67,169.2031 Q570.3419,169.6406 569.92,169.8438 Q569.4981,170.0469 568.8888,170.0469 Q567.5294,170.0469 566.7013,169.0781 Q565.8731,168.0938 565.8731,166.4688 Q565.8731,164.875 566.7013,163.9063 Q567.5294,162.9219 568.8888,162.9219 Q569.4825,162.9219 569.9356,163.125 Q570.3888,163.3281 570.67,163.7188 L570.67,163.375 Q570.67,162.25 570.045,161.6406 Q569.42,161.0156 568.2794,161.0156 Q566.5606,161.0156 565.4669,162.5469 Q564.3731,164.0625 564.3731,166.5 Q564.3731,169.0469 565.6231,170.5469 Q566.8888,172.0469 568.9981,172.0469 Q569.6544,172.0469 570.2794,171.8594 Q570.9044,171.6719 571.4825,171.2813 L572.2481,172.7344 Q571.5763,173.1875 570.7794,173.4063 Q569.9825,173.6406 569.0763,173.6406 Q566.17,173.6406 564.4356,171.7031 Q562.7169,169.7813 562.7169,166.5 Q562.7169,163.2813 564.2638,161.3594 Q565.8263,159.4219 568.3888,159.4219 Q570.1856,159.4219 571.2325,160.5156 Q572.295,161.6094 572.295,163.4844 L572.295,169.875 Z " fill="#000000"/><text fill="#000000" font-family="sans-serif" font-size="14" lengthAdjust="spacing" textLength="234.6572" x="582.67" y="170.8467">TTTextBoxCallbackContactSwitch</text><line style="stroke:#181818;stroke-width:0.5;" x1="554.67" x2="819.3272" y1="182" y2="182"/><line style="stroke:#181818;stroke-width:0.5;" x1="554.67" x2="819.3272" y1="190" y2="190"/></g><!--class TTDiagnosticsLogger--><g id="elem_TTDiagnosticsLogger"><rect codeLine="11" fill="#F1F1F1" height="48" id="TTDiagnosticsLogger" rx="2.5" ry="2.5" style="stroke:#181818;stroke-width:0.5;" width="178.8496" x="1091.58" y="366"/><ellipse cx="1106.58" cy="382" fill="#ADD1B2" rx="11" ry="11" style="stroke:#181818;stroke-width:1.0;"/><path d="M1109.5488,387.6406 Q1108.9706,387.9375 1108.33,388.0781 Q1107.6894,388.2344 1106.9863,388.2344 Q1104.4863,388.2344 1103.1581,386.5938 Q1101.8456,384.9375 1101.8456,381.8125 Q1101.8456,378.6875 1103.1581,377.0313 Q1104.4863,375.375 1106.9863,375.375 Q1107.6894,375.375 1108.33,375.5313 Q1108.9863,375.6875 1109.5488,375.9844 L1109.5488,378.7031 Q1108.9238,378.125 1108.33,377.8594 Q1107.7363,377.5781 1107.1113,377.5781 Q1105.7675,377.5781 1105.08,378.6563 Q1104.3925,379.7188 1104.3925,381.8125 Q1104.3925,383.9063 1105.08,384.9844 Q1105.7675,386.0469 1107.1113,386.0469 Q1107.7363,386.0469 1108.33,385.7813 Q1108.9238,385.5 1109.5488,384.9219 L1109.5488,387.6406 Z " fill="#000000"/><text fill="#000000" font-family="sans-serif" font-size="14" lengthAdjust="spacing" textLength="146.8496" x="1120.58" y="386.8467">TTDiagnosticsLogger</text><line style="stroke:#181818;stroke-width:0.5;" x1="1092.58" x2="1269.4296" y1="398" y2="398"/><line style="stroke:#181818;stroke-width:0.5;" x1="1092.58" x2="1269.4296" y1="406" y2="406"/></g><!--class TTUtilsSyscall--><g id="elem_TTUtilsSyscall"><rect codeLine="15" fill="#F1F1F1" height="48" id="TTUtilsSyscall" rx="2.5" ry="2.5" style="stroke:#181818;stroke-width:0.5;" width="128.4346" x="883.78" y="366"/><ellipse cx="898.78" cy="382" fill="#ADD1B2" rx="11" ry="11" style="stroke:#181818;stroke-width:1.0;"/><path d="M901.7488,387.6406 Q901.1706,387.9375 900.53,388.0781 Q899.8894,388.2344 899.1863,388.2344 Q896.6863,388.2344 895.3581,386.5938 Q894.0456,384.9375 894.0456,381.8125 Q894.0456,378.6875 895.3581,377.0313 Q896.6863,375.375 899.1863,375.375 Q899.8894,375.375 900.53,375.5313 Q901.1863,375.6875 901.7488,375.9844 L901.7488,378.7031 Q901.1238,378.125 900.53,377.8594 Q899.9363,377.5781 899.3113,377.5781 Q897.9675,377.5781 897.28,378.6563 Q896.5925,379.7188 896.5925,381.8125 Q896.5925,383.9063 897.28,384.9844 Q897.9675,386.0469 899.3113,386.0469 Q899.9363,386.0469 900.53,385.7813 Q901.1238,385.5 901.7488,384.9219 L901.7488,387.6406 Z " fill="#000000"/><text fill="#000000" font-family="sans-serif" font-size="14" lengthAdjust="spacing" textLength="96.4346" x="912.78" y="386.8467">TTUtilsSyscall</text><line style="stroke:#181818;stroke-width:0.5;" x1="884.78" x2="1011.2146" y1="398" y2="398"/><line style="stroke:#181818;stroke-width:0.5;" x1="884.78" x2="1011.2146" y1="406" y2="406"/></g><!--class TTUtilsNamedPipe--><g id="elem_TTUtilsNamedPipe"><rect codeLine="16" fill="#F1F1F1" height="48" id="TTUtilsNamedPipe" rx="2.5" ry="2.5" style="stroke:#181818;stroke-width:0.5;" width="159.9346" x="876.03" y="258"/><ellipse cx="891.03" cy="274" fill="#ADD1B2" rx="11" ry="11" style="stroke:#181818;stroke-width:1.0;"/><path d="M893.9988,279.6406 Q893.4206,279.9375 892.78,280.0781 Q892.1394,280.2344 891.4363,280.2344 Q888.9363,280.2344 887.6081,278.5938 Q886.2956,276.9375 886.2956,273.8125 Q886.2956,270.6875 887.6081,269.0313 Q888.9363,267.375 891.4363,267.375 Q892.1394,267.375 892.78,267.5313 Q893.4363,267.6875 893.9988,267.9844 L893.9988,270.7031 Q893.3738,270.125 892.78,269.8594 Q892.1863,269.5781 891.5613,269.5781 Q890.2175,269.5781 889.53,270.6563 Q888.8425,271.7188 888.8425,273.8125 Q888.8425,275.9063 889.53,276.9844 Q890.2175,278.0469 891.5613,278.0469 Q892.1863,278.0469 892.78,277.7813 Q893.3738,277.5 893.9988,276.9219 L893.9988,279.6406 Z " fill="#000000"/><text fill="#000000" font-family="sans-serif" font-size="14" lengthAdjust="spacing" textLength="127.9346" x="905.03" y="278.8467">TTUtilsNamedPipe</text><line style="stroke:#181818;stroke-width:0.5;" x1="877.03" x2="1034.9646" y1="290" y2="290"/><line style="stroke:#181818;stroke-width:0.5;" x1="877.03" x2="1034.9646" y1="298" y2="298"/></g><!--reverse link TTTextBoxHandler to TTTextBoxMessage--><g id="link_TTTextBoxHandler_TTTextBoxMessage"><path codeLine="19" d="M444.9164,68.8006 C318.3964,72.9206 95.07,88.47 43,150 C13.89,184.39 58.19,230.26 91.88,257.6 " fill="none" id="TTTextBoxHandler-backto-TTTextBoxMessage" style="stroke:#181818;stroke-width:1.0;"/><polygon fill="none" points="456.91,68.41,450.783,64.6074,444.9164,68.8006,451.0434,72.6032,456.91,68.41" style="stroke:#181818;stroke-width:1.0;"/></g><!--reverse link TTTextBoxHandler to TTUtilsNamedPipe--><g id="link_TTTextBoxHandler_TTUtilsNamedPipe"><path codeLine="20" d="M630.9083,78.7331 C694.2883,89.2431 770.78,108.44 838,150 C883.17,177.93 921.31,228.17 941.21,257.65 " fill="none" id="TTTextBoxHandler-backto-TTUtilsNamedPipe" style="stroke:#181818;stroke-width:1.0;"/><polygon fill="none" points="619.07,76.77,624.3348,81.6977,630.9083,78.7331,625.6435,73.8054,619.07,76.77" style="stroke:#181818;stroke-width:1.0;"/></g><!--reverse link TTTextBoxHandler to TTTextBoxCallbackMessageSent--><g id="link_TTTextBoxHandler_TTTextBoxCallbackMessageSent"><path codeLine="21" d="M495.5211,97.215 C470.7611,114.825 446.68,131.97 421.88,149.61 " fill="none" id="TTTextBoxHandler-backto-TTTextBoxCallbackMessageSent" style="stroke:#181818;stroke-width:1.0;"/><polygon fill="#181818" points="505.3,90.26,498.0922,90.4779,495.5211,97.215,502.7289,96.9972,505.3,90.26" style="stroke:#181818;stroke-width:1.0;"/></g><!--reverse link TTTextBoxHandler to TTTextBoxCallbackContactSwitch--><g id="link_TTTextBoxHandler_TTTextBoxCallbackContactSwitch"><path codeLine="22" d="M580.4789,97.215 C605.2389,114.825 629.32,131.97 654.12,149.61 " fill="none" id="TTTextBoxHandler-backto-TTTextBoxCallbackContactSwitch" style="stroke:#181818;stroke-width:1.0;"/><polygon fill="#181818" points="570.7,90.26,573.2711,96.9972,580.4789,97.215,577.9078,90.4779,570.7,90.26" style="stroke:#181818;stroke-width:1.0;"/></g><!--reverse link TTTextBoxHandler to TTDiagnosticsLogger--><g id="link_TTTextBoxHandler_TTDiagnosticsLogger"><path codeLine="23" d="M624.8826,72.5222 C733.7426,82.9522 922.64,114.73 1052,215 C1106.69,257.39 1149.4,328.73 1169.11,365.51 " fill="none" id="TTTextBoxHandler-backto-TTDiagnosticsLogger" style="stroke:#181818;stroke-width:1.0;stroke-dasharray:7.0,7.0;"/><polygon fill="#181818" points="618.91,71.95,627.4875,76.7901,623.8872,72.4269,628.2505,68.8266,618.91,71.95" style="stroke:#181818;stroke-width:1.0;"/></g><!--reverse link TTTextBoxHandler to TTTextBoxSettings--><g id="link_TTTextBoxHandler_TTTextBoxSettings"><path codeLine="24" d="M451.114,90.2612 C383.224,108.4312 292.58,132.69 224.34,150.96 " fill="none" id="TTTextBoxHandler-backto-TTTextBoxSettings" style="stroke:#181818;stroke-width:1.0;stroke-dasharray:7.0,7.0;"/><polygon fill="#181818" points="456.91,88.71,447.1818,87.1729,452.08,90.0027,449.2502,94.9009,456.91,88.71" style="stroke:#181818;stroke-width:1.0;"/></g><!--reverse link TTTextBoxSettings to TTUtilsSyscall--><g id="link_TTTextBoxSettings_TTUtilsSyscall"><path codeLine="25" d="M230.2222,195.3934 C236.1922,196.7434 236.26,196.74 242,198 C505.47,256.02 584.47,225.45 836,323 C864.2,333.94 893.56,351.51 915.15,365.77 " fill="none" id="TTTextBoxSettings-backto-TTUtilsSyscall" style="stroke:#181818;stroke-width:1.0;stroke-dasharray:7.0,7.0;"/><polygon fill="#181818" points="224.37,194.07,232.2661,199.9565,229.2469,195.1728,234.0306,192.1536,224.37,194.07" style="stroke:#181818;stroke-width:1.0;"/></g><!--reverse link TTTextBoxSettings to TTUtilsNamedPipe--><g id="link_TTTextBoxSettings_TTUtilsNamedPipe"><path codeLine="26" d="M230.3478,196.3478 C236.2678,197.3978 236.26,197.26 242,198 C372.98,214.77 708.58,180.32 836,215 C867.77,223.65 900.29,242.26 923.45,257.52 " fill="none" id="TTTextBoxSettings-backto-TTUtilsNamedPipe" style="stroke:#181818;stroke-width:1.0;stroke-dasharray:7.0,7.0;"/><polygon fill="#181818" points="224.44,195.3,232.6031,200.8103,229.3632,196.1732,234.0002,192.9332,224.44,195.3" style="stroke:#181818;stroke-width:1.0;"/></g><!--reverse link TTTextBoxSettings to TTTextBoxMessage--><g id="link_TTTextBoxSettings_TTTextBoxMessage"><path codeLine="27" d="M137.0462,204.1754 C134.0462,221.8554 130.94,240.13 127.94,257.79 " fill="none" id="TTTextBoxSettings-backto-TTTextBoxMessage" style="stroke:#181818;stroke-width:1.0;stroke-dasharray:7.0,7.0;"/><polygon fill="#181818" points="138.05,198.26,132.6007,206.464,137.2135,203.1895,140.488,207.8023,138.05,198.26" style="stroke:#181818;stroke-width:1.0;"/></g><!--reverse link TTTextBoxMessage to TTTextBoxStatus--><g id="link_TTTextBoxMessage_TTTextBoxStatus"><path codeLine="28" d="M124,318.26 C124,335.94 124,348.13 124,365.79 " fill="none" id="TTTextBoxMessage-backto-TTTextBoxStatus" style="stroke:#181818;stroke-width:1.0;"/><polygon fill="none" points="124,306.26,120,312.26,124,318.26,128,312.26,124,306.26" style="stroke:#181818;stroke-width:1.0;"/></g><!--reverse link TTUtilsNamedPipe to TTUtilsSyscall--><g id="link_TTUtilsNamedPipe_TTUtilsSyscall"><path codeLine="29" d="M953.3398,318.2262 C952.0098,335.9062 951.08,348.13 949.75,365.79 " fill="none" id="TTUtilsNamedPipe-backto-TTUtilsSyscall" style="stroke:#181818;stroke-width:1.0;"/><polygon fill="none" points="954.24,306.26,949.8012,311.943,953.3398,318.2262,957.7786,312.5432,954.24,306.26" style="stroke:#181818;stroke-width:1.0;"/></g><!--reverse link TTUtilsNamedPipe to TTDiagnosticsLogger--><g id="link_TTUtilsNamedPipe_TTDiagnosticsLogger"><path codeLine="30" d="M1019.9706,308.8266 C1032.4506,314.0766 1039.96,317.42 1052,323 C1080.76,336.32 1112.46,352.52 1137.24,365.53 " fill="none" id="TTUtilsNamedPipe-backto-TTDiagnosticsLogger" style="stroke:#181818;stroke-width:1.0;stroke-dasharray:7.0,7.0;"/><polygon fill="#181818" points="1014.44,306.5,1021.1848,313.6769,1019.0488,308.4388,1024.2869,306.3028,1014.44,306.5" style="stroke:#181818;stroke-width:1.0;"/></g><!--SRC=[ZPB1Ri8m38RlVOgS9y4JL1nWXnt6DD7o05wmGaHmAkmAfebt9vsgjKrQkbjaV_vbVqe5-WG6LLcMU9ErlwrhEZXKURv3BK36uMgbVZAbj0FcZdk3Xhk41ikbrj9rjiWS8jEH0aKi6GuTfFhSQmX8tPI1o8UtzTGrD-3SLzYoZIsGP8RSU1BGKbojw6DspxBgxyXN2uOyYzKyUsYFVVV6X5i7KNknRZxabog-MOVTul87dF7mQIjiWcEnoYyMgTC9AefBg9T-rfZG_qqCnIOp-N8vgcq2Z7z5KccvWSAdq8Y129lIsHQ6qjjl6OVtdNThHSo4YmS0]--></g></svg>