<svg xmlns="http://www.w3.org/2000/svg" xmlns:xlink="http://www.w3.org/1999/xlink" contentStyleType="text/css" height="1372px" preserveAspectRatio="none" style="width:856px;height:1372px;background:#FFFFFF;" version="1.1" viewBox="0 0 856 1372" width="856px" zoomAndPan="magnify"><defs/><g><line style="stroke:#181818;stroke-width:1.0;" x1="569.9534" x2="569.9534" y1="240.2266" y2="323.625"/><polygon fill="#181818" points="565.9534,250.2266,569.9534,240.2266,573.9534,250.2266,569.9534,246.2266" style="stroke:#181818;stroke-width:1.0;"/><polygon fill="#181818" points="565.9534,313.625,569.9534,323.625,573.9534,313.625,569.9534,317.625" style="stroke:#181818;stroke-width:1.0;"/><text fill="#000000" font-family="sans-serif" font-size="13" lengthAdjust="spacing" textLength="56.6528" x="573.9534" y="286.4263">1000 ms</text><line style="stroke:#181818;stroke-width:1.0;" x1="569.9534" x2="569.9534" y1="745.4844" y2="966.5469"/><polygon fill="#181818" points="565.9534,755.4844,569.9534,745.4844,573.9534,755.4844,569.9534,751.4844" style="stroke:#181818;stroke-width:1.0;"/><polygon fill="#181818" points="565.9534,956.5469,569.9534,966.5469,573.9534,956.5469,569.9534,960.5469" style="stroke:#181818;stroke-width:1.0;"/><text fill="#000000" font-family="sans-serif" font-size="13" lengthAdjust="spacing" textLength="48.3818" x="573.9534" y="860.5161">500 ms</text><line style="stroke:#181818;stroke-width:0.5;stroke-dasharray:5.0,5.0;" x1="332.6196" x2="332.6196" y1="36.2969" y2="1336.1406"/><rect fill="#FFBBBB" height="137.6641" style="stroke:#181818;stroke-width:1.0;" width="10" x="327.6196" y="158.8281"/><rect fill="#FFD700" height="13" style="stroke:#181818;stroke-width:1.0;" width="10" x="327.6196" y="648.9531"/><line style="stroke:#181818;stroke-width:0.5;stroke-dasharray:5.0,5.0;" x1="493.564" x2="493.564" y1="36.2969" y2="1336.1406"/><line style="stroke:#181818;stroke-width:0.5;stroke-dasharray:5.0,5.0;" x1="646.3428" x2="646.3428" y1="36.2969" y2="1336.1406"/><rect fill="#FFBBBB" height="116.5313" style="stroke:#181818;stroke-width:1.0;" width="10" x="641.3428" y="238.2266"/><rect fill="#005500" height="13" style="stroke:#181818;stroke-width:1.0;" width="10" x="641.3428" y="606.8203"/><rect fill="#E2E2F0" height="30.2969" rx="2.5" ry="2.5" style="stroke:#181818;stroke-width:0.5;" width="88.498" x="288.3706" y="5"/><text fill="#000000" font-family="sans-serif" font-size="14" lengthAdjust="spacing" textLength="74.498" x="295.3706" y="24.9951">TTTextBox</text><rect fill="#E2E2F0" height="30.2969" rx="2.5" ry="2.5" style="stroke:#181818;stroke-width:0.5;" width="141.9346" x="422.5967" y="5"/><text fill="#000000" font-family="sans-serif" font-size="14" lengthAdjust="spacing" textLength="127.9346" x="429.5967" y="24.9951">TTUtilsNamedPipe</text><rect fill="#E2E2F0" height="30.2969" rx="2.5" ry="2.5" style="stroke:#181818;stroke-width:0.5;" width="143.623" x="574.5313" y="5"/><text fill="#000000" font-family="sans-serif" font-size="14" lengthAdjust="spacing" textLength="129.623" x="581.5313" y="24.9951">TTTextBoxHandler</text><rect fill="#E2E2F0" height="30.2969" rx="2.5" ry="2.5" style="stroke:#181818;stroke-width:0.5;" width="88.498" x="288.3706" y="1336.1406"/><text fill="#000000" font-family="sans-serif" font-size="14" lengthAdjust="spacing" textLength="74.498" x="295.3706" y="1356.1357">TTTextBox</text><rect fill="#E2E2F0" height="30.2969" rx="2.5" ry="2.5" style="stroke:#181818;stroke-width:0.5;" width="141.9346" x="422.5967" y="1336.1406"/><text fill="#000000" font-family="sans-serif" font-size="14" lengthAdjust="spacing" textLength="127.9346" x="429.5967" y="1356.1357">TTUtilsNamedPipe</text><rect fill="#E2E2F0" height="30.2969" rx="2.5" ry="2.5" style="stroke:#181818;stroke-width:0.5;" width="143.623" x="574.5313" y="1336.1406"/><text fill="#000000" font-family="sans-serif" font-size="14" lengthAdjust="spacing" textLength="129.623" x="581.5313" y="1356.1357">TTTextBoxHandler</text><rect fill="#EEEEEE" height="3" style="stroke:#EEEEEE;stroke-width:1.0;" width="844.4785" x="5" y="64.8633"/><line style="stroke:#000000;stroke-width:1.0;" x1="5" x2="849.4785" y1="64.8633" y2="64.8633"/><line style="stroke:#000000;stroke-width:1.0;" x1="5" x2="849.4785" y1="67.8633" y2="67.8633"/><rect fill="#EEEEEE" height="23.1328" style="stroke:#000000;stroke-width:2.0;" width="110.624" x="371.9272" y="54.2969"/><text fill="#000000" font-family="sans-serif" font-size="13" font-weight="bold" lengthAdjust="spacing" textLength="92.0981" x="377.9272" y="70.3638">Initialization</text><path d="M93.5859,92.4297 L93.5859,132.4297 L327.5859,132.4297 L327.5859,102.4297 L317.5859,92.4297 L93.5859,92.4297 " fill="#FEFFDD" style="stroke:#181818;stroke-width:0.5;"/><path d="M317.5859,92.4297 L317.5859,102.4297 L327.5859,102.4297 L317.5859,92.4297 " fill="#FEFFDD" style="stroke:#181818;stroke-width:0.5;"/><text fill="#000000" font-family="sans-serif" font-size="13" lengthAdjust="spacing" textLength="213.0337" x="99.5859" y="109.4966">Up to five attempts will be made</text><text fill="#000000" font-family="sans-serif" font-size="13" lengthAdjust="spacing" textLength="205.3975" x="99.5859" y="124.6294">to create and open named pipe</text><polygon fill="#181818" points="481.564,154.8281,491.564,158.8281,481.564,162.8281,485.564,158.8281" style="stroke:#181818;stroke-width:1.0;"/><line style="stroke:#181818;stroke-width:1.0;" x1="337.6196" x2="487.564" y1="158.8281" y2="158.8281"/><text fill="#000000" font-family="sans-serif" font-size="13" lengthAdjust="spacing" textLength="106.7168" x="344.6196" y="153.7622">create and open</text><path d="M651.3428,171.8281 L651.3428,211.8281 L844.3428,211.8281 L844.3428,181.8281 L834.3428,171.8281 L651.3428,171.8281 " fill="#FEFFDD" style="stroke:#181818;stroke-width:0.5;"/><path d="M834.3428,171.8281 L834.3428,181.8281 L844.3428,181.8281 L834.3428,171.8281 " fill="#FEFFDD" style="stroke:#181818;stroke-width:0.5;"/><text fill="#000000" font-family="sans-serif" font-size="13" lengthAdjust="spacing" textLength="172.0215" x="657.3428" y="188.895">Up to five attempts will be</text><text fill="#000000" font-family="sans-serif" font-size="13" lengthAdjust="spacing" textLength="172.1357" x="657.3428" y="204.0278">made to open named pipe</text><polygon fill="#181818" points="504.564,234.2266,494.564,238.2266,504.564,242.2266,500.564,238.2266" style="stroke:#181818;stroke-width:1.0;"/><line style="stroke:#181818;stroke-width:1.0;" x1="498.564" x2="640.3428" y1="238.2266" y2="238.2266"/><text fill="#000000" font-family="sans-serif" font-size="13" lengthAdjust="spacing" textLength="32.4429" x="510.564" y="233.1606">open</text><polygon fill="#181818" points="629.3428,263.3594,639.3428,267.3594,629.3428,271.3594,633.3428,267.3594" style="stroke:#181818;stroke-width:1.0;"/><line style="stroke:#181818;stroke-width:1.0;" x1="493.564" x2="635.3428" y1="267.3594" y2="267.3594"/><text fill="#000000" font-family="sans-serif" font-size="13" lengthAdjust="spacing" textLength="41.3486" x="500.564" y="262.2935">failure</text><polygon fill="#181818" points="348.6196,292.4922,338.6196,296.4922,348.6196,300.4922,344.6196,296.4922" style="stroke:#181818;stroke-width:1.0;"/><line style="stroke:#181818;stroke-width:1.0;" x1="342.6196" x2="492.564" y1="296.4922" y2="296.4922"/><text fill="#000000" font-family="sans-serif" font-size="13" lengthAdjust="spacing" textLength="50.8511" x="354.6196" y="291.4263">success</text><polygon fill="#181818" points="504.564,321.625,494.564,325.625,504.564,329.625,500.564,325.625" style="stroke:#181818;stroke-width:1.0;"/><line style="stroke:#181818;stroke-width:1.0;" x1="498.564" x2="640.3428" y1="325.625" y2="325.625"/><text fill="#000000" font-family="sans-serif" font-size="13" lengthAdjust="spacing" textLength="32.4429" x="510.564" y="320.5591">open</text><polygon fill="#181818" points="629.3428,350.7578,639.3428,354.7578,629.3428,358.7578,633.3428,354.7578" style="stroke:#181818;stroke-width:1.0;"/><line style="stroke:#181818;stroke-width:1.0;" x1="493.564" x2="635.3428" y1="354.7578" y2="354.7578"/><text fill="#000000" font-family="sans-serif" font-size="13" lengthAdjust="spacing" textLength="50.8511" x="500.564" y="349.6919">success</text><path d="M10,367.7578 L10,407.7578 L327,407.7578 L327,377.7578 L317,367.7578 L10,367.7578 " fill="#FEFFDD" style="stroke:#181818;stroke-width:0.5;"/><path d="M317,367.7578 L317,377.7578 L327,377.7578 L317,367.7578 " fill="#FEFFDD" style="stroke:#181818;stroke-width:0.5;"/><text fill="#000000" font-family="sans-serif" font-size="13" lengthAdjust="spacing" textLength="255.8232" x="16" y="384.8247">Attempt to check if named pipe is alive</text><text fill="#000000" font-family="sans-serif" font-size="13" lengthAdjust="spacing" textLength="296.6196" x="16" y="399.9575">meanining the connection can be established</text><polygon fill="#181818" points="481.564,430.1563,491.564,434.1563,481.564,438.1563,485.564,434.1563" style="stroke:#181818;stroke-width:1.0;"/><line style="stroke:#181818;stroke-width:1.0;" x1="332.6196" x2="487.564" y1="434.1563" y2="434.1563"/><text fill="#000000" font-family="sans-serif" font-size="13" lengthAdjust="spacing" textLength="30.8813" x="339.6196" y="429.0903">alive</text><polygon fill="#181818" points="343.6196,459.2891,333.6196,463.2891,343.6196,467.2891,339.6196,463.2891" style="stroke:#181818;stroke-width:1.0;"/><line style="stroke:#181818;stroke-width:1.0;" x1="337.6196" x2="492.564" y1="463.2891" y2="463.2891"/><text fill="#000000" font-family="sans-serif" font-size="13" lengthAdjust="spacing" textLength="50.8511" x="349.6196" y="458.2231">success</text><polygon fill="#181818" points="504.564,488.4219,494.564,492.4219,504.564,496.4219,500.564,492.4219" style="stroke:#181818;stroke-width:1.0;"/><line style="stroke:#181818;stroke-width:1.0;" x1="498.564" x2="645.3428" y1="492.4219" y2="492.4219"/><text fill="#000000" font-family="sans-serif" font-size="13" lengthAdjust="spacing" textLength="30.8813" x="510.564" y="487.356">alive</text><polygon fill="#181818" points="634.3428,517.5547,644.3428,521.5547,634.3428,525.5547,638.3428,521.5547" style="stroke:#181818;stroke-width:1.0;"/><line style="stroke:#181818;stroke-width:1.0;" x1="493.564" x2="640.3428" y1="521.5547" y2="521.5547"/><text fill="#000000" font-family="sans-serif" font-size="13" lengthAdjust="spacing" textLength="50.8511" x="500.564" y="516.4888">success</text><rect fill="#EEEEEE" height="3" style="stroke:#EEEEEE;stroke-width:1.0;" width="844.4785" x="5" y="550.1211"/><line style="stroke:#000000;stroke-width:1.0;" x1="5" x2="849.4785" y1="550.1211" y2="550.1211"/><line style="stroke:#000000;stroke-width:1.0;" x1="5" x2="849.4785" y1="553.1211" y2="553.1211"/><rect fill="#EEEEEE" height="23.1328" style="stroke:#000000;stroke-width:2.0;" width="132.3901" x="361.0442" y="539.5547"/><text fill="#000000" font-family="sans-serif" font-size="13" font-weight="bold" lengthAdjust="spacing" textLength="113.8643" x="367.0442" y="555.6216">Communication</text><line style="stroke:#181818;stroke-width:1.0;" x1="646.3428" x2="693.3428" y1="593.8203" y2="593.8203"/><line style="stroke:#181818;stroke-width:1.0;" x1="693.3428" x2="693.3428" y1="593.8203" y2="606.8203"/><line style="stroke:#181818;stroke-width:1.0;" x1="652.3428" x2="693.3428" y1="606.8203" y2="606.8203"/><polygon fill="#181818" points="662.3428,602.8203,652.3428,606.8203,662.3428,610.8203,658.3428,606.8203" style="stroke:#181818;stroke-width:1.0;"/><text fill="#000000" font-family="sans-serif" font-size="13" lengthAdjust="spacing" textLength="134.5767" x="658.3428" y="588.7544">start receiver thread</text><line style="stroke:#181818;stroke-width:1.0;" x1="332.6196" x2="379.6196" y1="635.9531" y2="635.9531"/><line style="stroke:#181818;stroke-width:1.0;" x1="379.6196" x2="379.6196" y1="635.9531" y2="648.9531"/><line style="stroke:#181818;stroke-width:1.0;" x1="338.6196" x2="379.6196" y1="648.9531" y2="648.9531"/><polygon fill="#181818" points="348.6196,644.9531,338.6196,648.9531,348.6196,652.9531,344.6196,648.9531" style="stroke:#181818;stroke-width:1.0;"/><text fill="#000000" font-family="sans-serif" font-size="13" lengthAdjust="spacing" textLength="126.0454" x="344.6196" y="630.8872">start sender thread</text><path d="M423.7686,661.9531 L423.7686,716.9531 L640.7686,716.9531 L640.7686,671.9531 L630.7686,661.9531 L423.7686,661.9531 " fill="#FEFFDD" style="stroke:#181818;stroke-width:0.5;"/><path d="M630.7686,661.9531 L630.7686,671.9531 L640.7686,671.9531 L630.7686,661.9531 " fill="#FEFFDD" style="stroke:#181818;stroke-width:0.5;"/><text fill="#000000" font-family="sans-serif" font-size="13" lengthAdjust="spacing" textLength="162.2778" x="429.7686" y="679.02">Up to three attempts are</text><text fill="#000000" font-family="sans-serif" font-size="13" lengthAdjust="spacing" textLength="196.5742" x="429.7686" y="694.1528">made to receive any message</text><text fill="#000000" font-family="sans-serif" font-size="13" lengthAdjust="spacing" textLength="181.8984" x="429.7686" y="709.2856">after last successful receive</text><polygon fill="#181818" points="504.564,739.4844,494.564,743.4844,504.564,747.4844,500.564,743.4844" style="stroke:#181818;stroke-width:1.0;"/><line style="stroke:#181818;stroke-width:1.0;" x1="498.564" x2="645.3428" y1="743.4844" y2="743.4844"/><text fill="#000000" font-family="sans-serif" font-size="13" lengthAdjust="spacing" textLength="47.7915" x="510.564" y="738.4185">receive</text><polygon fill="#181818" points="634.3428,768.6172,644.3428,772.6172,634.3428,776.6172,638.3428,772.6172" style="stroke:#181818;stroke-width:1.0;"/><line style="stroke:#181818;stroke-width:1.0;" x1="493.564" x2="640.3428" y1="772.6172" y2="772.6172"/><text fill="#000000" font-family="sans-serif" font-size="13" lengthAdjust="spacing" textLength="41.3486" x="500.564" y="767.5513">failure</text><ellipse cx="10.5" cy="801" fill="#000000" rx="4" ry="4" style="stroke:#181818;stroke-width:1.5;"/><polygon fill="#181818" points="320.6196,797.75,330.6196,801.75,320.6196,805.75,324.6196,801.75" style="stroke:#181818;stroke-width:1.0;"/><line style="stroke:#181818;stroke-width:1.0;" x1="15" x2="326.6196" y1="801.75" y2="801.75"/><text fill="#000000" font-family="sans-serif" font-size="13" lengthAdjust="spacing" textLength="107.6436" x="213.9761" y="796.6841">select command</text><ellipse cx="10.5" cy="830.1328" fill="#000000" rx="4" ry="4" style="stroke:#181818;stroke-width:1.5;"/><polygon fill="#181818" points="320.6196,826.8828,330.6196,830.8828,320.6196,834.8828,324.6196,830.8828" style="stroke:#181818;stroke-width:1.0;"/><line style="stroke:#181818;stroke-width:1.0;" x1="15" x2="326.6196" y1="830.8828" y2="830.8828"/><text fill="#000000" font-family="sans-serif" font-size="13" lengthAdjust="spacing" textLength="147.3926" x="174.2271" y="825.8169">"Hello world" message</text><path d="M337.6196,843.8828 L337.6196,883.8828 L527.6196,883.8828 L527.6196,853.8828 L517.6196,843.8828 L337.6196,843.8828 " fill="#FEFFDD" style="stroke:#181818;stroke-width:0.5;"/><path d="M517.6196,843.8828 L517.6196,853.8828 L527.6196,853.8828 L517.6196,843.8828 " fill="#FEFFDD" style="stroke:#181818;stroke-width:0.5;"/><text fill="#000000" font-family="sans-serif" font-size="13" lengthAdjust="spacing" textLength="169.9331" x="343.6196" y="860.9497">Only one attempt is made</text><text fill="#000000" font-family="sans-serif" font-size="13" lengthAdjust="spacing" textLength="139.0327" x="343.6196" y="876.0825">to send any message</text><polygon fill="#181818" points="481.564,906.2813,491.564,910.2813,481.564,914.2813,485.564,910.2813" style="stroke:#181818;stroke-width:1.0;"/><line style="stroke:#181818;stroke-width:1.0;" x1="332.6196" x2="487.564" y1="910.2813" y2="910.2813"/><text fill="#000000" font-family="sans-serif" font-size="13" lengthAdjust="spacing" textLength="136.9443" x="339.6196" y="905.2153">send (select contact)</text><polygon fill="#181818" points="343.6196,935.4141,333.6196,939.4141,343.6196,943.4141,339.6196,939.4141" style="stroke:#181818;stroke-width:1.0;"/><line style="stroke:#181818;stroke-width:1.0;" x1="337.6196" x2="492.564" y1="939.4141" y2="939.4141"/><text fill="#000000" font-family="sans-serif" font-size="13" lengthAdjust="spacing" textLength="50.8511" x="349.6196" y="934.3481">success</text><polygon fill="#181818" points="504.564,964.5469,494.564,968.5469,504.564,972.5469,500.564,968.5469" style="stroke:#181818;stroke-width:1.0;"/><line style="stroke:#181818;stroke-width:1.0;" x1="498.564" x2="645.3428" y1="968.5469" y2="968.5469"/><text fill="#000000" font-family="sans-serif" font-size="13" lengthAdjust="spacing" textLength="47.7915" x="510.564" y="963.481">receive</text><polygon fill="#181818" points="634.3428,993.6797,644.3428,997.6797,634.3428,1001.6797,638.3428,997.6797" style="stroke:#181818;stroke-width:1.0;"/><line style="stroke:#181818;stroke-width:1.0;" x1="493.564" x2="640.3428" y1="997.6797" y2="997.6797"/><text fill="#000000" font-family="sans-serif" font-size="13" lengthAdjust="spacing" textLength="50.8511" x="500.564" y="992.6138">success</text><ellipse cx="842.9785" cy="1026.0625" fill="#000000" rx="4" ry="4" style="stroke:#181818;stroke-width:1.5;"/><polygon fill="#181818" points="825.9785,1022.8125,835.9785,1026.8125,825.9785,1030.8125,829.9785,1026.8125" style="stroke:#181818;stroke-width:1.0;"/><line style="stroke:#181818;stroke-width:1.0;" x1="646.3428" x2="831.9785" y1="1026.8125" y2="1026.8125"/><text fill="#000000" font-family="sans-serif" font-size="13" lengthAdjust="spacing" textLength="158.9136" x="653.3428" y="1021.7466">callback (select contact)</text><polygon fill="#181818" points="481.564,1051.9453,491.564,1055.9453,481.564,1059.9453,485.564,1055.9453" style="stroke:#181818;stroke-width:1.0;"/><line style="stroke:#181818;stroke-width:1.0;" x1="332.6196" x2="487.564" y1="1055.9453" y2="1055.9453"/><text fill="#000000" font-family="sans-serif" font-size="13" lengthAdjust="spacing" textLength="103.9619" x="339.6196" y="1050.8794">send (message)</text><polygon fill="#181818" points="343.6196,1081.0781,333.6196,1085.0781,343.6196,1089.0781,339.6196,1085.0781" style="stroke:#181818;stroke-width:1.0;"/><line style="stroke:#181818;stroke-width:1.0;" x1="337.6196" x2="492.564" y1="1085.0781" y2="1085.0781"/><text fill="#000000" font-family="sans-serif" font-size="13" lengthAdjust="spacing" textLength="50.8511" x="349.6196" y="1080.0122">success</text><polygon fill="#181818" points="504.564,1110.2109,494.564,1114.2109,504.564,1118.2109,500.564,1114.2109" style="stroke:#181818;stroke-width:1.0;"/><line style="stroke:#181818;stroke-width:1.0;" x1="498.564" x2="645.3428" y1="1114.2109" y2="1114.2109"/><text fill="#000000" font-family="sans-serif" font-size="13" lengthAdjust="spacing" textLength="47.7915" x="510.564" y="1109.145">receive</text><polygon fill="#181818" points="634.3428,1139.3438,644.3428,1143.3438,634.3428,1147.3438,638.3428,1143.3438" style="stroke:#181818;stroke-width:1.0;"/><line style="stroke:#181818;stroke-width:1.0;" x1="493.564" x2="640.3428" y1="1143.3438" y2="1143.3438"/><text fill="#000000" font-family="sans-serif" font-size="13" lengthAdjust="spacing" textLength="50.8511" x="500.564" y="1138.2778">success</text><ellipse cx="842.9785" cy="1171.7266" fill="#000000" rx="4" ry="4" style="stroke:#181818;stroke-width:1.5;"/><polygon fill="#181818" points="825.9785,1168.4766,835.9785,1172.4766,825.9785,1176.4766,829.9785,1172.4766" style="stroke:#181818;stroke-width:1.0;"/><line style="stroke:#181818;stroke-width:1.0;" x1="646.3428" x2="831.9785" y1="1172.4766" y2="1172.4766"/><text fill="#000000" font-family="sans-serif" font-size="13" lengthAdjust="spacing" textLength="125.9312" x="653.3428" y="1167.4106">callback (message)</text><ellipse cx="10.5" cy="1200.8594" fill="#000000" rx="4" ry="4" style="stroke:#181818;stroke-width:1.5;"/><polygon fill="#181818" points="320.6196,1197.6094,330.6196,1201.6094,320.6196,1205.6094,324.6196,1201.6094" style="stroke:#181818;stroke-width:1.0;"/><line style="stroke:#181818;stroke-width:1.0;" x1="15" x2="326.6196" y1="1201.6094" y2="1201.6094"/><text fill="#000000" font-family="sans-serif" font-size="13" lengthAdjust="spacing" textLength="94.2183" x="227.4014" y="1196.5435">quit command</text><polygon fill="#181818" points="481.564,1226.7422,491.564,1230.7422,481.564,1234.7422,485.564,1230.7422" style="stroke:#181818;stroke-width:1.0;"/><line style="stroke:#181818;stroke-width:1.0;" x1="332.6196" x2="487.564" y1="1230.7422" y2="1230.7422"/><text fill="#000000" font-family="sans-serif" font-size="13" lengthAdjust="spacing" textLength="70.7383" x="339.6196" y="1225.6763">send (quit)</text><polygon fill="#181818" points="343.6196,1255.875,333.6196,1259.875,343.6196,1263.875,339.6196,1259.875" style="stroke:#181818;stroke-width:1.0;"/><line style="stroke:#181818;stroke-width:1.0;" x1="337.6196" x2="492.564" y1="1259.875" y2="1259.875"/><text fill="#000000" font-family="sans-serif" font-size="13" lengthAdjust="spacing" textLength="50.8511" x="349.6196" y="1254.8091">success</text><polygon fill="#181818" points="504.564,1285.0078,494.564,1289.0078,504.564,1293.0078,500.564,1289.0078" style="stroke:#181818;stroke-width:1.0;"/><line style="stroke:#181818;stroke-width:1.0;" x1="498.564" x2="645.3428" y1="1289.0078" y2="1289.0078"/><text fill="#000000" font-family="sans-serif" font-size="13" lengthAdjust="spacing" textLength="47.7915" x="510.564" y="1283.9419">receive</text><polygon fill="#181818" points="634.3428,1314.1406,644.3428,1318.1406,634.3428,1322.1406,638.3428,1318.1406" style="stroke:#181818;stroke-width:1.0;"/><line style="stroke:#181818;stroke-width:1.0;" x1="493.564" x2="640.3428" y1="1318.1406" y2="1318.1406"/><text fill="#000000" font-family="sans-serif" font-size="13" lengthAdjust="spacing" textLength="50.8511" x="500.564" y="1313.0747">success</text><line style="stroke:#181818;stroke-width:1.0;" x1="569.9534" x2="569.9534" y1="240.2266" y2="323.625"/><polygon fill="#181818" points="565.9534,250.2266,569.9534,240.2266,573.9534,250.2266,569.9534,246.2266" style="stroke:#181818;stroke-width:1.0;"/><polygon fill="#181818" points="565.9534,313.625,569.9534,323.625,573.9534,313.625,569.9534,317.625" style="stroke:#181818;stroke-width:1.0;"/><text fill="#000000" font-family="sans-serif" font-size="13" lengthAdjust="spacing" textLength="56.6528" x="573.9534" y="286.4263">1000 ms</text><line style="stroke:#181818;stroke-width:1.0;" x1="569.9534" x2="569.9534" y1="745.4844" y2="966.5469"/><polygon fill="#181818" points="565.9534,755.4844,569.9534,745.4844,573.9534,755.4844,569.9534,751.4844" style="stroke:#181818;stroke-width:1.0;"/><polygon fill="#181818" points="565.9534,956.5469,569.9534,966.5469,573.9534,956.5469,569.9534,960.5469" style="stroke:#181818;stroke-width:1.0;"/><text fill="#000000" font-family="sans-serif" font-size="13" lengthAdjust="spacing" textLength="48.3818" x="573.9534" y="860.5161">500 ms</text><!--SRC=[pLKzRzim4DtvAwxEqWm5rC6BKHT82WJfqdPmfg8epjJ99agHAaavN-X_xz6sP4ko1CN847loyVZuxjsxyxl2uIf726IV8BYIX2ZG1ILLWIR0PB5Oq4EujWyJG0_rhtRINL3QVyESqX-ge7rkCzY3UuicrUIQyFkW4FCvV3KgADJg2OEo1kPpOMmWq9G5iDaHfRi2WeLCRGWm1CgBuE5UQGrBWXnJ4dmg7I5VPdYm1HamaHqKaHvnB2AB6X4-VEvK0RCsXa0Pr2P63XSlRcwk-RDZwjHgtQHQbJV0M4J6yRINvdEcd0-_u_c_3dGFzHw-rQMATkVc5gsLF8CCbIuT3QTpdY-b9Ez5IjsdnRCdQKrwHXqD0JvnOXDg1X-J987SZordY6RLiHxhNUsw5_ibroJ_WCgEUWRA0njumqqbD8g_AmXh0YPhI6vTBT54cv8FkDJAhoaTxySTzDWcZ5Hu16XNkJYkNsoUbqR9UbfFFzZ52BmUm94aVjYnFZnbwP1NasGwJPB1RhMKEn9Z-vXdYOUUWekLrUbfsvusGdEm8_3HPACxJFM-JbuYZv2pTBWYWLbWDXfzg0JDIbrbTkP-7nyzCXNE2sVxfsrBHvezozxDSqxkdazkIMiBzzRfT5BNrhC8nNUZ7y6QMgKuAjMkZkrf23Hw8hOttzTCJU06NewUa6gDdAjmkq77gwaEpc1wrd8wmSN-YdzAgFKIUVESA7kCM7kDBrzxZxpGTkFBh0bt7FYtL0T_Zgi-NdaZfVy7]--></g></svg>