<svg xmlns="http://www.w3.org/2000/svg" xmlns:xlink="http://www.w3.org/1999/xlink" contentStyleType="text/css" height="2041px" preserveAspectRatio="none" style="width:872px;height:2041px;background:#FFFFFF;" version="1.1" viewBox="0 0 872 2041" width="872px" zoomAndPan="magnify"><defs/><g><line style="stroke:#181818;stroke-width:1.0;" x1="561.5603" x2="561.5603" y1="256.5234" y2="339.9219"/><polygon fill="#181818" points="557.5603,266.5234,561.5603,256.5234,565.5603,266.5234,561.5603,262.5234" style="stroke:#181818;stroke-width:1.0;"/><polygon fill="#181818" points="557.5603,329.9219,561.5603,339.9219,565.5603,329.9219,561.5603,333.9219" style="stroke:#181818;stroke-width:1.0;"/><text fill="#000000" font-family="sans-serif" font-size="13" lengthAdjust="spacing" textLength="56.6528" x="565.5603" y="302.7231">1000 ms</text><line style="stroke:#181818;stroke-width:1.0;" x1="561.5603" x2="561.5603" y1="467.5859" y2="601.25"/><polygon fill="#181818" points="557.5603,477.5859,561.5603,467.5859,565.5603,477.5859,561.5603,473.5859" style="stroke:#181818;stroke-width:1.0;"/><polygon fill="#181818" points="557.5603,591.25,561.5603,601.25,565.5603,591.25,561.5603,595.25" style="stroke:#181818;stroke-width:1.0;"/><text fill="#000000" font-family="sans-serif" font-size="13" lengthAdjust="spacing" textLength="56.6528" x="565.5603" y="538.9185">1000 ms</text><line style="stroke:#181818;stroke-width:0.5;stroke-dasharray:5.0,5.0;" x1="305.896" x2="305.896" y1="52.5938" y2="1988.9609"/><rect fill="#FFBBBB" height="137.6641" style="stroke:#181818;stroke-width:1.0;" width="10" x="300.896" y="175.125"/><rect fill="#FFBBBB" height="87.3984" style="stroke:#181818;stroke-width:1.0;" width="10" x="300.896" y="574.1172"/><rect fill="#005500" height="13" style="stroke:#181818;stroke-width:1.0;" width="10" x="300.896" y="746.7813"/><rect fill="#FFD700" height="42.1328" style="stroke:#181818;stroke-width:1.0;" width="10" x="300.896" y="847.1797"/><rect fill="#005500" height="13" style="stroke:#181818;stroke-width:1.0;" width="10" x="300.896" y="947.5781"/><rect fill="#FFD700" height="87.3984" style="stroke:#181818;stroke-width:1.0;" width="10" x="300.896" y="976.7109"/><rect fill="#FFBBBB" height="29.1328" style="stroke:#181818;stroke-width:1.0;" width="10" x="300.896" y="1128.375"/><rect fill="#FFBBBB" height="29.1328" style="stroke:#181818;stroke-width:1.0;" width="10" x="300.896" y="1199.6406"/><rect fill="#FFD700" height="171.6641" style="stroke:#181818;stroke-width:1.0;" width="10" x="300.896" y="1336.3047"/><rect fill="#FFD700" height="129.5313" style="stroke:#181818;stroke-width:1.0;" width="10" x="300.896" y="1537.1016"/><rect fill="#FFD700" height="87.3984" style="stroke:#181818;stroke-width:1.0;" width="10" x="300.896" y="1724.8984"/><rect fill="#FFD700" height="142.5313" style="stroke:#181818;stroke-width:1.0;" width="10" x="300.896" y="1841.4297"/><rect fill="#005500" height="13" style="stroke:#181818;stroke-width:1.0;" width="10" x="305.896" y="1407.5703"/><line style="stroke:#181818;stroke-width:0.5;stroke-dasharray:5.0,5.0;" x1="486.1245" x2="486.1245" y1="52.5938" y2="1988.9609"/><line style="stroke:#181818;stroke-width:0.5;stroke-dasharray:5.0,5.0;" x1="636.9961" x2="636.9961" y1="52.5938" y2="1988.9609"/><rect fill="#FFBBBB" height="116.5313" style="stroke:#181818;stroke-width:1.0;" width="10" x="631.9961" y="254.5234"/><rect fill="#FFBBBB" height="166.7969" style="stroke:#181818;stroke-width:1.0;" width="10" x="631.9961" y="465.5859"/><rect fill="#FFBBBB" height="259.0625" style="stroke:#181818;stroke-width:1.0;" width="10" x="631.9961" y="775.9141"/><rect fill="#FFBBBB" height="71.2656" style="stroke:#181818;stroke-width:1.0;" width="10" x="631.9961" y="1365.4375"/><rect fill="#FFBBBB" height="29.1328" style="stroke:#181818;stroke-width:1.0;" width="10" x="631.9961" y="1566.2344"/><rect fill="#FFBBBB" height="29.1328" style="stroke:#181818;stroke-width:1.0;" width="10" x="631.9961" y="1754.0313"/><rect fill="#FFBBBB" height="29.1328" style="stroke:#181818;stroke-width:1.0;" width="10" x="631.9961" y="1870.5625"/><rect fill="#E2E2F0" height="46.5938" rx="2.5" ry="2.5" style="stroke:#181818;stroke-width:0.5;" width="156.7617" x="227.5151" y="5"/><text fill="#000000" font-family="sans-serif" font-size="14" lengthAdjust="spacing" textLength="133.9912" x="238.9004" y="24.9951">TTContactsHandler</text><text fill="#000000" font-family="sans-serif" font-size="14" lengthAdjust="spacing" textLength="142.7617" x="234.5151" y="41.292">(TTUtilsSharedMem)</text><rect fill="#E2E2F0" height="46.5938" rx="2.5" ry="2.5" style="stroke:#181818;stroke-width:0.5;" width="124.9814" x="423.6338" y="5"/><text fill="#000000" font-family="sans-serif" font-size="14" lengthAdjust="spacing" textLength="110.9814" x="430.6338" y="24.9951">Shared Memory</text><text fill="#000000" font-family="sans-serif" font-size="14" lengthAdjust="spacing" textLength="63.1299" x="454.5596" y="41.292">(System)</text><rect fill="#E2E2F0" height="46.5938" rx="2.5" ry="2.5" style="stroke:#181818;stroke-width:0.5;" width="156.7617" x="558.6152" y="5"/><text fill="#000000" font-family="sans-serif" font-size="14" lengthAdjust="spacing" textLength="78.8662" x="597.563" y="24.9951">TTContacts</text><text fill="#000000" font-family="sans-serif" font-size="14" lengthAdjust="spacing" textLength="142.7617" x="565.6152" y="41.292">(TTUtilsSharedMem)</text><rect fill="#E2E2F0" height="46.5938" rx="2.5" ry="2.5" style="stroke:#181818;stroke-width:0.5;" width="156.7617" x="227.5151" y="1988.9609"/><text fill="#000000" font-family="sans-serif" font-size="14" lengthAdjust="spacing" textLength="133.9912" x="238.9004" y="2008.9561">TTContactsHandler</text><text fill="#000000" font-family="sans-serif" font-size="14" lengthAdjust="spacing" textLength="142.7617" x="234.5151" y="2025.2529">(TTUtilsSharedMem)</text><rect fill="#E2E2F0" height="46.5938" rx="2.5" ry="2.5" style="stroke:#181818;stroke-width:0.5;" width="124.9814" x="423.6338" y="1988.9609"/><text fill="#000000" font-family="sans-serif" font-size="14" lengthAdjust="spacing" textLength="110.9814" x="430.6338" y="2008.9561">Shared Memory</text><text fill="#000000" font-family="sans-serif" font-size="14" lengthAdjust="spacing" textLength="63.1299" x="454.5596" y="2025.2529">(System)</text><rect fill="#E2E2F0" height="46.5938" rx="2.5" ry="2.5" style="stroke:#181818;stroke-width:0.5;" width="156.7617" x="558.6152" y="1988.9609"/><text fill="#000000" font-family="sans-serif" font-size="14" lengthAdjust="spacing" textLength="78.8662" x="597.563" y="2008.9561">TTContacts</text><text fill="#000000" font-family="sans-serif" font-size="14" lengthAdjust="spacing" textLength="142.7617" x="565.6152" y="2025.2529">(TTUtilsSharedMem)</text><rect fill="#EEEEEE" height="3" style="stroke:#EEEEEE;stroke-width:1.0;" width="860.7891" x="5" y="81.1602"/><line style="stroke:#000000;stroke-width:1.0;" x1="5" x2="865.7891" y1="81.1602" y2="81.1602"/><line style="stroke:#000000;stroke-width:1.0;" x1="5" x2="865.7891" y1="84.1602" y2="84.1602"/><rect fill="#EEEEEE" height="23.1328" style="stroke:#000000;stroke-width:2.0;" width="110.624" x="380.0825" y="70.5938"/><text fill="#000000" font-family="sans-serif" font-size="13" font-weight="bold" lengthAdjust="spacing" textLength="92.0981" x="386.0825" y="86.6606">Initialization</text><path d="M48.8413,108.7266 L48.8413,148.7266 L300.8413,148.7266 L300.8413,118.7266 L290.8413,108.7266 L48.8413,108.7266 " fill="#FEFFDD" style="stroke:#181818;stroke-width:0.5;"/><path d="M290.8413,108.7266 L290.8413,118.7266 L300.8413,118.7266 L290.8413,108.7266 " fill="#FEFFDD" style="stroke:#181818;stroke-width:0.5;"/><text fill="#000000" font-family="sans-serif" font-size="13" lengthAdjust="spacing" textLength="201.3984" x="54.8413" y="125.7935">Only one attempt will be made</text><text fill="#000000" font-family="sans-serif" font-size="13" lengthAdjust="spacing" textLength="231.0547" x="54.8413" y="140.9263">to create and open shared memory</text><polygon fill="#181818" points="474.1245,171.125,484.1245,175.125,474.1245,179.125,478.1245,175.125" style="stroke:#181818;stroke-width:1.0;"/><line style="stroke:#181818;stroke-width:1.0;" x1="310.896" x2="480.1245" y1="175.125" y2="175.125"/><text fill="#000000" font-family="sans-serif" font-size="13" lengthAdjust="spacing" textLength="106.7168" x="317.896" y="170.0591">create and open</text><path d="M641.9961,188.125 L641.9961,228.125 L859.9961,228.125 L859.9961,198.125 L849.9961,188.125 L641.9961,188.125 " fill="#FEFFDD" style="stroke:#181818;stroke-width:0.5;"/><path d="M849.9961,188.125 L849.9961,198.125 L859.9961,198.125 L849.9961,188.125 " fill="#FEFFDD" style="stroke:#181818;stroke-width:0.5;"/><text fill="#000000" font-family="sans-serif" font-size="13" lengthAdjust="spacing" textLength="172.0215" x="647.9961" y="205.1919">Up to five attempts will be</text><text fill="#000000" font-family="sans-serif" font-size="13" lengthAdjust="spacing" textLength="197.793" x="647.9961" y="220.3247">made to open shared memory</text><polygon fill="#181818" points="497.1245,250.5234,487.1245,254.5234,497.1245,258.5234,493.1245,254.5234" style="stroke:#181818;stroke-width:1.0;"/><line style="stroke:#181818;stroke-width:1.0;" x1="491.1245" x2="630.9961" y1="254.5234" y2="254.5234"/><text fill="#000000" font-family="sans-serif" font-size="13" lengthAdjust="spacing" textLength="32.4429" x="503.1245" y="249.4575">open</text><polygon fill="#181818" points="619.9961,279.6563,629.9961,283.6563,619.9961,287.6563,623.9961,283.6563" style="stroke:#181818;stroke-width:1.0;"/><line style="stroke:#181818;stroke-width:1.0;" x1="486.1245" x2="625.9961" y1="283.6563" y2="283.6563"/><text fill="#000000" font-family="sans-serif" font-size="13" lengthAdjust="spacing" textLength="41.3486" x="493.1245" y="278.5903">failure</text><polygon fill="#181818" points="321.896,308.7891,311.896,312.7891,321.896,316.7891,317.896,312.7891" style="stroke:#181818;stroke-width:1.0;"/><line style="stroke:#181818;stroke-width:1.0;" x1="315.896" x2="485.1245" y1="312.7891" y2="312.7891"/><text fill="#000000" font-family="sans-serif" font-size="13" lengthAdjust="spacing" textLength="50.8511" x="327.896" y="307.7231">success</text><polygon fill="#181818" points="497.1245,337.9219,487.1245,341.9219,497.1245,345.9219,493.1245,341.9219" style="stroke:#181818;stroke-width:1.0;"/><line style="stroke:#181818;stroke-width:1.0;" x1="491.1245" x2="630.9961" y1="341.9219" y2="341.9219"/><text fill="#000000" font-family="sans-serif" font-size="13" lengthAdjust="spacing" textLength="32.4429" x="503.1245" y="336.856">open</text><polygon fill="#181818" points="619.9961,367.0547,629.9961,371.0547,619.9961,375.0547,623.9961,371.0547" style="stroke:#181818;stroke-width:1.0;"/><line style="stroke:#181818;stroke-width:1.0;" x1="486.1245" x2="625.9961" y1="371.0547" y2="371.0547"/><text fill="#000000" font-family="sans-serif" font-size="13" lengthAdjust="spacing" textLength="50.8511" x="493.1245" y="365.9888">success</text><path d="M641.9961,384.0547 L641.9961,439.0547 L858.9961,439.0547 L858.9961,394.0547 L848.9961,384.0547 L641.9961,384.0547 " fill="#FEFFDD" style="stroke:#181818;stroke-width:0.5;"/><path d="M848.9961,384.0547 L848.9961,394.0547 L858.9961,394.0547 L848.9961,384.0547 " fill="#FEFFDD" style="stroke:#181818;stroke-width:0.5;"/><text fill="#000000" font-family="sans-serif" font-size="13" lengthAdjust="spacing" textLength="162.2778" x="647.9961" y="401.1216">Up to three attempts are</text><text fill="#000000" font-family="sans-serif" font-size="13" lengthAdjust="spacing" textLength="196.5742" x="647.9961" y="416.2544">made to receive any message</text><text fill="#000000" font-family="sans-serif" font-size="13" lengthAdjust="spacing" textLength="181.8984" x="647.9961" y="431.3872">after last successful receive</text><polygon fill="#181818" points="497.1245,461.5859,487.1245,465.5859,497.1245,469.5859,493.1245,465.5859" style="stroke:#181818;stroke-width:1.0;"/><line style="stroke:#181818;stroke-width:1.0;" x1="491.1245" x2="630.9961" y1="465.5859" y2="465.5859"/><text fill="#000000" font-family="sans-serif" font-size="13" lengthAdjust="spacing" textLength="47.7915" x="503.1245" y="460.52">receive</text><polygon fill="#181818" points="619.9961,490.7188,629.9961,494.7188,619.9961,498.7188,623.9961,494.7188" style="stroke:#181818;stroke-width:1.0;"/><line style="stroke:#181818;stroke-width:1.0;" x1="486.1245" x2="625.9961" y1="494.7188" y2="494.7188"/><text fill="#000000" font-family="sans-serif" font-size="13" lengthAdjust="spacing" textLength="41.3486" x="493.1245" y="489.6528">failure</text><path d="M10,507.7188 L10,547.7188 L300,547.7188 L300,517.7188 L290,507.7188 L10,507.7188 " fill="#FEFFDD" style="stroke:#181818;stroke-width:0.5;"/><path d="M290,507.7188 L290,517.7188 L300,517.7188 L290,507.7188 " fill="#FEFFDD" style="stroke:#181818;stroke-width:0.5;"/><text fill="#000000" font-family="sans-serif" font-size="13" lengthAdjust="spacing" textLength="264.6465" x="16" y="524.7856">Attempt to send one heartbeat message</text><text fill="#000000" font-family="sans-serif" font-size="13" lengthAdjust="spacing" textLength="269.896" x="16" y="539.9185">to check if connection can be established</text><polygon fill="#181818" points="474.1245,570.1172,484.1245,574.1172,474.1245,578.1172,478.1245,574.1172" style="stroke:#181818;stroke-width:1.0;"/><line style="stroke:#181818;stroke-width:1.0;" x1="310.896" x2="480.1245" y1="574.1172" y2="574.1172"/><text fill="#000000" font-family="sans-serif" font-size="13" lengthAdjust="spacing" textLength="105.3647" x="317.896" y="569.0513">send(heartbeat)</text><polygon fill="#181818" points="497.1245,599.25,487.1245,603.25,497.1245,607.25,493.1245,603.25" style="stroke:#181818;stroke-width:1.0;"/><line style="stroke:#181818;stroke-width:1.0;" x1="491.1245" x2="630.9961" y1="603.25" y2="603.25"/><text fill="#000000" font-family="sans-serif" font-size="13" lengthAdjust="spacing" textLength="47.7915" x="503.1245" y="598.1841">receive</text><polygon fill="#181818" points="619.9961,628.3828,629.9961,632.3828,619.9961,636.3828,623.9961,632.3828" style="stroke:#181818;stroke-width:1.0;"/><line style="stroke:#181818;stroke-width:1.0;" x1="486.1245" x2="625.9961" y1="632.3828" y2="632.3828"/><text fill="#000000" font-family="sans-serif" font-size="13" lengthAdjust="spacing" textLength="50.8511" x="493.1245" y="627.3169">success</text><polygon fill="#181818" points="321.896,657.5156,311.896,661.5156,321.896,665.5156,317.896,661.5156" style="stroke:#181818;stroke-width:1.0;"/><line style="stroke:#181818;stroke-width:1.0;" x1="315.896" x2="485.1245" y1="661.5156" y2="661.5156"/><text fill="#000000" font-family="sans-serif" font-size="13" lengthAdjust="spacing" textLength="50.8511" x="327.896" y="656.4497">success</text><rect fill="#EEEEEE" height="3" style="stroke:#EEEEEE;stroke-width:1.0;" width="860.7891" x="5" y="690.082"/><line style="stroke:#000000;stroke-width:1.0;" x1="5" x2="865.7891" y1="690.082" y2="690.082"/><line style="stroke:#000000;stroke-width:1.0;" x1="5" x2="865.7891" y1="693.082" y2="693.082"/><rect fill="#EEEEEE" height="23.1328" style="stroke:#000000;stroke-width:2.0;" width="132.3901" x="369.1995" y="679.5156"/><text fill="#000000" font-family="sans-serif" font-size="13" font-weight="bold" lengthAdjust="spacing" textLength="113.8643" x="375.1995" y="695.5825">Communication</text><line style="stroke:#181818;stroke-width:1.0;" x1="305.896" x2="352.896" y1="733.7813" y2="733.7813"/><line style="stroke:#181818;stroke-width:1.0;" x1="352.896" x2="352.896" y1="733.7813" y2="746.7813"/><line style="stroke:#181818;stroke-width:1.0;" x1="311.896" x2="352.896" y1="746.7813" y2="746.7813"/><polygon fill="#181818" points="321.896,742.7813,311.896,746.7813,321.896,750.7813,317.896,746.7813" style="stroke:#181818;stroke-width:1.0;"/><text fill="#000000" font-family="sans-serif" font-size="13" lengthAdjust="spacing" textLength="145.3994" x="317.896" y="728.7153">start heartbeat thread</text><polygon fill="#181818" points="497.1245,771.9141,487.1245,775.9141,497.1245,779.9141,493.1245,775.9141" style="stroke:#181818;stroke-width:1.0;"/><line style="stroke:#181818;stroke-width:1.0;" x1="491.1245" x2="630.9961" y1="775.9141" y2="775.9141"/><text fill="#000000" font-family="sans-serif" font-size="13" lengthAdjust="spacing" textLength="47.7915" x="503.1245" y="770.8481">receive</text><polygon fill="#181818" points="619.9961,801.0469,629.9961,805.0469,619.9961,809.0469,623.9961,805.0469" style="stroke:#181818;stroke-width:1.0;"/><line style="stroke:#181818;stroke-width:1.0;" x1="486.1245" x2="625.9961" y1="805.0469" y2="805.0469"/><text fill="#000000" font-family="sans-serif" font-size="13" lengthAdjust="spacing" textLength="41.3486" x="493.1245" y="799.981">failure</text><line style="stroke:#181818;stroke-width:1.0;" x1="305.896" x2="352.896" y1="834.1797" y2="834.1797"/><line style="stroke:#181818;stroke-width:1.0;" x1="352.896" x2="352.896" y1="834.1797" y2="847.1797"/><line style="stroke:#181818;stroke-width:1.0;" x1="311.896" x2="352.896" y1="847.1797" y2="847.1797"/><polygon fill="#181818" points="321.896,843.1797,311.896,847.1797,321.896,851.1797,317.896,847.1797" style="stroke:#181818;stroke-width:1.0;"/><text fill="#000000" font-family="sans-serif" font-size="13" lengthAdjust="spacing" textLength="113.9214" x="317.896" y="829.1138">start main thread</text><polygon fill="#181818" points="497.1245,872.3125,487.1245,876.3125,497.1245,880.3125,493.1245,876.3125" style="stroke:#181818;stroke-width:1.0;"/><line style="stroke:#181818;stroke-width:1.0;" x1="491.1245" x2="630.9961" y1="876.3125" y2="876.3125"/><text fill="#000000" font-family="sans-serif" font-size="13" lengthAdjust="spacing" textLength="47.7915" x="503.1245" y="871.2466">receive</text><polygon fill="#181818" points="619.9961,901.4453,629.9961,905.4453,619.9961,909.4453,623.9961,905.4453" style="stroke:#181818;stroke-width:1.0;"/><line style="stroke:#181818;stroke-width:1.0;" x1="486.1245" x2="625.9961" y1="905.4453" y2="905.4453"/><text fill="#000000" font-family="sans-serif" font-size="13" lengthAdjust="spacing" textLength="41.3486" x="493.1245" y="900.3794">failure</text><line style="stroke:#181818;stroke-width:1.0;" x1="305.896" x2="352.896" y1="934.5781" y2="934.5781"/><line style="stroke:#181818;stroke-width:1.0;" x1="352.896" x2="352.896" y1="934.5781" y2="947.5781"/><line style="stroke:#181818;stroke-width:1.0;" x1="311.896" x2="352.896" y1="947.5781" y2="947.5781"/><polygon fill="#181818" points="321.896,943.5781,311.896,947.5781,321.896,951.5781,317.896,947.5781" style="stroke:#181818;stroke-width:1.0;"/><text fill="#000000" font-family="sans-serif" font-size="13" lengthAdjust="spacing" textLength="114.8291" x="317.896" y="929.5122">queue(heartbeat)</text><polygon fill="#181818" points="474.1245,972.7109,484.1245,976.7109,474.1245,980.7109,478.1245,976.7109" style="stroke:#181818;stroke-width:1.0;"/><line style="stroke:#181818;stroke-width:1.0;" x1="310.896" x2="480.1245" y1="976.7109" y2="976.7109"/><text fill="#000000" font-family="sans-serif" font-size="13" lengthAdjust="spacing" textLength="105.3647" x="317.896" y="971.645">send(heartbeat)</text><polygon fill="#181818" points="497.1245,1001.8438,487.1245,1005.8438,497.1245,1009.8438,493.1245,1005.8438" style="stroke:#181818;stroke-width:1.0;"/><line style="stroke:#181818;stroke-width:1.0;" x1="491.1245" x2="630.9961" y1="1005.8438" y2="1005.8438"/><text fill="#000000" font-family="sans-serif" font-size="13" lengthAdjust="spacing" textLength="47.7915" x="503.1245" y="1000.7778">receive</text><polygon fill="#181818" points="619.9961,1030.9766,629.9961,1034.9766,619.9961,1038.9766,623.9961,1034.9766" style="stroke:#181818;stroke-width:1.0;"/><line style="stroke:#181818;stroke-width:1.0;" x1="486.1245" x2="625.9961" y1="1034.9766" y2="1034.9766"/><text fill="#000000" font-family="sans-serif" font-size="13" lengthAdjust="spacing" textLength="50.8511" x="493.1245" y="1029.9106">success</text><polygon fill="#181818" points="321.896,1060.1094,311.896,1064.1094,321.896,1068.1094,317.896,1064.1094" style="stroke:#181818;stroke-width:1.0;"/><line style="stroke:#181818;stroke-width:1.0;" x1="315.896" x2="485.1245" y1="1064.1094" y2="1064.1094"/><text fill="#000000" font-family="sans-serif" font-size="13" lengthAdjust="spacing" textLength="50.8511" x="327.896" y="1059.0435">success</text><path d="M107.3096,1077.1094 L107.3096,1102.1094 L300.3096,1102.1094 L300.3096,1087.1094 L290.3096,1077.1094 L107.3096,1077.1094 " fill="#FEFFDD" style="stroke:#181818;stroke-width:0.5;"/><path d="M290.3096,1077.1094 L290.3096,1087.1094 L300.3096,1087.1094 L290.3096,1077.1094 " fill="#FEFFDD" style="stroke:#181818;stroke-width:0.5;"/><text fill="#000000" font-family="sans-serif" font-size="13" lengthAdjust="spacing" textLength="172.5864" x="113.3096" y="1094.1763">Each external call is async</text><ellipse cx="10.5" cy="1127.625" fill="none" rx="4" ry="4" style="stroke:#181818;stroke-width:1.5;"/><polygon fill="#181818" points="288.896,1124.375,298.896,1128.375,288.896,1132.375,292.896,1128.375" style="stroke:#181818;stroke-width:1.0;"/><line style="stroke:#181818;stroke-width:1.0;" x1="15" x2="294.896" y1="1128.375" y2="1128.375"/><text fill="#000000" font-family="sans-serif" font-size="13" lengthAdjust="spacing" textLength="94.3325" x="200.5635" y="1123.3091">create contact</text><line style="stroke:#181818;stroke-width:1.0;" x1="310.896" x2="352.896" y1="1157.5078" y2="1157.5078"/><line style="stroke:#181818;stroke-width:1.0;" x1="352.896" x2="352.896" y1="1157.5078" y2="1170.5078"/><line style="stroke:#181818;stroke-width:1.0;" x1="305.896" x2="352.896" y1="1170.5078" y2="1170.5078"/><polygon fill="#181818" points="315.896,1166.5078,305.896,1170.5078,315.896,1174.5078,311.896,1170.5078" style="stroke:#181818;stroke-width:1.0;"/><text fill="#000000" font-family="sans-serif" font-size="13" lengthAdjust="spacing" textLength="145.2026" x="317.896" y="1152.4419">queue(create contact)</text><ellipse cx="10.5" cy="1198.8906" fill="none" rx="4" ry="4" style="stroke:#181818;stroke-width:1.5;"/><polygon fill="#181818" points="288.896,1195.6406,298.896,1199.6406,288.896,1203.6406,292.896,1199.6406" style="stroke:#181818;stroke-width:1.0;"/><line style="stroke:#181818;stroke-width:1.0;" x1="15" x2="294.896" y1="1199.6406" y2="1199.6406"/><text fill="#000000" font-family="sans-serif" font-size="13" lengthAdjust="spacing" textLength="105.3584" x="189.5376" y="1194.5747">activate contact</text><line style="stroke:#181818;stroke-width:1.0;" x1="310.896" x2="352.896" y1="1228.7734" y2="1228.7734"/><line style="stroke:#181818;stroke-width:1.0;" x1="352.896" x2="352.896" y1="1228.7734" y2="1241.7734"/><line style="stroke:#181818;stroke-width:1.0;" x1="305.896" x2="352.896" y1="1241.7734" y2="1241.7734"/><polygon fill="#181818" points="315.896,1237.7734,305.896,1241.7734,315.896,1245.7734,311.896,1241.7734" style="stroke:#181818;stroke-width:1.0;"/><text fill="#000000" font-family="sans-serif" font-size="13" lengthAdjust="spacing" textLength="156.2285" x="317.896" y="1223.7075">queue(activate contact)</text><path d="M99.8511,1254.7734 L99.8511,1309.7734 L300.8511,1309.7734 L300.8511,1264.7734 L290.8511,1254.7734 L99.8511,1254.7734 " fill="#FEFFDD" style="stroke:#181818;stroke-width:0.5;"/><path d="M290.8511,1254.7734 L290.8511,1264.7734 L300.8511,1264.7734 L290.8511,1254.7734 " fill="#FEFFDD" style="stroke:#181818;stroke-width:0.5;"/><text fill="#000000" font-family="sans-serif" font-size="13" lengthAdjust="spacing" textLength="162.2778" x="105.8511" y="1271.8403">Up to three attempts are</text><text fill="#000000" font-family="sans-serif" font-size="13" lengthAdjust="spacing" textLength="180.0449" x="105.8511" y="1286.9731">made to send any message</text><text fill="#000000" font-family="sans-serif" font-size="13" lengthAdjust="spacing" textLength="165.3691" x="105.8511" y="1302.106">after last successful send</text><polygon fill="#181818" points="474.1245,1332.3047,484.1245,1336.3047,474.1245,1340.3047,478.1245,1336.3047" style="stroke:#181818;stroke-width:1.0;"/><line style="stroke:#181818;stroke-width:1.0;" x1="310.896" x2="480.1245" y1="1336.3047" y2="1336.3047"/><text fill="#000000" font-family="sans-serif" font-size="13" lengthAdjust="spacing" textLength="135.7383" x="317.896" y="1331.2388">send(create contact)</text><polygon fill="#181818" points="497.1245,1361.4375,487.1245,1365.4375,497.1245,1369.4375,493.1245,1365.4375" style="stroke:#181818;stroke-width:1.0;"/><line style="stroke:#181818;stroke-width:1.0;" x1="491.1245" x2="630.9961" y1="1365.4375" y2="1365.4375"/><text fill="#000000" font-family="sans-serif" font-size="13" lengthAdjust="spacing" textLength="47.7915" x="503.1245" y="1360.3716">receive</text><line style="stroke:#181818;stroke-width:1.0;" x1="310.896" x2="357.896" y1="1394.5703" y2="1394.5703"/><line style="stroke:#181818;stroke-width:1.0;" x1="357.896" x2="357.896" y1="1394.5703" y2="1407.5703"/><line style="stroke:#181818;stroke-width:1.0;" x1="316.896" x2="357.896" y1="1407.5703" y2="1407.5703"/><polygon fill="#181818" points="326.896,1403.5703,316.896,1407.5703,326.896,1411.5703,322.896,1407.5703" style="stroke:#181818;stroke-width:1.0;"/><text fill="#000000" font-family="sans-serif" font-size="13" lengthAdjust="spacing" textLength="114.8291" x="322.896" y="1389.5044">queue(heartbeat)</text><polygon fill="#181818" points="619.9961,1432.7031,629.9961,1436.7031,619.9961,1440.7031,623.9961,1436.7031" style="stroke:#181818;stroke-width:1.0;"/><line style="stroke:#181818;stroke-width:1.0;" x1="486.1245" x2="625.9961" y1="1436.7031" y2="1436.7031"/><text fill="#000000" font-family="sans-serif" font-size="13" lengthAdjust="spacing" textLength="50.8511" x="493.1245" y="1431.6372">success</text><line style="stroke:#181818;stroke-width:1.0;" x1="636.9961" x2="678.9961" y1="1465.8359" y2="1465.8359"/><line style="stroke:#181818;stroke-width:1.0;" x1="678.9961" x2="678.9961" y1="1465.8359" y2="1478.8359"/><line style="stroke:#181818;stroke-width:1.0;" x1="637.9961" x2="678.9961" y1="1478.8359" y2="1478.8359"/><polygon fill="#181818" points="647.9961,1474.8359,637.9961,1478.8359,647.9961,1482.8359,643.9961,1478.8359" style="stroke:#181818;stroke-width:1.0;"/><text fill="#000000" font-family="sans-serif" font-size="13" lengthAdjust="spacing" textLength="94.3325" x="643.9961" y="1460.77">create contact</text><polygon fill="#181818" points="321.896,1503.9688,311.896,1507.9688,321.896,1511.9688,317.896,1507.9688" style="stroke:#181818;stroke-width:1.0;"/><line style="stroke:#181818;stroke-width:1.0;" x1="315.896" x2="485.1245" y1="1507.9688" y2="1507.9688"/><text fill="#000000" font-family="sans-serif" font-size="13" lengthAdjust="spacing" textLength="50.8511" x="327.896" y="1502.9028">success</text><polygon fill="#181818" points="474.1245,1533.1016,484.1245,1537.1016,474.1245,1541.1016,478.1245,1537.1016" style="stroke:#181818;stroke-width:1.0;"/><line style="stroke:#181818;stroke-width:1.0;" x1="310.896" x2="480.1245" y1="1537.1016" y2="1537.1016"/><text fill="#000000" font-family="sans-serif" font-size="13" lengthAdjust="spacing" textLength="146.7642" x="317.896" y="1532.0356">send(activate contact)</text><polygon fill="#181818" points="497.1245,1562.2344,487.1245,1566.2344,497.1245,1570.2344,493.1245,1566.2344" style="stroke:#181818;stroke-width:1.0;"/><line style="stroke:#181818;stroke-width:1.0;" x1="491.1245" x2="630.9961" y1="1566.2344" y2="1566.2344"/><text fill="#000000" font-family="sans-serif" font-size="13" lengthAdjust="spacing" textLength="47.7915" x="503.1245" y="1561.1685">receive</text><polygon fill="#181818" points="619.9961,1591.3672,629.9961,1595.3672,619.9961,1599.3672,623.9961,1595.3672" style="stroke:#181818;stroke-width:1.0;"/><line style="stroke:#181818;stroke-width:1.0;" x1="486.1245" x2="625.9961" y1="1595.3672" y2="1595.3672"/><text fill="#000000" font-family="sans-serif" font-size="13" lengthAdjust="spacing" textLength="50.8511" x="493.1245" y="1590.3013">success</text><line style="stroke:#181818;stroke-width:1.0;" x1="636.9961" x2="678.9961" y1="1624.5" y2="1624.5"/><line style="stroke:#181818;stroke-width:1.0;" x1="678.9961" x2="678.9961" y1="1624.5" y2="1637.5"/><line style="stroke:#181818;stroke-width:1.0;" x1="637.9961" x2="678.9961" y1="1637.5" y2="1637.5"/><polygon fill="#181818" points="647.9961,1633.5,637.9961,1637.5,647.9961,1641.5,643.9961,1637.5" style="stroke:#181818;stroke-width:1.0;"/><text fill="#000000" font-family="sans-serif" font-size="13" lengthAdjust="spacing" textLength="105.3584" x="643.9961" y="1619.4341">activate contact</text><polygon fill="#181818" points="321.896,1662.6328,311.896,1666.6328,321.896,1670.6328,317.896,1666.6328" style="stroke:#181818;stroke-width:1.0;"/><line style="stroke:#181818;stroke-width:1.0;" x1="315.896" x2="485.1245" y1="1666.6328" y2="1666.6328"/><text fill="#000000" font-family="sans-serif" font-size="13" lengthAdjust="spacing" textLength="50.8511" x="327.896" y="1661.5669">success</text><ellipse cx="10.5" cy="1695.0156" fill="none" rx="4" ry="4" style="stroke:#181818;stroke-width:1.5;"/><polygon fill="#181818" points="293.896,1691.7656,303.896,1695.7656,293.896,1699.7656,297.896,1695.7656" style="stroke:#181818;stroke-width:1.0;"/><line style="stroke:#181818;stroke-width:1.0;" x1="15" x2="299.896" y1="1695.7656" y2="1695.7656"/><text fill="#000000" font-family="sans-serif" font-size="13" lengthAdjust="spacing" textLength="28.0757" x="266.8203" y="1690.6997">stop</text><polygon fill="#181818" points="474.1245,1720.8984,484.1245,1724.8984,474.1245,1728.8984,478.1245,1724.8984" style="stroke:#181818;stroke-width:1.0;"/><line style="stroke:#181818;stroke-width:1.0;" x1="310.896" x2="480.1245" y1="1724.8984" y2="1724.8984"/><text fill="#000000" font-family="sans-serif" font-size="13" lengthAdjust="spacing" textLength="105.3647" x="317.896" y="1719.8325">send(heartbeat)</text><polygon fill="#181818" points="497.1245,1750.0313,487.1245,1754.0313,497.1245,1758.0313,493.1245,1754.0313" style="stroke:#181818;stroke-width:1.0;"/><line style="stroke:#181818;stroke-width:1.0;" x1="491.1245" x2="630.9961" y1="1754.0313" y2="1754.0313"/><text fill="#000000" font-family="sans-serif" font-size="13" lengthAdjust="spacing" textLength="47.7915" x="503.1245" y="1748.9653">receive</text><polygon fill="#181818" points="619.9961,1779.1641,629.9961,1783.1641,619.9961,1787.1641,623.9961,1783.1641" style="stroke:#181818;stroke-width:1.0;"/><line style="stroke:#181818;stroke-width:1.0;" x1="486.1245" x2="625.9961" y1="1783.1641" y2="1783.1641"/><text fill="#000000" font-family="sans-serif" font-size="13" lengthAdjust="spacing" textLength="50.8511" x="493.1245" y="1778.0981">success</text><polygon fill="#181818" points="321.896,1808.2969,311.896,1812.2969,321.896,1816.2969,317.896,1812.2969" style="stroke:#181818;stroke-width:1.0;"/><line style="stroke:#181818;stroke-width:1.0;" x1="315.896" x2="485.1245" y1="1812.2969" y2="1812.2969"/><text fill="#000000" font-family="sans-serif" font-size="13" lengthAdjust="spacing" textLength="50.8511" x="327.896" y="1807.231">success</text><polygon fill="#181818" points="474.1245,1837.4297,484.1245,1841.4297,474.1245,1845.4297,478.1245,1841.4297" style="stroke:#181818;stroke-width:1.0;"/><line style="stroke:#181818;stroke-width:1.0;" x1="310.896" x2="480.1245" y1="1841.4297" y2="1841.4297"/><text fill="#000000" font-family="sans-serif" font-size="13" lengthAdjust="spacing" textLength="97.7603" x="317.896" y="1836.3638">send(goodbye)</text><polygon fill="#181818" points="497.1245,1866.5625,487.1245,1870.5625,497.1245,1874.5625,493.1245,1870.5625" style="stroke:#181818;stroke-width:1.0;"/><line style="stroke:#181818;stroke-width:1.0;" x1="491.1245" x2="630.9961" y1="1870.5625" y2="1870.5625"/><text fill="#000000" font-family="sans-serif" font-size="13" lengthAdjust="spacing" textLength="47.7915" x="503.1245" y="1865.4966">receive</text><polygon fill="#181818" points="619.9961,1895.6953,629.9961,1899.6953,619.9961,1903.6953,623.9961,1899.6953" style="stroke:#181818;stroke-width:1.0;"/><line style="stroke:#181818;stroke-width:1.0;" x1="486.1245" x2="625.9961" y1="1899.6953" y2="1899.6953"/><text fill="#000000" font-family="sans-serif" font-size="13" lengthAdjust="spacing" textLength="50.8511" x="493.1245" y="1894.6294">success</text><polygon fill="#181818" points="321.896,1924.8281,311.896,1928.8281,321.896,1932.8281,317.896,1928.8281" style="stroke:#181818;stroke-width:1.0;"/><line style="stroke:#181818;stroke-width:1.0;" x1="315.896" x2="485.1245" y1="1928.8281" y2="1928.8281"/><text fill="#000000" font-family="sans-serif" font-size="13" lengthAdjust="spacing" textLength="50.8511" x="327.896" y="1923.7622">success</text><line style="stroke:#181818;stroke-width:1.0;" x1="636.9961" x2="678.9961" y1="1957.9609" y2="1957.9609"/><line style="stroke:#181818;stroke-width:1.0;" x1="678.9961" x2="678.9961" y1="1957.9609" y2="1970.9609"/><line style="stroke:#181818;stroke-width:1.0;" x1="637.9961" x2="678.9961" y1="1970.9609" y2="1970.9609"/><polygon fill="#181818" points="647.9961,1966.9609,637.9961,1970.9609,647.9961,1974.9609,643.9961,1970.9609" style="stroke:#181818;stroke-width:1.0;"/><text fill="#000000" font-family="sans-serif" font-size="13" lengthAdjust="spacing" textLength="28.0757" x="643.9961" y="1952.895">stop</text><line style="stroke:#181818;stroke-width:1.0;" x1="561.5603" x2="561.5603" y1="256.5234" y2="339.9219"/><polygon fill="#181818" points="557.5603,266.5234,561.5603,256.5234,565.5603,266.5234,561.5603,262.5234" style="stroke:#181818;stroke-width:1.0;"/><polygon fill="#181818" points="557.5603,329.9219,561.5603,339.9219,565.5603,329.9219,561.5603,333.9219" style="stroke:#181818;stroke-width:1.0;"/><text fill="#000000" font-family="sans-serif" font-size="13" lengthAdjust="spacing" textLength="56.6528" x="565.5603" y="302.7231">1000 ms</text><line style="stroke:#181818;stroke-width:1.0;" x1="561.5603" x2="561.5603" y1="467.5859" y2="601.25"/><polygon fill="#181818" points="557.5603,477.5859,561.5603,467.5859,565.5603,477.5859,561.5603,473.5859" style="stroke:#181818;stroke-width:1.0;"/><polygon fill="#181818" points="557.5603,591.25,561.5603,601.25,565.5603,591.25,561.5603,595.25" style="stroke:#181818;stroke-width:1.0;"/><text fill="#000000" font-family="sans-serif" font-size="13" lengthAdjust="spacing" textLength="56.6528" x="565.5603" y="538.9185">1000 ms</text><!--SRC=[tLPDRzGm4BtxLmpbqZqWXKClAnQfL5HmG1owFO64lCvaO-7OmNOAQSL_nyvkqatIV46shTYZCvvvxysyyRv8DTqc52ogMx0wGq9IgYrdFANImibwVQ6afSoQ3rI60lLNURfUNrikp5LCDOQVC5cS03NGYgmdsaM32rSwTqckScFlhzOJTa4OKPkGrGe-Icuv5VoMMguah5P4AeiWCBAWeWUGVfOY1oKHg7MWKWi_kH2mGKXeYCGgO1gfo-32GQKemUpO90KRWkxOLo2jpF3gROiTB9lfYBl1R_n9Ey7BoyjtxhTZeFasRb0WroauW16_gT2R4ZxnyFtNFint4TV6VlCXlm_oTY3lWblXRDqfybHXIuWe5vd6WS2I_X9CnXWQGqBiLedS6MHAXfDOr8Y_SO7r94ju7GG196QOKY_4eSxPMED1wroDgcqQ6HPzbRbhcp5qYuH6riaYgB5bsIWJPMIhg_lp4PAK6MRfxO3TplSkSnIDH-oT5wFp_CRPecBgRHSZ-muy0jSNYQnmCwFIEnEDfHl1JOpXTF_vggTLnSKO_vN3CLtHPYiEHwqwd6tQPhMLNwONAaaooLcrIpj4Vg24TG8VDDPFEWrxnGw2ixCWw0VrkACyaMr2kHn3TAj4E9x9W1uZgOpdyYF33CSQP5hFvZFcD0cVbQq6zkDxocB0NsxHIohSmdEFENSlWyabkzzrNrG7XFsV2xRxC6QtJPoBUe55FzTEcDMTum5jbXY0Ej2LmUUwUCk6tseVzfTFLbFv-UpHlokVRctyesdhx0ykDamogxqdjRGzeu_Lr6D9spBshE9sxXDZLVeCtfcZQlvKGxfLAjpa-9_gr3FBnL3rwVW7]--></g></svg>