<svg xmlns="http://www.w3.org/2000/svg" xmlns:xlink="http://www.w3.org/1999/xlink" contentStyleType="text/css" height="436px" preserveAspectRatio="none" style="width:1156px;height:436px;background:#FFFFFF;" version="1.1" viewBox="0 0 1156 436" width="1156px" zoomAndPan="magnify"><defs/><g><!--cluster TTContactsBundle--><g id="cluster_TTContactsBundle"><rect fill="none" height="423" rx="2.5" ry="2.5" style="stroke:#181818;stroke-width:1.0;" width="424" x="7" y="7"/><text fill="#000000" font-family="sans-serif" font-size="14" font-weight="bold" lengthAdjust="spacing" textLength="143.3428" x="147.3286" y="21.9951">TTContactsBundle</text></g><!--cluster TTDiagnosticsBundle--><g id="cluster_TTDiagnosticsBundle"><rect fill="none" height="99" rx="2.5" ry="2.5" style="stroke:#181818;stroke-width:1.0;" width="210" x="940" y="331"/><text fill="#000000" font-family="sans-serif" font-size="14" font-weight="bold" lengthAdjust="spacing" textLength="165.9492" x="962.0254" y="345.9951">TTDiagnosticsBundle</text></g><!--cluster TTUtilsBundle--><g id="cluster_TTUtilsBundle"><rect fill="none" height="207" rx="2.5" ry="2.5" style="stroke:#181818;stroke-width:1.0;" width="411" x="505" y="223"/><text fill="#000000" font-family="sans-serif" font-size="14" font-weight="bold" lengthAdjust="spacing" textLength="110.0107" x="655.4946" y="237.9951">TTUtilsBundle</text></g><!--class TTContacts--><g id="elem_TTContacts"><rect codeLine="2" fill="#F1F1F1" height="48" id="TTContacts" rx="2.5" ry="2.5" style="stroke:#181818;stroke-width:0.5;" width="110.8662" x="275.57" y="42"/><ellipse cx="290.57" cy="58" fill="#ADD1B2" rx="11" ry="11" style="stroke:#181818;stroke-width:1.0;"/><path d="M293.5388,63.6406 Q292.9606,63.9375 292.32,64.0781 Q291.6794,64.2344 290.9763,64.2344 Q288.4763,64.2344 287.1481,62.5938 Q285.8356,60.9375 285.8356,57.8125 Q285.8356,54.6875 287.1481,53.0313 Q288.4763,51.375 290.9763,51.375 Q291.6794,51.375 292.32,51.5313 Q292.9763,51.6875 293.5388,51.9844 L293.5388,54.7031 Q292.9138,54.125 292.32,53.8594 Q291.7263,53.5781 291.1013,53.5781 Q289.7575,53.5781 289.07,54.6563 Q288.3825,55.7188 288.3825,57.8125 Q288.3825,59.9063 289.07,60.9844 Q289.7575,62.0469 291.1013,62.0469 Q291.7263,62.0469 292.32,61.7813 Q292.9138,61.5 293.5388,60.9219 L293.5388,63.6406 Z " fill="#000000"/><text fill="#000000" font-family="sans-serif" font-size="14" lengthAdjust="spacing" textLength="78.8662" x="304.57" y="62.8467">TTContacts</text><line style="stroke:#181818;stroke-width:0.5;" x1="276.57" x2="385.4362" y1="74" y2="74"/><line style="stroke:#181818;stroke-width:0.5;" x1="276.57" x2="385.4362" y1="82" y2="82"/></g><!--class TTContactsMessage--><g id="elem_TTContactsMessage"><rect codeLine="3" fill="#F1F1F1" height="48" id="TTContactsMessage" rx="2.5" ry="2.5" style="stroke:#181818;stroke-width:0.5;" width="172.2256" x="205.89" y="258"/><ellipse cx="220.89" cy="274" fill="#F1F1F1" rx="11" ry="11" style="stroke:#181818;stroke-width:1.0;"/><path d="M220.3744,274.5625 Q218.515,273.8594 217.8588,273.0938 Q217.2181,272.3125 217.2181,271 Q217.2181,269.3125 218.2963,268.3438 Q219.3744,267.375 221.2494,267.375 Q222.1088,267.375 222.9525,267.5781 Q223.8119,267.7656 224.6556,268.1563 L224.6556,270.5469 Q223.8744,269.9844 223.0463,269.7031 Q222.2338,269.4063 221.4369,269.4063 Q220.5619,269.4063 220.0775,269.7656 Q219.6088,270.125 219.6088,270.7813 Q219.6088,271.2969 219.9525,271.6406 Q220.2963,271.9688 221.39,272.375 L222.4525,272.7813 Q223.9369,273.3281 224.64,274.2344 Q225.3588,275.1406 225.3588,276.5156 Q225.3588,278.3906 224.2494,279.3125 Q223.14,280.2344 220.89,280.2344 Q219.9681,280.2344 219.0463,280.0156 Q218.1244,279.7969 217.265,279.375 L217.265,276.8438 Q218.2338,277.5313 219.1556,277.875 Q220.0775,278.2188 220.9681,278.2188 Q221.8744,278.2188 222.3744,277.8125 Q222.8744,277.3906 222.8744,276.6563 Q222.8744,276.0938 222.5306,275.6875 Q222.2025,275.2656 221.5775,275.0156 L220.3744,274.5625 Z " fill="#000000"/><text fill="#000000" font-family="sans-serif" font-size="14" lengthAdjust="spacing" textLength="140.2256" x="234.89" y="278.8467">TTContactsMessage</text><line style="stroke:#181818;stroke-width:0.5;" x1="206.89" x2="377.1156" y1="290" y2="290"/><line style="stroke:#181818;stroke-width:0.5;" x1="206.89" x2="377.1156" y1="298" y2="298"/></g><!--class TTContactsEntry--><g id="elem_TTContactsEntry"><rect codeLine="4" fill="#F1F1F1" height="48" id="TTContactsEntry" rx="2.5" ry="2.5" style="stroke:#181818;stroke-width:0.5;" width="148.1152" x="22.94" y="258"/><ellipse cx="37.94" cy="274" fill="#F1F1F1" rx="11" ry="11" style="stroke:#181818;stroke-width:1.0;"/><path d="M37.4244,274.5625 Q35.565,273.8594 34.9088,273.0938 Q34.2681,272.3125 34.2681,271 Q34.2681,269.3125 35.3463,268.3438 Q36.4244,267.375 38.2994,267.375 Q39.1588,267.375 40.0025,267.5781 Q40.8619,267.7656 41.7056,268.1563 L41.7056,270.5469 Q40.9244,269.9844 40.0963,269.7031 Q39.2838,269.4063 38.4869,269.4063 Q37.6119,269.4063 37.1275,269.7656 Q36.6588,270.125 36.6588,270.7813 Q36.6588,271.2969 37.0025,271.6406 Q37.3463,271.9688 38.44,272.375 L39.5025,272.7813 Q40.9869,273.3281 41.69,274.2344 Q42.4088,275.1406 42.4088,276.5156 Q42.4088,278.3906 41.2994,279.3125 Q40.19,280.2344 37.94,280.2344 Q37.0181,280.2344 36.0963,280.0156 Q35.1744,279.7969 34.315,279.375 L34.315,276.8438 Q35.2838,277.5313 36.2056,277.875 Q37.1275,278.2188 38.0181,278.2188 Q38.9244,278.2188 39.4244,277.8125 Q39.9244,277.3906 39.9244,276.6563 Q39.9244,276.0938 39.5806,275.6875 Q39.2525,275.2656 38.6275,275.0156 L37.4244,274.5625 Z " fill="#000000"/><text fill="#000000" font-family="sans-serif" font-size="14" lengthAdjust="spacing" textLength="116.1152" x="51.94" y="278.8467">TTContactsEntry</text><line style="stroke:#181818;stroke-width:0.5;" x1="23.94" x2="170.0552" y1="290" y2="290"/><line style="stroke:#181818;stroke-width:0.5;" x1="23.94" x2="170.0552" y1="298" y2="298"/></g><!--class TTContactsSettings--><g id="elem_TTContactsSettings"><rect codeLine="5" fill="#F1F1F1" height="48" id="TTContactsSettings" rx="2.5" ry="2.5" style="stroke:#181818;stroke-width:0.5;" width="168.2881" x="246.86" y="150"/><ellipse cx="261.86" cy="166" fill="#ADD1B2" rx="11" ry="11" style="stroke:#181818;stroke-width:1.0;"/><path d="M264.8288,171.6406 Q264.2506,171.9375 263.61,172.0781 Q262.9694,172.2344 262.2663,172.2344 Q259.7663,172.2344 258.4381,170.5938 Q257.1256,168.9375 257.1256,165.8125 Q257.1256,162.6875 258.4381,161.0313 Q259.7663,159.375 262.2663,159.375 Q262.9694,159.375 263.61,159.5313 Q264.2663,159.6875 264.8288,159.9844 L264.8288,162.7031 Q264.2038,162.125 263.61,161.8594 Q263.0163,161.5781 262.3913,161.5781 Q261.0475,161.5781 260.36,162.6563 Q259.6725,163.7188 259.6725,165.8125 Q259.6725,167.9063 260.36,168.9844 Q261.0475,170.0469 262.3913,170.0469 Q263.0163,170.0469 263.61,169.7813 Q264.2038,169.5 264.8288,168.9219 L264.8288,171.6406 Z " fill="#000000"/><text fill="#000000" font-family="sans-serif" font-size="14" lengthAdjust="spacing" textLength="136.2881" x="275.86" y="170.8467">TTContactsSettings</text><line style="stroke:#181818;stroke-width:0.5;" x1="247.86" x2="414.1481" y1="182" y2="182"/><line style="stroke:#181818;stroke-width:0.5;" x1="247.86" x2="414.1481" y1="190" y2="190"/></g><!--class TTContactsStatus--><g id="elem_TTContactsStatus"><rect codeLine="6" fill="#F1F1F1" height="48" id="TTContactsStatus" rx="2.5" ry="2.5" style="stroke:#181818;stroke-width:0.5;" width="155.4775" x="236.26" y="366"/><ellipse cx="251.26" cy="382" fill="#EB937F" rx="11" ry="11" style="stroke:#181818;stroke-width:1.0;"/><path d="M255.3694,388 L247.6506,388 L247.6506,375.6094 L255.3694,375.6094 L255.3694,377.7656 L250.1038,377.7656 L250.1038,380.4375 L254.8694,380.4375 L254.8694,382.5938 L250.1038,382.5938 L250.1038,385.8438 L255.3694,385.8438 L255.3694,388 Z " fill="#000000"/><text fill="#000000" font-family="sans-serif" font-size="14" lengthAdjust="spacing" textLength="123.4775" x="265.26" y="386.8467">TTContactsStatus</text><line style="stroke:#181818;stroke-width:0.5;" x1="237.26" x2="390.7375" y1="398" y2="398"/><line style="stroke:#181818;stroke-width:0.5;" x1="237.26" x2="390.7375" y1="406" y2="406"/></g><!--class TTContactsState--><g id="elem_TTContactsState"><rect codeLine="7" fill="#F1F1F1" height="48" id="TTContactsState" rx="2.5" ry="2.5" style="stroke:#181818;stroke-width:0.5;" width="147.9238" x="49.04" y="366"/><ellipse cx="64.04" cy="382" fill="#EB937F" rx="11" ry="11" style="stroke:#181818;stroke-width:1.0;"/><path d="M68.1494,388 L60.4306,388 L60.4306,375.6094 L68.1494,375.6094 L68.1494,377.7656 L62.8837,377.7656 L62.8837,380.4375 L67.6494,380.4375 L67.6494,382.5938 L62.8837,382.5938 L62.8837,385.8438 L68.1494,385.8438 L68.1494,388 Z " fill="#000000"/><text fill="#000000" font-family="sans-serif" font-size="14" lengthAdjust="spacing" textLength="115.9238" x="78.04" y="386.8467">TTContactsState</text><line style="stroke:#181818;stroke-width:0.5;" x1="50.04" x2="195.9638" y1="398" y2="398"/><line style="stroke:#181818;stroke-width:0.5;" x1="50.04" x2="195.9638" y1="406" y2="406"/></g><!--class TTDiagnosticsLogger--><g id="elem_TTDiagnosticsLogger"><rect codeLine="11" fill="#F1F1F1" height="48" id="TTDiagnosticsLogger" rx="2.5" ry="2.5" style="stroke:#181818;stroke-width:0.5;" width="178.8496" x="955.58" y="366"/><ellipse cx="970.58" cy="382" fill="#ADD1B2" rx="11" ry="11" style="stroke:#181818;stroke-width:1.0;"/><path d="M973.5488,387.6406 Q972.9706,387.9375 972.33,388.0781 Q971.6894,388.2344 970.9863,388.2344 Q968.4863,388.2344 967.1581,386.5938 Q965.8456,384.9375 965.8456,381.8125 Q965.8456,378.6875 967.1581,377.0313 Q968.4863,375.375 970.9863,375.375 Q971.6894,375.375 972.33,375.5313 Q972.9863,375.6875 973.5488,375.9844 L973.5488,378.7031 Q972.9238,378.125 972.33,377.8594 Q971.7363,377.5781 971.1113,377.5781 Q969.7675,377.5781 969.08,378.6563 Q968.3925,379.7188 968.3925,381.8125 Q968.3925,383.9063 969.08,384.9844 Q969.7675,386.0469 971.1113,386.0469 Q971.7363,386.0469 972.33,385.7813 Q972.9238,385.5 973.5488,384.9219 L973.5488,387.6406 Z " fill="#000000"/><text fill="#000000" font-family="sans-serif" font-size="14" lengthAdjust="spacing" textLength="146.8496" x="984.58" y="386.8467">TTDiagnosticsLogger</text><line style="stroke:#181818;stroke-width:0.5;" x1="956.58" x2="1133.4296" y1="398" y2="398"/><line style="stroke:#181818;stroke-width:0.5;" x1="956.58" x2="1133.4296" y1="406" y2="406"/></g><!--class TTUtilsOutputStream--><g id="elem_TTUtilsOutputStream"><rect codeLine="15" fill="#F1F1F1" height="48" id="TTUtilsOutputStream" rx="2.5" ry="2.5" style="stroke:#181818;stroke-width:0.5;" width="179.5059" x="720.25" y="258"/><ellipse cx="735.25" cy="274" fill="#ADD1B2" rx="11" ry="11" style="stroke:#181818;stroke-width:1.0;"/><path d="M738.2188,279.6406 Q737.6406,279.9375 737,280.0781 Q736.3594,280.2344 735.6563,280.2344 Q733.1563,280.2344 731.8281,278.5938 Q730.5156,276.9375 730.5156,273.8125 Q730.5156,270.6875 731.8281,269.0313 Q733.1563,267.375 735.6563,267.375 Q736.3594,267.375 737,267.5313 Q737.6563,267.6875 738.2188,267.9844 L738.2188,270.7031 Q737.5938,270.125 737,269.8594 Q736.4063,269.5781 735.7813,269.5781 Q734.4375,269.5781 733.75,270.6563 Q733.0625,271.7188 733.0625,273.8125 Q733.0625,275.9063 733.75,276.9844 Q734.4375,278.0469 735.7813,278.0469 Q736.4063,278.0469 737,277.7813 Q737.5938,277.5 738.2188,276.9219 L738.2188,279.6406 Z " fill="#000000"/><text fill="#000000" font-family="sans-serif" font-size="14" lengthAdjust="spacing" textLength="147.5059" x="749.25" y="278.8467">TTUtilsOutputStream</text><line style="stroke:#181818;stroke-width:0.5;" x1="721.25" x2="898.7559" y1="290" y2="290"/><line style="stroke:#181818;stroke-width:0.5;" x1="721.25" x2="898.7559" y1="298" y2="298"/></g><!--class TTUtilsSyscall--><g id="elem_TTUtilsSyscall"><rect codeLine="16" fill="#F1F1F1" height="48" id="TTUtilsSyscall" rx="2.5" ry="2.5" style="stroke:#181818;stroke-width:0.5;" width="128.4346" x="529.78" y="366"/><ellipse cx="544.78" cy="382" fill="#ADD1B2" rx="11" ry="11" style="stroke:#181818;stroke-width:1.0;"/><path d="M547.7488,387.6406 Q547.1706,387.9375 546.53,388.0781 Q545.8894,388.2344 545.1863,388.2344 Q542.6863,388.2344 541.3581,386.5938 Q540.0456,384.9375 540.0456,381.8125 Q540.0456,378.6875 541.3581,377.0313 Q542.6863,375.375 545.1863,375.375 Q545.8894,375.375 546.53,375.5313 Q547.1863,375.6875 547.7488,375.9844 L547.7488,378.7031 Q547.1238,378.125 546.53,377.8594 Q545.9363,377.5781 545.3113,377.5781 Q543.9675,377.5781 543.28,378.6563 Q542.5925,379.7188 542.5925,381.8125 Q542.5925,383.9063 543.28,384.9844 Q543.9675,386.0469 545.3113,386.0469 Q545.9363,386.0469 546.53,385.7813 Q547.1238,385.5 547.7488,384.9219 L547.7488,387.6406 Z " fill="#000000"/><text fill="#000000" font-family="sans-serif" font-size="14" lengthAdjust="spacing" textLength="96.4346" x="558.78" y="386.8467">TTUtilsSyscall</text><line style="stroke:#181818;stroke-width:0.5;" x1="530.78" x2="657.2146" y1="398" y2="398"/><line style="stroke:#181818;stroke-width:0.5;" x1="530.78" x2="657.2146" y1="406" y2="406"/></g><!--class TTUtilsSharedMem--><g id="elem_TTUtilsSharedMem"><rect codeLine="17" fill="#F1F1F1" height="48" id="TTUtilsSharedMem" rx="2.5" ry="2.5" style="stroke:#181818;stroke-width:0.5;" width="163.8379" x="521.08" y="258"/><ellipse cx="536.08" cy="274" fill="#ADD1B2" rx="11" ry="11" style="stroke:#181818;stroke-width:1.0;"/><path d="M539.0488,279.6406 Q538.4706,279.9375 537.83,280.0781 Q537.1894,280.2344 536.4863,280.2344 Q533.9863,280.2344 532.6581,278.5938 Q531.3456,276.9375 531.3456,273.8125 Q531.3456,270.6875 532.6581,269.0313 Q533.9863,267.375 536.4863,267.375 Q537.1894,267.375 537.83,267.5313 Q538.4863,267.6875 539.0488,267.9844 L539.0488,270.7031 Q538.4238,270.125 537.83,269.8594 Q537.2363,269.5781 536.6113,269.5781 Q535.2675,269.5781 534.58,270.6563 Q533.8925,271.7188 533.8925,273.8125 Q533.8925,275.9063 534.58,276.9844 Q535.2675,278.0469 536.6113,278.0469 Q537.2363,278.0469 537.83,277.7813 Q538.4238,277.5 539.0488,276.9219 L539.0488,279.6406 Z " fill="#000000"/><text fill="#000000" font-family="sans-serif" font-size="14" lengthAdjust="spacing" textLength="131.8379" x="550.08" y="278.8467">TTUtilsSharedMem</text><line style="stroke:#181818;stroke-width:0.5;" x1="522.08" x2="683.9179" y1="290" y2="290"/><line style="stroke:#181818;stroke-width:0.5;" x1="522.08" x2="683.9179" y1="298" y2="298"/></g><!--reverse link TTContacts to TTUtilsOutputStream--><g id="link_TTContacts_TTUtilsOutputStream"><path codeLine="20" d="M397.9689,89.8267 C471.6689,115.5667 593.63,160.76 702,215 C727.35,227.69 754.57,244.35 775.35,257.75 " fill="none" id="TTContacts-backto-TTUtilsOutputStream" style="stroke:#181818;stroke-width:1.0;"/><polygon fill="none" points="386.64,85.87,390.9856,91.6246,397.9689,89.8267,393.6234,84.072,386.64,85.87" style="stroke:#181818;stroke-width:1.0;"/></g><!--reverse link TTContacts to TTUtilsSharedMem--><g id="link_TTContacts_TTUtilsSharedMem"><path codeLine="21" d="M370.0613,97.7296 C422.3813,138.8896 521.11,216.58 573.41,257.72 " fill="none" id="TTContacts-backto-TTUtilsSharedMem" style="stroke:#181818;stroke-width:1.0;"/><polygon fill="none" points="360.63,90.31,362.8725,97.1636,370.0613,97.7296,367.8189,90.876,360.63,90.31" style="stroke:#181818;stroke-width:1.0;"/></g><!--reverse link TTContacts to TTContactsStatus--><g id="link_TTContacts_TTContactsStatus"><path codeLine="22" d="M281.2141,96.8787 C240.2541,123.7287 196.64,162.17 229,198 C254.01,225.68 370.99,187.32 396,215 C423.11,245.01 411.36,268.59 396,306 C386.07,330.17 365.33,351.06 347.19,365.83 " fill="none" id="TTContacts-backto-TTContactsStatus" style="stroke:#181818;stroke-width:1.0;"/><polygon fill="none" points="291.25,90.3,284.0391,90.2441,281.2141,96.8787,288.4249,96.9347,291.25,90.3" style="stroke:#181818;stroke-width:1.0;"/></g><!--reverse link TTContacts to TTContactsEntry--><g id="link_TTContacts_TTContactsEntry"><path codeLine="23" d="M267.2324,95.7477 C238.2724,110.1977 213.71,125.33 187,150 C152.34,182.02 123.83,229.71 108.71,257.85 " fill="none" id="TTContacts-backto-TTContactsEntry" style="stroke:#181818;stroke-width:1.0;"/><polygon fill="#181818" points="277.97,90.39,270.8153,89.4896,267.2324,95.7477,274.3871,96.648,277.97,90.39" style="stroke:#181818;stroke-width:1.0;"/></g><!--reverse link TTContacts to TTDiagnosticsLogger--><g id="link_TTContacts_TTDiagnosticsLogger"><path codeLine="24" d="M392.7506,69.2164 C502.9706,75.4064 746.72,101.58 916,215 C973.95,253.83 1015.65,327.75 1034.22,365.51 " fill="none" id="TTContacts-backto-TTDiagnosticsLogger" style="stroke:#181818;stroke-width:1.0;stroke-dasharray:7.0,7.0;"/><polygon fill="#181818" points="386.76,68.88,395.5216,73.3784,391.7521,69.1604,395.9701,65.3909,386.76,68.88" style="stroke:#181818;stroke-width:1.0;"/></g><!--reverse link TTContacts to TTContactsSettings--><g id="link_TTContacts_TTContactsSettings"><path codeLine="25" d="M331,96.26 C331,113.94 331,132.13 331,149.79 " fill="none" id="TTContacts-backto-TTContactsSettings" style="stroke:#181818;stroke-width:1.0;stroke-dasharray:7.0,7.0;"/><polygon fill="#181818" points="331,90.26,327,99.26,331,95.26,335,99.26,331,90.26" style="stroke:#181818;stroke-width:1.0;"/></g><!--reverse link TTContacts to TTContactsMessage--><g id="link_TTContacts_TTContactsMessage"><path codeLine="26" d="M269.6995,90.4449 C242.4495,103.7649 217.63,121.36 202,150 C191.78,168.73 193.44,178.46 202,198 C212.75,222.53 234.72,243.02 254.26,257.5 " fill="none" id="TTContacts-backto-TTContactsMessage" style="stroke:#181818;stroke-width:1.0;stroke-dasharray:7.0,7.0;"/><polygon fill="#181818" points="275.09,87.81,265.2477,88.1687,270.5979,90.0058,268.7609,95.356,275.09,87.81" style="stroke:#181818;stroke-width:1.0;"/></g><!--reverse link TTContactsSettings to TTUtilsSyscall--><g id="link_TTContactsSettings_TTUtilsSyscall"><path codeLine="27" d="M400.2272,201.0615 C410.0572,205.8815 414.4,208.77 423,215 C466.85,246.76 466.05,267.38 504,306 C524.56,326.92 549.1,349.41 567.37,365.69 " fill="none" id="TTContactsSettings-backto-TTUtilsSyscall" style="stroke:#181818;stroke-width:1.0;stroke-dasharray:7.0,7.0;"/><polygon fill="#181818" points="394.84,198.42,401.1598,205.9738,399.3294,200.6213,404.6819,198.7908,394.84,198.42" style="stroke:#181818;stroke-width:1.0;"/></g><!--reverse link TTContactsSettings to TTUtilsSharedMem--><g id="link_TTContactsSettings_TTUtilsSharedMem"><path codeLine="28" d="M421.3182,191.9741 C447.0482,198.0741 469.23,204.74 494,215 C521.18,226.26 549.54,243.63 570.52,257.73 " fill="none" id="TTContactsSettings-backto-TTUtilsSharedMem" style="stroke:#181818;stroke-width:1.0;stroke-dasharray:7.0,7.0;"/><polygon fill="#181818" points="415.48,190.59,423.3145,196.5583,420.3451,191.7434,425.16,188.774,415.48,190.59" style="stroke:#181818;stroke-width:1.0;"/></g><!--reverse link TTContactsSettings to TTContactsMessage--><g id="link_TTContactsSettings_TTContactsMessage"><path codeLine="29" d="M320.3696,203.8915 C313.8696,221.5715 307.04,240.13 300.54,257.79 " fill="none" id="TTContactsSettings-backto-TTContactsMessage" style="stroke:#181818;stroke-width:1.0;stroke-dasharray:7.0,7.0;"/><polygon fill="#181818" points="322.44,198.26,315.5801,205.3269,320.7147,202.9529,323.0887,208.0875,322.44,198.26" style="stroke:#181818;stroke-width:1.0;"/></g><!--reverse link TTContactsMessage to TTContactsStatus--><g id="link_TTContactsMessage_TTContactsStatus"><path codeLine="30" d="M299.269,318.0095 C302.939,335.6895 305.52,348.13 309.18,365.79 " fill="none" id="TTContactsMessage-backto-TTContactsStatus" style="stroke:#181818;stroke-width:1.0;"/><polygon fill="none" points="296.83,306.26,294.133,312.9478,299.269,318.0095,301.966,311.3218,296.83,306.26" style="stroke:#181818;stroke-width:1.0;"/></g><!--reverse link TTContactsMessage to TTContactsState--><g id="link_TTContactsMessage_TTContactsState"><path codeLine="31" d="M237.0834,312.2256 C227.5534,317.5056 228.11,317.39 219,323 C197.3,336.36 173.7,352.56 155.34,365.56 " fill="none" id="TTContactsMessage-backto-TTContactsState" style="stroke:#181818;stroke-width:1.0;"/><polygon fill="none" points="247.58,306.41,240.3932,305.8189,237.0834,312.2256,244.2702,312.8167,247.58,306.41" style="stroke:#181818;stroke-width:1.0;"/></g><!--reverse link TTUtilsSharedMem to TTUtilsSyscall--><g id="link_TTUtilsSharedMem_TTUtilsSyscall"><path codeLine="32" d="M600.0055,318.217 C598.5055,335.897 597.47,348.13 595.97,365.79 " fill="none" id="TTUtilsSharedMem-backto-TTUtilsSyscall" style="stroke:#181818;stroke-width:1.0;"/><polygon fill="none" points="601.02,306.26,596.5271,311.9004,600.0055,318.217,604.4985,312.5767,601.02,306.26" style="stroke:#181818;stroke-width:1.0;"/></g><!--reverse link TTUtilsSharedMem to TTDiagnosticsLogger--><g id="link_TTUtilsSharedMem_TTDiagnosticsLogger"><path codeLine="33" d="M691.1127,304.0394 C697.1127,305.1894 697.19,305.1 703,306 C796.86,320.46 824.63,297.1 916,323 C949.16,332.4 983.77,350.64 1008.79,365.57 " fill="none" id="TTUtilsSharedMem-backto-TTDiagnosticsLogger" style="stroke:#181818;stroke-width:1.0;stroke-dasharray:7.0,7.0;"/><polygon fill="#181818" points="685.22,302.91,693.3061,308.5327,690.1306,303.8512,694.8121,300.6757,685.22,302.91" style="stroke:#181818;stroke-width:1.0;"/></g><!--reverse link TTContactsEntry to TTContactsState--><g id="link_TTContactsEntry_TTContactsState"><path codeLine="34" d="M105.5646,317.9155 C109.8946,335.5955 112.98,348.13 117.31,365.79 " fill="none" id="TTContactsEntry-backto-TTContactsState" style="stroke:#181818;stroke-width:1.0;"/><polygon fill="none" points="102.71,306.26,100.2521,313.0393,105.5646,317.9155,108.0225,311.1363,102.71,306.26" style="stroke:#181818;stroke-width:1.0;"/></g><!--SRC=[XP9D3i8W48NtFGLh4tk2fWj_TZOcLWymmGasKjh0i336kskrAXGQjkzzlFcZ1tu5WUnuN7UAW9DPMNMMo8hYW9n02ObboUuPOro2CGxuaWnfoydHAZJc5HUpjehqBH9J8r6Zn127ohQkGq1sHiViaMNzh_bD0q9rXXgUxjzXTvqGgFse4pKo7VAczfPwIpLfX7RgrJV3GSf0le36SuNjKFG_4kkMosXg7Fcd1FvaUOw_yFpFEHoxoFFeSW8aEDmiyVqDuPiHz3QLe28ZJxZvigEIMj4yDeJvRNZd-4qmOT8xVPyXLl09]--></g></svg>