<svg xmlns="http://www.w3.org/2000/svg" xmlns:xlink="http://www.w3.org/1999/xlink" contentStyleType="text/css" height="901px" preserveAspectRatio="none" style="width:751px;height:901px;background:#FFFFFF;" version="1.1" viewBox="0 0 751 901" width="751px" zoomAndPan="magnify"><defs/><g><g id="ACTIVE"><rect fill="#F1F1F1" height="64.2344" rx="12.5" ry="12.5" style="stroke:#181818;stroke-width:0.5;" width="227.7617" x="281.12" y="86"/><line style="stroke:#181818;stroke-width:0.5;" x1="281.12" x2="508.8817" y1="112.2969" y2="112.2969"/><text fill="#000000" font-family="sans-serif" font-size="14" lengthAdjust="spacing" textLength="50.4561" x="369.7728" y="103.9951">ACTIVE</text><text fill="#000000" font-family="sans-serif" font-size="12" lengthAdjust="spacing" textLength="207.7617" x="286.12" y="128.4355">Active contact, no unread/pending</text><text fill="#000000" font-family="sans-serif" font-size="12" lengthAdjust="spacing" textLength="141.9316" x="286.12" y="142.4043">messages, not selected</text></g><g id="INACTIVE"><rect fill="#F1F1F1" height="64.2344" rx="12.5" ry="12.5" style="stroke:#181818;stroke-width:0.5;" width="238.0508" x="432.97" y="334.47"/><line style="stroke:#181818;stroke-width:0.5;" x1="432.97" x2="671.0208" y1="360.7669" y2="360.7669"/><text fill="#000000" font-family="sans-serif" font-size="14" lengthAdjust="spacing" textLength="65.0576" x="519.4666" y="352.4651">INACTIVE</text><text fill="#000000" font-family="sans-serif" font-size="12" lengthAdjust="spacing" textLength="218.0508" x="437.97" y="376.9055">Inactive contact, no unread/pending</text><text fill="#000000" font-family="sans-serif" font-size="12" lengthAdjust="spacing" textLength="141.9316" x="437.97" y="390.8743">messages, not selected</text></g><g id="SELECTED_ACTIVE"><rect fill="#F1F1F1" height="64.2344" rx="12.5" ry="12.5" style="stroke:#181818;stroke-width:0.5;" width="227.7617" x="41.12" y="831.41"/><line style="stroke:#181818;stroke-width:0.5;" x1="41.12" x2="268.8817" y1="857.7069" y2="857.7069"/><text fill="#000000" font-family="sans-serif" font-size="14" lengthAdjust="spacing" textLength="129.7871" x="90.1073" y="849.4051">SELECTED_ACTIVE</text><text fill="#000000" font-family="sans-serif" font-size="12" lengthAdjust="spacing" textLength="207.7617" x="46.12" y="873.8455">Active contact, no unread/pending</text><text fill="#000000" font-family="sans-serif" font-size="12" lengthAdjust="spacing" textLength="118.4648" x="46.12" y="887.8143">messages, selected</text></g><g id="SELECTED_INACTIVE"><rect fill="#F1F1F1" height="64.2344" rx="12.5" ry="12.5" style="stroke:#181818;stroke-width:0.5;" width="238.0508" x="225.97" y="458.7"/><line style="stroke:#181818;stroke-width:0.5;" x1="225.97" x2="464.0208" y1="484.9969" y2="484.9969"/><text fill="#000000" font-family="sans-serif" font-size="14" lengthAdjust="spacing" textLength="144.3887" x="272.8011" y="476.6951">SELECTED_INACTIVE</text><text fill="#000000" font-family="sans-serif" font-size="12" lengthAdjust="spacing" textLength="218.0508" x="230.97" y="501.1355">Inactive contact, no unread/pending</text><text fill="#000000" font-family="sans-serif" font-size="12" lengthAdjust="spacing" textLength="118.4648" x="230.97" y="515.1043">messages, selected</text></g><g id="UNREAD_MSG_ACTIVE"><rect fill="#F1F1F1" height="64.2344" rx="12.5" ry="12.5" style="stroke:#181818;stroke-width:0.5;" width="233.2871" x="164.36" y="210.23"/><line style="stroke:#181818;stroke-width:0.5;" x1="164.36" x2="397.6471" y1="236.5269" y2="236.5269"/><text fill="#000000" font-family="sans-serif" font-size="14" lengthAdjust="spacing" textLength="155.9209" x="203.0431" y="228.2251">UNREAD_MSG_ACTIVE</text><text fill="#000000" font-family="sans-serif" font-size="12" lengthAdjust="spacing" textLength="203.9883" x="169.36" y="252.6655">Active contact, unread messages,</text><text fill="#000000" font-family="sans-serif" font-size="12" lengthAdjust="spacing" textLength="213.2871" x="169.36" y="266.6343">no pending messages, not selected</text></g><g id="UNREAD_MSG_INACTIVE"><rect fill="#F1F1F1" height="64.2344" rx="12.5" ry="12.5" style="stroke:#181818;stroke-width:0.5;" width="234.2773" x="163.86" y="334.47"/><line style="stroke:#181818;stroke-width:0.5;" x1="163.86" x2="398.1373" y1="360.7669" y2="360.7669"/><text fill="#000000" font-family="sans-serif" font-size="14" lengthAdjust="spacing" textLength="170.5225" x="195.7374" y="352.4651">UNREAD_MSG_INACTIVE</text><text fill="#000000" font-family="sans-serif" font-size="12" lengthAdjust="spacing" textLength="214.2773" x="168.86" y="376.9055">Inactive contact, unread messages,</text><text fill="#000000" font-family="sans-serif" font-size="12" lengthAdjust="spacing" textLength="213.2871" x="168.86" y="390.8743">no pending messages, not selected</text></g><g id="PENDING_MSG_INACTIVE"><rect fill="#F1F1F1" height="64.2344" rx="12.5" ry="12.5" style="stroke:#181818;stroke-width:0.5;" width="253.0391" x="279.48" y="582.94"/><line style="stroke:#181818;stroke-width:0.5;" x1="279.48" x2="532.5191" y1="609.2369" y2="609.2369"/><text fill="#000000" font-family="sans-serif" font-size="14" lengthAdjust="spacing" textLength="174.8633" x="318.5679" y="600.9351">PENDING_MSG_INACTIVE</text><text fill="#000000" font-family="sans-serif" font-size="12" lengthAdjust="spacing" textLength="233.0391" x="284.48" y="625.3755">Inactive contact, no unread messages,</text><text fill="#000000" font-family="sans-serif" font-size="12" lengthAdjust="spacing" textLength="194.5254" x="284.48" y="639.3443">pending messages, not selected</text></g><g id="SELECTED_PENDING_MSG_INACTIVE"><rect fill="#F1F1F1" height="64.2344" rx="12.5" ry="12.5" style="stroke:#181818;stroke-width:0.5;" width="274.1943" x="268.9" y="707.17"/><line style="stroke:#181818;stroke-width:0.5;" x1="268.9" x2="543.0943" y1="733.4669" y2="733.4669"/><text fill="#000000" font-family="sans-serif" font-size="14" lengthAdjust="spacing" textLength="254.1943" x="278.9" y="725.1651">SELECTED_PENDING_MSG_INACTIVE</text><text fill="#000000" font-family="sans-serif" font-size="12" lengthAdjust="spacing" textLength="233.0391" x="273.9" y="749.6055">Inactive contact, no unread messages,</text><text fill="#000000" font-family="sans-serif" font-size="12" lengthAdjust="spacing" textLength="171.0586" x="273.9" y="763.5743">pending messages, selected</text></g><ellipse cx="395" cy="16" fill="#222222" rx="10" ry="10" style="stroke:#222222;stroke-width:1.0;"/><!--link *start* to ACTIVE--><g id="link_*start*_ACTIVE"><path d="M395,26.24 C395,39.6 395,58.96 395,79.51 " fill="none" id="*start*-to-ACTIVE" style="stroke:#181818;stroke-width:1.0;"/><polygon fill="#181818" points="395,85.51,399,76.51,395,80.51,391,76.51,395,85.51" style="stroke:#181818;stroke-width:1.0;"/></g><!--link ACTIVE to INACTIVE--><g id="link_ACTIVE_INACTIVE"><path d="M406.19,150.58 C431.16,197.95 484.3281,282.2439 519.6481,329.5039 " fill="none" id="ACTIVE-to-INACTIVE" style="stroke:#181818;stroke-width:1.0;"/><polygon fill="#181818" points="523.24,334.31,521.0563,324.7063,520.2468,330.3049,514.6481,329.4954,523.24,334.31" style="stroke:#181818;stroke-width:1.0;"/></g><!--link INACTIVE to ACTIVE--><g id="link_INACTIVE_ACTIVE"><path d="M541.43,334.31 C516.85,287.05 463.7099,202.7426 428.0299,155.3726 " fill="none" id="INACTIVE-to-ACTIVE" style="stroke:#181818;stroke-width:1.0;"/><polygon fill="#181818" points="424.42,150.58,426.6397,160.1755,427.4282,154.5738,433.0299,155.3623,424.42,150.58" style="stroke:#181818;stroke-width:1.0;"/></g><!--link ACTIVE to SELECTED_ACTIVE--><g id="link_ACTIVE_SELECTED_ACTIVE"><path d="M280.64,140.46 C165.73,170.15 6,235.63 6,365.59 C6,365.59 6,365.59 6,616.05 C6,701.97 64.8416,782.6732 109.4116,826.9132 " fill="none" id="ACTIVE-to-SELECTED_ACTIVE" style="stroke:#181818;stroke-width:1.0;"/><polygon fill="#181818" points="113.67,831.14,110.1003,821.9608,110.1214,827.6176,104.4645,827.6386,113.67,831.14" style="stroke:#181818;stroke-width:1.0;"/></g><!--link SELECTED_ACTIVE to ACTIVE--><g id="link_SELECTED_ACTIVE_ACTIVE"><path d="M137.1,831.14 C104.1,786.9 41,701.97 41,616.05 C41,365.59 41,365.59 41,365.59 C41,245.6 171.4274,182.3833 275.0074,149.7433 " fill="none" id="SELECTED_ACTIVE-to-ACTIVE" style="stroke:#181818;stroke-width:1.0;"/><polygon fill="#181818" points="280.73,147.94,270.9439,146.8299,275.9612,149.4427,273.3483,154.46,280.73,147.94" style="stroke:#181818;stroke-width:1.0;"/></g><!--link ACTIVE to UNREAD_MSG_ACTIVE--><g id="link_ACTIVE_UNREAD_MSG_ACTIVE"><path d="M365.64,150.59 C348.62,168.85 331.352,187.3619 314.352,205.5919 " fill="none" id="ACTIVE-to-UNREAD_MSG_ACTIVE" style="stroke:#181818;stroke-width:1.0;"/><polygon fill="#181818" points="310.26,209.98,319.3234,206.1259,313.67,206.3233,313.4726,200.6698,310.26,209.98" style="stroke:#181818;stroke-width:1.0;"/></g><!--link INACTIVE to SELECTED_INACTIVE--><g id="link_INACTIVE_SELECTED_INACTIVE"><path d="M487.38,399.06 C454.68,417.24 421.1476,436.8434 392.2376,455.0434 " fill="none" id="INACTIVE-to-SELECTED_INACTIVE" style="stroke:#181818;stroke-width:1.0;"/><polygon fill="#181818" points="387.16,458.24,396.9074,456.8302,391.3913,455.5762,392.6454,450.0601,387.16,458.24" style="stroke:#181818;stroke-width:1.0;"/></g><!--link SELECTED_INACTIVE to INACTIVE--><g id="link_SELECTED_INACTIVE_INACTIVE"><path d="M410.47,458.24 C443.31,440.04 476.8383,420.4459 505.5983,402.2659 " fill="none" id="SELECTED_INACTIVE-to-INACTIVE" style="stroke:#181818;stroke-width:1.0;"/><polygon fill="#181818" points="510.67,399.06,500.9252,400.4878,506.4436,401.7316,505.1998,407.25,510.67,399.06" style="stroke:#181818;stroke-width:1.0;"/></g><!--link SELECTED_ACTIVE to SELECTED_INACTIVE--><g id="link_SELECTED_ACTIVE_SELECTED_INACTIVE"><path d="M173.83,831 C195.25,777.32 228.89,665.9 280,582.94 C293.47,561.08 308.5805,544.1893 323.1905,527.6293 " fill="none" id="SELECTED_ACTIVE-to-SELECTED_INACTIVE" style="stroke:#181818;stroke-width:1.0;"/><polygon fill="#181818" points="327.16,523.13,318.2063,527.2326,323.8521,526.8794,324.2053,532.5252,327.16,523.13" style="stroke:#181818;stroke-width:1.0;"/></g><!--link SELECTED_INACTIVE to SELECTED_ACTIVE--><g id="link_SELECTED_INACTIVE_SELECTED_ACTIVE"><path d="M295.77,523.13 C277.55,539.69 258.47,561.08 245,582.94 C193.89,665.9 161.0987,771.3803 153.4287,825.0603 " fill="none" id="SELECTED_INACTIVE-to-SELECTED_ACTIVE" style="stroke:#181818;stroke-width:1.0;"/><polygon fill="#181818" points="152.58,831,157.8128,822.6563,153.2872,826.0503,149.8932,821.5247,152.58,831" style="stroke:#181818;stroke-width:1.0;"/></g><!--link SELECTED_INACTIVE to PENDING_MSG_INACTIVE--><g id="link_SELECTED_INACTIVE_PENDING_MSG_INACTIVE"><path d="M360.71,523.3 C369.82,541.55 378.5726,559.0805 387.6626,577.3105 " fill="none" id="SELECTED_INACTIVE-to-PENDING_MSG_INACTIVE" style="stroke:#181818;stroke-width:1.0;"/><polygon fill="#181818" points="390.34,582.68,389.9036,572.8408,388.1088,578.2054,382.7442,576.4107,390.34,582.68" style="stroke:#181818;stroke-width:1.0;"/></g><!--link UNREAD_MSG_ACTIVE to UNREAD_MSG_INACTIVE--><g id="link_UNREAD_MSG_ACTIVE_UNREAD_MSG_INACTIVE"><path d="M269.69,274.83 C267.77,293.08 267.1383,310.0133 269.0683,328.2433 " fill="none" id="UNREAD_MSG_ACTIVE-to-UNREAD_MSG_INACTIVE" style="stroke:#181818;stroke-width:1.0;"/><polygon fill="#181818" points="269.7,334.21,272.7302,324.8389,269.1736,329.2378,264.7747,325.6811,269.7,334.21" style="stroke:#181818;stroke-width:1.0;"/></g><!--link UNREAD_MSG_INACTIVE to UNREAD_MSG_ACTIVE--><g id="link_UNREAD_MSG_INACTIVE_UNREAD_MSG_ACTIVE"><path d="M292.96,334.21 C295.01,315.98 295.6733,299.0432 293.6433,280.7932 " fill="none" id="UNREAD_MSG_INACTIVE-to-UNREAD_MSG_ACTIVE" style="stroke:#181818;stroke-width:1.0;"/><polygon fill="#181818" points="292.98,274.83,289.9995,284.217,293.5328,279.7994,297.9504,283.3326,292.98,274.83" style="stroke:#181818;stroke-width:1.0;"/></g><!--link UNREAD_MSG_ACTIVE to SELECTED_ACTIVE--><g id="link_UNREAD_MSG_ACTIVE_SELECTED_ACTIVE"><path d="M214.03,274.84 C189.21,289.66 162.99,309.6 146,334.47 C106.08,392.91 111,419.04 111,489.82 C111,489.82 111,489.82 111,616.05 C111,694.29 131.1463,778.5783 144.0663,825.1583 " fill="none" id="UNREAD_MSG_ACTIVE-to-SELECTED_ACTIVE" style="stroke:#181818;stroke-width:1.0;"/><polygon fill="#181818" points="145.67,830.94,147.1189,821.1983,144.3336,826.1219,139.41,823.3366,145.67,830.94" style="stroke:#181818;stroke-width:1.0;"/></g><!--link UNREAD_MSG_INACTIVE to SELECTED_INACTIVE--><g id="link_UNREAD_MSG_INACTIVE_SELECTED_INACTIVE"><path d="M297.48,399.06 C307.04,417.31 316.248,434.9039 325.788,453.1339 " fill="none" id="UNREAD_MSG_INACTIVE-to-SELECTED_INACTIVE" style="stroke:#181818;stroke-width:1.0;"/><polygon fill="#181818" points="328.57,458.45,327.9411,448.6212,326.2517,454.0199,320.853,452.3305,328.57,458.45" style="stroke:#181818;stroke-width:1.0;"/></g><!--link PENDING_MSG_INACTIVE to ACTIVE--><g id="link_PENDING_MSG_INACTIVE_ACTIVE"><path d="M484.29,582.54 C586.06,536.45 744.6,444.11 689,334.47 C643.86,245.45 548.1379,186.9481 477.1479,153.1681 " fill="none" id="PENDING_MSG_INACTIVE-to-ACTIVE" style="stroke:#181818;stroke-width:1.0;"/><polygon fill="#181818" points="471.73,150.59,478.1381,158.069,476.2449,152.7384,481.5756,150.8452,471.73,150.59" style="stroke:#181818;stroke-width:1.0;"/></g><!--link PENDING_MSG_INACTIVE to SELECTED_PENDING_MSG_INACTIVE--><g id="link_PENDING_MSG_INACTIVE_SELECTED_PENDING_MSG_INACTIVE"><path d="M394.69,647.53 C392.77,665.78 392.1387,682.7133 394.0687,700.9533 " fill="none" id="PENDING_MSG_INACTIVE-to-SELECTED_PENDING_MSG_INACTIVE" style="stroke:#181818;stroke-width:1.0;"/><polygon fill="#181818" points="394.7,706.92,397.7308,697.5491,394.1739,701.9478,389.7752,698.3909,394.7,706.92" style="stroke:#181818;stroke-width:1.0;"/></g><!--link SELECTED_PENDING_MSG_INACTIVE to PENDING_MSG_INACTIVE--><g id="link_SELECTED_PENDING_MSG_INACTIVE_PENDING_MSG_INACTIVE"><path d="M417.96,706.92 C420.01,688.68 420.6733,671.7432 418.6433,653.4932 " fill="none" id="SELECTED_PENDING_MSG_INACTIVE-to-PENDING_MSG_INACTIVE" style="stroke:#181818;stroke-width:1.0;"/><polygon fill="#181818" points="417.98,647.53,414.9995,656.917,418.5328,652.4994,422.9504,656.0326,417.98,647.53" style="stroke:#181818;stroke-width:1.0;"/></g><!--link SELECTED_PENDING_MSG_INACTIVE to SELECTED_ACTIVE--><g id="link_SELECTED_PENDING_MSG_INACTIVE_SELECTED_ACTIVE"><path d="M341.36,771.77 C304.03,789.95 262.614,810.1123 225.254,828.3123 " fill="none" id="SELECTED_PENDING_MSG_INACTIVE-to-SELECTED_ACTIVE" style="stroke:#181818;stroke-width:1.0;"/><polygon fill="#181818" points="219.86,830.94,229.7028,830.5945,224.355,828.7503,226.1992,823.4025,219.86,830.94" style="stroke:#181818;stroke-width:1.0;"/></g><!--SRC=[hP9F2u904CNlVeevHzAzGx3e8a99f7N94D55X5eZjpv_YRgj-qT3kiwR_StCsuUSo3zXM0FAMFaYa5MKfHbR0gtWIHyapLTtGlEI5Z6zaRfE2r8t8eEQN4d6I6xv0UeXFardOqAynKw4tGJDMadbpD-Biux10ICtsOMUUQiM0_nrJ3_i3Wg6MmNkw9Pps7iSk7xWJSEv1I9_0ixD_VSKFi4wBovWsnjecLQ7RYhz7B4cfKQKbC_x9bNW3sfATfHK_jubIuD1EliChVA5-YuEKIChUJ7HAO_JHLNlhgbJjKiR7i4pepuQlubmZdffVA4JtW00]--></g></svg>