<svg xmlns="http://www.w3.org/2000/svg" xmlns:xlink="http://www.w3.org/1999/xlink" contentStyleType="text/css" height="436px" preserveAspectRatio="none" style="width:960px;height:436px;background:#FFFFFF;" version="1.1" viewBox="0 0 960 436" width="960px" zoomAndPan="magnify"><defs/><g><!--cluster TTContactsBundle--><g id="cluster_TTContactsBundle"><rect fill="none" height="423" rx="2.5" ry="2.5" style="stroke:#181818;stroke-width:1.0;" width="443" x="7" y="7"/><text fill="#000000" font-family="sans-serif" font-size="14" font-weight="bold" lengthAdjust="spacing" textLength="143.3428" x="156.8286" y="21.9951">TTContactsBundle</text></g><!--cluster TTDiagnosticsBundle--><g id="cluster_TTDiagnosticsBundle"><rect fill="none" height="99" rx="2.5" ry="2.5" style="stroke:#181818;stroke-width:1.0;" width="210" x="744" y="331"/><text fill="#000000" font-family="sans-serif" font-size="14" font-weight="bold" lengthAdjust="spacing" textLength="165.9492" x="766.0254" y="345.9951">TTDiagnosticsBundle</text></g><!--cluster TTUtilsBundle--><g id="cluster_TTUtilsBundle"><rect fill="none" height="207" rx="2.5" ry="2.5" style="stroke:#181818;stroke-width:1.0;" width="196" x="524" y="223"/><text fill="#000000" font-family="sans-serif" font-size="14" font-weight="bold" lengthAdjust="spacing" textLength="110.0107" x="566.9946" y="237.9951">TTUtilsBundle</text></g><!--class TTContactsHandler--><g id="elem_TTContactsHandler"><rect codeLine="2" fill="#F1F1F1" height="48" id="TTContactsHandler" rx="2.5" ry="2.5" style="stroke:#181818;stroke-width:0.5;" width="165.9912" x="267" y="42"/><ellipse cx="282" cy="58" fill="#ADD1B2" rx="11" ry="11" style="stroke:#181818;stroke-width:1.0;"/><path d="M284.9688,63.6406 Q284.3906,63.9375 283.75,64.0781 Q283.1094,64.2344 282.4063,64.2344 Q279.9063,64.2344 278.5781,62.5938 Q277.2656,60.9375 277.2656,57.8125 Q277.2656,54.6875 278.5781,53.0313 Q279.9063,51.375 282.4063,51.375 Q283.1094,51.375 283.75,51.5313 Q284.4063,51.6875 284.9688,51.9844 L284.9688,54.7031 Q284.3438,54.125 283.75,53.8594 Q283.1563,53.5781 282.5313,53.5781 Q281.1875,53.5781 280.5,54.6563 Q279.8125,55.7188 279.8125,57.8125 Q279.8125,59.9063 280.5,60.9844 Q281.1875,62.0469 282.5313,62.0469 Q283.1563,62.0469 283.75,61.7813 Q284.3438,61.5 284.9688,60.9219 L284.9688,63.6406 Z " fill="#000000"/><text fill="#000000" font-family="sans-serif" font-size="14" lengthAdjust="spacing" textLength="133.9912" x="296" y="62.8467">TTContactsHandler</text><line style="stroke:#181818;stroke-width:0.5;" x1="268" x2="431.9912" y1="74" y2="74"/><line style="stroke:#181818;stroke-width:0.5;" x1="268" x2="431.9912" y1="82" y2="82"/></g><!--class TTContactsHandlerEntry--><g id="elem_TTContactsHandlerEntry"><rect codeLine="3" fill="#F1F1F1" height="48" id="TTContactsHandlerEntry" rx="2.5" ry="2.5" style="stroke:#181818;stroke-width:0.5;" width="203.2402" x="23.38" y="258"/><ellipse cx="38.38" cy="274" fill="#F1F1F1" rx="11" ry="11" style="stroke:#181818;stroke-width:1.0;"/><path d="M37.8644,274.5625 Q36.005,273.8594 35.3488,273.0938 Q34.7081,272.3125 34.7081,271 Q34.7081,269.3125 35.7863,268.3438 Q36.8644,267.375 38.7394,267.375 Q39.5988,267.375 40.4425,267.5781 Q41.3019,267.7656 42.1456,268.1563 L42.1456,270.5469 Q41.3644,269.9844 40.5363,269.7031 Q39.7238,269.4063 38.9269,269.4063 Q38.0519,269.4063 37.5675,269.7656 Q37.0988,270.125 37.0988,270.7813 Q37.0988,271.2969 37.4425,271.6406 Q37.7863,271.9688 38.88,272.375 L39.9425,272.7813 Q41.4269,273.3281 42.13,274.2344 Q42.8488,275.1406 42.8488,276.5156 Q42.8488,278.3906 41.7394,279.3125 Q40.63,280.2344 38.38,280.2344 Q37.4581,280.2344 36.5363,280.0156 Q35.6144,279.7969 34.755,279.375 L34.755,276.8438 Q35.7238,277.5313 36.6456,277.875 Q37.5675,278.2188 38.4581,278.2188 Q39.3644,278.2188 39.8644,277.8125 Q40.3644,277.3906 40.3644,276.6563 Q40.3644,276.0938 40.0206,275.6875 Q39.6925,275.2656 39.0675,275.0156 L37.8644,274.5625 Z " fill="#000000"/><text fill="#000000" font-family="sans-serif" font-size="14" lengthAdjust="spacing" textLength="171.2402" x="52.38" y="278.8467">TTContactsHandlerEntry</text><line style="stroke:#181818;stroke-width:0.5;" x1="24.38" x2="225.6202" y1="290" y2="290"/><line style="stroke:#181818;stroke-width:0.5;" x1="24.38" x2="225.6202" y1="298" y2="298"/></g><!--class TTContactsMessage--><g id="elem_TTContactsMessage"><rect codeLine="4" fill="#F1F1F1" height="48" id="TTContactsMessage" rx="2.5" ry="2.5" style="stroke:#181818;stroke-width:0.5;" width="172.2256" x="261.89" y="258"/><ellipse cx="276.89" cy="274" fill="#F1F1F1" rx="11" ry="11" style="stroke:#181818;stroke-width:1.0;"/><path d="M276.3744,274.5625 Q274.515,273.8594 273.8588,273.0938 Q273.2181,272.3125 273.2181,271 Q273.2181,269.3125 274.2963,268.3438 Q275.3744,267.375 277.2494,267.375 Q278.1088,267.375 278.9525,267.5781 Q279.8119,267.7656 280.6556,268.1563 L280.6556,270.5469 Q279.8744,269.9844 279.0463,269.7031 Q278.2338,269.4063 277.4369,269.4063 Q276.5619,269.4063 276.0775,269.7656 Q275.6088,270.125 275.6088,270.7813 Q275.6088,271.2969 275.9525,271.6406 Q276.2963,271.9688 277.39,272.375 L278.4525,272.7813 Q279.9369,273.3281 280.64,274.2344 Q281.3588,275.1406 281.3588,276.5156 Q281.3588,278.3906 280.2494,279.3125 Q279.14,280.2344 276.89,280.2344 Q275.9681,280.2344 275.0463,280.0156 Q274.1244,279.7969 273.265,279.375 L273.265,276.8438 Q274.2338,277.5313 275.1556,277.875 Q276.0775,278.2188 276.9681,278.2188 Q277.8744,278.2188 278.3744,277.8125 Q278.8744,277.3906 278.8744,276.6563 Q278.8744,276.0938 278.5306,275.6875 Q278.2025,275.2656 277.5775,275.0156 L276.3744,274.5625 Z " fill="#000000"/><text fill="#000000" font-family="sans-serif" font-size="14" lengthAdjust="spacing" textLength="140.2256" x="290.89" y="278.8467">TTContactsMessage</text><line style="stroke:#181818;stroke-width:0.5;" x1="262.89" x2="433.1156" y1="290" y2="290"/><line style="stroke:#181818;stroke-width:0.5;" x1="262.89" x2="433.1156" y1="298" y2="298"/></g><!--class TTContactsSettings--><g id="elem_TTContactsSettings"><rect codeLine="5" fill="#F1F1F1" height="48" id="TTContactsSettings" rx="2.5" ry="2.5" style="stroke:#181818;stroke-width:0.5;" width="168.2881" x="265.86" y="150"/><ellipse cx="280.86" cy="166" fill="#ADD1B2" rx="11" ry="11" style="stroke:#181818;stroke-width:1.0;"/><path d="M283.8288,171.6406 Q283.2506,171.9375 282.61,172.0781 Q281.9694,172.2344 281.2663,172.2344 Q278.7663,172.2344 277.4381,170.5938 Q276.1256,168.9375 276.1256,165.8125 Q276.1256,162.6875 277.4381,161.0313 Q278.7663,159.375 281.2663,159.375 Q281.9694,159.375 282.61,159.5313 Q283.2663,159.6875 283.8288,159.9844 L283.8288,162.7031 Q283.2038,162.125 282.61,161.8594 Q282.0163,161.5781 281.3913,161.5781 Q280.0475,161.5781 279.36,162.6563 Q278.6725,163.7188 278.6725,165.8125 Q278.6725,167.9063 279.36,168.9844 Q280.0475,170.0469 281.3913,170.0469 Q282.0163,170.0469 282.61,169.7813 Q283.2038,169.5 283.8288,168.9219 L283.8288,171.6406 Z " fill="#000000"/><text fill="#000000" font-family="sans-serif" font-size="14" lengthAdjust="spacing" textLength="136.2881" x="294.86" y="170.8467">TTContactsSettings</text><line style="stroke:#181818;stroke-width:0.5;" x1="266.86" x2="433.1481" y1="182" y2="182"/><line style="stroke:#181818;stroke-width:0.5;" x1="266.86" x2="433.1481" y1="190" y2="190"/></g><!--class TTContactsStatus--><g id="elem_TTContactsStatus"><rect codeLine="6" fill="#F1F1F1" height="48" id="TTContactsStatus" rx="2.5" ry="2.5" style="stroke:#181818;stroke-width:0.5;" width="155.4775" x="270.26" y="366"/><ellipse cx="285.26" cy="382" fill="#EB937F" rx="11" ry="11" style="stroke:#181818;stroke-width:1.0;"/><path d="M289.3694,388 L281.6506,388 L281.6506,375.6094 L289.3694,375.6094 L289.3694,377.7656 L284.1038,377.7656 L284.1038,380.4375 L288.8694,380.4375 L288.8694,382.5938 L284.1038,382.5938 L284.1038,385.8438 L289.3694,385.8438 L289.3694,388 Z " fill="#000000"/><text fill="#000000" font-family="sans-serif" font-size="14" lengthAdjust="spacing" textLength="123.4775" x="299.26" y="386.8467">TTContactsStatus</text><line style="stroke:#181818;stroke-width:0.5;" x1="271.26" x2="424.7375" y1="398" y2="398"/><line style="stroke:#181818;stroke-width:0.5;" x1="271.26" x2="424.7375" y1="406" y2="406"/></g><!--class TTContactsState--><g id="elem_TTContactsState"><rect codeLine="7" fill="#F1F1F1" height="48" id="TTContactsState" rx="2.5" ry="2.5" style="stroke:#181818;stroke-width:0.5;" width="147.9238" x="69.04" y="366"/><ellipse cx="84.04" cy="382" fill="#EB937F" rx="11" ry="11" style="stroke:#181818;stroke-width:1.0;"/><path d="M88.1494,388 L80.4306,388 L80.4306,375.6094 L88.1494,375.6094 L88.1494,377.7656 L82.8838,377.7656 L82.8838,380.4375 L87.6494,380.4375 L87.6494,382.5938 L82.8838,382.5938 L82.8838,385.8438 L88.1494,385.8438 L88.1494,388 Z " fill="#000000"/><text fill="#000000" font-family="sans-serif" font-size="14" lengthAdjust="spacing" textLength="115.9238" x="98.04" y="386.8467">TTContactsState</text><line style="stroke:#181818;stroke-width:0.5;" x1="70.04" x2="215.9638" y1="398" y2="398"/><line style="stroke:#181818;stroke-width:0.5;" x1="70.04" x2="215.9638" y1="406" y2="406"/></g><!--class TTDiagnosticsLogger--><g id="elem_TTDiagnosticsLogger"><rect codeLine="11" fill="#F1F1F1" height="48" id="TTDiagnosticsLogger" rx="2.5" ry="2.5" style="stroke:#181818;stroke-width:0.5;" width="178.8496" x="759.58" y="366"/><ellipse cx="774.58" cy="382" fill="#ADD1B2" rx="11" ry="11" style="stroke:#181818;stroke-width:1.0;"/><path d="M777.5488,387.6406 Q776.9706,387.9375 776.33,388.0781 Q775.6894,388.2344 774.9863,388.2344 Q772.4863,388.2344 771.1581,386.5938 Q769.8456,384.9375 769.8456,381.8125 Q769.8456,378.6875 771.1581,377.0313 Q772.4863,375.375 774.9863,375.375 Q775.6894,375.375 776.33,375.5313 Q776.9863,375.6875 777.5488,375.9844 L777.5488,378.7031 Q776.9238,378.125 776.33,377.8594 Q775.7363,377.5781 775.1113,377.5781 Q773.7675,377.5781 773.08,378.6563 Q772.3925,379.7188 772.3925,381.8125 Q772.3925,383.9063 773.08,384.9844 Q773.7675,386.0469 775.1113,386.0469 Q775.7363,386.0469 776.33,385.7813 Q776.9238,385.5 777.5488,384.9219 L777.5488,387.6406 Z " fill="#000000"/><text fill="#000000" font-family="sans-serif" font-size="14" lengthAdjust="spacing" textLength="146.8496" x="788.58" y="386.8467">TTDiagnosticsLogger</text><line style="stroke:#181818;stroke-width:0.5;" x1="760.58" x2="937.4296" y1="398" y2="398"/><line style="stroke:#181818;stroke-width:0.5;" x1="760.58" x2="937.4296" y1="406" y2="406"/></g><!--class TTUtilsSyscall--><g id="elem_TTUtilsSyscall"><rect codeLine="15" fill="#F1F1F1" height="48" id="TTUtilsSyscall" rx="2.5" ry="2.5" style="stroke:#181818;stroke-width:0.5;" width="128.4346" x="548.78" y="366"/><ellipse cx="563.78" cy="382" fill="#ADD1B2" rx="11" ry="11" style="stroke:#181818;stroke-width:1.0;"/><path d="M566.7488,387.6406 Q566.1706,387.9375 565.53,388.0781 Q564.8894,388.2344 564.1863,388.2344 Q561.6863,388.2344 560.3581,386.5938 Q559.0456,384.9375 559.0456,381.8125 Q559.0456,378.6875 560.3581,377.0313 Q561.6863,375.375 564.1863,375.375 Q564.8894,375.375 565.53,375.5313 Q566.1863,375.6875 566.7488,375.9844 L566.7488,378.7031 Q566.1238,378.125 565.53,377.8594 Q564.9363,377.5781 564.3113,377.5781 Q562.9675,377.5781 562.28,378.6563 Q561.5925,379.7188 561.5925,381.8125 Q561.5925,383.9063 562.28,384.9844 Q562.9675,386.0469 564.3113,386.0469 Q564.9363,386.0469 565.53,385.7813 Q566.1238,385.5 566.7488,384.9219 L566.7488,387.6406 Z " fill="#000000"/><text fill="#000000" font-family="sans-serif" font-size="14" lengthAdjust="spacing" textLength="96.4346" x="577.78" y="386.8467">TTUtilsSyscall</text><line style="stroke:#181818;stroke-width:0.5;" x1="549.78" x2="676.2146" y1="398" y2="398"/><line style="stroke:#181818;stroke-width:0.5;" x1="549.78" x2="676.2146" y1="406" y2="406"/></g><!--class TTUtilsSharedMem--><g id="elem_TTUtilsSharedMem"><rect codeLine="16" fill="#F1F1F1" height="48" id="TTUtilsSharedMem" rx="2.5" ry="2.5" style="stroke:#181818;stroke-width:0.5;" width="163.8379" x="540.08" y="258"/><ellipse cx="555.08" cy="274" fill="#ADD1B2" rx="11" ry="11" style="stroke:#181818;stroke-width:1.0;"/><path d="M558.0488,279.6406 Q557.4706,279.9375 556.83,280.0781 Q556.1894,280.2344 555.4863,280.2344 Q552.9863,280.2344 551.6581,278.5938 Q550.3456,276.9375 550.3456,273.8125 Q550.3456,270.6875 551.6581,269.0313 Q552.9863,267.375 555.4863,267.375 Q556.1894,267.375 556.83,267.5313 Q557.4863,267.6875 558.0488,267.9844 L558.0488,270.7031 Q557.4238,270.125 556.83,269.8594 Q556.2363,269.5781 555.6113,269.5781 Q554.2675,269.5781 553.58,270.6563 Q552.8925,271.7188 552.8925,273.8125 Q552.8925,275.9063 553.58,276.9844 Q554.2675,278.0469 555.6113,278.0469 Q556.2363,278.0469 556.83,277.7813 Q557.4238,277.5 558.0488,276.9219 L558.0488,279.6406 Z " fill="#000000"/><text fill="#000000" font-family="sans-serif" font-size="14" lengthAdjust="spacing" textLength="131.8379" x="569.08" y="278.8467">TTUtilsSharedMem</text><line style="stroke:#181818;stroke-width:0.5;" x1="541.08" x2="702.9179" y1="290" y2="290"/><line style="stroke:#181818;stroke-width:0.5;" x1="541.08" x2="702.9179" y1="298" y2="298"/></g><!--reverse link TTContactsHandler to TTContactsMessage--><g id="link_TTContactsHandler_TTContactsMessage"><path codeLine="19" d="M295.7155,96.935 C274.0155,111.025 260.06,124.64 248,150 C238.84,169.27 238.93,178.69 248,198 C259.84,223.22 283.53,243.43 304.88,257.58 " fill="none" id="TTContactsHandler-backto-TTContactsMessage" style="stroke:#181818;stroke-width:1.0;"/><polygon fill="none" points="305.78,90.4,298.5694,90.3127,295.7155,96.935,302.9261,97.0223,305.78,90.4" style="stroke:#181818;stroke-width:1.0;"/></g><!--reverse link TTContactsHandler to TTUtilsSharedMem--><g id="link_TTContactsHandler_TTUtilsSharedMem"><path codeLine="20" d="M389.0613,97.7296 C441.3813,138.8896 540.11,216.58 592.41,257.72 " fill="none" id="TTContactsHandler-backto-TTUtilsSharedMem" style="stroke:#181818;stroke-width:1.0;"/><polygon fill="none" points="379.63,90.31,381.8725,97.1636,389.0613,97.7296,386.8189,90.876,379.63,90.31" style="stroke:#181818;stroke-width:1.0;"/></g><!--reverse link TTContactsHandler to TTContactsHandlerEntry--><g id="link_TTContactsHandler_TTContactsHandlerEntry"><path codeLine="21" d="M302.3393,96.9467 C278.6893,112.4767 258.21,127.49 234,150 C197.38,184.04 161.61,230.23 141.52,257.69 " fill="none" id="TTContactsHandler-backto-TTContactsHandlerEntry" style="stroke:#181818;stroke-width:1.0;"/><polygon fill="#181818" points="312.37,90.36,305.1591,90.3098,302.3393,96.9467,309.5502,96.9969,312.37,90.36" style="stroke:#181818;stroke-width:1.0;"/></g><!--reverse link TTContactsHandler to TTDiagnosticsLogger--><g id="link_TTContactsHandler_TTDiagnosticsLogger"><path codeLine="22" d="M439.264,87.7788 C518.954,109.2188 633.56,148.37 720,215 C774.95,257.36 817.7,329.04 837.29,365.77 " fill="none" id="TTContactsHandler-backto-TTDiagnosticsLogger" style="stroke:#181818;stroke-width:1.0;stroke-dasharray:7.0,7.0;"/><polygon fill="#181818" points="433.47,86.22,441.1217,92.4209,438.2983,87.519,443.2002,84.6956,433.47,86.22" style="stroke:#181818;stroke-width:1.0;"/></g><!--reverse link TTContactsHandler to TTContactsSettings--><g id="link_TTContactsHandler_TTContactsSettings"><path codeLine="23" d="M350,96.26 C350,113.94 350,132.13 350,149.79 " fill="none" id="TTContactsHandler-backto-TTContactsSettings" style="stroke:#181818;stroke-width:1.0;stroke-dasharray:7.0,7.0;"/><polygon fill="#181818" points="350,90.26,346,99.26,350,95.26,354,99.26,350,90.26" style="stroke:#181818;stroke-width:1.0;"/></g><!--reverse link TTContactsSettings to TTUtilsSyscall--><g id="link_TTContactsSettings_TTUtilsSyscall"><path codeLine="24" d="M429.2822,200.999 C439.2022,205.699 443.46,208.63 452,215 C493.12,245.68 488.25,268.26 523,306 C542.73,327.42 567.11,349.69 585.52,365.76 " fill="none" id="TTContactsSettings-backto-TTUtilsSyscall" style="stroke:#181818;stroke-width:1.0;stroke-dasharray:7.0,7.0;"/><polygon fill="#181818" points="423.86,198.43,430.2806,205.8983,428.3785,200.5708,433.706,198.6687,423.86,198.43" style="stroke:#181818;stroke-width:1.0;"/></g><!--reverse link TTContactsSettings to TTUtilsSharedMem--><g id="link_TTContactsSettings_TTUtilsSharedMem"><path codeLine="25" d="M440.3182,191.9741 C466.0482,198.0741 488.23,204.74 513,215 C540.18,226.26 568.54,243.63 589.52,257.73 " fill="none" id="TTContactsSettings-backto-TTUtilsSharedMem" style="stroke:#181818;stroke-width:1.0;stroke-dasharray:7.0,7.0;"/><polygon fill="#181818" points="434.48,190.59,442.3145,196.5583,439.3451,191.7434,444.16,188.774,434.48,190.59" style="stroke:#181818;stroke-width:1.0;"/></g><!--reverse link TTContactsSettings to TTContactsMessage--><g id="link_TTContactsSettings_TTContactsMessage"><path codeLine="26" d="M349.448,204.259 C349.118,221.939 348.77,240.13 348.44,257.79 " fill="none" id="TTContactsSettings-backto-TTContactsMessage" style="stroke:#181818;stroke-width:1.0;stroke-dasharray:7.0,7.0;"/><polygon fill="#181818" points="349.56,198.26,345.3927,207.1838,349.4667,203.2591,353.3913,207.3331,349.56,198.26" style="stroke:#181818;stroke-width:1.0;"/></g><!--reverse link TTContactsMessage to TTContactsStatus--><g id="link_TTContactsMessage_TTContactsStatus"><path codeLine="27" d="M348,318.26 C348,335.94 348,348.13 348,365.79 " fill="none" id="TTContactsMessage-backto-TTContactsStatus" style="stroke:#181818;stroke-width:1.0;"/><polygon fill="none" points="348,306.26,344,312.26,348,318.26,352,312.26,348,306.26" style="stroke:#181818;stroke-width:1.0;"/></g><!--reverse link TTContactsMessage to TTContactsState--><g id="link_TTContactsMessage_TTContactsState"><path codeLine="28" d="M277.6013,311.2226 C265.6613,316.3726 264.33,317.25 253,323 C227.58,335.9 200.08,352.4 178.93,365.67 " fill="none" id="TTContactsMessage-backto-TTContactsState" style="stroke:#181818;stroke-width:1.0;"/><polygon fill="none" points="288.62,306.47,281.5264,305.1734,277.6013,311.2226,284.6948,312.5192,288.62,306.47" style="stroke:#181818;stroke-width:1.0;"/></g><!--reverse link TTUtilsSharedMem to TTUtilsSyscall--><g id="link_TTUtilsSharedMem_TTUtilsSyscall"><path codeLine="29" d="M619.0055,318.217 C617.5055,335.897 616.47,348.13 614.97,365.79 " fill="none" id="TTUtilsSharedMem-backto-TTUtilsSyscall" style="stroke:#181818;stroke-width:1.0;"/><polygon fill="none" points="620.02,306.26,615.5271,311.9004,619.0055,318.217,623.4985,312.5767,620.02,306.26" style="stroke:#181818;stroke-width:1.0;"/></g><!--reverse link TTUtilsSharedMem to TTDiagnosticsLogger--><g id="link_TTUtilsSharedMem_TTDiagnosticsLogger"><path codeLine="30" d="M687.2353,308.7013 C699.9653,313.9613 707.72,317.37 720,323 C748.92,336.27 780.76,352.54 805.57,365.61 " fill="none" id="TTUtilsSharedMem-backto-TTDiagnosticsLogger" style="stroke:#181818;stroke-width:1.0;stroke-dasharray:7.0,7.0;"/><polygon fill="#181818" points="681.69,306.41,688.4804,313.5438,686.3111,308.3194,691.5354,306.1501,681.69,306.41" style="stroke:#181818;stroke-width:1.0;"/></g><!--reverse link TTContactsHandlerEntry to TTContactsState--><g id="link_TTContactsHandlerEntry_TTContactsState"><path codeLine="31" d="M130.9575,318.0909 C133.9575,335.7709 136.06,348.13 139.06,365.79 " fill="none" id="TTContactsHandlerEntry-backto-TTContactsState" style="stroke:#181818;stroke-width:1.0;"/><polygon fill="none" points="128.95,306.26,126.0101,312.8446,130.9575,318.0909,133.8974,311.5063,128.95,306.26" style="stroke:#181818;stroke-width:1.0;"/></g><!--SRC=[ZP9D2i8m48NtFKNMGZr1SU4FkB0RgmSOuX23QIgPwKB4kzkM8irFgTjv7s_otkG9yW4AnUMoQoo3PDgszcPG5CKP9ODL1ZSRySw4a0Q89k0HUj1r2h5h9SVImR9xfVGIYRgj2TCAcRLLr4bestggC70xCyViasNFNvIz1cKROYsNqqpOKwDKbyUpkh8sooO3LRr8WZ7H-0uERoNMlN5KaMZoF57C71SunjZAi_Fk4CF5UfriO8wCZXIFHj8hP85Af0cu-NR6IT3Y-5N-mNep_nbUqxy40VDtSqFrgRrV]--></g></svg>