<svg xmlns="http://www.w3.org/2000/svg" xmlns:xlink="http://www.w3.org/1999/xlink" contentStyleType="text/css" height="777px" preserveAspectRatio="none" style="width:731px;height:777px;background:#FFFFFF;" version="1.1" viewBox="0 0 731 777" width="731px" zoomAndPan="magnify"><defs/><g><g id="ACTIVE"><rect fill="#F1F1F1" height="64.2344" rx="12.5" ry="12.5" style="stroke:#181818;stroke-width:0.5;" width="227.7617" x="281.12" y="86"/><line style="stroke:#181818;stroke-width:0.5;" x1="281.12" x2="508.8817" y1="112.2969" y2="112.2969"/><text fill="#000000" font-family="sans-serif" font-size="14" lengthAdjust="spacing" textLength="50.4561" x="369.7728" y="103.9951">ACTIVE</text><text fill="#000000" font-family="sans-serif" font-size="12" lengthAdjust="spacing" textLength="207.7617" x="286.12" y="128.4355">Active contact, no unread/pending</text><text fill="#000000" font-family="sans-serif" font-size="12" lengthAdjust="spacing" textLength="141.9316" x="286.12" y="142.4043">messages, not selected</text></g><g id="INACTIVE"><rect fill="#F1F1F1" height="64.2344" rx="12.5" ry="12.5" style="stroke:#181818;stroke-width:0.5;" width="238.0508" x="432.97" y="334.47"/><line style="stroke:#181818;stroke-width:0.5;" x1="432.97" x2="671.0208" y1="360.7669" y2="360.7669"/><text fill="#000000" font-family="sans-serif" font-size="14" lengthAdjust="spacing" textLength="65.0576" x="519.4666" y="352.4651">INACTIVE</text><text fill="#000000" font-family="sans-serif" font-size="12" lengthAdjust="spacing" textLength="218.0508" x="437.97" y="376.9055">Inactive contact, no unread/pending</text><text fill="#000000" font-family="sans-serif" font-size="12" lengthAdjust="spacing" textLength="141.9316" x="437.97" y="390.8743">messages, not selected</text></g><g id="SELECTED_ACTIVE"><rect fill="#F1F1F1" height="64.2344" rx="12.5" ry="12.5" style="stroke:#181818;stroke-width:0.5;" width="227.7617" x="7.12" y="707.18"/><line style="stroke:#181818;stroke-width:0.5;" x1="7.12" x2="234.8817" y1="733.4769" y2="733.4769"/><text fill="#000000" font-family="sans-serif" font-size="14" lengthAdjust="spacing" textLength="129.7871" x="56.1073" y="725.1751">SELECTED_ACTIVE</text><text fill="#000000" font-family="sans-serif" font-size="12" lengthAdjust="spacing" textLength="207.7617" x="12.12" y="749.6155">Active contact, no unread/pending</text><text fill="#000000" font-family="sans-serif" font-size="12" lengthAdjust="spacing" textLength="118.4648" x="12.12" y="763.5843">messages, selected</text></g><g id="SELECTED_INACTIVE"><rect fill="#F1F1F1" height="64.2344" rx="12.5" ry="12.5" style="stroke:#181818;stroke-width:0.5;" width="238.0508" x="225.97" y="458.71"/><line style="stroke:#181818;stroke-width:0.5;" x1="225.97" x2="464.0208" y1="485.0069" y2="485.0069"/><text fill="#000000" font-family="sans-serif" font-size="14" lengthAdjust="spacing" textLength="144.3887" x="272.8011" y="476.7051">SELECTED_INACTIVE</text><text fill="#000000" font-family="sans-serif" font-size="12" lengthAdjust="spacing" textLength="218.0508" x="230.97" y="501.1455">Inactive contact, no unread/pending</text><text fill="#000000" font-family="sans-serif" font-size="12" lengthAdjust="spacing" textLength="118.4648" x="230.97" y="515.1143">messages, selected</text></g><g id="UNREAD_MSG_ACTIVE"><rect fill="#F1F1F1" height="64.2344" rx="12.5" ry="12.5" style="stroke:#181818;stroke-width:0.5;" width="233.2871" x="164.36" y="210.24"/><line style="stroke:#181818;stroke-width:0.5;" x1="164.36" x2="397.6471" y1="236.5369" y2="236.5369"/><text fill="#000000" font-family="sans-serif" font-size="14" lengthAdjust="spacing" textLength="155.9209" x="203.0431" y="228.2351">UNREAD_MSG_ACTIVE</text><text fill="#000000" font-family="sans-serif" font-size="12" lengthAdjust="spacing" textLength="203.9883" x="169.36" y="252.6755">Active contact, unread messages,</text><text fill="#000000" font-family="sans-serif" font-size="12" lengthAdjust="spacing" textLength="213.2871" x="169.36" y="266.6443">no pending messages, not selected</text></g><g id="UNREAD_MSG_INACTIVE"><rect fill="#F1F1F1" height="64.2344" rx="12.5" ry="12.5" style="stroke:#181818;stroke-width:0.5;" width="234.2773" x="163.86" y="334.47"/><line style="stroke:#181818;stroke-width:0.5;" x1="163.86" x2="398.1373" y1="360.7669" y2="360.7669"/><text fill="#000000" font-family="sans-serif" font-size="14" lengthAdjust="spacing" textLength="170.5225" x="195.7374" y="352.4651">UNREAD_MSG_INACTIVE</text><text fill="#000000" font-family="sans-serif" font-size="12" lengthAdjust="spacing" textLength="214.2773" x="168.86" y="376.9055">Inactive contact, unread messages,</text><text fill="#000000" font-family="sans-serif" font-size="12" lengthAdjust="spacing" textLength="213.2871" x="168.86" y="390.8743">no pending messages, not selected</text></g><g id="PENDING_MSG_INACTIVE"><rect fill="#F1F1F1" height="64.2344" rx="12.5" ry="12.5" style="stroke:#181818;stroke-width:0.5;" width="253.0391" x="279.48" y="707.18"/><line style="stroke:#181818;stroke-width:0.5;" x1="279.48" x2="532.5191" y1="733.4769" y2="733.4769"/><text fill="#000000" font-family="sans-serif" font-size="14" lengthAdjust="spacing" textLength="174.8633" x="318.5679" y="725.1751">PENDING_MSG_INACTIVE</text><text fill="#000000" font-family="sans-serif" font-size="12" lengthAdjust="spacing" textLength="233.0391" x="284.48" y="749.6155">Inactive contact, no unread messages,</text><text fill="#000000" font-family="sans-serif" font-size="12" lengthAdjust="spacing" textLength="194.5254" x="284.48" y="763.5843">pending messages, not selected</text></g><g id="SELECTED_PENDING_MSG_INACTIVE"><rect fill="#F1F1F1" height="64.2344" rx="12.5" ry="12.5" style="stroke:#181818;stroke-width:0.5;" width="274.1943" x="268.9" y="582.94"/><line style="stroke:#181818;stroke-width:0.5;" x1="268.9" x2="543.0943" y1="609.2369" y2="609.2369"/><text fill="#000000" font-family="sans-serif" font-size="14" lengthAdjust="spacing" textLength="254.1943" x="278.9" y="600.9351">SELECTED_PENDING_MSG_INACTIVE</text><text fill="#000000" font-family="sans-serif" font-size="12" lengthAdjust="spacing" textLength="233.0391" x="273.9" y="625.3755">Inactive contact, no unread messages,</text><text fill="#000000" font-family="sans-serif" font-size="12" lengthAdjust="spacing" textLength="171.0586" x="273.9" y="639.3443">pending messages, selected</text></g><ellipse cx="395" cy="16" fill="#222222" rx="10" ry="10" style="stroke:#222222;stroke-width:1.0;"/><!--link *start* to ACTIVE--><g id="link_*start*_ACTIVE"><path d="M395,26.24 C395,39.6 395,58.97 395,79.51 " fill="none" id="*start*-to-ACTIVE" style="stroke:#181818;stroke-width:1.0;"/><polygon fill="#181818" points="395,85.51,399,76.51,395,80.51,391,76.51,395,85.51" style="stroke:#181818;stroke-width:1.0;"/></g><!--link ACTIVE to INACTIVE--><g id="link_ACTIVE_INACTIVE"><path d="M406.19,150.59 C431.16,197.95 484.3281,282.2439 519.6481,329.5039 " fill="none" id="ACTIVE-to-INACTIVE" style="stroke:#181818;stroke-width:1.0;"/><polygon fill="#181818" points="523.24,334.31,521.0563,324.7063,520.2468,330.3049,514.6481,329.4954,523.24,334.31" style="stroke:#181818;stroke-width:1.0;"/></g><!--link INACTIVE to ACTIVE--><g id="link_INACTIVE_ACTIVE"><path d="M541.43,334.31 C516.85,287.05 463.7104,202.7422 428.0304,155.3822 " fill="none" id="INACTIVE-to-ACTIVE" style="stroke:#181818;stroke-width:1.0;"/><polygon fill="#181818" points="424.42,150.59,426.6407,160.1852,427.4286,154.5835,433.0303,155.3714,424.42,150.59" style="stroke:#181818;stroke-width:1.0;"/></g><!--link ACTIVE to SELECTED_ACTIVE--><g id="link_ACTIVE_SELECTED_ACTIVE"><path d="M280.64,140.46 C165.73,170.16 6,235.63 6,365.59 C6,365.59 6,365.59 6,491.82 C6,574.02 50.0114,656.6492 84.6214,702.0292 " fill="none" id="ACTIVE-to-SELECTED_ACTIVE" style="stroke:#181818;stroke-width:1.0;"/><polygon fill="#181818" points="88.26,706.8,85.9827,697.218,85.2279,702.8243,79.6216,702.0695,88.26,706.8" style="stroke:#181818;stroke-width:1.0;"/></g><!--link SELECTED_ACTIVE to ACTIVE--><g id="link_SELECTED_ACTIVE_ACTIVE"><path d="M111.39,706.8 C88.65,661.42 41,574.02 41,491.82 C41,365.59 41,365.59 41,365.59 C41,245.6 171.4274,182.3933 275.0074,149.7533 " fill="none" id="SELECTED_ACTIVE-to-ACTIVE" style="stroke:#181818;stroke-width:1.0;"/><polygon fill="#181818" points="280.73,147.95,270.9439,146.8399,275.9612,149.4527,273.3483,154.47,280.73,147.95" style="stroke:#181818;stroke-width:1.0;"/></g><!--link ACTIVE to UNREAD_MSG_ACTIVE--><g id="link_ACTIVE_UNREAD_MSG_ACTIVE"><path d="M365.64,150.6 C348.62,168.85 331.352,187.3619 314.352,205.5919 " fill="none" id="ACTIVE-to-UNREAD_MSG_ACTIVE" style="stroke:#181818;stroke-width:1.0;"/><polygon fill="#181818" points="310.26,209.98,319.3234,206.1259,313.67,206.3233,313.4726,200.6698,310.26,209.98" style="stroke:#181818;stroke-width:1.0;"/></g><!--link INACTIVE to SELECTED_INACTIVE--><g id="link_INACTIVE_SELECTED_INACTIVE"><path d="M487.38,399.07 C454.68,417.25 421.1476,436.8434 392.2376,455.0434 " fill="none" id="INACTIVE-to-SELECTED_INACTIVE" style="stroke:#181818;stroke-width:1.0;"/><polygon fill="#181818" points="387.16,458.24,396.9074,456.8302,391.3913,455.5762,392.6454,450.0601,387.16,458.24" style="stroke:#181818;stroke-width:1.0;"/></g><!--link SELECTED_INACTIVE to INACTIVE--><g id="link_SELECTED_INACTIVE_INACTIVE"><path d="M410.47,458.24 C443.31,440.04 476.8383,420.4559 505.5983,402.2759 " fill="none" id="SELECTED_INACTIVE-to-INACTIVE" style="stroke:#181818;stroke-width:1.0;"/><polygon fill="#181818" points="510.67,399.07,500.9252,400.4978,506.4436,401.7416,505.1998,407.26,510.67,399.07" style="stroke:#181818;stroke-width:1.0;"/></g><!--link SELECTED_ACTIVE to SELECTED_INACTIVE--><g id="link_SELECTED_ACTIVE_SELECTED_INACTIVE"><path d="M159.3,706.83 C189.23,674.85 230.57,624.28 269,582.94 C288.19,562.3 306.7273,544.6488 322.9473,527.4188 " fill="none" id="SELECTED_ACTIVE-to-SELECTED_INACTIVE" style="stroke:#181818;stroke-width:1.0;"/><polygon fill="#181818" points="327.06,523.05,317.9785,526.8614,323.6328,526.6906,323.8035,532.3449,327.06,523.05" style="stroke:#181818;stroke-width:1.0;"/></g><!--link SELECTED_INACTIVE to SELECTED_ACTIVE--><g id="link_SELECTED_INACTIVE_SELECTED_ACTIVE"><path d="M296.03,523.05 C275.84,540.28 253.19,562.3 234,582.94 C195.57,624.28 157.5571,669.857 136.2471,701.837 " fill="none" id="SELECTED_INACTIVE-to-SELECTED_ACTIVE" style="stroke:#181818;stroke-width:1.0;"/><polygon fill="#181818" points="132.92,706.83,141.2394,701.5585,135.6926,702.6691,134.582,697.1224,132.92,706.83" style="stroke:#181818;stroke-width:1.0;"/></g><!--link SELECTED_INACTIVE to SELECTED_PENDING_MSG_INACTIVE--><g id="link_SELECTED_INACTIVE_SELECTED_PENDING_MSG_INACTIVE"><path d="M360.71,523.3 C369.82,541.55 378.5738,559.0799 387.6638,577.3199 " fill="none" id="SELECTED_INACTIVE-to-SELECTED_PENDING_MSG_INACTIVE" style="stroke:#181818;stroke-width:1.0;"/><polygon fill="#181818" points="390.34,582.69,389.9057,572.8507,388.1098,578.2149,382.7456,576.419,390.34,582.69" style="stroke:#181818;stroke-width:1.0;"/></g><!--link UNREAD_MSG_ACTIVE to UNREAD_MSG_INACTIVE--><g id="link_UNREAD_MSG_ACTIVE_UNREAD_MSG_INACTIVE"><path d="M269.69,274.83 C267.77,293.08 267.1383,310.0233 269.0683,328.2533 " fill="none" id="UNREAD_MSG_ACTIVE-to-UNREAD_MSG_INACTIVE" style="stroke:#181818;stroke-width:1.0;"/><polygon fill="#181818" points="269.7,334.22,272.7302,324.8489,269.1736,329.2478,264.7747,325.6911,269.7,334.22" style="stroke:#181818;stroke-width:1.0;"/></g><!--link UNREAD_MSG_INACTIVE to UNREAD_MSG_ACTIVE--><g id="link_UNREAD_MSG_INACTIVE_UNREAD_MSG_ACTIVE"><path d="M292.96,334.22 C295.01,315.99 295.6733,299.0432 293.6433,280.7932 " fill="none" id="UNREAD_MSG_INACTIVE-to-UNREAD_MSG_ACTIVE" style="stroke:#181818;stroke-width:1.0;"/><polygon fill="#181818" points="292.98,274.83,289.9995,284.217,293.5328,279.7994,297.9504,283.3326,292.98,274.83" style="stroke:#181818;stroke-width:1.0;"/></g><!--link UNREAD_MSG_ACTIVE to SELECTED_ACTIVE--><g id="link_UNREAD_MSG_ACTIVE_SELECTED_ACTIVE"><path d="M209.82,274.79 C185.38,289.31 160.53,309.07 146,334.47 C76.09,456.73 99.2141,629.2985 113.0241,700.9285 " fill="none" id="UNREAD_MSG_ACTIVE-to-SELECTED_ACTIVE" style="stroke:#181818;stroke-width:1.0;"/><polygon fill="#181818" points="114.16,706.82,116.3839,697.2255,113.2134,701.9104,108.5285,698.74,114.16,706.82" style="stroke:#181818;stroke-width:1.0;"/></g><!--link UNREAD_MSG_INACTIVE to SELECTED_INACTIVE--><g id="link_UNREAD_MSG_INACTIVE_SELECTED_INACTIVE"><path d="M297.48,399.07 C307.04,417.32 316.248,434.9039 325.788,453.1339 " fill="none" id="UNREAD_MSG_INACTIVE-to-SELECTED_INACTIVE" style="stroke:#181818;stroke-width:1.0;"/><polygon fill="#181818" points="328.57,458.45,327.9411,448.6212,326.2517,454.0199,320.853,452.3305,328.57,458.45" style="stroke:#181818;stroke-width:1.0;"/></g><!--link PENDING_MSG_INACTIVE to ACTIVE--><g id="link_PENDING_MSG_INACTIVE_ACTIVE"><path d="M508.37,706.79 C601.33,671.06 724,602.88 724,491.82 C724,365.59 724,365.59 724,365.59 C724,253.18 605.1017,187.8698 509.2717,152.6498 " fill="none" id="PENDING_MSG_INACTIVE-to-ACTIVE" style="stroke:#181818;stroke-width:1.0;"/><polygon fill="#181818" points="503.64,150.58,510.7077,157.4392,508.3331,152.3048,513.4674,149.9302,503.64,150.58" style="stroke:#181818;stroke-width:1.0;"/></g><!--link PENDING_MSG_INACTIVE to SELECTED_PENDING_MSG_INACTIVE--><g id="link_PENDING_MSG_INACTIVE_SELECTED_PENDING_MSG_INACTIVE"><path d="M417.96,706.92 C420.01,688.69 420.6733,671.7532 418.6433,653.5032 " fill="none" id="PENDING_MSG_INACTIVE-to-SELECTED_PENDING_MSG_INACTIVE" style="stroke:#181818;stroke-width:1.0;"/><polygon fill="#181818" points="417.98,647.54,414.9995,656.927,418.5328,652.5094,422.9504,656.0426,417.98,647.54" style="stroke:#181818;stroke-width:1.0;"/></g><!--link SELECTED_PENDING_MSG_INACTIVE to PENDING_MSG_INACTIVE--><g id="link_SELECTED_PENDING_MSG_INACTIVE_PENDING_MSG_INACTIVE"><path d="M394.69,647.54 C392.77,665.79 392.1383,682.7233 394.0683,700.9533 " fill="none" id="SELECTED_PENDING_MSG_INACTIVE-to-PENDING_MSG_INACTIVE" style="stroke:#181818;stroke-width:1.0;"/><polygon fill="#181818" points="394.7,706.92,397.7302,697.5489,394.1736,701.9478,389.7747,698.3911,394.7,706.92" style="stroke:#181818;stroke-width:1.0;"/></g><!--link SELECTED_PENDING_MSG_INACTIVE to SELECTED_ACTIVE--><g id="link_SELECTED_PENDING_MSG_INACTIVE_SELECTED_ACTIVE"><path d="M332.61,647.54 C290.22,665.72 242.5841,686.1448 200.1541,704.3448 " fill="none" id="SELECTED_PENDING_MSG_INACTIVE-to-SELECTED_ACTIVE" style="stroke:#181818;stroke-width:1.0;"/><polygon fill="#181818" points="194.64,706.71,204.488,706.8382,199.2351,704.739,201.3344,699.4861,194.64,706.71" style="stroke:#181818;stroke-width:1.0;"/></g><!--SRC=[hP9H2u8m58NV_HNtEPBUUmY63X5gH5el6I8wHAWPkVhz9UfQRZgHNk-vzxjtPmSveN_2i0QKyk958IqPJrA-15R2apreagtkb6K5ooDserMLvBIgHGuLlTAKqypo2UeWFajcOmAynKw8tHZDEadbpBzBi8xaW94Rxm9l-Ae60s8wOXzs2uM1jqhSqIldiFUOk3xnp71XWSmtm8Mv_zuYDbZdnGLiUmCDqshHTQNR8zTwgP4bvVE-IPNuFpKbEqegftVr9VqYdO-ccT4k0L6pspF5qDbVfykitkQXJjKtROeaymRrYVwPvoTFw8Gt]--></g></svg>