<svg xmlns="http://www.w3.org/2000/svg" xmlns:xlink="http://www.w3.org/1999/xlink" contentStyleType="text/css" height="436px" preserveAspectRatio="none" style="width:1175px;height:436px;background:#FFFFFF;" version="1.1" viewBox="0 0 1175 436" width="1175px" zoomAndPan="magnify"><defs/><g><!--cluster TTContactsBundle--><g id="cluster_TTContactsBundle"><rect fill="none" height="423" rx="2.5" ry="2.5" style="stroke:#181818;stroke-width:1.0;" width="443" x="7" y="7"/><text fill="#000000" font-family="sans-serif" font-size="14" font-weight="bold" lengthAdjust="spacing" textLength="143.3428" x="156.8286" y="21.9951">TTContactsBundle</text></g><!--cluster TTDiagnosticsBundle--><g id="cluster_TTDiagnosticsBundle"><rect fill="none" height="99" rx="2.5" ry="2.5" style="stroke:#181818;stroke-width:1.0;" width="210" x="959" y="331"/><text fill="#000000" font-family="sans-serif" font-size="14" font-weight="bold" lengthAdjust="spacing" textLength="165.9492" x="981.0254" y="345.9951">TTDiagnosticsBundle</text></g><!--cluster TTUtilsBundle--><g id="cluster_TTUtilsBundle"><rect fill="none" height="207" rx="2.5" ry="2.5" style="stroke:#181818;stroke-width:1.0;" width="411" x="524" y="223"/><text fill="#000000" font-family="sans-serif" font-size="14" font-weight="bold" lengthAdjust="spacing" textLength="110.0107" x="674.4946" y="237.9951">TTUtilsBundle</text></g><!--class TTContactsHandler--><g id="elem_TTContactsHandler"><rect codeLine="2" fill="#F1F1F1" height="48" id="TTContactsHandler" rx="2.5" ry="2.5" style="stroke:#181818;stroke-width:0.5;" width="165.9912" x="267" y="42"/><ellipse cx="282" cy="58" fill="#ADD1B2" rx="11" ry="11" style="stroke:#181818;stroke-width:1.0;"/><path d="M284.9688,63.6406 Q284.3906,63.9375 283.75,64.0781 Q283.1094,64.2344 282.4063,64.2344 Q279.9063,64.2344 278.5781,62.5938 Q277.2656,60.9375 277.2656,57.8125 Q277.2656,54.6875 278.5781,53.0313 Q279.9063,51.375 282.4063,51.375 Q283.1094,51.375 283.75,51.5313 Q284.4063,51.6875 284.9688,51.9844 L284.9688,54.7031 Q284.3438,54.125 283.75,53.8594 Q283.1563,53.5781 282.5313,53.5781 Q281.1875,53.5781 280.5,54.6563 Q279.8125,55.7188 279.8125,57.8125 Q279.8125,59.9063 280.5,60.9844 Q281.1875,62.0469 282.5313,62.0469 Q283.1563,62.0469 283.75,61.7813 Q284.3438,61.5 284.9688,60.9219 L284.9688,63.6406 Z " fill="#000000"/><text fill="#000000" font-family="sans-serif" font-size="14" lengthAdjust="spacing" textLength="133.9912" x="296" y="62.8467">TTContactsHandler</text><line style="stroke:#181818;stroke-width:0.5;" x1="268" x2="431.9912" y1="74" y2="74"/><line style="stroke:#181818;stroke-width:0.5;" x1="268" x2="431.9912" y1="82" y2="82"/></g><!--class TTContactsHandlerEntry--><g id="elem_TTContactsHandlerEntry"><rect codeLine="3" fill="#F1F1F1" height="48" id="TTContactsHandlerEntry" rx="2.5" ry="2.5" style="stroke:#181818;stroke-width:0.5;" width="203.2402" x="23.38" y="258"/><ellipse cx="38.38" cy="274" fill="#F1F1F1" rx="11" ry="11" style="stroke:#181818;stroke-width:1.0;"/><path d="M37.8644,274.5625 Q36.005,273.8594 35.3488,273.0938 Q34.7081,272.3125 34.7081,271 Q34.7081,269.3125 35.7863,268.3438 Q36.8644,267.375 38.7394,267.375 Q39.5988,267.375 40.4425,267.5781 Q41.3019,267.7656 42.1456,268.1563 L42.1456,270.5469 Q41.3644,269.9844 40.5363,269.7031 Q39.7238,269.4063 38.9269,269.4063 Q38.0519,269.4063 37.5675,269.7656 Q37.0988,270.125 37.0988,270.7813 Q37.0988,271.2969 37.4425,271.6406 Q37.7863,271.9688 38.88,272.375 L39.9425,272.7813 Q41.4269,273.3281 42.13,274.2344 Q42.8488,275.1406 42.8488,276.5156 Q42.8488,278.3906 41.7394,279.3125 Q40.63,280.2344 38.38,280.2344 Q37.4581,280.2344 36.5363,280.0156 Q35.6144,279.7969 34.755,279.375 L34.755,276.8438 Q35.7238,277.5313 36.6456,277.875 Q37.5675,278.2188 38.4581,278.2188 Q39.3644,278.2188 39.8644,277.8125 Q40.3644,277.3906 40.3644,276.6563 Q40.3644,276.0938 40.0206,275.6875 Q39.6925,275.2656 39.0675,275.0156 L37.8644,274.5625 Z " fill="#000000"/><text fill="#000000" font-family="sans-serif" font-size="14" lengthAdjust="spacing" textLength="171.2402" x="52.38" y="278.8467">TTContactsHandlerEntry</text><line style="stroke:#181818;stroke-width:0.5;" x1="24.38" x2="225.6202" y1="290" y2="290"/><line style="stroke:#181818;stroke-width:0.5;" x1="24.38" x2="225.6202" y1="298" y2="298"/></g><!--class TTContactsMessage--><g id="elem_TTContactsMessage"><rect codeLine="4" fill="#F1F1F1" height="48" id="TTContactsMessage" rx="2.5" ry="2.5" style="stroke:#181818;stroke-width:0.5;" width="172.2256" x="261.89" y="258"/><ellipse cx="276.89" cy="274" fill="#F1F1F1" rx="11" ry="11" style="stroke:#181818;stroke-width:1.0;"/><path d="M276.3744,274.5625 Q274.515,273.8594 273.8588,273.0938 Q273.2181,272.3125 273.2181,271 Q273.2181,269.3125 274.2963,268.3438 Q275.3744,267.375 277.2494,267.375 Q278.1088,267.375 278.9525,267.5781 Q279.8119,267.7656 280.6556,268.1563 L280.6556,270.5469 Q279.8744,269.9844 279.0463,269.7031 Q278.2338,269.4063 277.4369,269.4063 Q276.5619,269.4063 276.0775,269.7656 Q275.6088,270.125 275.6088,270.7813 Q275.6088,271.2969 275.9525,271.6406 Q276.2963,271.9688 277.39,272.375 L278.4525,272.7813 Q279.9369,273.3281 280.64,274.2344 Q281.3588,275.1406 281.3588,276.5156 Q281.3588,278.3906 280.2494,279.3125 Q279.14,280.2344 276.89,280.2344 Q275.9681,280.2344 275.0463,280.0156 Q274.1244,279.7969 273.265,279.375 L273.265,276.8438 Q274.2338,277.5313 275.1556,277.875 Q276.0775,278.2188 276.9681,278.2188 Q277.8744,278.2188 278.3744,277.8125 Q278.8744,277.3906 278.8744,276.6563 Q278.8744,276.0938 278.5306,275.6875 Q278.2025,275.2656 277.5775,275.0156 L276.3744,274.5625 Z " fill="#000000"/><text fill="#000000" font-family="sans-serif" font-size="14" lengthAdjust="spacing" textLength="140.2256" x="290.89" y="278.8467">TTContactsMessage</text><line style="stroke:#181818;stroke-width:0.5;" x1="262.89" x2="433.1156" y1="290" y2="290"/><line style="stroke:#181818;stroke-width:0.5;" x1="262.89" x2="433.1156" y1="298" y2="298"/></g><!--class TTContactsSettings--><g id="elem_TTContactsSettings"><rect codeLine="5" fill="#F1F1F1" height="48" id="TTContactsSettings" rx="2.5" ry="2.5" style="stroke:#181818;stroke-width:0.5;" width="168.2881" x="265.86" y="150"/><ellipse cx="280.86" cy="166" fill="#ADD1B2" rx="11" ry="11" style="stroke:#181818;stroke-width:1.0;"/><path d="M283.8288,171.6406 Q283.2506,171.9375 282.61,172.0781 Q281.9694,172.2344 281.2663,172.2344 Q278.7663,172.2344 277.4381,170.5938 Q276.1256,168.9375 276.1256,165.8125 Q276.1256,162.6875 277.4381,161.0313 Q278.7663,159.375 281.2663,159.375 Q281.9694,159.375 282.61,159.5313 Q283.2663,159.6875 283.8288,159.9844 L283.8288,162.7031 Q283.2038,162.125 282.61,161.8594 Q282.0163,161.5781 281.3913,161.5781 Q280.0475,161.5781 279.36,162.6563 Q278.6725,163.7188 278.6725,165.8125 Q278.6725,167.9063 279.36,168.9844 Q280.0475,170.0469 281.3913,170.0469 Q282.0163,170.0469 282.61,169.7813 Q283.2038,169.5 283.8288,168.9219 L283.8288,171.6406 Z " fill="#000000"/><text fill="#000000" font-family="sans-serif" font-size="14" lengthAdjust="spacing" textLength="136.2881" x="294.86" y="170.8467">TTContactsSettings</text><line style="stroke:#181818;stroke-width:0.5;" x1="266.86" x2="433.1481" y1="182" y2="182"/><line style="stroke:#181818;stroke-width:0.5;" x1="266.86" x2="433.1481" y1="190" y2="190"/></g><!--class TTContactsStatus--><g id="elem_TTContactsStatus"><rect codeLine="6" fill="#F1F1F1" height="48" id="TTContactsStatus" rx="2.5" ry="2.5" style="stroke:#181818;stroke-width:0.5;" width="155.4775" x="270.26" y="366"/><ellipse cx="285.26" cy="382" fill="#EB937F" rx="11" ry="11" style="stroke:#181818;stroke-width:1.0;"/><path d="M289.3694,388 L281.6506,388 L281.6506,375.6094 L289.3694,375.6094 L289.3694,377.7656 L284.1038,377.7656 L284.1038,380.4375 L288.8694,380.4375 L288.8694,382.5938 L284.1038,382.5938 L284.1038,385.8438 L289.3694,385.8438 L289.3694,388 Z " fill="#000000"/><text fill="#000000" font-family="sans-serif" font-size="14" lengthAdjust="spacing" textLength="123.4775" x="299.26" y="386.8467">TTContactsStatus</text><line style="stroke:#181818;stroke-width:0.5;" x1="271.26" x2="424.7375" y1="398" y2="398"/><line style="stroke:#181818;stroke-width:0.5;" x1="271.26" x2="424.7375" y1="406" y2="406"/></g><!--class TTContactsState--><g id="elem_TTContactsState"><rect codeLine="7" fill="#F1F1F1" height="48" id="TTContactsState" rx="2.5" ry="2.5" style="stroke:#181818;stroke-width:0.5;" width="147.9238" x="69.04" y="366"/><ellipse cx="84.04" cy="382" fill="#EB937F" rx="11" ry="11" style="stroke:#181818;stroke-width:1.0;"/><path d="M88.1494,388 L80.4306,388 L80.4306,375.6094 L88.1494,375.6094 L88.1494,377.7656 L82.8838,377.7656 L82.8838,380.4375 L87.6494,380.4375 L87.6494,382.5938 L82.8838,382.5938 L82.8838,385.8438 L88.1494,385.8438 L88.1494,388 Z " fill="#000000"/><text fill="#000000" font-family="sans-serif" font-size="14" lengthAdjust="spacing" textLength="115.9238" x="98.04" y="386.8467">TTContactsState</text><line style="stroke:#181818;stroke-width:0.5;" x1="70.04" x2="215.9638" y1="398" y2="398"/><line style="stroke:#181818;stroke-width:0.5;" x1="70.04" x2="215.9638" y1="406" y2="406"/></g><!--class TTDiagnosticsLogger--><g id="elem_TTDiagnosticsLogger"><rect codeLine="11" fill="#F1F1F1" height="48" id="TTDiagnosticsLogger" rx="2.5" ry="2.5" style="stroke:#181818;stroke-width:0.5;" width="178.8496" x="974.58" y="366"/><ellipse cx="989.58" cy="382" fill="#ADD1B2" rx="11" ry="11" style="stroke:#181818;stroke-width:1.0;"/><path d="M992.5488,387.6406 Q991.9706,387.9375 991.33,388.0781 Q990.6894,388.2344 989.9863,388.2344 Q987.4863,388.2344 986.1581,386.5938 Q984.8456,384.9375 984.8456,381.8125 Q984.8456,378.6875 986.1581,377.0313 Q987.4863,375.375 989.9863,375.375 Q990.6894,375.375 991.33,375.5313 Q991.9863,375.6875 992.5488,375.9844 L992.5488,378.7031 Q991.9238,378.125 991.33,377.8594 Q990.7363,377.5781 990.1113,377.5781 Q988.7675,377.5781 988.08,378.6563 Q987.3925,379.7188 987.3925,381.8125 Q987.3925,383.9063 988.08,384.9844 Q988.7675,386.0469 990.1113,386.0469 Q990.7363,386.0469 991.33,385.7813 Q991.9238,385.5 992.5488,384.9219 L992.5488,387.6406 Z " fill="#000000"/><text fill="#000000" font-family="sans-serif" font-size="14" lengthAdjust="spacing" textLength="146.8496" x="1003.58" y="386.8467">TTDiagnosticsLogger</text><line style="stroke:#181818;stroke-width:0.5;" x1="975.58" x2="1152.4296" y1="398" y2="398"/><line style="stroke:#181818;stroke-width:0.5;" x1="975.58" x2="1152.4296" y1="406" y2="406"/></g><!--class TTUtilsOutputStream--><g id="elem_TTUtilsOutputStream"><rect codeLine="15" fill="#F1F1F1" height="48" id="TTUtilsOutputStream" rx="2.5" ry="2.5" style="stroke:#181818;stroke-width:0.5;" width="179.5059" x="540.25" y="258"/><ellipse cx="555.25" cy="274" fill="#ADD1B2" rx="11" ry="11" style="stroke:#181818;stroke-width:1.0;"/><path d="M558.2188,279.6406 Q557.6406,279.9375 557,280.0781 Q556.3594,280.2344 555.6563,280.2344 Q553.1563,280.2344 551.8281,278.5938 Q550.5156,276.9375 550.5156,273.8125 Q550.5156,270.6875 551.8281,269.0313 Q553.1563,267.375 555.6563,267.375 Q556.3594,267.375 557,267.5313 Q557.6563,267.6875 558.2188,267.9844 L558.2188,270.7031 Q557.5938,270.125 557,269.8594 Q556.4063,269.5781 555.7813,269.5781 Q554.4375,269.5781 553.75,270.6563 Q553.0625,271.7188 553.0625,273.8125 Q553.0625,275.9063 553.75,276.9844 Q554.4375,278.0469 555.7813,278.0469 Q556.4063,278.0469 557,277.7813 Q557.5938,277.5 558.2188,276.9219 L558.2188,279.6406 Z " fill="#000000"/><text fill="#000000" font-family="sans-serif" font-size="14" lengthAdjust="spacing" textLength="147.5059" x="569.25" y="278.8467">TTUtilsOutputStream</text><line style="stroke:#181818;stroke-width:0.5;" x1="541.25" x2="718.7559" y1="290" y2="290"/><line style="stroke:#181818;stroke-width:0.5;" x1="541.25" x2="718.7559" y1="298" y2="298"/></g><!--class TTUtilsSyscall--><g id="elem_TTUtilsSyscall"><rect codeLine="16" fill="#F1F1F1" height="48" id="TTUtilsSyscall" rx="2.5" ry="2.5" style="stroke:#181818;stroke-width:0.5;" width="128.4346" x="655.78" y="366"/><ellipse cx="670.78" cy="382" fill="#ADD1B2" rx="11" ry="11" style="stroke:#181818;stroke-width:1.0;"/><path d="M673.7488,387.6406 Q673.1706,387.9375 672.53,388.0781 Q671.8894,388.2344 671.1863,388.2344 Q668.6863,388.2344 667.3581,386.5938 Q666.0456,384.9375 666.0456,381.8125 Q666.0456,378.6875 667.3581,377.0313 Q668.6863,375.375 671.1863,375.375 Q671.8894,375.375 672.53,375.5313 Q673.1863,375.6875 673.7488,375.9844 L673.7488,378.7031 Q673.1238,378.125 672.53,377.8594 Q671.9363,377.5781 671.3113,377.5781 Q669.9675,377.5781 669.28,378.6563 Q668.5925,379.7188 668.5925,381.8125 Q668.5925,383.9063 669.28,384.9844 Q669.9675,386.0469 671.3113,386.0469 Q671.9363,386.0469 672.53,385.7813 Q673.1238,385.5 673.7488,384.9219 L673.7488,387.6406 Z " fill="#000000"/><text fill="#000000" font-family="sans-serif" font-size="14" lengthAdjust="spacing" textLength="96.4346" x="684.78" y="386.8467">TTUtilsSyscall</text><line style="stroke:#181818;stroke-width:0.5;" x1="656.78" x2="783.2146" y1="398" y2="398"/><line style="stroke:#181818;stroke-width:0.5;" x1="656.78" x2="783.2146" y1="406" y2="406"/></g><!--class TTUtilsSharedMem--><g id="elem_TTUtilsSharedMem"><rect codeLine="17" fill="#F1F1F1" height="48" id="TTUtilsSharedMem" rx="2.5" ry="2.5" style="stroke:#181818;stroke-width:0.5;" width="163.8379" x="755.08" y="258"/><ellipse cx="770.08" cy="274" fill="#ADD1B2" rx="11" ry="11" style="stroke:#181818;stroke-width:1.0;"/><path d="M773.0488,279.6406 Q772.4706,279.9375 771.83,280.0781 Q771.1894,280.2344 770.4863,280.2344 Q767.9863,280.2344 766.6581,278.5938 Q765.3456,276.9375 765.3456,273.8125 Q765.3456,270.6875 766.6581,269.0313 Q767.9863,267.375 770.4863,267.375 Q771.1894,267.375 771.83,267.5313 Q772.4863,267.6875 773.0488,267.9844 L773.0488,270.7031 Q772.4238,270.125 771.83,269.8594 Q771.2363,269.5781 770.6113,269.5781 Q769.2675,269.5781 768.58,270.6563 Q767.8925,271.7188 767.8925,273.8125 Q767.8925,275.9063 768.58,276.9844 Q769.2675,278.0469 770.6113,278.0469 Q771.2363,278.0469 771.83,277.7813 Q772.4238,277.5 773.0488,276.9219 L773.0488,279.6406 Z " fill="#000000"/><text fill="#000000" font-family="sans-serif" font-size="14" lengthAdjust="spacing" textLength="131.8379" x="784.08" y="278.8467">TTUtilsSharedMem</text><line style="stroke:#181818;stroke-width:0.5;" x1="756.08" x2="917.9179" y1="290" y2="290"/><line style="stroke:#181818;stroke-width:0.5;" x1="756.08" x2="917.9179" y1="298" y2="298"/></g><!--reverse link TTContactsHandler to TTContactsMessage--><g id="link_TTContactsHandler_TTContactsMessage"><path codeLine="20" d="M295.7155,96.935 C274.0155,111.025 260.06,124.64 248,150 C238.84,169.27 238.93,178.69 248,198 C259.84,223.22 283.53,243.43 304.88,257.58 " fill="none" id="TTContactsHandler-backto-TTContactsMessage" style="stroke:#181818;stroke-width:1.0;"/><polygon fill="none" points="305.78,90.4,298.5694,90.3127,295.7155,96.935,302.9261,97.0223,305.78,90.4" style="stroke:#181818;stroke-width:1.0;"/></g><!--reverse link TTContactsHandler to TTUtilsSharedMem--><g id="link_TTContactsHandler_TTUtilsSharedMem"><path codeLine="21" d="M436.9593,94.1585 C516.5193,120.0885 633.01,161.61 737,215 C761.06,227.35 786.47,244.18 805.65,257.75 " fill="none" id="TTContactsHandler-backto-TTUtilsSharedMem" style="stroke:#181818;stroke-width:1.0;"/><polygon fill="none" points="425.55,90.44,430.0152,96.1024,436.9593,94.1585,432.4942,88.4961,425.55,90.44" style="stroke:#181818;stroke-width:1.0;"/></g><!--reverse link TTContactsHandler to TTContactsHandlerEntry--><g id="link_TTContactsHandler_TTContactsHandlerEntry"><path codeLine="22" d="M302.3393,96.9467 C278.6893,112.4767 258.21,127.49 234,150 C197.38,184.04 161.61,230.23 141.52,257.69 " fill="none" id="TTContactsHandler-backto-TTContactsHandlerEntry" style="stroke:#181818;stroke-width:1.0;"/><polygon fill="#181818" points="312.37,90.36,305.1591,90.3098,302.3393,96.9467,309.5502,96.9969,312.37,90.36" style="stroke:#181818;stroke-width:1.0;"/></g><!--reverse link TTContactsHandler to TTDiagnosticsLogger--><g id="link_TTContactsHandler_TTDiagnosticsLogger"><path codeLine="23" d="M439.3735,71.1351 C559.6935,80.0851 778.67,110.26 935,215 C992.95,253.83 1034.65,327.75 1053.22,365.51 " fill="none" id="TTContactsHandler-backto-TTDiagnosticsLogger" style="stroke:#181818;stroke-width:1.0;stroke-dasharray:7.0,7.0;"/><polygon fill="#181818" points="433.39,70.69,442.0685,75.3466,438.3762,71.0609,442.6619,67.3686,433.39,70.69" style="stroke:#181818;stroke-width:1.0;"/></g><!--reverse link TTContactsHandler to TTContactsSettings--><g id="link_TTContactsHandler_TTContactsSettings"><path codeLine="24" d="M350,96.26 C350,113.94 350,132.13 350,149.79 " fill="none" id="TTContactsHandler-backto-TTContactsSettings" style="stroke:#181818;stroke-width:1.0;stroke-dasharray:7.0,7.0;"/><polygon fill="#181818" points="350,90.26,346,99.26,350,95.26,354,99.26,350,90.26" style="stroke:#181818;stroke-width:1.0;"/></g><!--reverse link TTContactsSettings to TTUtilsSyscall--><g id="link_TTContactsSettings_TTUtilsSyscall"><path codeLine="25" d="M429.2822,200.999 C439.2022,205.699 443.46,208.63 452,215 C493.12,245.68 482.27,274.81 523,306 C562.49,336.23 614.61,357.56 655.32,371.02 " fill="none" id="TTContactsSettings-backto-TTUtilsSyscall" style="stroke:#181818;stroke-width:1.0;stroke-dasharray:7.0,7.0;"/><polygon fill="#181818" points="423.86,198.43,430.2806,205.8983,428.3785,200.5708,433.706,198.6687,423.86,198.43" style="stroke:#181818;stroke-width:1.0;"/></g><!--reverse link TTContactsSettings to TTUtilsSharedMem--><g id="link_TTContactsSettings_TTUtilsSharedMem"><path codeLine="26" d="M440.2404,182.0546 C545.5004,190.5846 709.25,205.08 737,215 C763.84,224.59 790.59,242.82 809.66,257.69 " fill="none" id="TTContactsSettings-backto-TTUtilsSharedMem" style="stroke:#181818;stroke-width:1.0;stroke-dasharray:7.0,7.0;"/><polygon fill="#181818" points="434.26,181.57,442.9075,186.2839,439.2437,181.9739,443.5537,178.31,434.26,181.57" style="stroke:#181818;stroke-width:1.0;"/></g><!--reverse link TTContactsSettings to TTUtilsOutputStream--><g id="link_TTContactsSettings_TTUtilsOutputStream"><path codeLine="27" d="M440.1266,192.4505 C465.8566,198.5805 488.08,205.13 513,215 C541.62,226.34 571.83,243.53 594.39,257.53 " fill="none" id="TTContactsSettings-backto-TTUtilsOutputStream" style="stroke:#181818;stroke-width:1.0;stroke-dasharray:7.0,7.0;"/><polygon fill="#181818" points="434.29,191.06,442.1179,197.0369,439.1539,192.2188,443.972,189.2547,434.29,191.06" style="stroke:#181818;stroke-width:1.0;"/></g><!--reverse link TTContactsSettings to TTContactsMessage--><g id="link_TTContactsSettings_TTContactsMessage"><path codeLine="28" d="M349.448,204.259 C349.118,221.939 348.77,240.13 348.44,257.79 " fill="none" id="TTContactsSettings-backto-TTContactsMessage" style="stroke:#181818;stroke-width:1.0;stroke-dasharray:7.0,7.0;"/><polygon fill="#181818" points="349.56,198.26,345.3927,207.1838,349.4667,203.2591,353.3913,207.3331,349.56,198.26" style="stroke:#181818;stroke-width:1.0;"/></g><!--reverse link TTContactsMessage to TTContactsStatus--><g id="link_TTContactsMessage_TTContactsStatus"><path codeLine="29" d="M348,318.26 C348,335.94 348,348.13 348,365.79 " fill="none" id="TTContactsMessage-backto-TTContactsStatus" style="stroke:#181818;stroke-width:1.0;"/><polygon fill="none" points="348,306.26,344,312.26,348,318.26,352,312.26,348,306.26" style="stroke:#181818;stroke-width:1.0;"/></g><!--reverse link TTContactsMessage to TTContactsState--><g id="link_TTContactsMessage_TTContactsState"><path codeLine="30" d="M277.6013,311.2226 C265.6613,316.3726 264.33,317.25 253,323 C227.58,335.9 200.08,352.4 178.93,365.67 " fill="none" id="TTContactsMessage-backto-TTContactsState" style="stroke:#181818;stroke-width:1.0;"/><polygon fill="none" points="288.62,306.47,281.5264,305.1734,277.6013,311.2226,284.6948,312.5192,288.62,306.47" style="stroke:#181818;stroke-width:1.0;"/></g><!--reverse link TTUtilsSharedMem to TTUtilsSyscall--><g id="link_TTUtilsSharedMem_TTUtilsSyscall"><path codeLine="31" d="M802.43,314.3203 C782.93,332.0003 765.11,348.13 745.62,365.79 " fill="none" id="TTUtilsSharedMem-backto-TTUtilsSyscall" style="stroke:#181818;stroke-width:1.0;"/><polygon fill="none" points="811.32,306.26,804.1882,307.3268,802.43,314.3203,809.5618,313.2535,811.32,306.26" style="stroke:#181818;stroke-width:1.0;"/></g><!--reverse link TTUtilsSharedMem to TTDiagnosticsLogger--><g id="link_TTUtilsSharedMem_TTDiagnosticsLogger"><path codeLine="32" d="M902.2353,308.7013 C914.9653,313.9613 922.72,317.37 935,323 C963.92,336.27 995.76,352.54 1020.57,365.61 " fill="none" id="TTUtilsSharedMem-backto-TTDiagnosticsLogger" style="stroke:#181818;stroke-width:1.0;stroke-dasharray:7.0,7.0;"/><polygon fill="#181818" points="896.69,306.41,903.4804,313.5438,901.3111,308.3194,906.5354,306.1501,896.69,306.41" style="stroke:#181818;stroke-width:1.0;"/></g><!--reverse link TTContactsHandlerEntry to TTContactsState--><g id="link_TTContactsHandlerEntry_TTContactsState"><path codeLine="33" d="M130.9575,318.0909 C133.9575,335.7709 136.06,348.13 139.06,365.79 " fill="none" id="TTContactsHandlerEntry-backto-TTContactsState" style="stroke:#181818;stroke-width:1.0;"/><polygon fill="none" points="128.95,306.26,126.0101,312.8446,130.9575,318.0909,133.8974,311.5063,128.95,306.26" style="stroke:#181818;stroke-width:1.0;"/></g><!--SRC=[ZP9D2i8m48NtFKNMWfwWkF07N2Y2rGCCSOZ5D2sPoQA8TxUL8asJKBVpFjxalKa3yWaAnVMwhGs3PDeuSzSeylo2ai4eZUkrU6L2I0r48_00FMWxXTWwoQ6qDspRc7v2ecvhnBH0vj8ewYGqhXeh3EmISypUMTRyeknAKAOcBkLycX5xh9NgydXMDoxrlCcNEZjk71Ti4QgfLhGaGUjW_02BznDM_TAWFb4lbv7IKjp4CSGMdfrten3ELwjeEoaoE60u6aYla1agaYR6UTKdqNIHmsHI-F3Z_i5wC__5tb5-OIVCtoL_hnJR-m40]--></g></svg>