<svg xmlns="http://www.w3.org/2000/svg" xmlns:xlink="http://www.w3.org/1999/xlink" contentStyleType="text/css" height="2008px" preserveAspectRatio="none" style="width:851px;height:2008px;background:#FFFFFF;" version="1.1" viewBox="0 0 851 2008" width="851px" zoomAndPan="magnify"><defs/><g><line style="stroke:#181818;stroke-width:1.0;" x1="550.8005" x2="550.8005" y1="240.2266" y2="323.625"/><polygon fill="#181818" points="546.8005,250.2266,550.8005,240.2266,554.8005,250.2266,550.8005,246.2266" style="stroke:#181818;stroke-width:1.0;"/><polygon fill="#181818" points="546.8005,313.625,550.8005,323.625,554.8005,313.625,550.8005,317.625" style="stroke:#181818;stroke-width:1.0;"/><text fill="#000000" font-family="sans-serif" font-size="13" lengthAdjust="spacing" textLength="56.6528" x="554.8005" y="286.4263">1000 ms</text><line style="stroke:#181818;stroke-width:1.0;" x1="550.8005" x2="550.8005" y1="451.2891" y2="584.9531"/><polygon fill="#181818" points="546.8005,461.2891,550.8005,451.2891,554.8005,461.2891,550.8005,457.2891" style="stroke:#181818;stroke-width:1.0;"/><polygon fill="#181818" points="546.8005,574.9531,550.8005,584.9531,554.8005,574.9531,550.8005,578.9531" style="stroke:#181818;stroke-width:1.0;"/><text fill="#000000" font-family="sans-serif" font-size="13" lengthAdjust="spacing" textLength="56.6528" x="554.8005" y="522.6216">1000 ms</text><line style="stroke:#181818;stroke-width:0.5;stroke-dasharray:5.0,5.0;" x1="305.896" x2="305.896" y1="36.2969" y2="1972.6641"/><rect fill="#FFBBBB" height="137.6641" style="stroke:#181818;stroke-width:1.0;" width="10" x="300.896" y="158.8281"/><rect fill="#FFBBBB" height="87.3984" style="stroke:#181818;stroke-width:1.0;" width="10" x="300.896" y="557.8203"/><rect fill="#005500" height="13" style="stroke:#181818;stroke-width:1.0;" width="10" x="300.896" y="730.4844"/><rect fill="#FFD700" height="42.1328" style="stroke:#181818;stroke-width:1.0;" width="10" x="300.896" y="830.8828"/><rect fill="#005500" height="13" style="stroke:#181818;stroke-width:1.0;" width="10" x="300.896" y="931.2813"/><rect fill="#FFD700" height="87.3984" style="stroke:#181818;stroke-width:1.0;" width="10" x="300.896" y="960.4141"/><rect fill="#FFBBBB" height="29.1328" style="stroke:#181818;stroke-width:1.0;" width="10" x="300.896" y="1112.0781"/><rect fill="#FFBBBB" height="29.1328" style="stroke:#181818;stroke-width:1.0;" width="10" x="300.896" y="1183.3438"/><rect fill="#FFD700" height="171.6641" style="stroke:#181818;stroke-width:1.0;" width="10" x="300.896" y="1320.0078"/><rect fill="#FFD700" height="129.5313" style="stroke:#181818;stroke-width:1.0;" width="10" x="300.896" y="1520.8047"/><rect fill="#FFD700" height="87.3984" style="stroke:#181818;stroke-width:1.0;" width="10" x="300.896" y="1708.6016"/><rect fill="#FFD700" height="142.5313" style="stroke:#181818;stroke-width:1.0;" width="10" x="300.896" y="1825.1328"/><rect fill="#005500" height="13" style="stroke:#181818;stroke-width:1.0;" width="10" x="305.896" y="1391.2734"/><line style="stroke:#181818;stroke-width:0.5;stroke-dasharray:5.0,5.0;" x1="486.1245" x2="486.1245" y1="36.2969" y2="1972.6641"/><line style="stroke:#181818;stroke-width:0.5;stroke-dasharray:5.0,5.0;" x1="615.4766" x2="615.4766" y1="36.2969" y2="1972.6641"/><rect fill="#FFBBBB" height="116.5313" style="stroke:#181818;stroke-width:1.0;" width="10" x="610.4766" y="238.2266"/><rect fill="#FFBBBB" height="166.7969" style="stroke:#181818;stroke-width:1.0;" width="10" x="610.4766" y="449.2891"/><rect fill="#FFBBBB" height="259.0625" style="stroke:#181818;stroke-width:1.0;" width="10" x="610.4766" y="759.6172"/><rect fill="#FFBBBB" height="71.2656" style="stroke:#181818;stroke-width:1.0;" width="10" x="610.4766" y="1349.1406"/><rect fill="#FFBBBB" height="29.1328" style="stroke:#181818;stroke-width:1.0;" width="10" x="610.4766" y="1549.9375"/><rect fill="#FFBBBB" height="29.1328" style="stroke:#181818;stroke-width:1.0;" width="10" x="610.4766" y="1737.7344"/><rect fill="#FFBBBB" height="29.1328" style="stroke:#181818;stroke-width:1.0;" width="10" x="610.4766" y="1854.2656"/><rect fill="#E2E2F0" height="30.2969" rx="2.5" ry="2.5" style="stroke:#181818;stroke-width:0.5;" width="147.9912" x="231.9004" y="5"/><text fill="#000000" font-family="sans-serif" font-size="14" lengthAdjust="spacing" textLength="133.9912" x="238.9004" y="24.9951">TTContactsHandler</text><rect fill="#E2E2F0" height="30.2969" rx="2.5" ry="2.5" style="stroke:#181818;stroke-width:0.5;" width="145.8379" x="413.2056" y="5"/><text fill="#000000" font-family="sans-serif" font-size="14" lengthAdjust="spacing" textLength="131.8379" x="420.2056" y="24.9951">TTUtilsSharedMem</text><rect fill="#E2E2F0" height="30.2969" rx="2.5" ry="2.5" style="stroke:#181818;stroke-width:0.5;" width="92.8662" x="569.0435" y="5"/><text fill="#000000" font-family="sans-serif" font-size="14" lengthAdjust="spacing" textLength="78.8662" x="576.0435" y="24.9951">TTContacts</text><rect fill="#E2E2F0" height="30.2969" rx="2.5" ry="2.5" style="stroke:#181818;stroke-width:0.5;" width="147.9912" x="231.9004" y="1972.6641"/><text fill="#000000" font-family="sans-serif" font-size="14" lengthAdjust="spacing" textLength="133.9912" x="238.9004" y="1992.6592">TTContactsHandler</text><rect fill="#E2E2F0" height="30.2969" rx="2.5" ry="2.5" style="stroke:#181818;stroke-width:0.5;" width="145.8379" x="413.2056" y="1972.6641"/><text fill="#000000" font-family="sans-serif" font-size="14" lengthAdjust="spacing" textLength="131.8379" x="420.2056" y="1992.6592">TTUtilsSharedMem</text><rect fill="#E2E2F0" height="30.2969" rx="2.5" ry="2.5" style="stroke:#181818;stroke-width:0.5;" width="92.8662" x="569.0435" y="1972.6641"/><text fill="#000000" font-family="sans-serif" font-size="14" lengthAdjust="spacing" textLength="78.8662" x="576.0435" y="1992.6592">TTContacts</text><rect fill="#EEEEEE" height="3" style="stroke:#EEEEEE;stroke-width:1.0;" width="839.2695" x="5" y="64.8633"/><line style="stroke:#000000;stroke-width:1.0;" x1="5" x2="844.2695" y1="64.8633" y2="64.8633"/><line style="stroke:#000000;stroke-width:1.0;" x1="5" x2="844.2695" y1="67.8633" y2="67.8633"/><rect fill="#EEEEEE" height="23.1328" style="stroke:#000000;stroke-width:2.0;" width="110.624" x="369.3228" y="54.2969"/><text fill="#000000" font-family="sans-serif" font-size="13" font-weight="bold" lengthAdjust="spacing" textLength="92.0981" x="375.3228" y="70.3638">Initialization</text><path d="M48.8413,92.4297 L48.8413,132.4297 L300.8413,132.4297 L300.8413,102.4297 L290.8413,92.4297 L48.8413,92.4297 " fill="#FEFFDD" style="stroke:#181818;stroke-width:0.5;"/><path d="M290.8413,92.4297 L290.8413,102.4297 L300.8413,102.4297 L290.8413,92.4297 " fill="#FEFFDD" style="stroke:#181818;stroke-width:0.5;"/><text fill="#000000" font-family="sans-serif" font-size="13" lengthAdjust="spacing" textLength="201.3984" x="54.8413" y="109.4966">Only one attempt will be made</text><text fill="#000000" font-family="sans-serif" font-size="13" lengthAdjust="spacing" textLength="231.0547" x="54.8413" y="124.6294">to create and open shared memory</text><polygon fill="#181818" points="474.1245,154.8281,484.1245,158.8281,474.1245,162.8281,478.1245,158.8281" style="stroke:#181818;stroke-width:1.0;"/><line style="stroke:#181818;stroke-width:1.0;" x1="310.896" x2="480.1245" y1="158.8281" y2="158.8281"/><text fill="#000000" font-family="sans-serif" font-size="13" lengthAdjust="spacing" textLength="106.7168" x="317.896" y="153.7622">create and open</text><path d="M620.4766,171.8281 L620.4766,211.8281 L838.4766,211.8281 L838.4766,181.8281 L828.4766,171.8281 L620.4766,171.8281 " fill="#FEFFDD" style="stroke:#181818;stroke-width:0.5;"/><path d="M828.4766,171.8281 L828.4766,181.8281 L838.4766,181.8281 L828.4766,171.8281 " fill="#FEFFDD" style="stroke:#181818;stroke-width:0.5;"/><text fill="#000000" font-family="sans-serif" font-size="13" lengthAdjust="spacing" textLength="172.0215" x="626.4766" y="188.895">Up to five attempts will be</text><text fill="#000000" font-family="sans-serif" font-size="13" lengthAdjust="spacing" textLength="197.793" x="626.4766" y="204.0278">made to open shared memory</text><polygon fill="#181818" points="497.1245,234.2266,487.1245,238.2266,497.1245,242.2266,493.1245,238.2266" style="stroke:#181818;stroke-width:1.0;"/><line style="stroke:#181818;stroke-width:1.0;" x1="491.1245" x2="609.4766" y1="238.2266" y2="238.2266"/><text fill="#000000" font-family="sans-serif" font-size="13" lengthAdjust="spacing" textLength="32.4429" x="503.1245" y="233.1606">open</text><polygon fill="#181818" points="598.4766,263.3594,608.4766,267.3594,598.4766,271.3594,602.4766,267.3594" style="stroke:#181818;stroke-width:1.0;"/><line style="stroke:#181818;stroke-width:1.0;" x1="486.1245" x2="604.4766" y1="267.3594" y2="267.3594"/><text fill="#000000" font-family="sans-serif" font-size="13" lengthAdjust="spacing" textLength="41.3486" x="493.1245" y="262.2935">failure</text><polygon fill="#181818" points="321.896,292.4922,311.896,296.4922,321.896,300.4922,317.896,296.4922" style="stroke:#181818;stroke-width:1.0;"/><line style="stroke:#181818;stroke-width:1.0;" x1="315.896" x2="485.1245" y1="296.4922" y2="296.4922"/><text fill="#000000" font-family="sans-serif" font-size="13" lengthAdjust="spacing" textLength="50.8511" x="327.896" y="291.4263">success</text><polygon fill="#181818" points="497.1245,321.625,487.1245,325.625,497.1245,329.625,493.1245,325.625" style="stroke:#181818;stroke-width:1.0;"/><line style="stroke:#181818;stroke-width:1.0;" x1="491.1245" x2="609.4766" y1="325.625" y2="325.625"/><text fill="#000000" font-family="sans-serif" font-size="13" lengthAdjust="spacing" textLength="32.4429" x="503.1245" y="320.5591">open</text><polygon fill="#181818" points="598.4766,350.7578,608.4766,354.7578,598.4766,358.7578,602.4766,354.7578" style="stroke:#181818;stroke-width:1.0;"/><line style="stroke:#181818;stroke-width:1.0;" x1="486.1245" x2="604.4766" y1="354.7578" y2="354.7578"/><text fill="#000000" font-family="sans-serif" font-size="13" lengthAdjust="spacing" textLength="50.8511" x="493.1245" y="349.6919">success</text><path d="M620.4766,367.7578 L620.4766,422.7578 L837.4766,422.7578 L837.4766,377.7578 L827.4766,367.7578 L620.4766,367.7578 " fill="#FEFFDD" style="stroke:#181818;stroke-width:0.5;"/><path d="M827.4766,367.7578 L827.4766,377.7578 L837.4766,377.7578 L827.4766,367.7578 " fill="#FEFFDD" style="stroke:#181818;stroke-width:0.5;"/><text fill="#000000" font-family="sans-serif" font-size="13" lengthAdjust="spacing" textLength="162.2778" x="626.4766" y="384.8247">Up to three attempts are</text><text fill="#000000" font-family="sans-serif" font-size="13" lengthAdjust="spacing" textLength="196.5742" x="626.4766" y="399.9575">made to receive any message</text><text fill="#000000" font-family="sans-serif" font-size="13" lengthAdjust="spacing" textLength="181.8984" x="626.4766" y="415.0903">after last successful receive</text><polygon fill="#181818" points="497.1245,445.2891,487.1245,449.2891,497.1245,453.2891,493.1245,449.2891" style="stroke:#181818;stroke-width:1.0;"/><line style="stroke:#181818;stroke-width:1.0;" x1="491.1245" x2="609.4766" y1="449.2891" y2="449.2891"/><text fill="#000000" font-family="sans-serif" font-size="13" lengthAdjust="spacing" textLength="47.7915" x="503.1245" y="444.2231">receive</text><polygon fill="#181818" points="598.4766,474.4219,608.4766,478.4219,598.4766,482.4219,602.4766,478.4219" style="stroke:#181818;stroke-width:1.0;"/><line style="stroke:#181818;stroke-width:1.0;" x1="486.1245" x2="604.4766" y1="478.4219" y2="478.4219"/><text fill="#000000" font-family="sans-serif" font-size="13" lengthAdjust="spacing" textLength="41.3486" x="493.1245" y="473.356">failure</text><path d="M10,491.4219 L10,531.4219 L300,531.4219 L300,501.4219 L290,491.4219 L10,491.4219 " fill="#FEFFDD" style="stroke:#181818;stroke-width:0.5;"/><path d="M290,491.4219 L290,501.4219 L300,501.4219 L290,491.4219 " fill="#FEFFDD" style="stroke:#181818;stroke-width:0.5;"/><text fill="#000000" font-family="sans-serif" font-size="13" lengthAdjust="spacing" textLength="264.6465" x="16" y="508.4888">Attempt to send one heartbeat message</text><text fill="#000000" font-family="sans-serif" font-size="13" lengthAdjust="spacing" textLength="269.896" x="16" y="523.6216">to check if connection can be established</text><polygon fill="#181818" points="474.1245,553.8203,484.1245,557.8203,474.1245,561.8203,478.1245,557.8203" style="stroke:#181818;stroke-width:1.0;"/><line style="stroke:#181818;stroke-width:1.0;" x1="310.896" x2="480.1245" y1="557.8203" y2="557.8203"/><text fill="#000000" font-family="sans-serif" font-size="13" lengthAdjust="spacing" textLength="105.3647" x="317.896" y="552.7544">send(heartbeat)</text><polygon fill="#181818" points="497.1245,582.9531,487.1245,586.9531,497.1245,590.9531,493.1245,586.9531" style="stroke:#181818;stroke-width:1.0;"/><line style="stroke:#181818;stroke-width:1.0;" x1="491.1245" x2="609.4766" y1="586.9531" y2="586.9531"/><text fill="#000000" font-family="sans-serif" font-size="13" lengthAdjust="spacing" textLength="47.7915" x="503.1245" y="581.8872">receive</text><polygon fill="#181818" points="598.4766,612.0859,608.4766,616.0859,598.4766,620.0859,602.4766,616.0859" style="stroke:#181818;stroke-width:1.0;"/><line style="stroke:#181818;stroke-width:1.0;" x1="486.1245" x2="604.4766" y1="616.0859" y2="616.0859"/><text fill="#000000" font-family="sans-serif" font-size="13" lengthAdjust="spacing" textLength="50.8511" x="493.1245" y="611.02">success</text><polygon fill="#181818" points="321.896,641.2188,311.896,645.2188,321.896,649.2188,317.896,645.2188" style="stroke:#181818;stroke-width:1.0;"/><line style="stroke:#181818;stroke-width:1.0;" x1="315.896" x2="485.1245" y1="645.2188" y2="645.2188"/><text fill="#000000" font-family="sans-serif" font-size="13" lengthAdjust="spacing" textLength="50.8511" x="327.896" y="640.1528">success</text><rect fill="#EEEEEE" height="3" style="stroke:#EEEEEE;stroke-width:1.0;" width="839.2695" x="5" y="673.7852"/><line style="stroke:#000000;stroke-width:1.0;" x1="5" x2="844.2695" y1="673.7852" y2="673.7852"/><line style="stroke:#000000;stroke-width:1.0;" x1="5" x2="844.2695" y1="676.7852" y2="676.7852"/><rect fill="#EEEEEE" height="23.1328" style="stroke:#000000;stroke-width:2.0;" width="132.3901" x="358.4397" y="663.2188"/><text fill="#000000" font-family="sans-serif" font-size="13" font-weight="bold" lengthAdjust="spacing" textLength="113.8643" x="364.4397" y="679.2856">Communication</text><line style="stroke:#181818;stroke-width:1.0;" x1="305.896" x2="352.896" y1="717.4844" y2="717.4844"/><line style="stroke:#181818;stroke-width:1.0;" x1="352.896" x2="352.896" y1="717.4844" y2="730.4844"/><line style="stroke:#181818;stroke-width:1.0;" x1="311.896" x2="352.896" y1="730.4844" y2="730.4844"/><polygon fill="#181818" points="321.896,726.4844,311.896,730.4844,321.896,734.4844,317.896,730.4844" style="stroke:#181818;stroke-width:1.0;"/><text fill="#000000" font-family="sans-serif" font-size="13" lengthAdjust="spacing" textLength="145.3994" x="317.896" y="712.4185">start heartbeat thread</text><polygon fill="#181818" points="497.1245,755.6172,487.1245,759.6172,497.1245,763.6172,493.1245,759.6172" style="stroke:#181818;stroke-width:1.0;"/><line style="stroke:#181818;stroke-width:1.0;" x1="491.1245" x2="609.4766" y1="759.6172" y2="759.6172"/><text fill="#000000" font-family="sans-serif" font-size="13" lengthAdjust="spacing" textLength="47.7915" x="503.1245" y="754.5513">receive</text><polygon fill="#181818" points="598.4766,784.75,608.4766,788.75,598.4766,792.75,602.4766,788.75" style="stroke:#181818;stroke-width:1.0;"/><line style="stroke:#181818;stroke-width:1.0;" x1="486.1245" x2="604.4766" y1="788.75" y2="788.75"/><text fill="#000000" font-family="sans-serif" font-size="13" lengthAdjust="spacing" textLength="41.3486" x="493.1245" y="783.6841">failure</text><line style="stroke:#181818;stroke-width:1.0;" x1="305.896" x2="352.896" y1="817.8828" y2="817.8828"/><line style="stroke:#181818;stroke-width:1.0;" x1="352.896" x2="352.896" y1="817.8828" y2="830.8828"/><line style="stroke:#181818;stroke-width:1.0;" x1="311.896" x2="352.896" y1="830.8828" y2="830.8828"/><polygon fill="#181818" points="321.896,826.8828,311.896,830.8828,321.896,834.8828,317.896,830.8828" style="stroke:#181818;stroke-width:1.0;"/><text fill="#000000" font-family="sans-serif" font-size="13" lengthAdjust="spacing" textLength="113.9214" x="317.896" y="812.8169">start main thread</text><polygon fill="#181818" points="497.1245,856.0156,487.1245,860.0156,497.1245,864.0156,493.1245,860.0156" style="stroke:#181818;stroke-width:1.0;"/><line style="stroke:#181818;stroke-width:1.0;" x1="491.1245" x2="609.4766" y1="860.0156" y2="860.0156"/><text fill="#000000" font-family="sans-serif" font-size="13" lengthAdjust="spacing" textLength="47.7915" x="503.1245" y="854.9497">receive</text><polygon fill="#181818" points="598.4766,885.1484,608.4766,889.1484,598.4766,893.1484,602.4766,889.1484" style="stroke:#181818;stroke-width:1.0;"/><line style="stroke:#181818;stroke-width:1.0;" x1="486.1245" x2="604.4766" y1="889.1484" y2="889.1484"/><text fill="#000000" font-family="sans-serif" font-size="13" lengthAdjust="spacing" textLength="41.3486" x="493.1245" y="884.0825">failure</text><line style="stroke:#181818;stroke-width:1.0;" x1="305.896" x2="352.896" y1="918.2813" y2="918.2813"/><line style="stroke:#181818;stroke-width:1.0;" x1="352.896" x2="352.896" y1="918.2813" y2="931.2813"/><line style="stroke:#181818;stroke-width:1.0;" x1="311.896" x2="352.896" y1="931.2813" y2="931.2813"/><polygon fill="#181818" points="321.896,927.2813,311.896,931.2813,321.896,935.2813,317.896,931.2813" style="stroke:#181818;stroke-width:1.0;"/><text fill="#000000" font-family="sans-serif" font-size="13" lengthAdjust="spacing" textLength="114.8291" x="317.896" y="913.2153">queue(heartbeat)</text><polygon fill="#181818" points="474.1245,956.4141,484.1245,960.4141,474.1245,964.4141,478.1245,960.4141" style="stroke:#181818;stroke-width:1.0;"/><line style="stroke:#181818;stroke-width:1.0;" x1="310.896" x2="480.1245" y1="960.4141" y2="960.4141"/><text fill="#000000" font-family="sans-serif" font-size="13" lengthAdjust="spacing" textLength="105.3647" x="317.896" y="955.3481">send(heartbeat)</text><polygon fill="#181818" points="497.1245,985.5469,487.1245,989.5469,497.1245,993.5469,493.1245,989.5469" style="stroke:#181818;stroke-width:1.0;"/><line style="stroke:#181818;stroke-width:1.0;" x1="491.1245" x2="609.4766" y1="989.5469" y2="989.5469"/><text fill="#000000" font-family="sans-serif" font-size="13" lengthAdjust="spacing" textLength="47.7915" x="503.1245" y="984.481">receive</text><polygon fill="#181818" points="598.4766,1014.6797,608.4766,1018.6797,598.4766,1022.6797,602.4766,1018.6797" style="stroke:#181818;stroke-width:1.0;"/><line style="stroke:#181818;stroke-width:1.0;" x1="486.1245" x2="604.4766" y1="1018.6797" y2="1018.6797"/><text fill="#000000" font-family="sans-serif" font-size="13" lengthAdjust="spacing" textLength="50.8511" x="493.1245" y="1013.6138">success</text><polygon fill="#181818" points="321.896,1043.8125,311.896,1047.8125,321.896,1051.8125,317.896,1047.8125" style="stroke:#181818;stroke-width:1.0;"/><line style="stroke:#181818;stroke-width:1.0;" x1="315.896" x2="485.1245" y1="1047.8125" y2="1047.8125"/><text fill="#000000" font-family="sans-serif" font-size="13" lengthAdjust="spacing" textLength="50.8511" x="327.896" y="1042.7466">success</text><path d="M107.3096,1060.8125 L107.3096,1085.8125 L300.3096,1085.8125 L300.3096,1070.8125 L290.3096,1060.8125 L107.3096,1060.8125 " fill="#FEFFDD" style="stroke:#181818;stroke-width:0.5;"/><path d="M290.3096,1060.8125 L290.3096,1070.8125 L300.3096,1070.8125 L290.3096,1060.8125 " fill="#FEFFDD" style="stroke:#181818;stroke-width:0.5;"/><text fill="#000000" font-family="sans-serif" font-size="13" lengthAdjust="spacing" textLength="172.5864" x="113.3096" y="1077.8794">Each external call is async</text><ellipse cx="10.5" cy="1111.3281" fill="none" rx="4" ry="4" style="stroke:#181818;stroke-width:1.5;"/><polygon fill="#181818" points="288.896,1108.0781,298.896,1112.0781,288.896,1116.0781,292.896,1112.0781" style="stroke:#181818;stroke-width:1.0;"/><line style="stroke:#181818;stroke-width:1.0;" x1="15" x2="294.896" y1="1112.0781" y2="1112.0781"/><text fill="#000000" font-family="sans-serif" font-size="13" lengthAdjust="spacing" textLength="94.3325" x="200.5635" y="1107.0122">create contact</text><line style="stroke:#181818;stroke-width:1.0;" x1="310.896" x2="352.896" y1="1141.2109" y2="1141.2109"/><line style="stroke:#181818;stroke-width:1.0;" x1="352.896" x2="352.896" y1="1141.2109" y2="1154.2109"/><line style="stroke:#181818;stroke-width:1.0;" x1="305.896" x2="352.896" y1="1154.2109" y2="1154.2109"/><polygon fill="#181818" points="315.896,1150.2109,305.896,1154.2109,315.896,1158.2109,311.896,1154.2109" style="stroke:#181818;stroke-width:1.0;"/><text fill="#000000" font-family="sans-serif" font-size="13" lengthAdjust="spacing" textLength="145.2026" x="317.896" y="1136.145">queue(create contact)</text><ellipse cx="10.5" cy="1182.5938" fill="none" rx="4" ry="4" style="stroke:#181818;stroke-width:1.5;"/><polygon fill="#181818" points="288.896,1179.3438,298.896,1183.3438,288.896,1187.3438,292.896,1183.3438" style="stroke:#181818;stroke-width:1.0;"/><line style="stroke:#181818;stroke-width:1.0;" x1="15" x2="294.896" y1="1183.3438" y2="1183.3438"/><text fill="#000000" font-family="sans-serif" font-size="13" lengthAdjust="spacing" textLength="105.3584" x="189.5376" y="1178.2778">activate contact</text><line style="stroke:#181818;stroke-width:1.0;" x1="310.896" x2="352.896" y1="1212.4766" y2="1212.4766"/><line style="stroke:#181818;stroke-width:1.0;" x1="352.896" x2="352.896" y1="1212.4766" y2="1225.4766"/><line style="stroke:#181818;stroke-width:1.0;" x1="305.896" x2="352.896" y1="1225.4766" y2="1225.4766"/><polygon fill="#181818" points="315.896,1221.4766,305.896,1225.4766,315.896,1229.4766,311.896,1225.4766" style="stroke:#181818;stroke-width:1.0;"/><text fill="#000000" font-family="sans-serif" font-size="13" lengthAdjust="spacing" textLength="156.2285" x="317.896" y="1207.4106">queue(activate contact)</text><path d="M99.8511,1238.4766 L99.8511,1293.4766 L300.8511,1293.4766 L300.8511,1248.4766 L290.8511,1238.4766 L99.8511,1238.4766 " fill="#FEFFDD" style="stroke:#181818;stroke-width:0.5;"/><path d="M290.8511,1238.4766 L290.8511,1248.4766 L300.8511,1248.4766 L290.8511,1238.4766 " fill="#FEFFDD" style="stroke:#181818;stroke-width:0.5;"/><text fill="#000000" font-family="sans-serif" font-size="13" lengthAdjust="spacing" textLength="162.2778" x="105.8511" y="1255.5435">Up to three attempts are</text><text fill="#000000" font-family="sans-serif" font-size="13" lengthAdjust="spacing" textLength="180.0449" x="105.8511" y="1270.6763">made to send any message</text><text fill="#000000" font-family="sans-serif" font-size="13" lengthAdjust="spacing" textLength="165.3691" x="105.8511" y="1285.8091">after last successful send</text><polygon fill="#181818" points="474.1245,1316.0078,484.1245,1320.0078,474.1245,1324.0078,478.1245,1320.0078" style="stroke:#181818;stroke-width:1.0;"/><line style="stroke:#181818;stroke-width:1.0;" x1="310.896" x2="480.1245" y1="1320.0078" y2="1320.0078"/><text fill="#000000" font-family="sans-serif" font-size="13" lengthAdjust="spacing" textLength="135.7383" x="317.896" y="1314.9419">send(create contact)</text><polygon fill="#181818" points="497.1245,1345.1406,487.1245,1349.1406,497.1245,1353.1406,493.1245,1349.1406" style="stroke:#181818;stroke-width:1.0;"/><line style="stroke:#181818;stroke-width:1.0;" x1="491.1245" x2="609.4766" y1="1349.1406" y2="1349.1406"/><text fill="#000000" font-family="sans-serif" font-size="13" lengthAdjust="spacing" textLength="47.7915" x="503.1245" y="1344.0747">receive</text><line style="stroke:#181818;stroke-width:1.0;" x1="310.896" x2="357.896" y1="1378.2734" y2="1378.2734"/><line style="stroke:#181818;stroke-width:1.0;" x1="357.896" x2="357.896" y1="1378.2734" y2="1391.2734"/><line style="stroke:#181818;stroke-width:1.0;" x1="316.896" x2="357.896" y1="1391.2734" y2="1391.2734"/><polygon fill="#181818" points="326.896,1387.2734,316.896,1391.2734,326.896,1395.2734,322.896,1391.2734" style="stroke:#181818;stroke-width:1.0;"/><text fill="#000000" font-family="sans-serif" font-size="13" lengthAdjust="spacing" textLength="114.8291" x="322.896" y="1373.2075">queue(heartbeat)</text><polygon fill="#181818" points="598.4766,1416.4063,608.4766,1420.4063,598.4766,1424.4063,602.4766,1420.4063" style="stroke:#181818;stroke-width:1.0;"/><line style="stroke:#181818;stroke-width:1.0;" x1="486.1245" x2="604.4766" y1="1420.4063" y2="1420.4063"/><text fill="#000000" font-family="sans-serif" font-size="13" lengthAdjust="spacing" textLength="50.8511" x="493.1245" y="1415.3403">success</text><line style="stroke:#181818;stroke-width:1.0;" x1="615.4766" x2="657.4766" y1="1449.5391" y2="1449.5391"/><line style="stroke:#181818;stroke-width:1.0;" x1="657.4766" x2="657.4766" y1="1449.5391" y2="1462.5391"/><line style="stroke:#181818;stroke-width:1.0;" x1="616.4766" x2="657.4766" y1="1462.5391" y2="1462.5391"/><polygon fill="#181818" points="626.4766,1458.5391,616.4766,1462.5391,626.4766,1466.5391,622.4766,1462.5391" style="stroke:#181818;stroke-width:1.0;"/><text fill="#000000" font-family="sans-serif" font-size="13" lengthAdjust="spacing" textLength="94.3325" x="622.4766" y="1444.4731">create contact</text><polygon fill="#181818" points="321.896,1487.6719,311.896,1491.6719,321.896,1495.6719,317.896,1491.6719" style="stroke:#181818;stroke-width:1.0;"/><line style="stroke:#181818;stroke-width:1.0;" x1="315.896" x2="485.1245" y1="1491.6719" y2="1491.6719"/><text fill="#000000" font-family="sans-serif" font-size="13" lengthAdjust="spacing" textLength="50.8511" x="327.896" y="1486.606">success</text><polygon fill="#181818" points="474.1245,1516.8047,484.1245,1520.8047,474.1245,1524.8047,478.1245,1520.8047" style="stroke:#181818;stroke-width:1.0;"/><line style="stroke:#181818;stroke-width:1.0;" x1="310.896" x2="480.1245" y1="1520.8047" y2="1520.8047"/><text fill="#000000" font-family="sans-serif" font-size="13" lengthAdjust="spacing" textLength="146.7642" x="317.896" y="1515.7388">send(activate contact)</text><polygon fill="#181818" points="497.1245,1545.9375,487.1245,1549.9375,497.1245,1553.9375,493.1245,1549.9375" style="stroke:#181818;stroke-width:1.0;"/><line style="stroke:#181818;stroke-width:1.0;" x1="491.1245" x2="609.4766" y1="1549.9375" y2="1549.9375"/><text fill="#000000" font-family="sans-serif" font-size="13" lengthAdjust="spacing" textLength="47.7915" x="503.1245" y="1544.8716">receive</text><polygon fill="#181818" points="598.4766,1575.0703,608.4766,1579.0703,598.4766,1583.0703,602.4766,1579.0703" style="stroke:#181818;stroke-width:1.0;"/><line style="stroke:#181818;stroke-width:1.0;" x1="486.1245" x2="604.4766" y1="1579.0703" y2="1579.0703"/><text fill="#000000" font-family="sans-serif" font-size="13" lengthAdjust="spacing" textLength="50.8511" x="493.1245" y="1574.0044">success</text><line style="stroke:#181818;stroke-width:1.0;" x1="615.4766" x2="657.4766" y1="1608.2031" y2="1608.2031"/><line style="stroke:#181818;stroke-width:1.0;" x1="657.4766" x2="657.4766" y1="1608.2031" y2="1621.2031"/><line style="stroke:#181818;stroke-width:1.0;" x1="616.4766" x2="657.4766" y1="1621.2031" y2="1621.2031"/><polygon fill="#181818" points="626.4766,1617.2031,616.4766,1621.2031,626.4766,1625.2031,622.4766,1621.2031" style="stroke:#181818;stroke-width:1.0;"/><text fill="#000000" font-family="sans-serif" font-size="13" lengthAdjust="spacing" textLength="105.3584" x="622.4766" y="1603.1372">activate contact</text><polygon fill="#181818" points="321.896,1646.3359,311.896,1650.3359,321.896,1654.3359,317.896,1650.3359" style="stroke:#181818;stroke-width:1.0;"/><line style="stroke:#181818;stroke-width:1.0;" x1="315.896" x2="485.1245" y1="1650.3359" y2="1650.3359"/><text fill="#000000" font-family="sans-serif" font-size="13" lengthAdjust="spacing" textLength="50.8511" x="327.896" y="1645.27">success</text><ellipse cx="10.5" cy="1678.7188" fill="none" rx="4" ry="4" style="stroke:#181818;stroke-width:1.5;"/><polygon fill="#181818" points="293.896,1675.4688,303.896,1679.4688,293.896,1683.4688,297.896,1679.4688" style="stroke:#181818;stroke-width:1.0;"/><line style="stroke:#181818;stroke-width:1.0;" x1="15" x2="299.896" y1="1679.4688" y2="1679.4688"/><text fill="#000000" font-family="sans-serif" font-size="13" lengthAdjust="spacing" textLength="28.0757" x="266.8203" y="1674.4028">stop</text><polygon fill="#181818" points="474.1245,1704.6016,484.1245,1708.6016,474.1245,1712.6016,478.1245,1708.6016" style="stroke:#181818;stroke-width:1.0;"/><line style="stroke:#181818;stroke-width:1.0;" x1="310.896" x2="480.1245" y1="1708.6016" y2="1708.6016"/><text fill="#000000" font-family="sans-serif" font-size="13" lengthAdjust="spacing" textLength="105.3647" x="317.896" y="1703.5356">send(heartbeat)</text><polygon fill="#181818" points="497.1245,1733.7344,487.1245,1737.7344,497.1245,1741.7344,493.1245,1737.7344" style="stroke:#181818;stroke-width:1.0;"/><line style="stroke:#181818;stroke-width:1.0;" x1="491.1245" x2="609.4766" y1="1737.7344" y2="1737.7344"/><text fill="#000000" font-family="sans-serif" font-size="13" lengthAdjust="spacing" textLength="47.7915" x="503.1245" y="1732.6685">receive</text><polygon fill="#181818" points="598.4766,1762.8672,608.4766,1766.8672,598.4766,1770.8672,602.4766,1766.8672" style="stroke:#181818;stroke-width:1.0;"/><line style="stroke:#181818;stroke-width:1.0;" x1="486.1245" x2="604.4766" y1="1766.8672" y2="1766.8672"/><text fill="#000000" font-family="sans-serif" font-size="13" lengthAdjust="spacing" textLength="50.8511" x="493.1245" y="1761.8013">success</text><polygon fill="#181818" points="321.896,1792,311.896,1796,321.896,1800,317.896,1796" style="stroke:#181818;stroke-width:1.0;"/><line style="stroke:#181818;stroke-width:1.0;" x1="315.896" x2="485.1245" y1="1796" y2="1796"/><text fill="#000000" font-family="sans-serif" font-size="13" lengthAdjust="spacing" textLength="50.8511" x="327.896" y="1790.9341">success</text><polygon fill="#181818" points="474.1245,1821.1328,484.1245,1825.1328,474.1245,1829.1328,478.1245,1825.1328" style="stroke:#181818;stroke-width:1.0;"/><line style="stroke:#181818;stroke-width:1.0;" x1="310.896" x2="480.1245" y1="1825.1328" y2="1825.1328"/><text fill="#000000" font-family="sans-serif" font-size="13" lengthAdjust="spacing" textLength="97.7603" x="317.896" y="1820.0669">send(goodbye)</text><polygon fill="#181818" points="497.1245,1850.2656,487.1245,1854.2656,497.1245,1858.2656,493.1245,1854.2656" style="stroke:#181818;stroke-width:1.0;"/><line style="stroke:#181818;stroke-width:1.0;" x1="491.1245" x2="609.4766" y1="1854.2656" y2="1854.2656"/><text fill="#000000" font-family="sans-serif" font-size="13" lengthAdjust="spacing" textLength="47.7915" x="503.1245" y="1849.1997">receive</text><polygon fill="#181818" points="598.4766,1879.3984,608.4766,1883.3984,598.4766,1887.3984,602.4766,1883.3984" style="stroke:#181818;stroke-width:1.0;"/><line style="stroke:#181818;stroke-width:1.0;" x1="486.1245" x2="604.4766" y1="1883.3984" y2="1883.3984"/><text fill="#000000" font-family="sans-serif" font-size="13" lengthAdjust="spacing" textLength="50.8511" x="493.1245" y="1878.3325">success</text><polygon fill="#181818" points="321.896,1908.5313,311.896,1912.5313,321.896,1916.5313,317.896,1912.5313" style="stroke:#181818;stroke-width:1.0;"/><line style="stroke:#181818;stroke-width:1.0;" x1="315.896" x2="485.1245" y1="1912.5313" y2="1912.5313"/><text fill="#000000" font-family="sans-serif" font-size="13" lengthAdjust="spacing" textLength="50.8511" x="327.896" y="1907.4653">success</text><line style="stroke:#181818;stroke-width:1.0;" x1="615.4766" x2="657.4766" y1="1941.6641" y2="1941.6641"/><line style="stroke:#181818;stroke-width:1.0;" x1="657.4766" x2="657.4766" y1="1941.6641" y2="1954.6641"/><line style="stroke:#181818;stroke-width:1.0;" x1="616.4766" x2="657.4766" y1="1954.6641" y2="1954.6641"/><polygon fill="#181818" points="626.4766,1950.6641,616.4766,1954.6641,626.4766,1958.6641,622.4766,1954.6641" style="stroke:#181818;stroke-width:1.0;"/><text fill="#000000" font-family="sans-serif" font-size="13" lengthAdjust="spacing" textLength="28.0757" x="622.4766" y="1936.5981">stop</text><line style="stroke:#181818;stroke-width:1.0;" x1="550.8005" x2="550.8005" y1="240.2266" y2="323.625"/><polygon fill="#181818" points="546.8005,250.2266,550.8005,240.2266,554.8005,250.2266,550.8005,246.2266" style="stroke:#181818;stroke-width:1.0;"/><polygon fill="#181818" points="546.8005,313.625,550.8005,323.625,554.8005,313.625,550.8005,317.625" style="stroke:#181818;stroke-width:1.0;"/><text fill="#000000" font-family="sans-serif" font-size="13" lengthAdjust="spacing" textLength="56.6528" x="554.8005" y="286.4263">1000 ms</text><line style="stroke:#181818;stroke-width:1.0;" x1="550.8005" x2="550.8005" y1="451.2891" y2="584.9531"/><polygon fill="#181818" points="546.8005,461.2891,550.8005,451.2891,554.8005,461.2891,550.8005,457.2891" style="stroke:#181818;stroke-width:1.0;"/><polygon fill="#181818" points="546.8005,574.9531,550.8005,584.9531,554.8005,574.9531,550.8005,578.9531" style="stroke:#181818;stroke-width:1.0;"/><text fill="#000000" font-family="sans-serif" font-size="13" lengthAdjust="spacing" textLength="56.6528" x="554.8005" y="522.6216">1000 ms</text><!--SRC=[tLPDRzGm4BtxLmpYGWz8uT3BYaM2gXKS40VQ4mSqwqms5euTRAUGLlntx7GJTXFoHRDjnHwTySnxR-QDzrbkS9iXED8tu4n1ZAtNy4499r2A6tH2ArYlcTAEG5BYG2TmUNccbKFkx7jKiIJ3FYbPWbO4w1nbkOCVGahO46GO4tCQk27q6Nmuw9mKs1GDnP1Hfat9o1-72goJ6Lw-yUMkd93sStNb8sMmQgTZ_eQu3YVT1CylBjxvtnq38xPfYmAxoi43JCHrWzxMy5c07xuEORvDXB7kQmZvjPUt1taVt0PdvqwLfmbRGO925eP60clwAx05vsGjYwbV9NPhYMiLps9nGFor3pnCie9NKHH1PiSf3K8SwvnB3UsrpjTescQ8KzLNLVgsMOjROfWuBuj4w-goII7ho4vNT-SJ9AapBDBR4RkztRdCKxG1SN1UIcZSnjkYOHfibnB_1Y81tnT5l78pHnMSITRXHWgRKZpVVw7gYwRYoHJ_rSCnNz5sA_P7hJbSRDeMjLLOfcSwomebUBDB-rJ-Imtd5TxhR1XrZ0VLZgBJqoWQHlMmipoJROP2JI6wrJAUpcH4ZubKfdFvNb11KnqohsVBENEUX4_ALoCByXnv2lJJRtg5qcyy_veB_pJOKl4_o-wBxe6m-tV1xpvCMMupv-AmmCamrrwOpPtZ0MsN687AHXip-cHNxzduUnt2_l7PQek_d4E6r-NZROvx-lQG_Tx5ba-MTVYiddRdzA6wUYnjE-PULjtUfMATpjaJU6sEglgZpUbMwtXJqdygrC0uLsCr9EHl]--></g></svg>